<?xml version="1.0" encoding="UTF-8"?><svg id="_레이어_2" xmlns="http://www.w3.org/2000/svg" xmlns:xlink="http://www.w3.org/1999/xlink" viewBox="0 0 185.15 220.57"><defs><style>.cls-1{fill:#e41a1a;}.cls-2{fill:#42489b;}.cls-3{fill:#fbe5e5;}.cls-4{fill:#f1f5fb;stroke:#2f5c9a;stroke-linecap:round;stroke-linejoin:round;stroke-width:1.5px;}.cls-5{fill:#bac7e5;}.cls-6{fill:#b0d8e0;}.cls-7{fill:#2898d6;}.cls-8{fill:#008a89;}.cls-9{fill:#e9d56b;}.cls-10{fill:#ee899c;}.cls-11{fill:#6ba2c8;}.cls-12{clip-path:url(#clippath);}.cls-13{fill:#fff3b3;}.cls-14{fill:#12519b;}</style><clipPath id="clippath"><path class="cls-14" d="M34.28,86.43c-.59-.28-1.02-.69-1.25-1.22-.4-.93-.1-2.07,.84-3.2,.87-1.05,2.21-1.99,3.77-2.66,3.38-1.44,6.64-1.12,7.42,.73h0c.79,1.85-1.24,4.42-4.62,5.86-1.56,.67-3.17,.98-4.53,.88-.64-.05-1.19-.18-1.64-.39Zm9.16-6.76c-1.17-.55-3.32-.39-5.44,.51-1.43,.61-2.65,1.47-3.44,2.41-.7,.85-.96,1.67-.71,2.27,.25,.6,1.03,.99,2.13,1.06,1.22,.09,2.68-.2,4.12-.81,2.81-1.2,4.71-3.34,4.14-4.68h0c-.14-.33-.42-.59-.81-.77Z"/></clipPath></defs><g><g><g><path class="cls-8" d="M44.56,211.33l-4.07-1.9c29.69-63.67,67.71-92.11,93.39-97.49l.92,4.4c-13.34,2.8-28.64,11.97-43.08,25.82-17.9,17.18-33.77,40.45-47.16,69.17Z"/><path class="cls-14" d="M44.92,212.32l-5.43-2.53,.32-.68c29.8-63.92,68.05-92.48,93.91-97.91l.73-.15,1.23,5.86-.73,.15c-13.21,2.77-28.38,11.87-42.71,25.63-17.83,17.11-33.65,40.31-47,68.95l-.32,.68Zm-3.44-3.25l2.71,1.27c13.37-28.49,29.18-51.61,47.01-68.72,14.27-13.7,29.41-22.85,42.71-25.85l-.61-2.93c-25.4,5.71-62.57,33.91-91.81,96.24Z"/></g><g><g><path class="cls-8" d="M116.27,121.57h0c-1.42-3.89,.57-8.2,4.46-9.62l20.91-10.29c3.89-1.42,9.05,2.89,10.47,6.78h0c1.42,3.89,.28,10.52-3.61,11.94l-22.61,5.65c-3.89,1.42-8.2-.57-9.62-4.46Z"/><path class="cls-14" d="M119.82,126.46c-1.99-.93-3.5-2.58-4.26-4.64-.76-2.07-.66-4.31,.26-6.31,.92-1.99,2.56-3.5,4.61-4.26l20.91-10.29h.04c2.02-.75,4.45-.22,6.85,1.48,2.07,1.47,3.82,3.67,4.58,5.74,.76,2.07,.84,4.88,.21,7.34-.73,2.85-2.25,4.82-4.27,5.56l-.08,.02-22.57,5.64c-2.06,.74-4.28,.64-6.27-.28h-.01Zm22.11-24.12l-20.91,10.29h-.04c-1.69,.63-3.04,1.88-3.8,3.51-.76,1.64-.84,3.47-.22,5.16h0c.62,1.69,1.86,3.04,3.49,3.8h.01c1.64,.76,3.47,.84,5.16,.22l.08-.02,22.57-5.64c3.47-1.31,4.38-7.56,3.13-10.97-.66-1.8-2.21-3.73-4.04-5.03-1.94-1.38-3.92-1.86-5.43-1.32Z"/></g><path class="cls-9" d="M169.49,102.08c16.08-5.89-22.84-45.65-17.9-18.29-4.95-27.36-33.04,3.55-12.92,14.22-20.12-10.66,1.43,48.21,9.91,27.07-8.48,21.14,32.94,26.6,19.05,2.51,13.89,24.09,17.93-31.41,1.86-25.52Z"/><path class="cls-14" d="M154.98,142.58c-.86-.4-1.69-.87-2.48-1.42-4.24-2.92-6.22-7.09-5.75-11.82-.87,.76-1.83,1.13-2.88,1.11-.67-.01-1.34-.18-1.99-.49-3.92-1.83-7.55-8.45-9.67-14.23-2.47-6.75-4.11-15.71-.6-18.77,.79-.69,1.77-1.03,2.92-1.01-3.41-3.3-4.59-7.76-3.24-12.74,1.73-6.38,7.18-11.4,12.13-11.18,1.92,.08,4.98,1.04,7.13,5.67,.41-2.73,1.75-3.74,3.04-4.05,2.67-.64,6.85,1.54,11.19,5.83,4.16,4.11,7.52,9.25,8.78,13.42,1.04,3.45,.69,6.21-.97,8.05,2.46,.33,4.51,2.21,5.94,5.52,1.73,4,2.48,10.1,1.96,15.92-.54,6.08-2.33,10.45-4.78,11.68-1.19,.6-2.87,.68-4.94-1.13,1.34,4.93-.37,7.63-1.79,8.93-3.11,2.87-8.97,3.06-14,.71Zm-6.08-18.17c.36,.17,.53,.59,.38,.96-3.33,8.31,1.73,12.95,4.06,14.56,4.82,3.32,11.51,3.71,14.62,.84,2.69-2.48,2.34-7.02-.98-12.79-.13-.22-.13-.48-.03-.69,.06-.13,.17-.25,.3-.33,.36-.21,.82-.08,1.02,.27,2.56,4.45,4.96,6.4,6.76,5.5,1.93-.97,3.48-5.08,3.96-10.48,.5-5.59-.21-11.41-1.84-15.19-1.73-4-4.22-5.44-7.41-4.27-.39,.14-.82-.06-.96-.45-.07-.19-.06-.4,.02-.57,.08-.17,.23-.31,.42-.39,3.19-1.17,4.16-3.87,2.9-8.05-1.19-3.95-4.41-8.85-8.4-12.79-3.85-3.81-7.7-5.94-9.79-5.44-1.95,.47-2.52,3.51-1.61,8.56,.03,.16,0,.31-.06,.45-.1,.21-.3,.38-.55,.42-.41,.07-.8-.2-.87-.6-1.18-6.55-3.85-10.24-7.51-10.4-4.22-.18-9.09,4.43-10.62,10.08-.74,2.73-1.62,9.55,6.3,13.74,.35,.19,.5,.62,.33,.98,0,.01-.01,.02-.02,.03-.19,.37-.65,.51-1.01,.31-2.64-1.4-4.57-1.6-5.74-.58-2.34,2.04-1.92,9.09,1.02,17.13,2.94,8.04,7.17,13.69,10.28,13.74,1.54,.02,2.89-1.37,4-4.15,0-.01,.01-.03,.02-.04,.17-.36,.59-.53,.96-.38,.01,0,.03,.01,.04,.02Z"/><path class="cls-13" d="M173.98,100.44c16.08-5.89-22.84-45.65-17.9-18.29-4.95-27.36-33.04,3.55-12.92,14.22-20.12-10.66,1.43,48.21,9.91,27.07-8.48,21.14,32.94,26.6,19.05,2.51,13.89,24.09,17.93-31.41,1.86-25.52Zm-16.01,5.86c-6.66-7.53-6.42-15.7,.25-8.39,.37-9.88,5.83-3.8,5.61,6.25,6.66,7.53,6.42,15.7-.25,8.39-.37,9.88-5.83,3.8-5.61-6.25Z"/><path class="cls-14" d="M159.47,140.93c-.86-.4-1.69-.87-2.48-1.42-4.24-2.92-6.22-7.09-5.75-11.82-.87,.76-1.83,1.13-2.88,1.11-.67-.01-1.34-.18-1.99-.49-3.92-1.83-7.55-8.45-9.67-14.23-2.47-6.75-4.11-15.71-.6-18.77,.79-.69,1.77-1.03,2.92-1.01-3.41-3.3-4.59-7.76-3.24-12.74,1.73-6.38,7.18-11.4,12.13-11.18,1.92,.08,4.97,1.04,7.13,5.67,.41-2.73,1.75-3.74,3.04-4.05,2.67-.64,6.85,1.54,11.19,5.83,4.16,4.11,7.52,9.25,8.78,13.42,1.04,3.45,.69,6.21-.97,8.05,2.46,.33,4.51,2.21,5.94,5.52,1.73,4,2.48,10.1,1.96,15.92-.54,6.08-2.33,10.45-4.78,11.68-1.19,.6-2.86,.68-4.94-1.13,1.34,4.93-.37,7.63-1.79,8.93-3.11,2.87-8.97,3.06-14,.71Zm-6.08-18.17c.36,.17,.53,.59,.38,.96-3.33,8.31,1.73,12.95,4.06,14.56,4.82,3.32,11.51,3.71,14.62,.84,2.69-2.48,2.34-7.02-.98-12.79-.13-.22-.13-.48-.03-.69,.06-.13,.17-.25,.3-.33,.36-.21,.82-.08,1.02,.27,2.56,4.45,4.96,6.4,6.76,5.5,1.93-.97,3.48-5.08,3.96-10.48,.5-5.59-.21-11.41-1.84-15.19-1.73-4-4.22-5.44-7.41-4.27-.39,.14-.82-.06-.96-.45-.07-.19-.06-.4,.02-.57,.08-.17,.23-.31,.42-.39,3.19-1.17,4.16-3.87,2.9-8.05-1.19-3.95-4.41-8.85-8.4-12.79-3.85-3.81-7.7-5.94-9.79-5.44-1.95,.47-2.52,3.51-1.61,8.56,.03,.16,0,.31-.06,.45-.1,.21-.3,.38-.55,.42-.41,.07-.8-.2-.87-.6-1.18-6.55-3.85-10.24-7.51-10.4-4.22-.18-9.09,4.43-10.62,10.08-.74,2.73-1.62,9.55,6.3,13.74,.35,.19,.5,.62,.33,.98,0,.01-.01,.02-.02,.03-.19,.37-.65,.51-1.01,.31-2.64-1.4-4.57-1.6-5.74-.58-2.34,2.04-1.92,9.09,1.02,17.13,2.94,8.04,7.17,13.69,10.28,13.74,1.54,.02,2.89-1.37,4-4.15,0-.01,.01-.03,.02-.04,.17-.36,.59-.53,.96-.38,.01,0,.03,.01,.04,.02Zm7.55-4.62c-2.13-.99-3.79-5.97-3.73-11.57-4.07-4.7-6.02-10.19-4.18-11.85,.72-.65,2.08-.83,4.56,1.48,.4-3.37,1.56-4.1,2.53-4.07,2.47,.07,4.53,5.53,4.46,11.75,4.07,4.7,6.02,10.19,4.18,11.85-.72,.65-2.08,.83-4.56-1.48-.4,3.37-1.56,4.1-2.53,4.07-.25,0-.49-.07-.73-.18Zm-6.17-22.17c-.44-.21-.68-.19-.74-.13-.71,.64,.27,5.19,4.5,9.96,.12,.14,.19,.32,.19,.51-.14,6.37,2.04,10.48,3,10.51,.19,0,.98-.74,1.11-4.31,.01-.3,.21-.57,.49-.67,.29-.1,.61-.03,.81,.2,2.4,2.64,3.49,2.7,3.63,2.57,.71-.64-.27-5.19-4.5-9.96-.12-.14-.19-.32-.19-.51,.14-6.37-2.04-10.48-3-10.51-.19,0-.98,.74-1.11,4.31-.01,.3-.21,.57-.49,.67-.29,.1-.61,.03-.81-.2-1.37-1.5-2.31-2.17-2.89-2.44Z"/></g></g><g><g><path class="cls-8" d="M36.27,211.74l5.43,2.53c29.8-63.92,27.1-111.58,14.64-134.87l-5.28,2.83c6.37,11.9,9.15,29.37,7.82,49.19-1.65,24.66-9.25,51.69-22.61,80.33Z"/><path class="cls-14" d="M42.06,215.26l-6.78-3.16,.32-.68c13.31-28.55,20.9-55.49,22.54-80.06,1.31-19.69-1.43-37.01-7.74-48.79l-.35-.66,6.6-3.53,.35,.66c12.55,23.45,15.3,71.38-14.62,135.54l-.32,.68Zm-4.8-3.89l4.07,1.9c29.08-62.72,26.72-109.58,14.69-132.86l-3.96,2.12c6.19,12,8.87,29.33,7.56,48.93-1.64,24.56-9.16,51.44-22.36,79.91Z"/></g><g><g><path class="cls-8" d="M57.53,89.34h0c4.04-1.91,5.76-6.74,3.85-10.78l-8.3-23.75c-1.91-4.04-9.15-4.62-13.19-2.71h0c-4.04,1.91-8.17,7.88-6.26,11.92l13.12,21.46c1.91,4.04,6.74,5.76,10.78,3.85Z"/><path class="cls-14" d="M50.32,90.04c-1.79-.84-3.31-2.27-4.23-4.19l-13.12-21.46-.02-.04c-.99-2.08-.66-4.73,.93-7.45,1.37-2.36,3.55-4.45,5.69-5.46,2.14-1.01,5.14-1.37,7.83-.94,3.11,.5,5.37,1.92,6.35,4.01l.03,.07,8.28,23.71c2.06,4.4,.17,9.66-4.22,11.74h0c-2.47,1.17-5.22,1.09-7.53,.02Zm-16.03-26.36l13.11,21.46,.02,.04c1.73,3.66,6.12,5.23,9.78,3.49,1.77-.84,3.11-2.32,3.77-4.17,.66-1.85,.56-3.84-.28-5.62l-.03-.07-8.28-23.71c-.77-1.58-2.67-2.72-5.22-3.13-2.41-.39-5.07-.08-6.95,.82-3.56,1.69-7.61,7.22-5.92,10.89Z"/></g><path class="cls-11" d="M13.46,64.56c-8.23,21.14,15.68,23.8,34.13,3.8,27.17-1.61,40.26-21.78,18.69-28.82,8.23-21.14-15.68-23.8-34.13-3.8-27.17,1.61-40.26,21.78-18.69,28.82Z"/><path class="cls-14" d="M16.48,81.56c-.37-.17-.72-.36-1.06-.57-4.53-2.83-5.59-8.63-2.94-15.97-7.36-2.6-11.18-7.09-10.49-12.39,.53-4.12,3.84-8.34,9.08-11.57,5.51-3.4,12.86-5.54,20.73-6.05,5.38-5.77,11.7-10.1,17.82-12.21,5.82-2.01,11.18-1.89,14.7,.31,4.53,2.83,5.59,8.63,2.94,15.97,7.36,2.6,11.18,7.09,10.49,12.39-.53,4.12-3.84,8.34-9.08,11.57-5.51,3.4-12.86,5.54-20.73,6.05-5.38,5.77-11.7,10.1-17.82,12.21-5.26,1.81-10.15,1.9-13.64,.27Zm-2.71-17.68c.16,.07,.29,.2,.36,.36,.09,.19,.1,.4,.02,.59-2.71,6.95-1.96,12.38,2.06,14.89,.29,.18,.6,.35,.92,.5,6.52,3.04,19.04-.58,29.91-12.36,.13-.14,.31-.23,.51-.24,16.79-.99,27.78-9.08,28.71-16.33,.6-4.69-3.12-8.71-10.21-11.03-.2-.06-.36-.21-.44-.39-.09-.19-.1-.4-.02-.59,2.71-6.95,1.96-12.38-2.06-14.89-6.2-3.87-19.42-.49-30.83,11.87-.13,.14-.31,.23-.51,.24-16.79,.99-27.78,9.08-28.71,16.33-.6,4.69,3.12,8.71,10.21,11.03,.03,0,.06,.02,.08,.03Z"/><path class="cls-6" d="M11.54,60.52c-8.23,21.14,15.68,23.8,34.13,3.8,27.17-1.61,40.26-21.78,18.69-28.82,8.23-21.14-15.68-23.8-34.13-3.8-27.17,1.61-40.26,21.78-18.69,28.82Z"/><path class="cls-14" d="M14.57,77.52c-.37-.17-.72-.36-1.06-.57-4.53-2.83-5.59-8.63-2.94-15.97C3.21,58.38-.6,53.89,.08,48.59c.53-4.12,3.84-8.34,9.08-11.57,5.51-3.4,12.86-5.54,20.73-6.05,5.38-5.77,11.7-10.1,17.82-12.21,5.82-2.01,11.17-1.89,14.7,.31,4.53,2.83,5.59,8.63,2.94,15.97,7.36,2.6,11.18,7.09,10.49,12.39-.53,4.12-3.84,8.34-9.08,11.57-5.51,3.4-12.86,5.54-20.73,6.05-5.38,5.77-11.7,10.1-17.82,12.21-5.26,1.81-10.15,1.9-13.64,.27Zm-2.71-17.68c.16,.07,.29,.2,.36,.36,.09,.19,.1,.4,.02,.59-2.71,6.95-1.96,12.38,2.06,14.89,.29,.18,.6,.35,.92,.5,6.52,3.04,19.04-.58,29.91-12.36,.13-.14,.31-.23,.51-.24,16.79-.99,27.78-9.08,28.71-16.33,.6-4.69-3.12-8.71-10.21-11.03-.2-.06-.36-.21-.44-.39-.09-.19-.1-.4-.02-.59,2.71-6.95,1.96-12.38-2.06-14.89-6.2-3.87-19.43-.49-30.83,11.87-.13,.14-.31,.23-.51,.24-16.79,.99-27.78,9.08-28.71,16.33-.6,4.69,3.12,8.71,10.21,11.03,.03,0,.06,.02,.08,.03Z"/><g><ellipse class="cls-13" cx="37.44" cy="46.93" rx="15" ry="5.73" transform="translate(-16.48 20.54) rotate(-25.34)"/><path class="cls-14" d="M24.95,55.3c-.81-.38-1.4-.92-1.74-1.63h0c-1.58-3.34,3.34-8.76,11.46-12.6,3.7-1.75,7.45-2.85,10.57-3.09,3.36-.26,5.64,.53,6.44,2.21,.8,1.68-.04,3.95-2.37,6.38-2.16,2.26-5.39,4.46-9.09,6.22-6.39,3.03-12.28,3.9-15.27,2.51Zm-.39-2.27c1.01,2.13,7.42,2,15.01-1.59,3.54-1.68,6.61-3.77,8.65-5.9,1.81-1.89,2.6-3.65,2.1-4.71-.5-1.05-2.36-1.56-4.97-1.36-2.94,.23-6.5,1.28-10.04,2.95-7.59,3.59-11.75,8.47-10.75,10.6h0Z"/></g></g></g><g><g><rect class="cls-8" x="-1.77" y="143.51" width="145.5" height="5.99" transform="translate(-91.8 148.93) rotate(-65)"/><path class="cls-14" d="M43.32,214.7l-6.78-3.16L98.66,78.31l6.78,3.16L43.32,214.7Zm-4.79-3.89l4.07,1.9L103.45,82.2l-4.07-1.9L38.52,210.82Z"/></g><g><g><path class="cls-8" d="M97.53,89.58h0c-4.9-2.29-7.02-8.11-4.74-13.01l9.86-28.79c2.29-4.9,11.04-5.66,15.94-3.37h0c4.9,2.29,9.95,9.48,7.66,14.38l-15.71,26.06c-2.29,4.9-8.11,7.02-13.01,4.74Z"/><path class="cls-14" d="M97.22,90.25c-5.26-2.45-7.54-8.71-5.12-13.97l9.86-28.79,.02-.04c2.58-5.54,11.91-6.08,16.93-3.74s10.61,9.83,8.02,15.37l-.04,.07-15.69,26.03c-2.47,5.24-8.74,7.51-13.99,5.06Zm6.14-42.2l-9.86,28.79-.02,.04c-2.11,4.52-.15,9.91,4.37,12.02s9.91,.15,12.02-4.37l.04-.07,15.69-26.03c2.07-4.52-2.93-11.3-7.31-13.35s-12.79-1.52-14.93,2.98Z"/></g><g><path class="cls-3" d="M128.17,23.87c9.75-20.91-40.08-26.5-21.36-2.39-18.72-24.11-44.55,3.51-11.07,11.84-33.48-8.32-15.86,31.7,7.55,17.15-23.41,14.55,24.39,36.84,20.49,9.55,3.91,27.28,45.89,15.06,17.99-5.24,27.9,20.3,32.45-17.24,1.95-16.09,30.5-1.15-5.81-35.74-15.56-14.82Z"/><path class="cls-14" d="M105.91,71.61c-4.01-1.87-7.49-4.86-9.02-8.29-.96-2.16-1.71-5.88,1.55-9.77-7.18,2.26-13.39-.21-17.22-3.82-4.41-4.17-5.98-9.82-3.83-13.75,1.08-1.98,3.8-4.7,10.54-4.57-7.76-3.66-9-8.32-9.13-10.48-.22-3.87,2.38-7.41,6.62-9,4.46-1.68,10.92-1.19,17.26,4.13-1.76-4.42-.43-7,.79-8.31,3.88-4.15,14.01-3.7,20.84,.91,4.23,2.86,6.23,6.73,5.82,11,3.01-3.06,7.25-4.01,12.17-2.61,7.92,2.26,14.77,9.74,14.09,15.38-.21,1.78-1.34,4.46-5.86,5.95,8.15,1.44,12.67,6.07,14.26,10.57,1.51,4.28,.47,8.54-2.64,10.86-1.73,1.29-6.1,3.33-13.89-.26,4.43,5.07,4.09,8.9,3.27,11.01-1.63,4.17-6.97,6.6-13,5.91-5.23-.6-11.11-3.78-14-10.73-.88,5-4.21,6.81-6.49,7.46-3.62,1.04-8.14,.29-12.15-1.58Zm-2.22-20.51c-5.43,3.37-7.31,7.39-5.43,11.61,2.74,6.18,12.89,10.91,19.38,9.04,4.44-1.28,6.31-5.3,5.4-11.62-.02-.15,0-.29,.06-.42,.1-.22,.31-.39,.57-.42,.41-.06,.79,.23,.85,.63,1.44,10.06,8.27,14.37,14.18,15.05,5.27,.61,10.07-1.48,11.43-4.96,1.59-4.07-1.62-9.4-8.8-14.62-.29-.21-.39-.6-.24-.92,.02-.04,.04-.08,.07-.12,.24-.33,.71-.41,1.05-.16,7.91,5.76,15.03,7.41,19.04,4.42,2.57-1.92,3.41-5.51,2.12-9.16-1.81-5.12-7.91-10.44-19.62-10-.41,.02-.76-.31-.78-.72,0-.12,.02-.24,.07-.34,.11-.25,.36-.42,.65-.43,6.81-.26,10.79-2.28,11.2-5.7,.59-4.9-5.85-11.71-13.01-13.76-3.42-.98-9.67-1.54-13.04,5.7-.17,.37-.62,.54-.99,.36s-.54-.62-.36-.99c3.38-7.24-1.07-11.66-4.02-13.66-6.17-4.17-15.53-4.73-18.91-1.13-2.35,2.51-1.35,6.86,2.83,12.25,.18,.23,.2,.53,.09,.78-.05,.1-.12,.2-.22,.27-.33,.25-.8,.19-1.05-.13-7.19-9.26-15.18-10.51-20.27-8.61-3.62,1.36-5.84,4.31-5.66,7.51,.29,4.99,6.13,9.38,15.63,11.74,.4,.1,.65,.51,.55,.91-.01,.05-.03,.09-.05,.14-.15,.32-.51,.5-.86,.41-8.62-2.14-14.76-1.17-16.86,2.66-1.79,3.28-.3,8.3,3.55,11.95,4.32,4.09,12.02,6.55,20.65,1.19,.35-.22,.81-.11,1.03,.24,.14,.22,.15,.49,.04,.71-.06,.13-.16,.24-.28,.32Z"/></g><path class="cls-10" d="M130.46,18.97c9.75-20.91-40.08-26.5-21.36-2.39-18.72-24.11-44.55,3.51-11.07,11.84-33.48-8.32-15.86,31.7,7.55,17.15-23.41,14.55,24.39,36.84,20.49,9.55,3.91,27.28,45.89,15.06,17.99-5.24,27.9,20.3,32.45-17.24,1.95-16.09,30.5-1.15-5.81-35.74-15.56-14.82Z"/><path class="cls-14" d="M108.19,66.71c-4.01-1.87-7.49-4.86-9.02-8.29-.96-2.17-1.71-5.88,1.55-9.77-7.18,2.26-13.39-.21-17.22-3.82-4.41-4.17-5.98-9.82-3.83-13.75,1.08-1.98,3.8-4.7,10.54-4.57-7.76-3.66-9-8.32-9.13-10.48-.22-3.87,2.38-7.41,6.62-9,4.46-1.68,10.92-1.19,17.26,4.13-1.76-4.42-.43-7,.79-8.31,3.88-4.15,14.01-3.71,20.84,.91,4.23,2.86,6.23,6.73,5.82,11,3.01-3.06,7.25-4.01,12.17-2.61,7.92,2.26,14.77,9.74,14.09,15.38-.21,1.78-1.34,4.46-5.86,5.95,8.15,1.44,12.67,6.07,14.26,10.57,1.51,4.28,.47,8.54-2.64,10.86-1.73,1.29-6.1,3.33-13.89-.26,4.43,5.07,4.09,8.9,3.27,11.01-1.63,4.17-6.97,6.6-13,5.91-5.23-.6-11.11-3.78-14-10.73-.88,5-4.21,6.81-6.49,7.46-3.62,1.04-8.14,.29-12.15-1.58Zm-2.22-20.51c-5.43,3.37-7.31,7.39-5.43,11.61,2.74,6.18,12.89,10.91,19.38,9.04,4.44-1.28,6.31-5.3,5.4-11.62-.02-.15,0-.29,.06-.42,.1-.22,.31-.39,.57-.42,.41-.06,.79,.23,.85,.63,1.44,10.06,8.27,14.37,14.18,15.05,5.27,.61,10.07-1.48,11.43-4.96,1.59-4.07-1.62-9.4-8.8-14.62-.29-.21-.39-.6-.24-.92,.02-.04,.04-.08,.07-.12,.24-.33,.71-.41,1.05-.16,7.91,5.76,15.03,7.41,19.04,4.42,2.57-1.92,3.41-5.51,2.12-9.16-1.81-5.12-7.91-10.44-19.62-10-.41,.02-.76-.31-.78-.72,0-.12,.02-.24,.07-.34,.11-.25,.36-.42,.65-.43,6.81-.26,10.79-2.28,11.2-5.7,.59-4.9-5.85-11.71-13.01-13.76-3.42-.98-9.67-1.54-13.04,5.7-.17,.37-.62,.54-.99,.36s-.54-.62-.36-.99c3.38-7.24-1.07-11.66-4.02-13.66-6.17-4.17-15.53-4.73-18.91-1.13-2.35,2.51-1.35,6.86,2.83,12.25,.18,.23,.2,.53,.09,.78-.05,.1-.12,.2-.22,.27-.33,.25-.8,.19-1.05-.13-7.19-9.26-15.18-10.51-20.27-8.61-3.62,1.36-5.84,4.31-5.66,7.51,.29,4.99,6.13,9.38,15.63,11.74,.4,.1,.65,.51,.55,.91-.01,.05-.03,.09-.05,.14-.15,.32-.51,.5-.86,.41-8.62-2.14-14.76-1.17-16.86,2.66-1.79,3.28-.3,8.3,3.55,11.95,4.32,4.09,12.02,6.55,20.65,1.19,.35-.22,.81-.11,1.03,.24,.14,.22,.15,.49,.04,.71-.06,.13-.16,.24-.28,.32Z"/><g><ellipse class="cls-1" cx="123.39" cy="34.12" rx="5.97" ry="12.42" transform="translate(40.32 131.53) rotate(-65)"/><path class="cls-14" d="M120.55,40.21c-6.69-3.12-10.69-8.24-9.1-11.65s8.08-3.64,14.77-.52,10.69,8.24,9.1,11.65-8.08,3.64-14.77,.52Zm5.04-10.82c-5.73-2.67-11.59-2.77-12.78-.2s2.64,6.99,8.37,9.66,11.59,2.77,12.78,.2-2.64-6.99-8.37-9.66Z"/></g></g></g><g><g><path class="cls-8" d="M41.42,210.96l-5.43-2.53c22.37-47.97,34.69-74.4,36.02-91.07l5.97,.47c-1.41,17.75-13.9,44.52-36.56,93.12Z"/><path class="cls-14" d="M41.78,211.96l-6.78-3.16,.32-.68c22.33-47.89,34.63-74.27,35.95-90.81l.06-.75,7.46,.59-.06,.75c-1.42,17.88-13.93,44.7-36.63,93.38l-.32,.68Zm-4.79-3.89l4.07,1.9c22.11-47.41,34.43-73.91,36.11-91.44l-4.48-.36c-1.63,16.76-13.82,42.98-35.7,89.9Z"/></g><g><g><path class="cls-8" d="M73.29,127.9h0c-5.35-.77-9.07-5.73-8.3-11.09l1.11-30.41c.77-5.35,8.93-8.61,14.28-7.84h0c5.35,.77,12.26,6.19,11.49,11.54l-7.5,29.49c-.77,5.35-5.73,9.07-11.09,8.3Z"/><path class="cls-14" d="M70.21,127.76c-1.55-.72-2.91-1.82-3.97-3.23-1.68-2.24-2.39-5-2-7.78l1.11-30.41v-.04c.39-2.71,2.46-5.11,5.84-6.78,2.93-1.45,6.49-2.1,9.3-1.69,2.81,.4,6.04,2.03,8.44,4.24,2.76,2.55,4.07,5.44,3.68,8.15l-.02,.08-7.49,29.46c-.41,2.77-1.87,5.22-4.11,6.9-2.25,1.69-5.03,2.4-7.82,2-1.04-.15-2.04-.45-2.97-.88Zm-3.37-41.29l-1.11,30.41v.04c-.35,2.39,.26,4.77,1.71,6.71s3.56,3.19,5.95,3.53h0c2.39,.34,4.77-.26,6.71-1.71,1.93-1.45,3.19-3.56,3.53-5.95l.02-.08,7.49-29.45c.67-4.93-6.08-9.97-10.86-10.66-2.52-.36-5.75,.23-8.42,1.55-2.86,1.41-4.68,3.46-5.01,5.61Z"/></g><g><path class="cls-3" d="M84,57.53c2.47-25.63-46.84-16.55-21.13,3.89-25.71-20.44-42.44,13.47-7.17,14.53-35.27-1.06-6.82,32.15,12.19,14.23-19.01,17.91,33.2,25.42,22.38,3.21,10.82,22.2,47.48-1.66,15.71-10.22,31.77,8.57,25.26-28.68-2.79-15.96,28.05-12.72-16.71-35.31-19.18-9.68Z"/><path class="cls-14" d="M69.33,105.71c-2.02-.94-3.73-2.18-4.87-3.66-1.18-1.54-2.45-4.32-.53-8.05-6.94,3.75-14.25,2.24-18.99-.68-5.02-3.1-7.63-7.75-6.49-11.56,.59-1.96,2.57-4.87,9.05-6.05-6.64-1.54-11.08-4.75-12.34-9.15-1.09-3.81,.53-7.82,4.13-10.23,3.84-2.57,10.22-3.41,17.91,.51-3.39-4.54-2.69-7.9-1.73-9.75,1.29-2.48,4.05-4.37,7.78-5.33,3.55-.91,7.58-.84,11.08,.19,5.59,1.66,9.12,5.33,10.17,10.4,1.84-4.27,5.47-6.84,10.45-7.23,7.85-.61,16.41,4.28,17.94,10.26,.53,2.04,.51,5.47-3.53,8.93,9.49-2.09,14.39,2.33,15.84,3.98,3.01,3.43,3.54,8.13,1.33,11.68-1.21,1.95-4.67,5.69-13.14,5.23,5.17,2.8,6.05,5.99,6,7.95-.11,4.31-4.68,8.42-10.89,9.77-5.1,1.11-11.49,.22-16.04-4.86,.4,4.21-2.02,6.52-3.83,7.64-4.93,3.05-13.44,2.74-19.31,0Zm-.93-14.97c-2.84,2.68-5.63,6.66-2.76,10.4,3.98,5.18,16.22,6.99,22.21,3.29,3.5-2.16,4.1-5.86,1.74-10.69-.1-.21-.1-.45,0-.64,.07-.15,.19-.28,.35-.36,.37-.18,.82-.03,1,.34,4.97,10.18,14.46,8.99,17.25,8.38,5.45-1.19,9.62-4.77,9.71-8.34,.09-3.81-4.21-7.08-12.12-9.21-.4-.11-.64-.52-.53-.92,.01-.04,.03-.08,.04-.12,.15-.32,.52-.5,.87-.41,9.14,2.47,16.28,1.24,19.1-3.27,1.86-2.99,1.39-6.97-1.18-9.9-1.58-1.8-7.72-7.22-20.59-1.39-.38,.17-.82,0-.99-.37-.09-.21-.09-.44,0-.63,.07-.16,.2-.29,.37-.36,6.55-2.97,9.59-6.8,8.57-10.77-1.35-5.25-9.31-9.69-16.38-9.14-3.49,.27-9.46,2.06-10.32,10.98,0,.09-.03,.17-.07,.25-.13,.28-.43,.46-.75,.43-.41-.04-.71-.41-.67-.82,.96-9.92-6.22-13.15-9.35-14.07-6.84-2.03-14.84,.03-17.11,4.39-1.87,3.59,.45,8.22,6.53,13.06,.28,.22,.36,.59,.21,.9-.02,.05-.06,.1-.09,.15-.26,.32-.73,.38-1.05,.12-9.74-7.74-17.89-7.37-22.27-4.44-3.05,2.04-4.44,5.4-3.53,8.57,1.54,5.36,8.69,8.75,19.12,9.07,.41,.01,.74,.36,.73,.77,0,.1-.03,.2-.07,.29-.12,.26-.39,.44-.7,.43-8.9-.27-14.65,1.73-15.78,5.49-.93,3.1,1.47,7.15,5.84,9.85,5.32,3.29,14.18,4.63,21.65-2.4,.3-.28,.77-.27,1.06,.03,.22,.23,.26,.56,.13,.83-.04,.08-.09,.16-.17,.23Z"/></g><path class="cls-10" d="M84.37,50.79c3.28-22.84-46.03-13.77-21.13,3.89-24.9-17.66-41.63,16.26-7.17,14.53-34.46,1.72-6,34.93,12.19,14.23-18.2,20.7,34.01,28.2,22.38,3.21,11.64,24.99,48.29,1.13,15.71-10.22,32.58,11.35,26.07-25.9-2.79-15.96,28.86-9.93-15.9-32.53-19.18-9.68Z"/><path class="cls-14" d="M70.71,101.14c-1.93-.9-3.62-2.09-4.87-3.53-1.55-1.79-3.34-5.13-1.35-9.8-6.22,4.24-12.88,3.68-17.59,1.32-5.42-2.72-8.57-7.67-7.65-12.06,.46-2.21,2.28-5.6,8.76-7.42-8.48-1.26-11.02-5.36-11.77-7.39-1.34-3.64,.13-7.78,3.74-10.53,3.79-2.9,10.11-4.3,17.72-1.04-2.96-3.72-2.44-6.58-1.65-8.18,2.52-5.09,12.34-7.6,20.21-5.16,4.88,1.51,7.91,4.63,8.75,8.84,1.99-3.8,5.78-5.94,10.89-6.02,8.24-.13,16.96,5.04,17.94,10.64,.31,1.76,0,4.65-3.89,7.39,8.22-.98,13.89,2.14,16.71,5.99,2.68,3.66,2.93,8.04,.62,11.16-1.28,1.74-4.88,4.96-13.37,3.78,5.71,3.57,6.5,7.34,6.32,9.59-.35,4.46-4.76,8.34-10.73,9.41-5.18,.94-11.73-.4-16.5-6.22,.6,5.04-2.06,7.73-4.05,9.02-4.72,3.05-12.54,2.87-18.25,.21Zm-1.89-17.19c-4.22,4.8-4.86,9.19-1.84,12.68,4.41,5.12,15.49,6.71,21.17,3.04,3.88-2.51,4.5-6.89,1.81-12.69-.1-.21-.09-.44,0-.63,.07-.15,.2-.28,.36-.36,.37-.17,.82-.01,.99,.36,4.29,9.21,12.08,11.36,17.93,10.3,5.22-.94,9.21-4.33,9.51-8.06,.34-4.35-4.27-8.53-12.66-11.45-.39-.14-.6-.56-.46-.95,0-.02,.02-.05,.03-.07,.16-.34,.56-.52,.92-.39,9.24,3.22,16.53,2.74,19.51-1.28,1.91-2.58,1.66-6.26-.62-9.38-3.21-4.38-10.59-7.7-21.67-3.89-.39,.13-.82-.07-.95-.46-.07-.19-.05-.39,.03-.56s.23-.32,.43-.39c6.44-2.22,9.67-5.31,9.07-8.7-.85-4.86-8.99-9.52-16.44-9.4-3.56,.05-9.7,1.33-10.83,9.23-.01,.07-.03,.14-.06,.21-.14,.29-.45,.47-.79,.43-.41-.06-.69-.44-.63-.85,1.14-7.91-4.4-10.86-7.8-11.91-7.11-2.21-16.24-.03-18.42,4.39-1.52,3.09,.7,6.96,6.26,10.9,.3,.21,.4,.61,.25,.93-.02,.04-.04,.08-.07,.12-.24,.34-.71,.42-1.04,.18-9.56-6.78-17.58-5.67-21.89-2.37-3.07,2.35-4.34,5.81-3.24,8.83,1.72,4.69,8.58,7.21,18.36,6.72,.41-.02,.76,.3,.78,.71,0,.13-.02,.25-.07,.35-.11,.24-.35,.42-.64,.43-8.87,.44-14.47,3.15-15.37,7.42-.77,3.66,2.11,8.04,6.85,10.41,5.33,2.66,13.4,2.79,20.11-4.84,.27-.31,.74-.34,1.06-.07,.26,.22,.32,.58,.18,.88-.03,.06-.07,.12-.12,.18Z"/><g><ellipse class="cls-1" cx="81.99" cy="67.34" rx="5.97" ry="12.42" transform="translate(3.67 138.92) rotate(-81.82)"/><path class="cls-14" d="M74.43,72.09c-3.64-1.7-5.83-4.16-5.47-6.63,.54-3.73,6.68-5.83,13.99-4.78,7.31,1.05,12.62,4.79,12.08,8.52h0c-.54,3.73-6.68,5.83-13.99,4.78-2.48-.36-4.74-1.02-6.61-1.9Zm14.54-8.12c-1.76-.82-3.91-1.46-6.24-1.8-6.26-.9-11.89,.71-12.3,3.51-.4,2.8,4.55,5.93,10.81,6.83,6.26,.9,11.89-.71,12.3-3.51,.25-1.76-1.6-3.64-4.57-5.03Z"/></g></g></g><g><g><path class="cls-8" d="M44.71,214.17l-5.43-2.53c10.37-22.23,22.74-40.25,36.77-53.56,14.21-13.47,26.02-18.18,31.79-19.78l1.6,5.77c-17.79,4.94-44.14,25.94-64.73,70.09Z"/><path class="cls-14" d="M45.07,215.17l-6.78-3.16,.32-.68c10.41-22.31,22.83-40.41,36.93-53.78,14.32-13.59,26.26-18.33,32.11-19.96l.72-.2,2,7.21-.72,.2c-17.63,4.89-43.77,25.77-64.25,69.69l-.32,.68Zm-4.79-3.89l4.07,1.9c20.37-43.33,46.33-64.3,64.17-69.61l-1.2-4.33c-5.93,1.77-17.24,6.57-30.76,19.39-13.82,13.11-26.03,30.82-36.29,52.65Z"/></g><g><g><path class="cls-8" d="M88.96,151.05h0c-2.61-4.74-.89-10.69,3.85-13.3l24.94-17.43c4.74-2.61,12.25,1.94,14.86,6.67h0c2.61,4.74,2.45,13.52-2.29,16.13l-28.06,11.78c-4.74,2.61-10.69,.89-13.3-3.85Z"/><path class="cls-14" d="M93.07,155.87c-1.95-.91-3.65-2.43-4.77-4.45h0c-2.8-5.08-.96-11.48,4.11-14.3l24.94-17.44,.03-.02c2.39-1.32,5.56-1.12,8.92,.57,2.92,1.46,5.58,3.92,6.95,6.4,2.68,4.85,2.77,14.19-2.58,17.15l-.07,.03-28.02,11.77c-3.05,1.67-6.58,1.66-9.52,.29Zm-3.45-5.18c2.41,4.37,7.92,5.96,12.29,3.55l.07-.03,28.02-11.77c4.34-2.43,4.3-10.86,1.96-15.09-1.23-2.23-3.65-4.45-6.31-5.78-2.85-1.42-5.58-1.65-7.5-.61l-24.94,17.43-.03,.02c-4.37,2.41-5.96,7.92-3.55,12.29h0Z"/></g><g><path class="cls-3" d="M152.17,115.99c20.76-11.03-16.19-44.92-15.84-14.53-.36-30.39-37.5-23.32-15.92,3.03-21.58-26.35-30.95,16.37-4.01,18.31-26.93-1.94-1.47,44.25,10.91,19.8-12.38,24.45,28.74,39.34,17.62,6.38,11.12,32.96,36.93,5.32,11.06-11.84,25.87,17.17,16.93-32.17-3.83-21.15Z"/><path class="cls-14" d="M134.19,167.54c-1.41-.66-2.79-1.57-4.08-2.71-4.02-3.58-7.09-9.68-5.44-17.13-3.49,3.46-7.1,3.04-9.26,2.29-3.36-1.17-6.61-4.25-8.93-8.43-2.32-4.18-3.22-8.61-2.49-12.14,.48-2.3,2-5.72,6.79-6.95-6.95-2.37-10.43-7.96-11.37-13.09-1.09-5.97,1.04-11.65,5.06-13.51,2-.93,5.71-1.48,10.89,2.52-3.97-7.51-2.15-11.99-.95-13.8,2.19-3.3,6.45-4.6,10.85-3.3,4.48,1.32,9.24,5.52,11.06,13.43,1.29-4.65,3.99-5.93,5.8-6.24,5.73-.99,13.65,5.4,16.29,13.15,1.62,4.75,.86,8.99-2.06,12.15,4.42-.69,8.56,1.14,11.78,5.34,2.3,3,3.88,6.96,4.36,10.87,.49,4.06-.3,7.54-2.18,9.55-1.25,1.34-3.82,2.88-8.51,1.38,5.87,5.99,6.89,12.41,5.56,16.98-1.25,4.31-4.56,7.14-8.44,7.23-2.21,.05-7.06-.84-11.42-8.44,.7,6.7-1.74,9.61-3.6,10.83-2.59,1.71-6.22,1.64-9.71,.01Zm-6.21-24.6c-4.63,9.14-1.42,16.72,3.12,20.76,3.91,3.49,8.95,4.57,11.97,2.57,3.59-2.37,4.01-8.59,1.15-17.05-.06-.19-.05-.39,.03-.56,.08-.18,.24-.33,.44-.39,.39-.13,.82,.08,.95,.47,3.18,9.43,8.13,15,13.24,14.89,3.21-.07,5.98-2.48,7.04-6.15,1.51-5.21-.41-13.13-10.34-19.72-.31-.21-.42-.61-.26-.94,.02-.03,.03-.07,.05-.1,.23-.34,.69-.44,1.04-.21,5.84,3.88,10.39,4.59,12.8,2,3.3-3.53,2.18-12.69-2.27-18.49-2.24-2.93-7.1-7.26-14.43-3.37-.37,.19-.82,.06-1.01-.31-.11-.22-.11-.46-.02-.67,.07-.14,.18-.26,.33-.34,7.15-3.8,6.31-9.92,5.18-13.23-2.39-6.99-9.63-13.02-14.62-12.16-3.5,.6-5.38,4.69-5.3,11.52,0,.12-.02,.23-.07,.33-.12,.25-.37,.43-.67,.43-.41,0-.75-.33-.76-.74-.14-11.53-5.64-17.25-10.75-18.76-3.76-1.11-7.36-.05-9.18,2.69-2.78,4.19-.78,11.15,5.34,18.62,.19,.23,.22,.54,.1,.79-.05,.1-.11,.19-.2,.26-.32,.26-.79,.21-1.05-.1-5.5-6.72-10.88-9.55-14.74-7.76-3.41,1.58-5.18,6.58-4.21,11.89,.51,2.81,3.16,12.06,15.57,12.96,.41,.03,.72,.39,.69,.8,0,.09-.03,.18-.07,.26-.13,.27-.41,.45-.73,.43-6.2-.45-9.96,1.68-10.89,6.16-.65,3.15,.22,7.3,2.33,11.12,2.11,3.81,5.15,6.71,8.11,7.75,4.19,1.47,7.91-.71,10.74-6.31,.19-.37,.64-.52,1.01-.33,.36,.18,.51,.62,.34,.98,0,0,0,.01-.01,.02Z"/></g><path class="cls-10" d="M157.18,113.44c20.21-11.14-16.74-45.03-15.84-14.53-.91-30.51-38.05-23.43-15.92,3.03-22.13-26.47-31.5,16.25-4.01,18.31-27.49-2.06-2.02,44.14,10.91,19.8-12.93,24.34,28.19,39.22,17.62,6.38,10.57,32.84,36.38,5.21,11.06-11.84,25.31,17.05,16.38-32.29-3.83-21.15Z"/><path class="cls-14" d="M138.81,164.92c-1.48-.69-2.93-1.66-4.26-2.89-3.87-3.57-6.74-9.6-4.98-16.92-3.66,3.52-7.41,3.02-9.64,2.2-.3-.11-.6-.23-.9-.37-6.65-3.1-11.9-13.04-10.38-20.08,.5-2.32,2.08-5.76,7.01-6.98-7.13-2.41-10.7-8.06-11.65-13.24-1.1-5.96,.96-11.46,5.01-13.37,2.04-.96,5.84-1.56,11.2,2.52-4.11-7.53-2.36-12.03-1.19-13.84,2.1-3.26,6.29-4.58,10.66-3.36,4.59,1.28,9.52,5.48,11.51,13.51,1.18-4.61,3.78-5.91,5.54-6.24,5.58-1.06,13.5,5.27,16.29,13.02,1.73,4.81,1.07,9.11-1.78,12.31,4.23-.7,8.23,1.04,11.37,5.07,5.07,6.5,6.19,16.57,2.31,20.73-1.22,1.31-3.71,2.81-8.24,1.35,5.73,5.96,6.65,12.38,5.28,16.94-1.3,4.35-4.65,7.18-8.53,7.22-2.16,.02-6.9-.9-11.07-8.4,.59,6.71-1.94,9.61-3.85,10.82-2.64,1.69-6.26,1.61-9.72,0Zm-5.83-24.51c-4.77,8.97-1.79,16.49,2.58,20.52,3.89,3.59,9.01,4.74,12.16,2.73,3.68-2.35,4.23-8.55,1.51-17-.06-.19-.04-.38,.03-.54,.09-.18,.24-.33,.45-.4,.39-.13,.82,.09,.94,.48,3,9.32,7.77,14.85,12.77,14.8,3.21-.03,6-2.45,7.11-6.15,1.56-5.2-.23-13.1-9.95-19.64-.31-.21-.41-.61-.26-.94,.02-.04,.04-.07,.06-.1,.23-.34,.69-.43,1.04-.2,5.65,3.81,10.06,4.52,12.41,2,3.37-3.61,2.18-12.91-2.4-18.79-2.19-2.81-6.9-6.94-13.9-3.08-.36,.2-.82,.07-1.02-.29-.12-.22-.12-.47-.02-.68,.06-.14,.17-.26,.32-.34,6.99-3.86,6.02-10.05,4.81-13.4-2.52-7.01-9.76-12.98-14.61-12.06-3.38,.64-5.13,4.75-4.93,11.56,0,.12-.02,.24-.07,.34-.12,.25-.36,.42-.66,.43-.41,.01-.76-.31-.77-.73-.35-11.71-6.06-17.44-11.3-18.9-3.73-1.04-7.26,.04-9,2.73-2.71,4.2-.58,11.19,5.7,18.7,.19,.23,.22,.54,.1,.8-.04,.1-.11,.18-.2,.26-.32,.27-.79,.22-1.05-.09-5.7-6.81-11.23-9.65-15.18-7.8-3.38,1.59-5.14,6.53-4.18,11.74,1.08,5.85,5.84,12.38,15.98,13.14,.41,.03,.72,.39,.69,.8,0,.09-.03,.18-.07,.26-.13,.27-.42,.45-.73,.43-6.37-.48-10.26,1.66-11.23,6.17-1.43,6.61,3.98,16.41,10.33,18.73,4.34,1.59,8.22-.56,11.22-6.2,.19-.37,.64-.5,1.01-.31,.35,.19,.49,.62,.33,.98,0,.01-.01,.02-.02,.03Z"/><g><ellipse class="cls-1" cx="142.54" cy="121.51" rx="5.97" ry="12.42" transform="translate(-40.95 83.92) rotate(-28.87)"/><path class="cls-14" d="M144.35,132.85c-2.65-1.24-5.51-4.14-7.7-8.1-1.65-3-2.65-6.15-2.8-8.85-.16-2.9,.66-5,2.33-5.92,3.3-1.82,8.67,1.82,12.24,8.29,1.65,3,2.65,6.15,2.8,8.85,.16,2.9-.66,5-2.33,5.92-1.28,.7-2.87,.59-4.54-.19Zm-4.28-21.36c-1.21-.56-2.32-.67-3.17-.2-1.11,.61-1.68,2.26-1.55,4.53,.14,2.49,1.07,5.41,2.62,8.22,3.06,5.54,7.73,9.07,10.21,7.7,1.11-.61,1.68-2.26,1.55-4.53-.14-2.49-1.07-5.41-2.62-8.22-2.01-3.64-4.72-6.41-7.04-7.5Z"/></g></g></g><g><g><path class="cls-8" d="M37.43,213.2l4.07,1.9c22.41-48.05,34.75-74.52,46.76-86.35l-3.15-3.2c-12.59,12.39-25.06,39.12-47.68,87.65Z"/><path class="cls-14" d="M41.86,216.1l-5.43-2.53,.32-.68c22.66-48.6,35.15-75.38,47.84-87.87l.53-.52,4.2,4.27-.53,.53c-11.92,11.73-24.24,38.16-46.61,86.13l-.32,.68Zm-3.44-3.25l2.71,1.27c21.92-47.01,34.18-73.25,46.07-85.35l-2.1-2.13c-12.26,12.47-24.61,38.89-46.68,86.22Z"/></g><g><g><path class="cls-8" d="M80.23,134.18h0c3.23,2.59,7.95,2.07,10.54-1.17l16.41-16.54c2.59-3.23,.14-9.5-3.09-12.09h0c-3.23-2.59-9.88-3.61-12.47-.38l-12.56,19.63c-2.59,3.23-2.07,7.95,1.17,10.54Z"/><path class="cls-14" d="M81.44,135.81c-.59-.28-1.16-.63-1.68-1.05-1.72-1.38-2.8-3.34-3.04-5.53-.24-2.18,.38-4.32,1.73-6.03l12.56-19.63,.02-.03c1.35-1.68,3.7-2.49,6.63-2.27,2.53,.18,5.17,1.16,6.89,2.53,3.37,2.7,6.2,9.4,3.21,13.14l-.05,.06-16.39,16.52c-1.38,1.7-3.33,2.77-5.51,3.01-1.52,.17-3.03-.08-4.38-.71Zm10.79-31.37l-12.56,19.63-.02,.03c-1.13,1.41-1.64,3.17-1.44,4.96,.2,1.79,1.08,3.4,2.49,4.53h0c1.41,1.13,3.17,1.64,4.96,1.44,1.79-.2,3.4-1.08,4.53-2.49l.05-.06,16.39-16.51c2.29-2.92-.17-8.74-3-11-1.5-1.2-3.82-2.05-6.06-2.21-2.37-.17-4.31,.44-5.33,1.69Z"/></g><path class="cls-9" d="M115.65,89.94c10.7-13.36,35.99,36.2,11.63,22.79,24.36,13.41-13.9,30.19-17.59,7.72,3.7,22.47-45.24-16.72-22.5-18.02-22.74,1.3-14.72-39.7,3.69-18.85-18.41-20.84,35.48-6.99,24.78,6.37Z"/><path class="cls-14" d="M99.44,126.42c-2.96-1.38-6.04-3.43-8.61-5.49-5.61-4.49-11.65-11.31-10.24-15.74,.32-1,.98-1.79,1.97-2.37-4.63-1.06-7.95-4.26-9.37-9.22-1.82-6.36,.23-13.47,4.58-15.85,1.69-.93,4.79-1.69,9.04,1.15-1.06-2.55-.44-4.11,.5-5.05,1.95-1.93,6.66-2.23,12.6-.81,5.68,1.36,11.22,4.02,14.46,6.93,2.68,2.41,3.81,4.95,3.34,7.39,2.27-.99,5-.45,7.94,1.64,3.55,2.52,7.35,7.35,9.92,12.6,2.69,5.48,3.42,10.15,1.96,12.47-.71,1.13-2.1,2.07-4.81,1.59,3.7,3.52,3.63,6.72,3.1,8.57-1.38,4.77-7.87,8.32-14.47,7.94-5.14-.3-9-2.84-11.04-7.13-.35,1.1-.98,1.91-1.88,2.44-2.17,1.27-5.5,.57-8.99-1.06Zm-11.58-23.68c-.11,.24-.35,.41-.64,.43-2.99,.17-4.74,1-5.21,2.47-.95,2.96,3.06,8.77,9.75,14.12,6.68,5.35,13.23,7.99,15.91,6.42,1.33-.78,1.76-2.67,1.28-5.62-.03-.15,0-.31,.06-.44,.1-.22,.3-.38,.56-.42,.41-.07,.79,.21,.86,.62,1.45,8.84,8.19,10.18,11.02,10.35,5.84,.35,11.77-2.79,12.94-6.86,1.02-3.52-1.64-7.22-7.46-10.43-.35-.19-.48-.62-.32-.97,0-.02,.01-.03,.02-.05,.2-.36,.65-.49,1.02-.29,4.5,2.48,7.56,2.9,8.63,1.2,1.15-1.83,.35-6.15-2.04-11.01-2.47-5.04-6.09-9.65-9.45-12.04-3.55-2.53-6.43-2.46-8.55,.19-.26,.32-.73,.37-1.05,.12-.27-.22-.35-.59-.21-.9,.02-.05,.06-.1,.09-.15,2.12-2.65,1.55-5.47-1.69-8.38-3.07-2.76-8.36-5.28-13.81-6.59-5.27-1.26-9.66-1.1-11.19,.42-1.43,1.41-.34,4.31,3.06,8.16,.2,.23,.24,.55,.12,.81-.04,.09-.1,.17-.18,.25-.31,.27-.78,.24-1.06-.07-4.4-4.99-8.6-6.76-11.81-5-3.71,2.03-5.48,8.5-3.86,14.13,.78,2.72,3.56,9,12.5,8.49,.41-.02,.77,.29,.79,.7,0,.13-.02,.25-.07,.36Z"/><path class="cls-13" d="M93.86,79.83c-18.41-20.84-26.42,20.16-3.69,18.85-22.74,1.3,26.2,40.49,22.5,18.02,3.7,22.47,41.96,5.69,17.59-7.72,24.36,13.41-.93-36.15-11.63-22.79,10.7-13.36-43.19-27.21-24.78-6.37Zm9.99,12.37c-4.81-8.64,3.01-6.27,8.03,2.44,9.6,2.99,13.62,10.11,4.13,7.31,4.81,8.64-3.01,6.27-8.03-2.44-9.6-2.99-13.62-10.11-4.13-7.31Z"/><path class="cls-14" d="M102.43,122.69c-2.96-1.38-6.04-3.43-8.61-5.49-5.61-4.49-11.65-11.31-10.24-15.74,.32-1,.98-1.79,1.97-2.37-4.63-1.06-7.95-4.26-9.37-9.22-1.82-6.36,.23-13.47,4.58-15.85,1.69-.93,4.79-1.69,9.04,1.15-1.06-2.55-.44-4.11,.5-5.05,1.95-1.93,6.66-2.23,12.6-.81,5.68,1.36,11.22,4.02,14.46,6.93,2.68,2.41,3.81,4.95,3.34,7.39,2.27-.99,5-.45,7.94,1.64,3.55,2.52,7.35,7.35,9.92,12.6,2.69,5.48,3.42,10.15,1.96,12.47-.71,1.13-2.1,2.07-4.81,1.59,3.7,3.52,3.63,6.72,3.1,8.57-1.38,4.77-7.87,8.32-14.47,7.94-5.14-.3-9-2.84-11.04-7.13-.35,1.1-.98,1.91-1.88,2.44-2.17,1.27-5.5,.57-8.99-1.06Zm-12.21-23.25c-2.99,.17-4.74,1-5.21,2.47-.95,2.96,3.06,8.77,9.75,14.12,6.68,5.35,13.23,7.99,15.91,6.42,1.33-.78,1.76-2.67,1.28-5.62-.03-.15,0-.31,.06-.44,.1-.22,.3-.38,.56-.42,.41-.07,.79,.21,.86,.62,1.45,8.84,8.19,10.18,11.02,10.35,5.84,.35,11.77-2.79,12.94-6.86,1.02-3.52-1.64-7.22-7.46-10.43-.35-.19-.48-.62-.32-.97,0-.02,.01-.03,.02-.05,.2-.36,.65-.49,1.02-.29,4.5,2.47,7.56,2.9,8.63,1.2,1.15-1.83,.35-6.15-2.04-11.01-2.47-5.04-6.09-9.65-9.45-12.04-3.55-2.52-6.43-2.46-8.55,.19-.26,.32-.73,.37-1.05,.12-.27-.22-.35-.59-.21-.9,.02-.05,.06-.1,.09-.15,2.12-2.65,1.55-5.47-1.69-8.38-3.06-2.76-8.36-5.28-13.81-6.59-5.27-1.26-9.66-1.1-11.19,.42-1.43,1.41-.34,4.31,3.06,8.16,.2,.23,.24,.55,.12,.81-.04,.09-.1,.17-.18,.25-.31,.27-.78,.24-1.06-.07-4.4-4.99-8.6-6.76-11.81-5-3.71,2.03-5.48,8.5-3.86,14.13,.78,2.72,3.56,9,12.5,8.49,.41-.02,.77,.29,.79,.7,0,.13-.02,.25-.07,.36-.11,.24-.35,.41-.64,.43Zm24.48,8.24c-2.26-1.05-5.07-3.89-7.22-7.53-5.92-1.91-10.43-5.6-9.71-7.97,.28-.93,1.34-1.79,4.67-1.1-1.4-3.09-.79-4.32,.05-4.79,2.15-1.22,6.73,2.38,9.9,7.74,5.92,1.92,10.43,5.6,9.71,7.97-.28,.93-1.34,1.79-4.67,1.1,1.4,3.09,.79,4.32-.05,4.79-.69,.39-1.62,.29-2.68-.21Zm-6.4-8.84c.14,.06,.26,.17,.33,.3,3.18,5.52,7.18,7.91,8.01,7.43,.16-.09,.45-1.14-1.28-4.26-.15-.27-.12-.59,.07-.83s.5-.34,.8-.25c3.42,1.01,4.38,.5,4.44,.32,.28-.92-2.92-4.29-9.01-6.19-.18-.06-.33-.18-.43-.34-3.18-5.52-7.18-7.91-8.01-7.44-.16,.09-.45,1.14,1.28,4.26,.15,.27,.12,.59-.07,.83-.19,.24-.5,.34-.8,.25-3.42-1.01-4.38-.5-4.44-.32-.28,.92,2.92,4.29,9.01,6.19,.03,0,.06,.02,.09,.04Z"/></g></g><g><g><path class="cls-8" d="M37.99,209.01l3.26,1.52c10.3-22.09,16.12-43,17.28-62.16,1.17-19.29-2.74-31.14-5.18-36.5l-3.27,1.49c7.77,17.05,8.67,51.13-12.09,95.64Z"/><path class="cls-14" d="M41.61,211.53l-4.61-2.15,.32-.68c20.65-44.29,19.79-78.12,12.09-95.02l-.31-.68,4.63-2.11,.31,.68c2.47,5.42,6.43,17.41,5.24,36.85-1.17,19.25-7.01,40.25-17.35,62.43l-.32,.68Zm-2.62-2.88l1.9,.89c10.06-21.76,15.75-42.35,16.9-61.21,1.12-18.34-2.39-29.88-4.81-35.46l-1.91,.87c7.51,17.33,8.19,51.08-12.08,94.91Z"/></g><g><g><path class="cls-8" d="M53.32,116.18h0c-2.02,.86-4.36-.08-5.22-2.1l-6.03-10.8c-.86-2.02,1.29-4.87,3.31-5.74h0c2.02-.86,5.57-.43,6.43,1.59l3.61,11.83c.86,2.02-.08,4.36-2.1,5.22Z"/><path class="cls-14" d="M49.76,116.8c-1.05-.49-1.87-1.33-2.33-2.39l-6.04-10.84c-1.08-2.52,1.47-5.76,3.7-6.72,1.16-.49,2.69-.62,4.09-.33,1.65,.33,2.82,1.15,3.32,2.32l.03,.07,3.6,11.79c.48,1.15,.49,2.42,.02,3.58-.47,1.17-1.37,2.09-2.53,2.58-1.16,.5-2.45,.51-3.62,.04-.08-.03-.16-.07-.24-.1Zm-7.01-13.85l6.04,10.83c.7,1.64,2.6,2.4,4.24,1.71h0c.79-.34,1.41-.97,1.73-1.77,.32-.8,.31-1.68-.02-2.47l-.03-.07-3.6-11.79c-.3-.67-1.11-1.18-2.22-1.4-1.1-.22-2.33-.13-3.21,.24-1.77,.76-3.53,3.21-2.93,4.72Z"/></g><g><circle class="cls-7" cx="43.3" cy="92.66" r="15.32"/><path class="cls-14" d="M36.51,107.21c-3.47-1.62-6.37-4.47-7.99-8.25-1.68-3.95-1.73-8.31-.12-12.3,1.6-3.98,4.66-7.1,8.61-8.78,8.15-3.47,17.6,.33,21.08,8.48h0c3.47,8.15-.33,17.61-8.48,21.08-4.36,1.86-9.1,1.63-13.09-.23Zm12.95-27.74c-3.62-1.69-7.92-1.89-11.87-.21-3.58,1.53-6.35,4.35-7.8,7.96-1.45,3.61-1.41,7.57,.11,11.15,3.15,7.39,11.72,10.84,19.11,7.69,7.39-3.15,10.84-11.72,7.69-19.11-1.46-3.43-4.1-6.02-7.24-7.48Z"/></g><g><path class="cls-2" d="M34.4,86.17c-.54-.25-.91-.61-1.1-1.06-.71-1.66,1.29-4.11,4.46-5.46,2.22-.95,4.55-1.14,5.93-.49,.54,.25,.91,.61,1.1,1.06,.71,1.66-1.29,4.11-4.46,5.46-2.22,.94-4.55,1.14-5.93,.49Z"/><path class="cls-14" d="M43.62,79.28c.49,.23,.84,.56,1.03,.99,.68,1.59-1.28,3.95-4.38,5.27-2.26,.96-4.5,1.11-5.81,.5-.49-.23-.84-.56-1.03-.99-.68-1.59,1.28-3.95,4.38-5.27,2.26-.96,4.5-1.11,5.81-.5m.13-.27h0c-1.44-.67-3.76-.48-6.05,.49-1.54,.66-2.86,1.59-3.72,2.62-.9,1.09-1.19,2.17-.82,3.04,.21,.49,.6,.87,1.17,1.14,1.44,.67,3.76,.48,6.05-.49,1.54-.66,2.86-1.59,3.72-2.62,.9-1.09,1.19-2.17,.82-3.04-.21-.49-.6-.87-1.17-1.14h0Z"/></g><g><path class="cls-14" d="M34.28,86.43c-.59-.28-1.02-.69-1.25-1.22-.4-.93-.1-2.07,.84-3.2,.87-1.05,2.21-1.99,3.77-2.66,3.38-1.44,6.64-1.12,7.42,.73h0c.79,1.85-1.24,4.42-4.62,5.86-1.56,.67-3.17,.98-4.53,.88-.64-.05-1.19-.18-1.64-.39Zm9.16-6.76c-1.17-.55-3.32-.39-5.44,.51-1.43,.61-2.65,1.47-3.44,2.41-.7,.85-.96,1.67-.71,2.27,.25,.6,1.03,.99,2.13,1.06,1.22,.09,2.68-.2,4.12-.81,2.81-1.2,4.71-3.34,4.14-4.68h0c-.14-.33-.42-.59-.81-.77Z"/><g class="cls-12"><g><ellipse class="cls-5" cx="39.69" cy="84.17" rx="6.09" ry="3.13" transform="translate(-29.81 22.29) rotate(-23.08)"/><path class="cls-14" d="M34.91,87.95c-.59-.27-1.02-.68-1.25-1.21-.79-1.85,1.24-4.42,4.62-5.86,1.56-.67,3.17-.98,4.53-.88,1.47,.1,2.49,.68,2.89,1.61,.79,1.85-1.24,4.42-4.62,5.86-2.4,1.02-4.74,1.16-6.17,.49Zm9.16-6.75c-.35-.17-.8-.27-1.32-.31-1.22-.09-2.68,.2-4.12,.81-2.82,1.2-4.71,3.34-4.14,4.68,.57,1.34,3.43,1.45,6.24,.25,2.82-1.2,4.71-3.34,4.14-4.68h0c-.13-.31-.41-.57-.81-.76Z"/></g></g></g></g></g></g><path class="cls-4" d="M41.66,185.93c.24,.29,.47,.6,.67,.92,.13,.2,.23,.42,.36,.62,.26,.42-.21-.46,0,0,.34,.74,.69,1.48,1.05,2.21,.82,1.64,1.7,3.23,2.73,4.74,1.94,2.85,4.3,5.45,6.92,7.66,1.34,1.13,3.6,1.04,4.73-.43s1.09-3.59-.34-4.8c-.58-.49-1.16-1-1.71-1.53-.31-.3-.62-.6-.92-.91-.13-.14-.27-.28-.4-.42-.05-.05-.46-.49-.2-.21s-.14-.16-.19-.21c-.13-.15-.25-.29-.37-.44-.25-.29-.49-.59-.72-.9-.5-.64-.98-1.31-1.43-1.98-.43-.64-.83-1.29-1.22-1.96-.19-.33-.38-.67-.56-1.01-.09-.17-.18-.34-.27-.51,.15,.28,.13,.28,0,0-.77-1.63-1.45-3.37-2.6-4.77-1.11-1.35-3.12-2.01-4.66-.82-1.35,1.04-2.08,3.3-.89,4.75h0Z"/><path class="cls-4" d="M37.56,198.64c.19,.23,.37,.47,.53,.73,.1,.16,.18,.33,.28,.49,.21,.34-.16-.36,0,0,.27,.59,.54,1.18,.82,1.77,.64,1.31,1.33,2.58,2.14,3.79,1.53,2.27,3.39,4.34,5.46,6.1,1.05,.9,2.85,.82,3.76-.36s.88-2.88-.25-3.84c-.46-.39-.91-.8-1.35-1.22-.25-.24-.49-.48-.72-.73-.1-.11-.21-.22-.31-.33-.04-.04-.36-.39-.15-.16s-.11-.13-.15-.17c-.1-.12-.2-.23-.29-.35-.19-.23-.38-.47-.57-.71-.39-.51-.77-1.04-1.13-1.58-.34-.51-.66-1.03-.96-1.56-.15-.27-.3-.53-.44-.81-.07-.14-.14-.27-.21-.41,.12,.22,.1,.22,0,0-.61-1.3-1.13-2.69-2.04-3.8s-2.46-1.6-3.69-.64c-1.07,.84-1.66,2.65-.73,3.8h0Z"/><path class="cls-4" d="M33.65,208.18c.17,.2,.34,.41,.48,.63,.09,.14,.17,.28,.26,.42,.19,.29-.15-.31,0,0,.25,.51,.5,1.01,.77,1.51,.6,1.12,1.24,2.21,1.98,3.25,1.4,1.95,3.09,3.74,4.96,5.28,.95,.78,2.54,.76,3.31-.22s.71-2.41-.31-3.25c-.42-.34-.82-.69-1.22-1.06-.22-.21-.44-.42-.65-.63-.1-.1-.19-.19-.28-.29-.03-.03-.33-.34-.14-.14s-.1-.11-.13-.15c-.09-.1-.18-.2-.27-.3-.18-.2-.35-.41-.52-.62-.36-.44-.7-.9-1.03-1.36-.31-.44-.6-.89-.88-1.34-.14-.23-.28-.46-.41-.69-.07-.12-.13-.23-.2-.35,.11,.19,.1,.19,0,0-.57-1.11-1.06-2.3-1.89-3.26s-2.21-1.41-3.28-.62c-.93,.68-1.41,2.2-.55,3.19h0Z"/><path class="cls-4" d="M98.26,168.18c-2.53-2.41-5.7-4.14-9.13-4.81-3.99-.78-8.18-.6-12.21-.23-5.02,.47-9.87,1.66-14.73,2.84-2.3-6.58-6.02-12.79-11.07-17.63-5.27-5.05-12.91-8.32-20.01-5.11-5.65,2.55-8.09,8.99-7.25,14.87,.98,6.92,5.76,11.84,12.13,14.34,6.73,2.65,14.14,2.04,21.07,.58-.98,2.25-3.58,3.9-5.88,4.89-4.1,1.77-8.5,1.48-12.75,2.57-3.83,.98-7.39,3.04-10.22,5.79-2.98,2.9-5.88,7.2-5.26,11.56,.22,1.53,1.23,2.85,2.92,2.82,1.4-.02,3.04-1.38,2.82-2.92-.5-3.5,2.49-6.75,5.08-8.73,2.97-2.27,6.4-3.22,10.13-3.63,4.49-.48,8.87-1.42,12.74-3.88,1.65-1.05,3.21-2.41,4.4-4,.06,.15,.12,.3,.17,.46,.44,1.42,.55,2.64,.48,4.23-.14,3.3-1.77,6.88-3.4,10-3.59,6.88-7.95,14.61-5.17,22.58,.51,1.46,1.99,2.41,3.54,1.97,1.42-.41,2.48-2.08,1.97-3.54-2.64-7.57,3.27-14.83,6.2-21.35,1.3-2.88,2.84-5.99,3.07-9.19,.17,.18-5.89-5.93-6.13-7.32,4.88,8.32,17.6,16.19,24.71,16.89,2.86,.28,5.84-.04,8.58-.95,2.99-.99,5.11-2.63,6.68-5.36,3.49-6.05,1.37-13.12-3.48-17.75Zm-63.02-2.41c-1.33-.8-2.51-1.8-3.51-2.99-.03-.04-.04-.05-.06-.07-.08-.1-.15-.21-.23-.32-.17-.25-.33-.51-.49-.77-.15-.26-.3-.53-.44-.8-.23-.45-.14-.25-.32-.73-.48-1.32-.7-2.28-.77-3.44-.04-.65-.04-1.31,.01-1.97,.01-.14,.01-.19,.01-.21,0-.01,.02-.06,.04-.21,.06-.34,.13-.68,.21-1.01,.08-.33,.19-.66,.3-.98,.03-.1,.05-.15,.05-.18,.01-.01,.04-.06,.1-.18,.13-.26,.26-.52,.4-.77,.09-.16,.59-.9,.36-.6,.87-1.14,1.52-1.66,2.77-2.2,2.45-1.06,5.42-.78,7.9,.3,3.2,1.39,5.77,3.87,8,6.5,2.2,2.58,4.02,5.5,5.49,8.55,.57,1.18,1.04,2.39,1.48,3.61-.74,.16-1.49,.32-2.23,.47-6.32,1.24-13.42,1.44-19.1-1.98Zm62.15,16.14c-.15,.37-.58,1.11-.87,1.59-.15,.25-.31,.5-.48,.74-.05,.04-.31,.34-.38,.42-.07,.08-.15,.14-.23,.21-.24,.16-.48,.31-.74,.45-.38,.21,.03,.02-.41,.19-.36,.14-.72,.26-1.09,.38-.65,.2-1.31,.37-1.98,.5-.62,.12-.91,.15-1.73,.2-1.28,.07-2.69,0-3.56-.13-2.9-.46-5.07-1.26-7.52-2.6-4.87-2.66-8.94-6.68-11.76-11.47-.25-.43-.51-.91-.77-1.4,4.46-1.06,8.93-2.02,13.57-2.28,3.55-.2,7.84-.37,10.93,.99,2.57,1.13,4.7,2.98,6.1,5.35,.65,1.09,1.18,2.38,1.32,3.59,.14,1.13,.01,2.27-.4,3.27Z"/><circle class="cls-4" cx="61.43" cy="169.82" r="4.81"/></svg>