<?xml version="1.0" encoding="utf-8"?>
<!-- Generator: Adobe Illustrator 27.0.0, SVG Export Plug-In . SVG Version: 6.00 Build 0)  -->
<svg version="1.1" id="box" xmlns="http://www.w3.org/2000/svg" xmlns:xlink="http://www.w3.org/1999/xlink" x="0px" y="0px"
	 viewBox="0 0 272.4 272.4" style="enable-background:new 0 0 272.4 272.4;" xml:space="preserve">
<style type="text/css">
	.st0{fill:#008A89;stroke:#12519B;stroke-width:1.8795;stroke-miterlimit:10;}
	.st1{fill:#E9D56B;}
	.st2{fill:none;stroke:#12519B;stroke-width:1.8795;stroke-linecap:round;stroke-linejoin:round;}
	.st3{fill:#FFF3B3;}
	.st4{fill:#6BA2C8;}
	.st5{fill:#B0D8E0;}
	.st6{fill:#FFF3B3;stroke:#12519B;stroke-width:1.8795;stroke-miterlimit:10;}
	.st7{fill:#FBE5E5;}
	.st8{fill:#EE899C;}
	.st9{fill:#E41A1A;stroke:#12519B;stroke-width:1.8795;stroke-miterlimit:10;}
	.st10{fill:#FBE5E5;stroke:#12519B;stroke-width:1.8795;stroke-linecap:round;stroke-linejoin:round;}
	.st11{fill:#EC6D00;stroke:#12519B;stroke-width:1.8795;stroke-miterlimit:10;}
	.st12{fill:#F1F5FB;stroke:#2F5C9A;stroke-width:1.9215;stroke-linecap:round;stroke-linejoin:round;}
</style>
<g>
	<g>
		<path class="st0" d="M191.8,260.3l-5.3,1.9c-30.2-82.8-21.7-141.8-3.6-169.4l4.7,3.1c-9.4,14.3-14.8,36-15.3,61.1
			C171.6,188.2,178.2,223,191.8,260.3L191.8,260.3z"/>
		<g>
			<path class="st0" d="M175.8,117L175.8,117c-4.7-2.2-6.8-7.8-4.6-12.5l9.4-27.7c2.2-4.7,10.6-5.5,15.3-3.3l0,0
				c4.7,2.2,9.6,9.1,7.4,13.8l-15.1,25.1C186.1,117.2,180.5,119.2,175.8,117z"/>
			<path class="st1" d="M205.7,52.5c9-19.5-60.8-20.2-32.1-0.3c-28.7-19.9-26.2,32.5,1.2,24.1c-27.3,8.4,44.1,41.5,32.8,15.2
				c11.2,26.3,52.8-5.6,19.1-14.7C260.4,85.9,214.8,33,205.7,52.5z"/>
			<path class="st2" d="M205.7,52.5c9-19.5-60.8-20.2-32.1-0.3c-28.7-19.9-26.2,32.5,1.2,24.1c-27.3,8.4,44.1,41.5,32.8,15.2
				c11.2,26.3,52.8-5.6,19.1-14.7C260.4,85.9,214.8,33,205.7,52.5z"/>
			<path class="st3" d="M208.2,47.1c9-19.5-60.8-20.2-32.1-0.3c-28.7-19.9-26.2,32.5,1.2,24.1c-27.3,8.4,44.1,41.5,32.8,15.2
				c11.2,26.3,52.8-5.6,19.1-14.7C263,80.4,217.3,27.6,208.2,47.1z M199.2,66.5c-12.6-0.8-19.6-8.2-7.2-7.7
				c-8.4-9.1,1.8-8.5,10.5,0.6c12.6,0.8,19.6,8.2,7.2,7.7C218.2,76.1,208,75.6,199.2,66.5z"/>
			<path class="st2" d="M208.2,47.1c9-19.5-60.8-20.2-32.1-0.3c-28.7-19.9-26.2,32.5,1.2,24.1c-27.3,8.4,44.1,41.5,32.8,15.2
				c11.2,26.3,52.8-5.6,19.1-14.7C263,80.4,217.3,27.6,208.2,47.1z M199.2,66.5c-12.6-0.8-19.6-8.2-7.2-7.7
				c-8.4-9.1,1.8-8.5,10.5,0.6c12.6,0.8,19.6,8.2,7.2,7.7C218.2,76.1,208,75.6,199.2,66.5z"/>
		</g>
	</g>
	<g>
		
			<rect x="154.4" y="81.2" transform="matrix(0.9397 -0.342 0.342 0.9397 -49.4646 64.4993)" class="st0" width="7.5" height="182.6"/>
		<g>
			<path class="st0" d="M130.4,96.1L130.4,96.1c-5.3,1.9-11.1-0.8-13-6.1l-13.9-28.3c-1.9-5.3,3.9-12.2,9.2-14.2l0,0
				c5.3-1.9,14.2-0.3,16.2,4.9l7.6,30.6C138.3,88.4,135.6,94.2,130.4,96.1z"/>
			<path class="st4" d="M147.1,34.9c26.1,11.3,7.4,35-26.7,33.8C95,91.6,65.4,85.4,78.2,60C52,48.7,70.7,25,104.9,26.2
				C130.3,3.3,159.9,9.4,147.1,34.9z"/>
			<path class="st2" d="M147.1,34.9c26.1,11.3,7.4,35-26.7,33.8C95,91.6,65.4,85.4,78.2,60C52,48.7,70.7,25,104.9,26.2
				C130.3,3.3,159.9,9.4,147.1,34.9z"/>
			<path class="st5" d="M145.2,29.6c26.1,11.3,7.4,35-26.7,33.8c-25.4,22.8-55,16.7-42.2-8.7c-26.1-11.3-7.4-35,26.7-33.8
				C128.4-1.9,157.9,4.2,145.2,29.6z"/>
			<path class="st2" d="M145.2,29.6c26.1,11.3,7.4,35-26.7,33.8c-25.4,22.8-55,16.7-42.2-8.7c-26.1-11.3-7.4-35,26.7-33.8
				C128.4-1.9,157.9,4.2,145.2,29.6z"/>
			<ellipse transform="matrix(0.9397 -0.342 0.342 0.9397 -7.2929 40.151)" class="st6" cx="110.2" cy="40.8" rx="18.8" ry="7.2"/>
		</g>
	</g>
	<g>
		<path class="st0" d="M192.4,263.1l-7.1,2.6c-10.5-28.9-15.5-55.9-14.9-80.2c0.7-24.6,7-39.2,10.7-45.8l6.5,3.7
			C176.2,163.6,171.5,205.6,192.4,263.1L192.4,263.1z"/>
		<g>
			<path class="st0" d="M175.7,167.8L175.7,167.8c-6.5-1.9-10.3-8.7-8.4-15.2l6.7-37.6c1.9-6.5,12.6-9.2,19.1-7.3l0,0
				c6.5,1.9,14.2,9.8,12.3,16.3l-14.4,35.4C189,165.9,182.2,169.7,175.7,167.8L175.7,167.8z"/>
			<g>
				<path class="st7" d="M199.8,81.7c10.4-30.5-52.5-27.7-26.9,1.2c-25.6-28.9-52.3,10.3-11.4,16.8c-40.8-6.5-11.2,39.8,12.7,19.8
					c-23.9,19.9,39.7,38.3,27.3,7.9c12.4,30.5,62.1,7.2,21.3-10c40.8,17.1,39.2-30.3-0.7-20.3C261.9,87.1,210.1,51.2,199.8,81.7
					L199.8,81.7z"/>
				<path class="st2" d="M199.8,81.7c10.4-30.5-52.5-27.7-26.9,1.2c-25.6-28.9-52.3,10.3-11.4,16.8c-40.8-6.5-11.2,39.8,12.7,19.8
					c-23.9,19.9,39.7,38.3,27.3,7.9c12.4,30.5,62.1,7.2,21.3-10c40.8,17.1,39.2-30.3-0.7-20.3C261.9,87.1,210.1,51.2,199.8,81.7
					L199.8,81.7z"/>
			</g>
			<path class="st8" d="M202.8,73.9c8-27.8-54.8-25.1-26.9,1.2c-27.9-26.3-54.6,13-11.4,16.8c-43.1-3.8-13.5,42.4,12.7,19.8
				c-26.2,22.6,37.4,41,27.3,7.9c10.1,33.1,59.8,9.8,21.3-10c38.5,19.8,36.9-27.7-0.7-20.3C262.6,81.9,210.9,46,202.8,73.9
				L202.8,73.9z"/>
			<path class="st2" d="M202.8,73.9c8-27.8-54.8-25.1-26.9,1.2c-27.9-26.3-54.6,13-11.4,16.8c-43.1-3.8-13.5,42.4,12.7,19.8
				c-26.2,22.6,37.4,41,27.3,7.9c10.1,33.1,59.8,9.8,21.3-10c38.5,19.8,36.9-27.7-0.7-20.3C262.6,81.9,210.9,46,202.8,73.9
				L202.8,73.9z"/>
			<ellipse transform="matrix(0.2778 -0.9606 0.9606 0.2778 51.9543 257.1183)" class="st9" cx="197" cy="94" rx="7.5" ry="15.6"/>
		</g>
	</g>
	<g>
		<path class="st0" d="M6.5,86.6c14.3,16.3,39.1,18,55.4,3.7C47.7,73.9,22.9,72.3,6.5,86.6z"/>
		<path class="st0" d="M187.3,256.6l6.7-2.4C155.7,148.8,99.2,98.3,59.1,86.2L57,93c20.8,6.3,43.8,23,64.9,47
			C148,169.9,170,209.1,187.3,256.6L187.3,256.6z"/>
		<path class="st0" d="M33.7,116c15.4,7.6,34,1.2,41.6-14.2C59.9,94.2,41.3,100.5,33.7,116z"/>
		<path class="st0" d="M47,136c19.1,8.7,41.6,0.2,50.2-18.9C78.1,108.5,55.6,116.9,47,136z"/>
		<path class="st0" d="M64.2,158.1c20.8,9.2,45.1-0.2,54.2-21.1C97.6,127.9,73.4,137.3,64.2,158.1z"/>
		<path class="st0" d="M86.3,175c18,8.8,39.8,1.4,48.6-16.6C116.9,149.6,95.1,157,86.3,175L86.3,175z"/>
		<path class="st0" d="M107.5,195.5c16.4,5,33.8-4.3,38.8-20.7C129.8,169.8,112.5,179.1,107.5,195.5z"/>
		<path class="st0" d="M126,209c13.3,4,27.2-3.4,31.3-16.7C144,188.3,130,195.7,126,209z"/>
		<path class="st0" d="M68.9,52.5c14.8,8.8,19.6,27.8,10.8,42.6C65,86.4,60.1,67.3,68.9,52.5z"/>
		<path class="st0" d="M97.8,55.8c16.1,13.5,18.1,37.4,4.6,53.4C86.4,95.8,84.3,71.9,97.8,55.8z"/>
		<path class="st0" d="M122.1,71.2c16.9,15.2,18.4,41.1,3.2,58.1C108.4,114.1,107,88.2,122.1,71.2z"/>
		<path class="st0" d="M145.3,99.9c13.1,15.2,11.4,38.1-3.8,51.2C128.4,135.9,130.1,113,145.3,99.9z"/>
		<path class="st0" d="M162.4,124.1c9,14.6,4.4,33.8-10.2,42.7C143.2,152.2,147.8,133.1,162.4,124.1z"/>
		<path class="st0" d="M172.5,150.5c7.2,11.8,3.5,27.2-8.3,34.5C157,173.1,160.6,157.7,172.5,150.5L172.5,150.5z"/>
	</g>
	<g>
		<path class="st0" d="M192.6,264l5.3-1.9c-22.8-62.5-35.3-97-35.1-118.1l-5.6,0C157,166,169.6,200.8,192.6,264z"/>
		<g>
			<path class="st0" d="M160.5,155.8L160.5,155.8c5.2-0.6,8.9-5.2,8.3-10.4l-0.1-29.3c-0.6-5.2-8.3-8.5-13.5-8l0,0
				c-5.2,0.6-12,5.6-11.4,10.7l6.3,28.6C150.6,152.7,155.3,156.4,160.5,155.8L160.5,155.8z"/>
			<path class="st1" d="M152.6,85.2c-2.4-21.4,64.1,0.2,30.5,9.9c33.5-9.7,14.5,39.1-8.8,22.5c23.2,16.7-55,25.3-36,4
				c-19,21.3-48.3-22.2-13.5-20C90.2,99.3,150.3,63.8,152.6,85.2L152.6,85.2z"/>
			<path class="st2" d="M152.6,85.2c-2.4-21.4,64.1,0.2,30.5,9.9c33.5-9.7,14.5,39.1-8.8,22.5c23.2,16.7-55,25.3-36,4
				c-19,21.3-48.3-22.2-13.5-20C90.2,99.3,150.3,63.8,152.6,85.2L152.6,85.2z"/>
			<path class="st3" d="M124.3,95.5c-34.8-2.2-5.6,41.3,13.5,20c-19,21.3,59.2,12.7,36-4c23.2,16.7,42.3-32.2,8.8-22.5
				c33.5-9.7-32.9-31.3-30.5-9.9C149.6,57.8,89.5,93.4,124.3,95.5z M144.2,97.6c-11.9-3.4-2.9-8.2,9.3-5c11.2-5.9,21.1-3.1,10.2,2.8
				c11.9,3.4,2.9,8.2-9.3,5C143.1,106.3,133.3,103.6,144.2,97.6z"/>
			<path class="st2" d="M124.3,95.5c-34.8-2.2-5.6,41.3,13.5,20c-19,21.3,59.2,12.7,36-4c23.2,16.7,42.3-32.2,8.8-22.5
				c33.5-9.7-32.9-31.3-30.5-9.9C149.6,57.8,89.5,93.4,124.3,95.5z M144.2,97.6c-11.9-3.4-2.9-8.2,9.3-5c11.2-5.9,21.1-3.1,10.2,2.8
				c11.9,3.4,2.9,8.2-9.3,5C143.1,106.3,133.3,103.6,144.2,97.6z"/>
		</g>
	</g>
	<g>
		<path class="st0" d="M195.8,261.1l7.1-2.6c-10.5-28.9-24-52.8-40.1-71c-16.3-18.4-30.5-25.6-37.6-28.2l-2.6,7
			C144.2,174.5,174.9,203.7,195.8,261.1z"/>
		<g>
			<path class="st0" d="M140.8,173.4L140.8,173.4c2.9-4.8,1.3-11.1-3.5-13.9l-25.2-19c-4.8-2.9-12.8,1.6-15.6,6.4l0,0
				c-2.9,4.8-3,13.9,1.8,16.8l28.7,13.2C131.7,179.8,137.9,178.2,140.8,173.4L140.8,173.4z"/>
			<path class="st4" d="M77.5,178.3c6.2,27.8,33,13.8,38.2-19.9c27.2-20.7,26.7-50.9-0.7-43.1c-6.2-27.8-33-13.8-38.2,19.9
				C49.7,155.9,50.1,186.1,77.5,178.3z"/>
			<path class="st2" d="M77.5,178.3c6.2,27.8,33,13.8,38.2-19.9c27.2-20.7,26.7-50.9-0.7-43.1c-6.2-27.8-33-13.8-38.2,19.9
				C49.7,155.9,50.1,186.1,77.5,178.3z"/>
			<path class="st5" d="M72.7,175.4c6.2,27.8,33,13.8,38.2-19.9c27.2-20.7,26.7-50.9-0.7-43.1c-6.2-27.8-33-13.8-38.2,19.9
				C44.8,153,45.3,183.2,72.7,175.4z"/>
			<path class="st2" d="M72.7,175.4c6.2,27.8,33,13.8,38.2-19.9c27.2-20.7,26.7-50.9-0.7-43.1c-6.2-27.8-33-13.8-38.2,19.9
				C44.8,153,45.3,183.2,72.7,175.4z"/>
			
				<ellipse transform="matrix(0.5122 -0.8589 0.8589 0.5122 -78.9635 147.2958)" class="st6" cx="90.2" cy="143.2" rx="18.8" ry="7.2"/>
		</g>
	</g>
	<g>
		<path class="st0" d="M194.6,255.9l-4.2,1.5c-22.8-62.6-35.3-97.1-49.1-113.2l3.4-2.9C159,158.1,171.6,192.8,194.6,255.9
			L194.6,255.9z"/>
		<g>
			<path class="st0" d="M144.8,145.5L144.8,145.5c3.9-3.4,4.4-9.3,1.1-13.2l-16.5-24c-3.4-3.9-11.6-2.4-15.6,1l0,0
				c-3.9,3.4-6.8,11.3-3.4,15.2l21.1,20C135,148.4,140.9,148.9,144.8,145.5z"/>
			
				<ellipse transform="matrix(0.7607 -0.649 0.649 0.7607 -46.149 104.4938)" class="st10" cx="118.7" cy="114.8" rx="26.9" ry="13.9"/>
			
				<ellipse transform="matrix(0.7607 -0.649 0.649 0.7607 -45.1113 102.6324)" class="st10" cx="116.7" cy="112.5" rx="26.9" ry="13.9"/>
			
				<ellipse transform="matrix(0.7607 -0.649 0.649 0.7607 -45.1113 102.6324)" class="st11" cx="116.7" cy="112.5" rx="13.3" ry="4.6"/>
		</g>
	</g>
</g>
<path class="st12" d="M175.9,216.2c-0.5-0.1-1.2,0-1.7,0.3c-9.6,5.4-18.3,13.1-23.6,22.8c-1.2,2.2-2.2,5.4-0.4,7.6
	c1.9,2.3,5.9,1.1,8.3,0.2c5.4-2,9.7-6.1,12.9-10.8c1.8-2.7,3.3-5.6,4.7-8.5c0.8-1.6,1.5-3.3,2.1-5 M178.3,222.7
	c1.5,1,3.2,1.7,4.8,2.5c3,1.3,6,2.6,9.1,3.5c5.4,1.6,11.4,2,16.8,0c2.4-0.9,6.2-2.5,6.2-5.5c0-2.8-2.9-4.7-5.2-5.6
	c-10.3-4.1-21.9-4.4-32.7-2.3c-0.6,0.1-1.1,0.4-1.5,0.9 M153.4,242.8c0.3-1,0.9-2,1.4-2.9c2.4-4,5.4-7.7,8.8-10.9
	c3.4-3.3,7.3-6.1,11.3-8.5c-0.4,1.5-0.9,2.9-1.6,4.3c-1,2.2-2.2,4.5-3.4,6.6c-2.4,4.2-5.5,8-9.7,10.6c-1.9,1.2-4.4,2.1-6.7,2.3
	C153.2,244.3,153.3,243.2,153.4,242.8L153.4,242.8z M211,223.3c-1.8,1.4-4.3,2.2-6.6,2.6c-4.8,0.8-9.7-0.2-14.2-1.9
	c-2.3-0.9-4.6-1.8-6.8-2.9c-1.4-0.7-2.7-1.4-4-2.3c4.7-0.8,9.4-1.1,14.1-0.8c4.7,0.3,9.3,1.2,13.8,2.7c1,0.3,2,0.7,2.9,1.3
	C210.6,222.3,211.3,223.1,211,223.3L211,223.3z"/>
<path class="st12" d="M219.8,190.6c-8-0.5-15.6,4-22.3,7.8c-8,4.5-15.4,9.9-22.3,15.9c-8.1-0.2-16.3,0.3-24.3,1.6
	c-4.1,0.7-8.1,1.5-12.1,2.5c-3.7,1-7.3,2.2-10.5,4.4c-3,2-6.1,5.2-6.3,9c-0.2,4,2.9,7,6.5,8.1c3.7,1.1,7.8-0.1,11.5-0.9
	c4.2-1,8.3-2.2,12.3-3.8c4.4-1.8,8.5-4.2,12.3-7.1c3.7-2.8,7.2-6,10.8-9c0.1-0.1,0.2-0.2,0.2-0.2c0.1,0,0.1-0.4,0.3-0.4
	c0.3,0,0.5-0.1,0.8-0.2c0.3-0.1,0.5-0.2,0.7-0.4c0.1-0.1,0.4,0.2,0.5,0.1c0.1,0,0.2,0,0.3,0c4.2-0.1,8.4,0.1,12.6-0.1
	c4.2-0.1,8.4-0.6,12.5-1.7c4.1-1,8.1-2.6,11.9-4.4c3.5-1.6,7.4-3.3,10.3-5.9c2.8-2.5,4.7-6.5,3.3-10.2
	C227.4,192.2,223.4,190.8,219.8,190.6L219.8,190.6z M154.8,229c-3.4,1.8-6.9,3.1-10.6,4.2c-3.4,1-6.9,2-10.4,2.4
	c-2.4,0.3-6.2,0.2-7.1-2.6c-0.8-2.6,2.4-5.2,4.3-6.4c2.8-1.9,6-2.9,9.2-3.8c3.5-0.9,7.1-1.7,10.7-2.2c5.8-1,11.7-1.5,17.7-1.7
	C164.2,222.6,159.8,226.3,154.8,229L154.8,229z M222.8,202.4c-2.4,2.3-6,3.8-9,5.2c-3.5,1.6-7.1,3.1-10.8,4.1
	c-6.5,1.8-13,1.8-19.6,1.8c3.9-3.1,8-6,12.2-8.6c3.1-1.9,6.3-3.8,9.6-5.4c3-1.5,6.1-3,9.4-3.8c2.6-0.7,6.3-1.1,8.8,0.5
	C225.8,197.7,224.4,200.9,222.8,202.4L222.8,202.4z"/>
<ellipse transform="matrix(0.9397 -0.342 0.342 0.9397 -63.6922 73.4208)" class="st12" cx="176.3" cy="217.3" rx="3.7" ry="5.8"/>
</svg>
