<?xml version="1.0" encoding="UTF-8"?><svg id="box" xmlns="http://www.w3.org/2000/svg" xmlns:xlink="http://www.w3.org/1999/xlink" viewBox="0 0 272.35 272.35"><defs><style>.cls-1{fill:#e0c8e0;}.cls-1,.cls-2,.cls-3,.cls-4,.cls-5,.cls-6,.cls-7,.cls-8,.cls-9{stroke:#12519b;}.cls-1,.cls-4,.cls-5,.cls-6,.cls-7,.cls-9{stroke-miterlimit:10;}.cls-1,.cls-5,.cls-8{stroke-width:.72px;}.cls-10{clip-path:url(#clippath-11);}.cls-11{clip-path:url(#clippath-16);}.cls-12{fill:#42489b;}.cls-13{clip-path:url(#clippath-2);}.cls-14{clip-path:url(#clippath-13);}.cls-15{clip-path:url(#clippath-15);}.cls-16{clip-path:url(#clippath-6);}.cls-2,.cls-3,.cls-7,.cls-9{stroke-width:1.79px;}.cls-2,.cls-3,.cls-17,.cls-8{stroke-linecap:round;stroke-linejoin:round;}.cls-2,.cls-5{fill:none;}.cls-18{clip-path:url(#clippath-7);}.cls-19{fill:#e9d56b;}.cls-20{clip-path:url(#clippath-1);}.cls-21{clip-path:url(#clippath-4);}.cls-3{fill:#fbe5e5;}.cls-4{fill:#caa4cb;}.cls-4,.cls-6{stroke-width:1.43px;}.cls-22{clip-path:url(#clippath-12);}.cls-6{fill:#2898d6;}.cls-23{clip-path:url(#clippath-9);}.cls-24{clip-path:url(#clippath);}.cls-7{fill:#ec6d00;}.cls-17{fill:#f1f5fb;stroke:#2f5c9a;stroke-width:1.83px;}.cls-25{clip-path:url(#clippath-3);}.cls-26{clip-path:url(#clippath-8);}.cls-8{fill:#bac7e5;}.cls-27{fill:#fff3b3;}.cls-28{clip-path:url(#clippath-14);}.cls-29{clip-path:url(#clippath-5);}.cls-30{fill:#c04292;}.cls-9{fill:#008a89;}.cls-31{clip-path:url(#clippath-10);}.cls-32{fill:#12519b;}</style><clipPath id="clippath"><ellipse class="cls-5" cx="62.4" cy="124.83" rx="3.48" ry="1.79" transform="translate(-72.17 161.85) rotate(-78.82)"/></clipPath><clipPath id="clippath-1"><ellipse class="cls-5" cx="80.02" cy="117.11" rx="3.48" ry="1.79" transform="translate(-54.82 73.11) rotate(-37.58)"/></clipPath><clipPath id="clippath-2"><ellipse class="cls-5" cx="78.9" cy="138.42" rx="1.79" ry="3.48" transform="translate(-24.81 17.47) rotate(-10.93)"/></clipPath><clipPath id="clippath-3"><ellipse class="cls-5" cx="98.21" cy="123.28" rx="3.48" ry="1.79" transform="translate(-37.24 42.68) rotate(-20.7)"/></clipPath><clipPath id="clippath-4"><ellipse class="cls-5" cx="90.95" cy="143.34" rx="3.48" ry="1.79" transform="translate(-61.04 218.94) rotate(-84.05)"/></clipPath><clipPath id="clippath-5"><ellipse class="cls-5" cx="112.9" cy="130.83" rx="3.48" ry="1.79" transform="translate(-19.5 19.78) rotate(-9.22)"/></clipPath><clipPath id="clippath-6"><ellipse class="cls-5" cx="101.79" cy="149.05" rx="3.48" ry="1.79" transform="translate(-70.91 201.5) rotate(-72.57)"/></clipPath><clipPath id="clippath-7"><ellipse class="cls-5" cx="128.22" cy="141.79" rx="1.79" ry="3.48" transform="translate(-17.01 266.1) rotate(-88.44)"/></clipPath><clipPath id="clippath-8"><ellipse class="cls-5" cx="113.91" cy="157.61" rx="3.48" ry="1.79" transform="translate(-78.83 183.46) rotate(-61.78)"/></clipPath><clipPath id="clippath-9"><ellipse class="cls-5" cx="128.47" cy="160.76" rx="3.48" ry="1.79" transform="translate(-68.39 100.79) rotate(-34.43)"/></clipPath><clipPath id="clippath-10"><ellipse class="cls-5" cx="93.91" cy="158.5" rx="3.48" ry="1.79" transform="translate(-88.19 186.43) rotate(-68.08)"/></clipPath><clipPath id="clippath-11"><ellipse class="cls-5" cx="96.71" cy="167.27" rx="3.48" ry="1.79" transform="translate(-74.35 257.11) rotate(-87.67)"/></clipPath><clipPath id="clippath-12"><ellipse class="cls-5" cx="116.27" cy="154.79" rx="3.48" ry="1.79" transform="translate(-55.8 66.07) rotate(-25.81)"/></clipPath><clipPath id="clippath-13"><ellipse class="cls-5" cx="106.7" cy="174.94" rx="3.48" ry="1.79" transform="translate(-72.42 274.46) rotate(-87.67)"/></clipPath><clipPath id="clippath-14"><ellipse class="cls-5" cx="126.26" cy="162.46" rx="3.48" ry="1.79" transform="translate(-58.14 71.19) rotate(-25.81)"/></clipPath><clipPath id="clippath-15"><ellipse class="cls-5" cx="118.9" cy="183.05" rx="3.48" ry="1.79" transform="translate(-68.83 294.43) rotate(-87.67)"/></clipPath><clipPath id="clippath-16"><ellipse class="cls-5" cx="140.75" cy="169.77" rx="3.48" ry="1.79" transform="translate(-23.58 22.71) rotate(-8.51)"/></clipPath></defs><g><g><path class="cls-9" d="M210.55,25.24c-.43,20.68-17.5,37.06-38.18,36.63,.43-20.68,17.5-37.06,38.18-36.63Z"/><path class="cls-9" d="M182.74,259.89l-6.41,2.33c-36.5-100.29-26.21-171.69-4.41-205.06l5.71,3.73c-11.33,17.34-17.91,43.63-18.54,74.01-.78,37.69,7.18,79.74,23.65,124.98Z"/><path class="cls-9" d="M208.7,63.31c-6.62,14.96-24.08,21.71-39.04,15.1,6.62-14.96,24.08-21.71,39.04-15.1Z"/><path class="cls-9" d="M211.29,86.05c-8.63,18.01-30.18,25.6-48.19,16.97,8.63-18.01,30.18-25.6,48.19-16.97Z"/><path class="cls-9" d="M212.23,112.73c-9.57,19.43-33.03,27.41-52.46,17.84,9.57-19.43,33.03-27.41,52.46-17.84Z"/><path class="cls-9" d="M206.49,138.59c-7.74,17.48-28.14,25.36-45.62,17.62,7.74-17.48,28.14-25.36,45.62-17.62Z"/><path class="cls-9" d="M203.58,166.51c-8.93,13.71-27.25,17.57-40.96,8.64,8.93-13.71,27.25-17.57,40.96-8.64Z"/><path class="cls-9" d="M198.34,187.67c-7.2,11.05-21.97,14.17-33.02,6.96,7.2-11.05,21.97-14.17,33.02-6.96Z"/><path class="cls-9" d="M144.19,38.6c-5.39,15.45,2.75,32.31,18.2,37.69,5.39-15.45-2.75-32.31-18.2-37.69Z"/><path class="cls-9" d="M125.13,58.68c-3.45,19.67,9.67,38.38,29.34,41.83,3.45-19.67-9.67-38.38-29.34-41.83Z"/><path class="cls-9" d="M116.8,84.8c-3.08,21.44,11.78,41.27,33.21,44.35,3.08-21.44-11.78-41.27-33.21-44.35Z"/><path class="cls-9" d="M117.44,119.92c-.24,19.11,15.02,34.77,34.13,35.02,.24-19.11-15.02-34.77-34.13-35.02Z"/><path class="cls-9" d="M119.8,148.07c2.41,16.18,17.46,27.32,33.64,24.91-2.41-16.18-17.46-27.32-33.64-24.91Z"/><path class="cls-9" d="M128.59,173.43c1.95,13.05,14.08,22.03,27.12,20.08-1.95-13.05-14.08-22.03-27.12-20.08Z"/></g><g><path class="cls-9" d="M177.93,255.11l-4.04,1.47c-28.65-78.72-20.61-134.7-3.52-160.85l3.6,2.35c-8.97,13.72-14.18,34.5-14.67,58.51-.61,29.72,5.66,62.86,18.64,98.52Z"/><g><path class="cls-9" d="M167.88,106.11h0c4.13,2.69,9.66,1.52,12.35-2.61l17.51-21.51c2.69-4.13-.95-11.26-5.08-13.95h0c-4.13-2.69-12.13-3.12-14.81,1.01l-12.58,24.72c-2.69,4.13-1.52,9.66,2.61,12.35Z"/><ellipse class="cls-3" cx="188.82" cy="73.93" rx="13.2" ry="25.58" transform="translate(23.87 191.87) rotate(-56.95)"/><ellipse class="cls-3" cx="190.42" cy="71.47" rx="13.2" ry="25.58" transform="translate(26.66 192.09) rotate(-56.95)"/><ellipse class="cls-7" cx="190.42" cy="71.47" rx="4.41" ry="12.64" transform="translate(26.66 192.09) rotate(-56.95)"/></g></g><g><rect class="cls-9" x="146.06" y="85.82" width="5.37" height="173.91" transform="translate(-50.12 61.29) rotate(-20)"/><g><path class="cls-9" d="M122.02,99.38h0c-4.65,1.69-9.8-.71-11.49-5.36l-12.25-25.02c-1.69-4.65,3.48-10.81,8.13-12.5h0c4.65-1.69,12.57-.3,14.26,4.35l6.7,27.04c1.69,4.65-.71,9.8-5.36,11.49Z"/><path class="cls-19" d="M98.86,35.73c-7-19.23-54.62,27.2-21.9,21.35-32.72,5.85,4.17,39.5,16.96,15.47-12.79,24.03,57.63-1.6,32.38-11.79,25.24,10.18,31.87-39.31,3.05-22.76,28.82-16.55-37.5-21.51-30.5-2.28Z"/><path class="cls-2" d="M98.86,35.73c-7-19.23-54.62,27.2-21.9,21.35-32.72,5.85,4.17,39.5,16.96,15.47-12.79,24.03,57.63-1.6,32.38-11.79,25.24,10.18,31.87-39.31,3.05-22.76,28.82-16.55-37.5-21.51-30.5-2.28Z"/><path class="cls-27" d="M96.9,30.35c-7-19.23-54.62,27.2-21.9,21.35-32.72,5.85,4.17,39.5,16.96,15.47-12.79,24.03,57.63-1.6,32.38-11.79,25.24,10.18,31.87-39.31,3.05-22.76,28.82-16.55-37.5-21.51-30.5-2.28Zm6.97,19.15c-9.02,7.94-18.78,7.63-10.03-.32-11.81-.46-4.53-6.97,7.48-6.69,9.02-7.94,18.78-7.63,10.03,.32,11.81,.46,4.53,6.97-7.48,6.69Z"/><path class="cls-2" d="M96.9,30.35c-7-19.23-54.62,27.2-21.9,21.35-32.72,5.85,4.17,39.5,16.96,15.47-12.79,24.03,57.63-1.6,32.38-11.79,25.24,10.18,31.87-39.31,3.05-22.76,28.82-16.55-37.5-21.51-30.5-2.28Zm6.97,19.15c-9.02,7.94-18.78,7.63-10.03-.32-11.81-.46-4.53-6.97,7.48-6.69,9.02-7.94,18.78-7.63,10.03,.32,11.81,.46,4.53,6.97-7.48,6.69Z"/></g></g><g><path class="cls-9" d="M46.12,129.99c10.71,12.24,29.29,13.48,41.54,2.77-10.71-12.24-29.29-13.48-41.54-2.77Z"/><path class="cls-9" d="M181.54,257.35l5.04-1.84c-28.72-78.9-71.02-116.73-101.04-125.81l-1.56,5.14c15.59,4.72,32.86,17.23,48.6,35.23,19.53,22.32,36,51.68,48.95,87.28Z"/><path class="cls-9" d="M66.49,152c11.55,5.67,25.49,.91,31.16-10.64-11.55-5.67-25.49-.91-31.16,10.64Z"/><path class="cls-9" d="M76.43,167.02c14.31,6.49,31.13,.16,37.62-14.14-14.31-6.49-31.13-.16-37.62,14.14Z"/><path class="cls-9" d="M89.35,183.57c15.59,6.87,33.76-.18,40.64-15.77-15.59-6.87-33.76,.18-40.64,15.77Z"/><path class="cls-9" d="M105.89,196.25c13.5,6.62,29.78,1.05,36.4-12.45-13.5-6.62-29.78-1.05-36.4,12.45Z"/><path class="cls-9" d="M121.76,211.61c12.31,3.74,25.31-3.19,29.05-15.51-12.31-3.74-25.31,3.19-29.05,15.51Z"/><path class="cls-9" d="M135.62,221.71c9.93,3.02,20.41-2.57,23.42-12.5-9.93-3.02-20.41,2.57-23.42,12.5Z"/><path class="cls-9" d="M92.87,104.49c11.06,6.58,14.68,20.86,8.09,31.92-11.06-6.58-14.68-20.86-8.09-31.92Z"/><path class="cls-9" d="M114.51,106.95c12.03,10.11,13.58,28.02,3.47,40.04-12.03-10.11-13.58-28.02-3.47-40.04Z"/><path class="cls-9" d="M132.74,118.48c12.69,11.36,13.77,30.83,2.41,43.52-12.69-11.36-13.77-30.83-2.41-43.52Z"/><path class="cls-9" d="M150.11,139.97c9.81,11.39,8.53,28.55-2.86,38.37-9.81-11.39-8.53-28.55,2.86-38.37Z"/><path class="cls-9" d="M162.93,158.13c6.73,10.97,3.29,25.29-7.68,32.02-6.73-10.97-3.29-25.29,7.68-32.02Z"/><path class="cls-9" d="M170.46,177.86c5.43,8.85,2.66,20.39-6.19,25.82-5.43-8.85-2.66-20.39,6.19-25.82Z"/></g><g><path class="cls-9" d="M180.65,262.56l-5.04,1.84c-9.99-27.44-14.74-53.02-14.14-76.01,.61-23.2,6.55-37.01,10.04-43.17l4.67,2.64c-10.96,19.39-15.55,59.7,4.47,114.7Z"/><g><path class="cls-9" d="M165.75,168.18h0c-4.63-1.76-6.95-6.94-5.18-11.57l7.11-26.93c1.76-4.63,9.7-5.89,14.33-4.13h0c4.63,1.76,9.71,8,7.94,12.62l-12.63,24.83c-1.76,4.63-6.94,6.95-11.57,5.18Z"/><path class="cls-19" d="M189.89,104.89c7.29-19.12-59.1-15.17-30.53,1.81-28.57-16.99-22.69,32.6,2.7,22.8-25.4,9.8,44.62,36.5,32.2,12.28,12.42,24.22,49.83-8.87,17.2-15.21,32.63,6.35-14.28-40.8-21.57-21.68Z"/><path class="cls-2" d="M189.89,104.89c7.29-19.12-59.1-15.17-30.53,1.81-28.57-16.99-22.69,32.6,2.7,22.8-25.4,9.8,44.62,36.5,32.2,12.28,12.42,24.22,49.83-8.87,17.2-15.21,32.63,6.35-14.28-40.8-21.57-21.68Z"/><path class="cls-27" d="M191.93,99.54c7.29-19.12-59.1-15.17-30.53,1.81-28.57-16.99-22.69,32.6,2.7,22.8-25.4,9.8,44.62,36.5,32.2,12.28,12.42,24.22,49.83-8.87,17.2-15.21,32.63,6.35-14.28-40.8-21.57-21.68Zm-7.26,19.05c-12.01,.1-19.2-6.52-7.38-6.8-8.63-8.08,1.14-8.24,10.03-.16,12.01-.1,19.2,6.52,7.38,6.8,8.63,8.08-1.14,8.24-10.03,.16Z"/><path class="cls-2" d="M191.93,99.54c7.29-19.12-59.1-15.17-30.53,1.81-28.57-16.99-22.69,32.6,2.7,22.8-25.4,9.8,44.62,36.5,32.2,12.28,12.42,24.22,49.83-8.87,17.2-15.21,32.63,6.35-14.28-40.8-21.57-21.68Zm-7.26,19.05c-12.01,.1-19.2-6.52-7.38-6.8-8.63-8.08,1.14-8.24,10.03-.16,12.01-.1,19.2,6.52,7.38,6.8,8.63,8.08-1.14,8.24-10.03,.16Z"/></g></g><g><path class="cls-9" d="M173.11,251.37l5.04-1.84c-21.67-59.55-33.61-92.35-33.45-112.5l-5.37-.04c-.17,21.12,11.89,54.24,33.78,114.38Z"/><g><path class="cls-9" d="M142.49,148.41h0c4.92-.54,8.47-4.97,7.92-9.9l-.11-27.86c-.54-4.92-7.91-8.14-12.83-7.6h0c-4.92,.54-11.4,5.3-10.86,10.22l5.98,27.21c.54,4.92,4.97,8.47,9.9,7.92Z"/><path class="cls-19" d="M135.04,81.08c-2.25-20.34,61.01,.17,29.09,9.43,31.92-9.26,13.77,37.26-8.35,21.39,22.12,15.87-52.37,24.11-34.25,3.79-18.11,20.32-46-21.11-12.82-19.05-33.17-2.06,24.08-35.9,26.33-15.56Z"/><path class="cls-2" d="M135.04,81.08c-2.25-20.34,61.01,.17,29.09,9.43,31.92-9.26,13.77,37.26-8.35,21.39,22.12,15.87-52.37,24.11-34.25,3.79-18.11,20.32-46-21.11-12.82-19.05-33.17-2.06,24.08-35.9,26.33-15.56Z"/><path class="cls-27" d="M108.08,90.95c-33.17-2.06-5.29,39.37,12.82,19.05-18.11,20.32,56.37,12.08,34.25-3.79,22.12,15.87,40.27-30.65,8.35-21.39,31.92-9.26-31.34-29.77-29.09-9.43-2.25-20.34-59.5,13.5-26.33,15.56Zm18.9,2.02c-11.37-3.25-2.75-7.85,8.85-4.73,10.64-5.58,20.05-2.97,9.67,2.68,11.37,3.25,2.75,7.85-8.85,4.73-10.64,5.58-20.05,2.97-9.67-2.68Z"/><path class="cls-2" d="M108.08,90.95c-33.17-2.06-5.29,39.37,12.82,19.05-18.11,20.32,56.37,12.08,34.25-3.79,22.12,15.87,40.27-30.65,8.35-21.39,31.92-9.26-31.34-29.77-29.09-9.43-2.25-20.34-59.5,13.5-26.33,15.56Zm18.9,2.02c-11.37-3.25-2.75-7.85,8.85-4.73,10.64-5.58,20.05-2.97,9.67,2.68,11.37,3.25,2.75,7.85-8.85,4.73-10.64,5.58-20.05,2.97-9.67-2.68Z"/></g></g><g><path class="cls-9" d="M177.05,253.27l4.04-1.47c-28.65-78.72-70.8-116.43-100.69-125.48l-1.24,4.11c15.69,4.75,33.04,17.32,48.85,35.39,19.57,22.37,36.07,51.79,49.05,87.45Z"/><g><path class="cls-9" d="M81.73,128.6h0c-.24,1.23-1.44,2.03-2.67,1.79l-7.04-.63c-1.23-.24-1.89-2.18-1.65-3.41h0c.24-1.23,1.59-2.77,2.82-2.53l6.75,2.1c1.23,.24,2.03,1.44,1.79,2.67Z"/><circle class="cls-6" cx="67.39" cy="125.77" r="8.75"/><g><path class="cls-12" d="M61.9,128.36c-.07,0-.13,0-.2-.02-.5-.1-.9-.56-1.11-1.31-.21-.72-.22-1.63-.04-2.56,.36-1.8,1.36-3.16,2.33-3.16,.07,0,.13,0,.2,.02,1.01,.2,1.53,1.93,1.15,3.86-.36,1.8-1.36,3.16-2.33,3.16Z"/><path class="cls-32" d="M62.89,121.41c.06,0,.12,0,.18,.02,.97,.19,1.45,1.88,1.08,3.76-.35,1.77-1.33,3.09-2.25,3.09-.06,0-.12,0-.18-.02-.97-.19-1.45-1.88-1.08-3.76,.35-1.77,1.33-3.09,2.25-3.09m0-.17c-1.01,0-2.05,1.39-2.41,3.23-.19,.94-.17,1.86,.04,2.6,.22,.78,.64,1.26,1.17,1.37,.07,.01,.14,.02,.22,.02,1.01,0,2.05-1.39,2.41-3.23,.4-2.01-.14-3.75-1.21-3.96-.07-.01-.14-.02-.22-.02h0Z"/></g><g><g class="cls-24"><ellipse class="cls-8" cx="63.64" cy="125.11" rx="3.48" ry="1.79" transform="translate(-71.43 163.29) rotate(-78.82)"/></g><ellipse class="cls-5" cx="62.4" cy="124.83" rx="3.48" ry="1.79" transform="translate(-72.17 161.85) rotate(-78.82)"/></g></g><g><path class="cls-9" d="M92.07,132.69h0c-1,.77-2.42,.58-3.19-.42l-4.88-5.11c-.77-1,.01-2.88,1.01-3.65h0c1-.77,3.02-1.04,3.78-.04l3.69,6.03c.77,1,.58,2.42-.42,3.19Z"/><circle class="cls-6" cx="83.16" cy="121.11" r="8.75"/><g><path class="cls-12" d="M78.32,119.76c-.51,0-.9-.16-1.13-.46-.31-.4-.3-1.01,.03-1.71,.32-.68,.91-1.37,1.66-1.95,.94-.72,2-1.15,2.84-1.15,.51,0,.9,.16,1.13,.46,.63,.82-.12,2.46-1.68,3.66-.94,.72-2,1.15-2.84,1.15Z"/><path class="cls-32" d="M81.71,114.56c.47,0,.84,.14,1.07,.43,.6,.78-.14,2.37-1.67,3.54-.96,.74-2,1.14-2.78,1.14-.47,0-.84-.14-1.07-.43-.6-.78,.14-2.37,1.67-3.54,.96-.74,2-1.14,2.78-1.14m0-.17h0c-.85,0-1.93,.44-2.89,1.17-1.62,1.25-2.37,2.91-1.7,3.78,.25,.32,.67,.5,1.2,.5,.85,0,1.93-.44,2.89-1.17,.76-.58,1.36-1.29,1.68-1.98,.34-.73,.35-1.37,.02-1.8-.25-.32-.67-.5-1.2-.5h0Z"/></g><g><g class="cls-20"><ellipse class="cls-8" cx="80.78" cy="118.14" rx="3.48" ry="1.79" transform="translate(-55.29 73.78) rotate(-37.58)"/></g><ellipse class="cls-5" cx="80.02" cy="117.11" rx="3.48" ry="1.79" transform="translate(-54.82 73.11) rotate(-37.58)"/></g></g><g><path class="cls-9" d="M98.23,134.63h0c.24,1.23-.57,2.43-1.8,2.66l-6.76,2.07c-1.23,.24-2.57-1.3-2.81-2.54h0c-.24-1.23,.43-3.16,1.66-3.4l7.04-.6c1.23-.24,2.43,.57,2.66,1.8Z"/><circle class="cls-6" cx="83.88" cy="137.4" r="8.75"/><g><path class="cls-12" d="M79.39,141.95c-.98,0-1.97-1.36-2.32-3.17-.18-.93-.16-1.83,.05-2.56,.22-.74,.61-1.2,1.11-1.3,.07-.01,.13-.02,.2-.02,.98,0,1.97,1.36,2.32,3.17,.37,1.93-.15,3.66-1.16,3.86-.07,.01-.13,.02-.2,.02Z"/><path class="cls-32" d="M78.42,134.99c.92,0,1.9,1.32,2.24,3.1,.36,1.89-.13,3.57-1.1,3.76-.06,.01-.12,.02-.18,.02-.92,0-1.9-1.32-2.24-3.1-.36-1.89,.13-3.57,1.1-3.76,.06-.01,.12-.02,.18-.02m0-.17h0c-.07,0-.14,0-.21,.02-.54,.1-.95,.59-1.18,1.36-.21,.74-.23,1.66-.05,2.6,.36,1.84,1.39,3.24,2.41,3.24,.07,0,.14,0,.21-.02,1.08-.21,1.62-1.95,1.23-3.96-.36-1.84-1.39-3.24-2.41-3.24h0Z"/></g><g><g class="cls-13"><ellipse class="cls-8" cx="80.16" cy="138.2" rx="1.79" ry="3.48" transform="translate(-24.75 17.71) rotate(-10.93)"/></g><ellipse class="cls-5" cx="78.9" cy="138.42" rx="1.79" ry="3.48" transform="translate(-24.81 17.47) rotate(-10.93)"/></g></g><g><path class="cls-9" d="M105.22,141.68h0c-1.18,.44-2.49-.15-2.93-1.32l-3.19-6.31c-.44-1.18,.85-2.75,2.02-3.2h0c1.18-.44,3.19-.12,3.63,1.06l1.78,6.84c.44,1.18-.15,2.49-1.32,2.93Z"/><circle class="cls-6" cx="100.05" cy="128.01" r="8.75"/><g><path class="cls-12" d="M96.78,125.44c-1,0-1.7-.33-1.92-.9-.37-.97,.83-2.32,2.68-3.01,.71-.27,1.43-.41,2.08-.41,1,0,1.7,.33,1.92,.9,.37,.97-.83,2.32-2.67,3.01-.71,.27-1.43,.41-2.08,.41Z"/><path class="cls-32" d="M99.62,121.2c.92,0,1.63,.29,1.84,.85,.35,.92-.83,2.22-2.63,2.9-.72,.27-1.43,.4-2.05,.4-.92,0-1.63-.29-1.84-.85-.35-.92,.83-2.22,2.63-2.9,.72-.27,1.43-.4,2.05-.4m0-.17c-.66,0-1.39,.14-2.11,.42-1.92,.72-3.11,2.1-2.72,3.12,.23,.61,.96,.96,2,.96,.66,0,1.39-.14,2.11-.42,1.92-.72,3.11-2.1,2.72-3.12-.23-.61-.96-.96-2-.96h0Z"/></g><g><g class="cls-25"><ellipse class="cls-8" cx="98.63" cy="124.48" rx="3.48" ry="1.79" transform="translate(-37.64 42.91) rotate(-20.7)"/></g><ellipse class="cls-5" cx="98.21" cy="123.28" rx="3.48" ry="1.79" transform="translate(-37.24 42.68) rotate(-20.7)"/></g></g><g><path class="cls-9" d="M110.54,145.33h0c-.13,1.25-1.25,2.16-2.5,2.03l-7.07,.02c-1.25-.13-2.08-1.99-1.95-3.24h0c.13-1.25,1.33-2.9,2.58-2.77l6.91,1.47c1.25,.13,2.16,1.25,2.03,2.5Z"/><circle class="cls-6" cx="96.01" cy="143.81" r="8.75"/><g><path class="cls-12" d="M90.58,146.9c-1.03-.11-1.7-1.79-1.49-3.74,.2-1.88,1.13-3.36,2.13-3.36,0,0,.1,0,.11,0,1.03,.11,1.7,1.79,1.49,3.74-.2,1.88-1.13,3.36-2.13,3.36,0,0-.1,0-.11,0Z"/><path class="cls-32" d="M91.21,139.88s.06,0,.1,0c.98,.1,1.62,1.74,1.42,3.65-.19,1.85-1.09,3.28-2.04,3.28-.03,0-.06,0-.1,0-.98-.1-1.62-1.74-1.42-3.65,.19-1.85,1.09-3.28,2.04-3.28m0-.17h0c-1.06,0-2.01,1.48-2.21,3.44-.1,.95,0,1.87,.28,2.58,.29,.75,.75,1.2,1.29,1.25,.04,0,.08,0,.11,0,1.06,0,2.01-1.48,2.21-3.44,.1-.95,0-1.87-.28-2.58-.29-.75-.75-1.2-1.29-1.25-.04,0-.08,0-.11,0h0Z"/></g><g><g class="cls-21"><ellipse class="cls-8" cx="92.22" cy="143.5" rx="3.48" ry="1.79" transform="translate(-60.07 220.34) rotate(-84.05)"/></g><ellipse class="cls-5" cx="90.95" cy="143.34" rx="3.48" ry="1.79" transform="translate(-61.04 218.94) rotate(-84.05)"/></g></g><g><path class="cls-9" d="M116.1,150.27h0c-1.24,.2-2.41-.64-2.61-1.88l-1.87-6.82c-.2-1.24,1.38-2.53,2.62-2.73h0c1.24-.2,3.15,.52,3.35,1.76l.39,7.06c.2,1.24-.64,2.41-1.88,2.61Z"/><circle class="cls-6" cx="113.76" cy="135.84" r="8.75"/><g><path class="cls-12" d="M112.12,132.77c-1.52,0-2.63-.55-2.76-1.37-.17-1.02,1.28-2.11,3.22-2.42,.36-.06,.72-.09,1.06-.09,1.52,0,2.63,.55,2.76,1.37,.17,1.02-1.28,2.11-3.22,2.42-.36,.06-.72,.09-1.06,.09Z"/><path class="cls-32" d="M113.65,128.98c1.43,0,2.55,.5,2.67,1.29,.16,.97-1.25,2.01-3.15,2.32-.36,.06-.71,.09-1.05,.09-1.43,0-2.55-.5-2.67-1.29-.16-.97,1.25-2.02,3.15-2.32,.36-.06,.71-.09,1.05-.09m0-.17c-.35,0-.71,.03-1.08,.09-2.02,.33-3.47,1.43-3.29,2.52,.14,.86,1.28,1.44,2.84,1.44,.35,0,.71-.03,1.08-.09,2.02-.33,3.47-1.43,3.29-2.52-.14-.86-1.28-1.44-2.84-1.44h0Z"/></g><g><g class="cls-29"><ellipse class="cls-8" cx="113.07" cy="132.1" rx="3.48" ry="1.79" transform="translate(-19.7 19.82) rotate(-9.22)"/></g><ellipse class="cls-5" cx="112.9" cy="130.83" rx="3.48" ry="1.79" transform="translate(-19.5 19.78) rotate(-9.22)"/></g></g><g><path class="cls-9" d="M120.6,154.9h0c-.38,1.2-1.65,1.86-2.85,1.49l-6.93-1.39c-1.2-.38-1.64-2.37-1.26-3.57h0c.38-1.2,1.88-2.58,3.08-2.2l6.48,2.82c1.2,.38,1.86,1.65,1.49,2.85Z"/><circle class="cls-6" cx="106.65" cy="150.52" r="8.75"/><g><path class="cls-12" d="M101.03,152.51c-.11,0-.21-.02-.31-.05-.49-.15-.83-.66-.96-1.42-.13-.74-.04-1.65,.24-2.55,.53-1.67,1.6-2.89,2.54-2.89,.11,0,.21,.02,.31,.05,.49,.15,.83,.66,.96,1.42,.13,.74,.04,1.65-.24,2.55-.53,1.67-1.6,2.89-2.54,2.89Z"/><path class="cls-32" d="M102.54,145.69c.1,0,.19,.01,.29,.04,.94,.3,1.24,2.02,.66,3.86-.52,1.65-1.57,2.83-2.46,2.83-.1,0-.19-.01-.29-.04-.94-.3-1.24-2.02-.66-3.86,.52-1.65,1.57-2.83,2.46-2.83m0-.17h0c-.98,0-2.09,1.24-2.63,2.95-.29,.91-.37,1.83-.24,2.59,.14,.8,.5,1.32,1.02,1.49,.11,.03,.22,.05,.34,.05,.98,0,2.09-1.24,2.63-2.95,.61-1.95,.27-3.74-.77-4.07-.11-.03-.22-.05-.34-.05h0Z"/></g><g><g class="cls-16"><ellipse class="cls-8" cx="103" cy="149.46" rx="3.48" ry="1.79" transform="translate(-70.45 202.94) rotate(-72.57)"/></g><ellipse class="cls-5" cx="101.79" cy="149.05" rx="3.48" ry="1.79" transform="translate(-70.91 201.5) rotate(-72.57)"/></g></g><g><path class="cls-9" d="M127.74,161.48h0c-1.26-.03-2.25-1.08-2.21-2.34l-.56-7.05c.03-1.26,1.83-2.23,3.08-2.19h0c1.26,.03,2.99,1.1,2.96,2.36l-.94,7.01c-.03,1.26-1.08,2.25-2.34,2.21Z"/><circle class="cls-6" cx="128.14" cy="146.87" r="8.75"/><g><path class="cls-12" d="M128.17,143.66c-.94-.03-1.83-.24-2.49-.6-.68-.37-1.04-.86-1.03-1.37,.03-1,1.53-1.78,3.43-1.78h.19c.94,.03,1.83,.24,2.49,.6,.68,.37,1.04,.86,1.03,1.37-.03,1-1.53,1.78-3.43,1.78h-.19Z"/><path class="cls-32" d="M128.08,140c.06,0,.12,0,.19,0,1.92,.05,3.46,.9,3.43,1.88-.03,.95-1.51,1.7-3.34,1.7-.06,0-.12,0-.19,0-1.92-.05-3.46-.9-3.43-1.88,.03-.95,1.51-1.7,3.34-1.7m0-.17c-1.97,0-3.48,.8-3.51,1.86-.01,.54,.37,1.06,1.07,1.45,.67,.37,1.57,.59,2.52,.61,.06,0,.13,0,.19,0,1.97,0,3.48-.8,3.51-1.86,.01-.54-.37-1.06-1.07-1.45-.67-.37-1.57-.59-2.52-.61-.06,0-.13,0-.19,0h0Z"/></g><g><g class="cls-18"><ellipse class="cls-8" cx="128.16" cy="143.07" rx="1.79" ry="3.48" transform="translate(-18.34 267.28) rotate(-88.44)"/></g><ellipse class="cls-5" cx="128.22" cy="141.79" rx="1.79" ry="3.48" transform="translate(-17.01 266.1) rotate(-88.44)"/></g></g><g><path class="cls-9" d="M131.29,166.87h0c-.59,1.11-1.97,1.52-3.08,.93l-6.55-2.66c-1.11-.59-1.17-2.63-.57-3.74h0c.59-1.11,2.33-2.18,3.43-1.59l5.84,3.98c1.11,.59,1.52,1.97,.93,3.08Z"/><circle class="cls-6" cx="118.41" cy="159.96" r="8.75"/><g><path class="cls-12" d="M112.74,160.88c-.19,0-.36-.04-.52-.12-.91-.49-.89-2.3,.04-4.03,.75-1.4,1.91-2.38,2.82-2.38,.19,0,.36,.04,.52,.13,.91,.49,.89,2.3-.04,4.03-.75,1.4-1.91,2.38-2.82,2.38Z"/><path class="cls-32" d="M115.07,154.43c.17,0,.33,.04,.48,.12,.87,.47,.84,2.22-.07,3.91-.76,1.41-1.89,2.34-2.74,2.34-.17,0-.33-.04-.48-.12-.87-.47-.84-2.22,.07-3.91,.76-1.41,1.89-2.34,2.74-2.34m0-.17c-.95,0-2.12,.98-2.89,2.43-.97,1.81-.97,3.63,0,4.15,.17,.09,.36,.14,.56,.14,.95,0,2.12-.98,2.89-2.43,.45-.84,.71-1.73,.72-2.5,.01-.81-.24-1.39-.72-1.65-.17-.09-.36-.14-.56-.14h0Z"/></g><g><g class="cls-26"><ellipse class="cls-8" cx="115.02" cy="158.23" rx="3.48" ry="1.79" transform="translate(-78.79 184.77) rotate(-61.78)"/></g><ellipse class="cls-5" cx="113.91" cy="157.61" rx="3.48" ry="1.79" transform="translate(-78.83 183.46) rotate(-61.78)"/></g></g><g><path class="cls-9" d="M139.65,176.98h0c-1.04,.71-2.45,.45-3.16-.59l-4.59-5.37c-.71-1.04,.17-2.88,1.21-3.59h0c1.04-.71,3.07-.87,3.78,.17l3.36,6.22c.71,1.04,.45,2.45-.59,3.16Z"/><circle class="cls-6" cx="131.39" cy="164.93" r="8.75"/><g><path class="cls-12" d="M126.77,163.32c-.58,0-1.01-.18-1.25-.53-.29-.42-.25-1.03,.12-1.71,.36-.66,.98-1.32,1.76-1.85,.93-.64,1.93-1,2.75-1,.58,0,1.01,.18,1.25,.53,.29,.42,.25,1.03-.12,1.71-.36,.66-.98,1.32-1.76,1.85-.93,.64-1.93,1-2.75,1Z"/><path class="cls-32" d="M130.16,158.31c.53,0,.95,.16,1.18,.49,.56,.81-.27,2.36-1.86,3.44-.94,.64-1.94,.99-2.71,.99-.53,0-.95-.16-1.18-.49-.56-.81,.28-2.36,1.86-3.44,.94-.64,1.94-.99,2.71-.99m0-.17h0c-.84,0-1.86,.37-2.8,1.02-1.69,1.16-2.53,2.78-1.91,3.68,.25,.37,.71,.57,1.32,.57,.84,0,1.86-.37,2.8-1.02,.79-.54,1.42-1.21,1.79-1.88,.38-.71,.43-1.35,.12-1.8-.25-.37-.71-.57-1.32-.57h0Z"/></g><g><g class="cls-23"><ellipse class="cls-8" cx="129.17" cy="161.83" rx="3.48" ry="1.79" transform="translate(-68.87 101.38) rotate(-34.43)"/></g><ellipse class="cls-5" cx="128.47" cy="160.76" rx="3.48" ry="1.79" transform="translate(-68.39 100.79) rotate(-34.43)"/></g></g></g><g><path class="cls-9" d="M180.23,258.07l4.04-1.47c-9.97-27.38-22.73-49.97-37.93-67.14-15.31-17.29-28.64-24.01-35.22-26.47l-1.5,4.02c20.97,7.84,50.54,35.89,70.62,91.06Z"/><path class="cls-9" d="M112.2,165.8h0c-.47,1.17-1.79,1.73-2.96,1.26l-6.8-1.93c-1.17-.47-1.45-2.49-.98-3.65h0c.47-1.17,2.07-2.42,3.24-1.96l6.24,3.32c1.17,.47,1.73,1.79,1.26,2.96Z"/><circle class="cls-4" cx="98.64" cy="160.35" r="8.75"/><g><path class="cls-30" d="M92.97,161.99c-.15,0-.3-.03-.43-.08-.51-.2-.83-.76-.9-1.57-.07-.76,.09-1.67,.45-2.56,.65-1.62,1.79-2.75,2.76-2.75,.15,0,.3,.03,.43,.08,1.02,.41,1.23,2.23,.46,4.13-.65,1.62-1.79,2.74-2.76,2.74Z"/><path class="cls-32" d="M94.84,155.21c.13,0,.25,.02,.36,.07,.92,.37,1.08,2.11,.36,3.9-.63,1.56-1.72,2.63-2.59,2.63-.13,0-.25-.02-.36-.07-.92-.37-1.08-2.11-.36-3.9,.63-1.56,1.72-2.63,2.59-2.63m0-.36h0c-1.05,0-2.25,1.17-2.93,2.86-.37,.91-.53,1.85-.46,2.65,.08,.88,.44,1.49,1.01,1.72,.16,.06,.32,.09,.5,.09,1.05,0,2.25-1.17,2.93-2.86,.37-.91,.53-1.85,.46-2.65-.08-.88-.44-1.49-1.02-1.72-.16-.06-.32-.09-.5-.09h0Z"/></g><g><g class="cls-31"><ellipse class="cls-1" cx="95.08" cy="159" rx="3.48" ry="1.79" transform="translate(-87.92 187.84) rotate(-68.08)"/></g><ellipse class="cls-5" cx="93.91" cy="158.5" rx="3.48" ry="1.79" transform="translate(-88.19 186.43) rotate(-68.08)"/></g><path class="cls-9" d="M116.39,168.02h0c-.05,1.26-1.11,2.23-2.36,2.18l-7.05,.46c-1.26-.05-2.2-1.86-2.15-3.11h0c.05-1.26,1.14-2.98,2.4-2.93l6.99,1.03c1.26,.05,2.23,1.11,2.18,2.36Z"/><circle class="cls-4" cx="101.79" cy="167.43" r="8.75"/><g><path class="cls-30" d="M96.56,170.94c-.55-.02-1.04-.44-1.38-1.17-.32-.7-.48-1.61-.44-2.56,.08-2.01,.99-3.58,2.07-3.58,1.15,.05,1.94,1.69,1.86,3.74-.08,2.01-.99,3.58-2.07,3.58,0,0-.04,0-.04,0Z"/><path class="cls-32" d="M96.81,163.8s.03,0,.04,0c.99,.04,1.72,1.63,1.65,3.55-.08,1.9-.92,3.41-1.89,3.41-.01,0-.03,0-.04,0-.99-.04-1.72-1.63-1.65-3.55,.08-1.9,.92-3.41,1.89-3.41m0-.36h0c-1.19,0-2.16,1.61-2.25,3.75-.04,.99,.12,1.93,.46,2.65,.37,.8,.91,1.25,1.53,1.28,0,0,.05,0,.05,0,1.19,0,2.16-1.61,2.25-3.75,.04-.99-.12-1.93-.46-2.65-.37-.8-.91-1.25-1.53-1.28,0,0-.05,0-.05,0h0Z"/></g><g><g class="cls-10"><ellipse class="cls-1" cx="97.98" cy="167.35" rx="3.48" ry="1.79" transform="translate(-73.21 258.46) rotate(-87.67)"/></g><ellipse class="cls-5" cx="96.71" cy="167.27" rx="3.48" ry="1.79" transform="translate(-74.35 257.11) rotate(-87.67)"/></g><path class="cls-9" d="M124.89,172.5h0c-1.13,.55-2.49,.07-3.04-1.06l-3.73-6c-.55-1.13,.6-2.82,1.73-3.36h0c1.13-.55,3.17-.4,3.71,.73l2.39,6.65c.55,1.13,.07,2.49-1.06,3.04Z"/><circle class="cls-4" cx="118.53" cy="159.34" r="8.75"/><g><path class="cls-30" d="M114.68,157.18c-.86,0-1.47-.28-1.71-.8-.14-.3-.15-.66-.02-1.04,.29-.84,1.24-1.74,2.46-2.33,.83-.4,1.69-.62,2.44-.62,.86,0,1.47,.28,1.71,.8,.24,.49,.1,1.12-.39,1.77-.46,.61-1.19,1.18-2.05,1.6-.83,.4-1.69,.62-2.44,.62Z"/><path class="cls-32" d="M117.84,152.58c.75,0,1.33,.23,1.55,.7,.43,.89-.62,2.29-2.36,3.13-.83,.4-1.67,.6-2.36,.6-.75,0-1.33-.23-1.55-.7-.43-.89,.62-2.29,2.36-3.13,.83-.4,1.67-.6,2.36-.6m0-.36h0c-.77,0-1.67,.23-2.52,.64-1.94,.94-3.05,2.52-2.52,3.6,.28,.58,.95,.9,1.88,.9,.77,0,1.67-.23,2.52-.64,.89-.43,1.64-1.02,2.12-1.65,.53-.7,.67-1.4,.4-1.95-.28-.58-.95-.9-1.87-.9h0Z"/></g><g><g class="cls-22"><ellipse class="cls-1" cx="116.8" cy="155.95" rx="3.48" ry="1.79" transform="translate(-56.25 66.42) rotate(-25.81)"/></g><ellipse class="cls-5" cx="116.27" cy="154.79" rx="3.48" ry="1.79" transform="translate(-55.8 66.07) rotate(-25.81)"/></g><path class="cls-9" d="M126.38,175.69h0c-.05,1.26-1.11,2.23-2.36,2.18l-7.05,.46c-1.26-.05-2.2-1.86-2.15-3.11h0c.05-1.26,1.14-2.98,2.4-2.93l6.99,1.03c1.26,.05,2.23,1.11,2.18,2.36Z"/><circle class="cls-4" cx="111.78" cy="175.09" r="8.75"/><g><path class="cls-30" d="M106.56,178.61c-.55-.02-1.04-.44-1.38-1.17-.32-.7-.48-1.61-.44-2.56,.08-2.01,.99-3.58,2.07-3.58,.59,.02,1.08,.44,1.42,1.17,.32,.7,.48,1.61,.44,2.56-.08,2.01-.99,3.58-2.07,3.58,0,0-.04,0-.04,0Z"/><path class="cls-32" d="M106.81,171.47s.03,0,.04,0c.99,.04,1.72,1.63,1.65,3.55-.08,1.9-.92,3.41-1.89,3.41-.01,0-.03,0-.04,0-.99-.04-1.72-1.63-1.65-3.55,.08-1.9,.92-3.41,1.89-3.41m0-.36h0c-1.19,0-2.16,1.61-2.25,3.75-.04,.99,.12,1.93,.46,2.65,.37,.8,.91,1.25,1.53,1.28,0,0,.05,0,.05,0,1.19,0,2.16-1.61,2.25-3.75,.04-.99-.12-1.93-.46-2.65-.37-.8-.91-1.25-1.53-1.28,0,0-.05,0-.05,0h0Z"/></g><g><g class="cls-14"><ellipse class="cls-1" cx="107.98" cy="175.02" rx="3.48" ry="1.79" transform="translate(-71.28 275.8) rotate(-87.67)"/></g><ellipse class="cls-5" cx="106.7" cy="174.94" rx="3.48" ry="1.79" transform="translate(-72.42 274.46) rotate(-87.67)"/></g><path class="cls-9" d="M134.89,180.16h0c-1.13,.55-2.49,.07-3.04-1.06l-3.73-6c-.55-1.13,.6-2.82,1.73-3.36h0c1.13-.55,3.17-.4,3.71,.73l2.39,6.65c.55,1.13,.07,2.49-1.06,3.04Z"/><circle class="cls-4" cx="128.52" cy="167.01" r="8.75"/><g><path class="cls-30" d="M124.68,164.85c-.86,0-1.47-.28-1.71-.8-.48-.99,.59-2.47,2.44-3.37,.83-.4,1.69-.62,2.44-.62,.86,0,1.47,.28,1.71,.8,.24,.49,.1,1.12-.39,1.77-.46,.61-1.19,1.18-2.05,1.6-.83,.4-1.69,.62-2.44,.62Z"/><path class="cls-32" d="M127.84,160.25c.75,0,1.33,.23,1.55,.7,.43,.89-.62,2.29-2.36,3.13-.83,.4-1.67,.6-2.36,.6-.75,0-1.33-.23-1.55-.7-.43-.89,.62-2.29,2.36-3.13,.83-.4,1.67-.6,2.36-.6m0-.36h0c-.77,0-1.67,.23-2.52,.64-1.94,.94-3.05,2.52-2.52,3.6,.28,.58,.95,.9,1.88,.9,.77,0,1.67-.23,2.52-.64,.89-.43,1.64-1.02,2.12-1.65,.53-.7,.67-1.4,.4-1.95-.28-.58-.95-.9-1.87-.9h0Z"/></g><g><g class="cls-28"><ellipse class="cls-1" cx="126.8" cy="163.62" rx="3.48" ry="1.79" transform="translate(-58.59 71.53) rotate(-25.81)"/></g><ellipse class="cls-5" cx="126.26" cy="162.46" rx="3.48" ry="1.79" transform="translate(-58.14 71.19) rotate(-25.81)"/></g><g><path class="cls-9" d="M138.58,183.8h0c-.05,1.26-1.11,2.23-2.36,2.18l-7.05,.46c-1.26-.05-2.2-1.86-2.15-3.11h0c.05-1.26,1.14-2.98,2.4-2.93l6.99,1.03c1.26,.05,2.23,1.11,2.18,2.36Z"/><circle class="cls-4" cx="123.98" cy="183.21" r="8.75"/><g><path class="cls-30" d="M118.75,186.72c-.55-.02-1.04-.44-1.38-1.17-.32-.7-.48-1.61-.44-2.56,.08-2.01,.99-3.58,2.07-3.58,.59,.02,1.08,.44,1.42,1.17,.32,.7,.48,1.61,.44,2.56-.08,2.01-.99,3.58-2.07,3.58,0,0-.04,0-.04,0Z"/><path class="cls-32" d="M119,179.58s.03,0,.04,0c.99,.04,1.72,1.63,1.65,3.55-.08,1.9-.92,3.41-1.89,3.41-.01,0-.03,0-.04,0-.99-.04-1.72-1.63-1.65-3.55,.08-1.9,.92-3.41,1.89-3.41m0-.36h0c-1.19,0-2.16,1.61-2.25,3.75-.04,.99,.12,1.93,.46,2.65,.37,.8,.91,1.25,1.53,1.28,0,0,.05,0,.05,0,1.19,0,2.16-1.61,2.25-3.75,.04-.99-.12-1.93-.46-2.65-.37-.8-.91-1.25-1.53-1.28,0,0-.05,0-.05,0h0Z"/></g><g><g class="cls-15"><ellipse class="cls-1" cx="120.17" cy="183.13" rx="3.48" ry="1.79" transform="translate(-67.68 295.77) rotate(-87.67)"/></g><ellipse class="cls-5" cx="118.9" cy="183.05" rx="3.48" ry="1.79" transform="translate(-68.83 294.43) rotate(-87.67)"/></g></g><path class="cls-9" d="M143.72,189.23h0c-1.24,.19-2.4-.67-2.59-1.91l-1.78-6.84c-.19-1.24,1.41-2.51,2.65-2.7h0c1.24-.19,3.14,.56,3.33,1.8l.3,7.06c.19,1.24-.67,2.4-1.91,2.59Z"/><circle class="cls-4" cx="141.55" cy="174.78" r="8.75"/><g><path class="cls-30" d="M140.03,171.79c-1.61,0-2.78-.59-2.91-1.48-.08-.54,.24-1.1,.89-1.57,.62-.45,1.49-.77,2.44-.91,.34-.05,.67-.08,1-.08,1.61,0,2.78,.59,2.91,1.48,.08,.54-.24,1.1-.89,1.57-.62,.45-1.49,.77-2.44,.91-.34,.05-.67,.08-1,.08Z"/><path class="cls-32" d="M141.45,167.92c1.46,0,2.61,.52,2.73,1.33,.15,.98-1.28,2-3.18,2.28-.34,.05-.66,.07-.98,.07-1.46,0-2.61-.52-2.73-1.33-.15-.98,1.28-2,3.18-2.28,.34-.05,.66-.07,.98-.07m0-.36c-.34,0-.68,.03-1.03,.08-.98,.15-1.87,.48-2.51,.95-.71,.51-1.06,1.13-.97,1.75,.15,.98,1.39,1.63,3.09,1.63,.34,0,.68-.03,1.03-.08,.98-.15,1.87-.48,2.51-.95,.71-.51,1.06-1.13,.97-1.75-.15-.98-1.39-1.63-3.09-1.63h0Z"/></g><g><g class="cls-11"><ellipse class="cls-1" cx="140.91" cy="171.03" rx="3.48" ry="1.79" transform="translate(-23.77 22.75) rotate(-8.51)"/></g><ellipse class="cls-5" cx="140.75" cy="169.77" rx="3.48" ry="1.79" transform="translate(-23.58 22.71) rotate(-8.51)"/></g></g></g><g><path class="cls-17" d="M166.82,219.56c-.52-.14-1.1-.04-1.62,.24-9.1,5.11-17.4,12.47-22.43,21.73-1.14,2.11-2.09,5.17-.37,7.25,1.83,2.22,5.66,1.02,7.91,.2,5.14-1.88,9.26-5.83,12.26-10.31,1.72-2.58,3.18-5.31,4.52-8.1,.75-1.55,1.47-3.14,2-4.78m.02,0c1.46,.91,3.04,1.66,4.6,2.37,2.82,1.27,5.69,2.44,8.67,3.3,5.18,1.51,10.87,1.89,16.02,.02,2.25-.82,5.95-2.36,5.93-5.24-.02-2.7-2.72-4.43-4.95-5.31-9.8-3.86-20.89-4.16-31.15-2.23-.58,.11-1.09,.41-1.4,.85m-21.51,25.4c.29-.97,.82-1.9,1.33-2.76,2.27-3.84,5.17-7.31,8.38-10.4,3.25-3.11,6.92-5.79,10.78-8.09-.36,1.4-.89,2.75-1.51,4.09-.99,2.14-2.05,4.26-3.22,6.3-2.29,3.98-5.23,7.66-9.21,10.06-1.83,1.1-4.17,2.02-6.34,2.15-.36,.02-.29-1.04-.2-1.35Zm54.93-18.57c-1.74,1.3-4.13,2.1-6.24,2.43-4.59,.72-9.21-.21-13.52-1.78-2.22-.81-4.38-1.75-6.52-2.76-1.34-.63-2.61-1.32-3.79-2.16,4.44-.73,8.97-1.04,13.46-.74,4.44,.3,8.9,1.1,13.1,2.58,.95,.33,1.95,.7,2.8,1.26,.27,.18,1,.95,.71,1.16Z"/><path class="cls-17" d="M208.62,195.23c-7.58-.43-14.86,3.81-21.22,7.42-7.58,4.3-14.69,9.4-21.21,15.18-7.75-.21-15.51,.29-23.17,1.52-3.88,.62-7.74,1.42-11.55,2.41-3.51,.91-7,2.13-10.02,4.18-2.85,1.93-5.78,4.95-5.98,8.58-.21,3.78,2.74,6.7,6.18,7.69,3.56,1.02,7.42-.05,10.91-.86,3.99-.93,7.94-2.09,11.73-3.66,4.19-1.74,8.11-3.99,11.71-6.74,3.55-2.71,6.84-5.75,10.33-8.54,.09-.07,.15-.15,.23-.22,.13,0,.13-.37,.26-.37,.27,0,.52-.06,.75-.17,.25-.06,.49-.17,.69-.35,.1-.09,.34,.2,.44,.11,.1,.01,.2,.03,.31,.02,3.99-.09,7.97,.06,11.96-.05,4.03-.11,7.99-.61,11.9-1.61,3.9-.99,7.67-2.45,11.32-4.15,3.34-1.56,7.07-3.14,9.85-5.62,2.68-2.4,4.49-6.17,3.13-9.76-1.32-3.51-5.1-4.81-8.55-5Zm-61.96,36.55c-3.2,1.67-6.61,2.94-10.06,3.98-3.23,.97-6.58,1.89-9.94,2.33-2.25,.29-5.9,.23-6.75-2.47-.78-2.49,2.3-4.95,4.06-6.14,2.64-1.79,5.75-2.78,8.8-3.59,3.35-.89,6.76-1.58,10.18-2.14,5.56-.91,11.19-1.43,16.82-1.58-4.14,3.52-8.27,7.08-13.11,9.6Zm64.76-25.28c-2.32,2.21-5.68,3.58-8.54,4.92-3.32,1.56-6.75,2.92-10.28,3.91-6.15,1.73-12.41,1.7-18.7,1.69,3.71-2.95,7.58-5.69,11.6-8.19,2.98-1.85,6.03-3.59,9.17-5.17,2.88-1.45,5.85-2.86,9-3.63,2.52-.62,6.02-1,8.34,.47,2.32,1.47,.99,4.51-.58,6Z"/><ellipse class="cls-17" cx="167.22" cy="220.66" rx="3.54" ry="5.55" transform="translate(-65.38 70.5) rotate(-20)"/></g></svg>