<?xml version="1.0" encoding="UTF-8"?><svg id="box" xmlns="http://www.w3.org/2000/svg" viewBox="0 0 272.35 272.35"><defs><style>.cls-1{fill:#fbe5e5;}.cls-2{fill:#e41a1a;}.cls-2,.cls-3,.cls-4{stroke:#12519b;stroke-width:1.79px;}.cls-2,.cls-4{stroke-miterlimit:10;}.cls-3{fill:none;}.cls-3,.cls-5{stroke-linecap:round;stroke-linejoin:round;}.cls-6{fill:#e9d56b;}.cls-7{fill:#ee899c;}.cls-5{fill:#f1f5fb;stroke:#2f5c9a;stroke-width:1.83px;}.cls-8{fill:#fff3b3;}.cls-4{fill:#008a89;}</style></defs><g><g><path class="cls-4" d="M203.14,239.16l5.04-1.84c-28.72-78.9-71.02-116.73-101.04-125.81l-1.56,5.14c15.59,4.72,32.86,17.23,48.6,35.23,19.53,22.32,36,51.68,48.95,87.28Z"/><g><path class="cls-4" d="M127.1,124.81h0c2.1-4.48,.17-9.82-4.31-11.92l-23.83-14.43c-4.48-2.1-11.07,2.5-13.17,6.99h0c-2.1,4.48-1.42,12.49,3.06,14.59l26.33,9.08c4.48,2.1,9.82,.17,11.92-4.31Z"/><path class="cls-6" d="M65.76,96.07c-18.53-8.68,31.96-51.98,23.22-19.91,8.74-32.07,38.97,7.67,13.9,18.28,25.07-10.6-6.73,57.25-14.62,31.2,7.89,26.05-41.99,28.25-22.94,1.01-19.05,27.24-18.08-39.26,.45-30.58Z"/><path class="cls-3" d="M65.76,96.07c-18.53-8.68,31.96-51.98,23.22-19.91,8.74-32.07,38.97,7.67,13.9,18.28,25.07-10.6-6.73,57.25-14.62,31.2,7.89,26.05-41.99,28.25-22.94,1.01-19.05,27.24-18.08-39.26,.45-30.58Z"/><path class="cls-8" d="M60.13,124.22c-19.05,27.24,30.83,25.04,22.94-1.01,7.89,26.05,39.69-41.81,14.62-31.2,25.07-10.6-5.16-50.34-13.9-18.28,8.74-32.07-41.74,11.23-23.22,19.91-18.53-8.68-19.5,57.82-.45,30.58Zm11.57-15.08c-8.7,8.01-8.13-1.74,.58-10.02,.78-11.99,7.92-18.66,7.33-6.85,8.7-8.01,8.13,1.74-.58,10.02-.78,11.99-7.92,18.66-7.33,6.85Z"/><path class="cls-3" d="M60.13,124.22c-19.05,27.24,30.83,25.04,22.94-1.01,7.89,26.05,39.69-41.81,14.62-31.2,25.07-10.6-5.16-50.34-13.9-18.28,8.74-32.07-41.74,11.23-23.22,19.91-18.53-8.68-19.5,57.82-.45,30.58Zm11.57-15.08c-8.7,8.01-8.13-1.74,.58-10.02,.78-11.99,7.92-18.66,7.33-6.85,8.7-8.01,8.13,1.74-.58,10.02-.78,11.99-7.92,18.66-7.33,6.85Z"/></g></g><g><path class="cls-4" d="M11.02,68.55c14.63,14.61,38.3,14.6,52.91-.03-14.63-14.61-38.3-14.6-52.91,.03Z"/><path class="cls-4" d="M193.63,218.51l6.24-2.76C156.72,118.14,99.83,73.78,60.99,64.81l-1.53,6.65c20.18,4.66,43.14,19.05,64.64,40.53,26.67,26.64,50.06,62.48,69.53,106.51Z"/><path class="cls-4" d="M38.73,94.73c15.14,6.21,32.41-1.02,38.61-16.16-15.14-6.21-32.41,1.02-38.61,16.16Z"/><path class="cls-4" d="M52.62,112.92c18.7,7.01,39.5-2.45,46.51-21.15-18.7-7.01-39.5,2.45-46.51,21.15Z"/><path class="cls-4" d="M70.42,132.81c20.36,7.38,42.81-3.12,50.19-23.47-20.36-7.38-42.81,3.12-50.19,23.47Z"/><path class="cls-4" d="M92.48,147.48c17.69,7.24,37.86-1.21,45.1-18.9-17.69-7.24-37.86,1.21-45.1,18.9Z"/><path class="cls-4" d="M113.91,165.6c15.94,3.7,31.82-6.21,35.52-22.14-15.94-3.7-31.82,6.21-35.52,22.14Z"/><path class="cls-4" d="M132.36,177.23c12.85,2.98,25.66-5.01,28.64-17.86-12.85-2.98-25.66,5.01-28.64,17.86Z"/><path class="cls-4" d="M68.13,32.22c14.59,7.41,20.4,25.2,12.99,39.79-14.59-7.41-20.4-25.2-12.99-39.79Z"/><path class="cls-4" d="M95.79,33.5c16.12,11.79,19.61,34.37,7.82,50.49-16.12-11.79-19.61-34.37-7.82-50.49Z"/><path class="cls-4" d="M119.89,46.56c17.07,13.33,20.1,37.92,6.77,54.99-17.07-13.33-20.1-37.92-6.77-54.99Z"/><path class="cls-4" d="M143.76,72.33c13.42,13.61,13.26,35.48-.36,48.9-13.42-13.61-13.26-35.48,.36-48.9Z"/><path class="cls-4" d="M161.57,94.26c9.47,13.34,6.34,31.8-7,41.27-9.47-13.34-6.34-31.8,7-41.27Z"/><path class="cls-4" d="M172.79,118.64c7.64,10.76,5.11,25.64-5.65,33.27-7.64-10.76-5.11-25.64,5.65-33.27Z"/></g><g><path class="cls-4" d="M211.39,251.01l-5.04,1.84c-28.72-78.9-20.62-135.07-3.47-161.33l4.49,2.94c-8.91,13.64-14.09,34.32-14.58,58.23-.61,29.65,5.65,62.73,18.6,98.33Z"/><g><path class="cls-4" d="M196.14,114.54h0c-4.49-2.08-6.44-7.41-4.36-11.9l8.98-26.37c2.08-4.49,10.09-5.2,14.58-3.12h0c4.49,2.08,9.12,8.66,7.04,13.15l-14.34,23.88c-2.08,4.49-7.41,6.44-11.9,4.36Z"/><path class="cls-6" d="M224.65,53.09c8.61-18.56-57.89-19.28-30.58-.33-27.31-18.95-24.92,30.93,1.1,22.94-26.02,7.99,41.96,39.53,31.26,14.5,10.7,25.03,50.32-5.35,18.22-13.97,32.1,8.62-11.39-41.7-20-23.14Z"/><path class="cls-3" d="M224.65,53.09c8.61-18.56-57.89-19.28-30.58-.33-27.31-18.95-24.92,30.93,1.1,22.94-26.02,7.99,41.96,39.53,31.26,14.5,10.7,25.03,50.32-5.35,18.22-13.97,32.1,8.62-11.39-41.7-20-23.14Z"/><path class="cls-8" d="M227.06,47.9c8.61-18.56-57.89-19.28-30.58-.33-27.31-18.95-24.92,30.93,1.1,22.94-26.02,7.99,41.96,39.53,31.26,14.5,10.7,25.03,50.32-5.35,18.22-13.97,32.1,8.62-11.39-41.7-20-23.14Zm-8.58,18.49c-11.99-.74-18.69-7.85-6.88-7.3-8.04-8.67,1.71-8.14,10.02,.54,11.99,.74,18.69,7.85,6.88,7.3,8.04,8.66-1.71,8.14-10.02-.54Z"/><path class="cls-3" d="M227.06,47.9c8.61-18.56-57.89-19.28-30.58-.33-27.31-18.95-24.92,30.93,1.1,22.94-26.02,7.99,41.96,39.53,31.26,14.5,10.7,25.03,50.32-5.35,18.22-13.97,32.1,8.62-11.39-41.7-20-23.14Zm-8.58,18.49c-11.99-.74-18.69-7.85-6.88-7.3-8.04-8.67,1.71-8.14,10.02,.54,11.99,.74,18.69,7.85,6.88,7.3,8.04,8.66-1.71,8.14-10.02-.54Z"/></g></g><g><path class="cls-4" d="M212.49,250.62l-5.04,1.84c-9.99-27.44-14.74-53.02-14.14-76.01,.61-23.2,6.55-37.01,10.04-43.17l4.67,2.64c-10.96,19.39-15.55,59.7,4.47,114.7Z"/><g><path class="cls-4" d="M197.59,156.24h0c-4.63-1.76-6.95-6.94-5.18-11.57l7.11-26.93c1.76-4.63,9.7-5.89,14.33-4.13h0c4.63,1.76,9.71,8,7.94,12.62l-12.63,24.83c-1.76,4.63-6.94,6.95-11.57,5.18Z"/><path class="cls-6" d="M221.73,92.95c7.29-19.12-59.1-15.17-30.53,1.81-28.57-16.99-22.69,32.6,2.7,22.8-25.4,9.8,44.62,36.5,32.2,12.28,12.42,24.22,49.83-8.87,17.2-15.21,32.63,6.35-14.28-40.8-21.57-21.68Z"/><path class="cls-3" d="M221.73,92.95c7.29-19.12-59.1-15.17-30.53,1.81-28.57-16.99-22.69,32.6,2.7,22.8-25.4,9.8,44.62,36.5,32.2,12.28,12.42,24.22,49.83-8.87,17.2-15.21,32.63,6.35-14.28-40.8-21.57-21.68Z"/><path class="cls-8" d="M223.77,87.6c7.29-19.12-59.1-15.17-30.53,1.81-28.57-16.99-22.69,32.6,2.7,22.8-25.4,9.8,44.62,36.5,32.2,12.28,12.42,24.22,49.83-8.87,17.2-15.21,32.63,6.35-14.28-40.8-21.57-21.68Zm-7.26,19.05c-12.01,.1-19.2-6.52-7.38-6.8-8.63-8.08,1.14-8.24,10.03-.16,12.01-.1,19.2,6.52,7.38,6.8,8.63,8.08-1.14,8.24-10.03,.16Z"/><path class="cls-3" d="M223.77,87.6c7.29-19.12-59.1-15.17-30.53,1.81-28.57-16.99-22.69,32.6,2.7,22.8-25.4,9.8,44.62,36.5,32.2,12.28,12.42,24.22,49.83-8.87,17.2-15.21,32.63,6.35-14.28-40.8-21.57-21.68Zm-7.26,19.05c-12.01,.1-19.2-6.52-7.38-6.8-8.63-8.08,1.14-8.24,10.03-.16,12.01-.1,19.2,6.52,7.38,6.8,8.63,8.08-1.14,8.24-10.03,.16Z"/></g></g><g><rect class="cls-4" x="176.98" y="81.3" width="5.37" height="173.91" transform="translate(-46.71 71.6) rotate(-20)"/><g><path class="cls-4" d="M152.94,94.86h0c-4.65,1.69-9.8-.71-11.49-5.36l-12.25-25.02c-1.69-4.65,3.48-10.81,8.13-12.5h0c4.65-1.69,12.57-.3,14.26,4.35l6.7,27.04c1.69,4.65-.71,9.8-5.36,11.49Z"/><path class="cls-6" d="M129.78,31.21c-7-19.23-54.62,27.2-21.9,21.35-32.72,5.85,4.17,39.5,16.96,15.47-12.79,24.03,57.63-1.6,32.38-11.79,25.24,10.18,31.87-39.31,3.05-22.76,28.82-16.55-37.5-21.51-30.5-2.28Z"/><path class="cls-3" d="M129.78,31.21c-7-19.23-54.62,27.2-21.9,21.35-32.72,5.85,4.17,39.5,16.96,15.47-12.79,24.03,57.63-1.6,32.38-11.79,25.24,10.18,31.87-39.31,3.05-22.76,28.82-16.55-37.5-21.51-30.5-2.28Z"/><path class="cls-8" d="M127.82,25.83c-7-19.23-54.62,27.2-21.9,21.35-32.72,5.85,4.17,39.5,16.96,15.47-12.79,24.03,57.63-1.6,32.38-11.79,25.24,10.18,31.87-39.31,3.05-22.76,28.82-16.55-37.5-21.51-30.5-2.28Zm6.97,19.15c-9.02,7.94-18.78,7.63-10.03-.32-11.81-.46-4.53-6.97,7.48-6.69,9.02-7.94,18.78-7.63,10.03,.32,11.81,.46,4.53,6.97-7.48,6.69Z"/><path class="cls-3" d="M127.82,25.83c-7-19.23-54.62,27.2-21.9,21.35-32.72,5.85,4.17,39.5,16.96,15.47-12.79,24.03,57.63-1.6,32.38-11.79,25.24,10.18,31.87-39.31,3.05-22.76,28.82-16.55-37.5-21.51-30.5-2.28Zm6.97,19.15c-9.02,7.94-18.78,7.63-10.03-.32-11.81-.46-4.53-6.97,7.48-6.69,9.02-7.94,18.78-7.63,10.03,.32,11.81,.46,4.53,6.97-7.48,6.69Z"/></g></g><g><path class="cls-4" d="M205.96,234.3l-6.73,2.45c-21.64-59.45-33.56-92.2-46.53-107.41l5.45-4.64c13.81,16.19,25.88,49.37,47.81,109.61Z"/><g><path class="cls-4" d="M162.7,137.17h0c-5.17,3.87-12.51,2.82-16.38-2.35l-24.76-26.64c-3.87-5.17,.27-14.82,5.44-18.7h0c5.17-3.87,15.6-5.13,19.47,.04l18.59,31.26c3.87,5.17,2.82,12.51-2.35,16.38Z"/><g><path class="cls-1" d="M111.05,67.83c-17.12-22.12-51.12,27.23-14.58,21.15-36.55,6.08-22.03,48.88,6.22,18.34-28.25,30.53,23.87,34.56,22.34,1.72,1.53,32.83,52-4.96,21.63-16.19,30.37,11.24,41.18-39.9,4.63-21.92,36.55-17.98-.43-43.97-15.85-11.14,15.42-32.83-41.51-14.09-24.4,8.03Z"/><path class="cls-3" d="M111.05,67.83c-17.12-22.12-51.12,27.23-14.58,21.15-36.55,6.08-22.03,48.88,6.22,18.34-28.25,30.53,23.87,34.56,22.34,1.72,1.53,32.83,52-4.96,21.63-16.19,30.37,11.24,41.18-39.9,4.63-21.92,36.55-17.98-.43-43.97-15.85-11.14,15.42-32.83-41.51-14.09-24.4,8.03Z"/></g><path class="cls-7" d="M106.89,62.64c-16.53-22.08-50.54,27.27-14.58,21.15-35.97,6.12-21.44,48.92,6.22,18.34-27.67,30.58,24.45,34.6,22.34,1.72,2.11,32.88,52.58-4.91,21.63-16.19,30.95,11.28,41.77-39.86,4.63-21.92,37.13-17.94,.15-43.92-15.85-11.14,16-32.79-40.93-14.05-24.4,8.03Z"/><path class="cls-3" d="M106.89,62.64c-16.53-22.08-50.54,27.27-14.58,21.15-35.97,6.12-21.44,48.92,6.22,18.34-27.67,30.58,24.45,34.6,22.34,1.72,2.11,32.88,52.58-4.91,21.63-16.19,30.95,11.28,41.77-39.86,4.63-21.92,37.13-17.94,.15-43.92-15.85-11.14,16-32.79-40.93-14.05-24.4,8.03Z"/><ellipse class="cls-2" cx="118.87" cy="78.63" rx="14.85" ry="7.13" transform="translate(-23.41 86.93) rotate(-36.82)"/></g></g><g><path class="cls-4" d="M208.31,258.54l6.73-2.45c-21.64-59.45-33.56-92.2-33.4-112.19l-7.16-.06c-.17,21.28,11.91,54.46,33.83,114.69Z"/><g><path class="cls-4" d="M179.02,156.32h0c6.45-.36,11.4-5.88,11.04-12.33l1.85-36.33c-.36-6.45-9.73-11.18-16.19-10.82h0c-6.45,.36-15.25,6.09-14.89,12.55l5.85,35.9c.36,6.45,5.88,11.4,12.33,11.04Z"/><g><path class="cls-1" d="M174.44,70.05c-1.97-28.04,55.81-12.09,24.76,6.83,31.05-18.93,47.44,23.19,7.02,18.05,40.41,5.14,3.07,41.72-16,15.68,19.08,26.04-43.87,29.54-26.98,1.5-16.89,28.04-58.05-4.18-17.64-13.81-40.41,9.63-28.79-34.05,4.98-18.72-33.77-15.33,21.89-37.57,23.85-9.53Z"/><path class="cls-3" d="M174.44,70.05c-1.97-28.04,55.81-12.09,24.76,6.83,31.05-18.93,47.44,23.19,7.02,18.05,40.41,5.14,3.07,41.72-16,15.68,19.08,26.04-43.87,29.54-26.98,1.5-16.89,28.04-58.05-4.18-17.64-13.81-40.41,9.63-28.79-34.05,4.98-18.72-33.77-15.33,21.89-37.57,23.85-9.53Z"/></g><path class="cls-7" d="M173.86,63.35c-1.53-27.54,56.25-11.6,24.76,6.83,31.49-18.43,47.87,23.69,7.02,18.05,40.85,5.64,3.51,42.22-16,15.68,19.51,26.54-43.44,30.04-26.98,1.5-16.46,28.54-57.61-3.69-17.64-13.81-39.98,10.12-28.35-33.55,4.98-18.72-33.33-14.83,22.32-37.07,23.85-9.53Z"/><path class="cls-3" d="M173.86,63.35c-1.53-27.54,56.25-11.6,24.76,6.83,31.49-18.43,47.87,23.69,7.02,18.05,40.85,5.64,3.51,42.22-16,15.68,19.51,26.54-43.44,30.04-26.98,1.5-16.46,28.54-57.61-3.69-17.64-13.81-39.98,10.12-28.35-33.55,4.98-18.72-33.33-14.83,22.32-37.07,23.85-9.53Z"/><ellipse class="cls-2" cx="174.97" cy="83.3" rx="14.85" ry="7.13" transform="translate(-4.35 9.82) rotate(-3.18)"/></g></g><g><path class="cls-4" d="M212.9,247.47l5.04-1.84c-9.99-27.44-22.78-50.09-38.03-67.31-15.38-17.38-28.81-24.14-35.44-26.62l-1.88,5.03c20.86,7.8,50.28,35.74,70.3,90.74Z"/><g><path class="cls-4" d="M163.65,165.6h0c2.41-4.32,.86-9.78-3.47-12.19l-22.76-16.06c-4.32-2.41-11.22,1.72-13.63,6.05h0c-2.41,4.32-2.29,12.36,2.03,14.77l25.63,10.9c4.32,2.41,9.78,.86,12.19-3.47Z"/><path class="cls-6" d="M104.47,132.63c-17.87-9.96,35.52-49.61,24.55-18.23,10.97-31.38,38.34,10.38,12.59,19.2,25.75-8.82-10.72,56.64-16.77,30.1,6.05,26.54-43.87,25.23-22.95-.6-20.91,25.83-15.29-40.43,2.59-30.47Z"/><path class="cls-3" d="M104.47,132.63c-17.87-9.96,35.52-49.61,24.55-18.23,10.97-31.38,38.34,10.38,12.59,19.2,25.75-8.82-10.72,56.64-16.77,30.1,6.05,26.54-43.87,25.23-22.95-.6-20.91,25.83-15.29-40.43,2.59-30.47Z"/><path class="cls-8" d="M96.89,160.32c-20.91,25.83,29,27.14,22.95,.6,6.05,26.54,42.52-38.92,16.77-30.1,25.75-8.82-1.62-50.58-12.59-19.2,10.97-31.38-42.43,8.27-24.55,18.23-17.87-9.96-23.5,56.31-2.59,30.47Zm12.6-14.23c-9.24,7.38-7.99-2.31,1.28-9.95,1.62-11.9,9.21-18.06,7.79-6.32,9.24-7.38,7.99,2.31-1.28,9.95-1.62,11.9-9.21,18.06-7.79,6.32Z"/><path class="cls-3" d="M96.89,160.32c-20.91,25.83,29,27.14,22.95,.6,6.05,26.54,42.52-38.92,16.77-30.1,25.75-8.82-1.62-50.58-12.59-19.2,10.97-31.38-42.43,8.27-24.55,18.23-17.87-9.96-23.5,56.31-2.59,30.47Zm12.6-14.23c-9.24,7.38-7.99-2.31,1.28-9.95,1.62-11.9,9.21-18.06,7.79-6.32,9.24-7.38,7.99,2.31-1.28,9.95-1.62,11.9-9.21,18.06-7.79,6.32Z"/></g></g></g><g><path class="cls-5" d="M231.18,227.31c-3.87-2.37-8.36-3.26-12.73-4.26-4.2-.97-8.22-2.21-11.48-5.14-3.01-2.71-5.08-6.48-5.7-10.48-.23-1.44-1.3-2.2-2.44-2.36-.43-.58-1.08-1.01-1.75-1.13-1.58-.29-2.79,.78-3.19,2.21-2.26,8.05-2.98,16.54-.84,24.7,1.07,4.09,2.96,8.08,5.58,11.4,2.4,3.04,5.79,5.56,6.87,9.42,.4,1.43,2.2,2.12,3.52,1.64,1.49-.54,2.04-2.08,1.64-3.52-1.08-3.88-3.96-6.58-6.53-9.51-2.63-3-4.48-6.44-5.62-10.26-1.54-5.13-1.58-10.5-.78-15.76,2.81,6.09,8.09,10.72,14.74,12.85,4.23,1.35,8.75,1.82,12.88,3.44,3.51,1.38,7.54,3.89,8.2,7.93,.24,1.46,1.39,2.64,2.96,2.52,1.38-.11,2.76-1.49,2.52-2.96-.79-4.77-3.81-8.26-7.84-10.72Z"/><path class="cls-5" d="M226.42,186.68c-4.86-4.28-12.04-4.54-17.79-2-6.72,2.97-12.39,9.33-15.78,15.85-5.97-2.47-13.29-3.75-19.6-2.61-6.3,1.13-12.34,4.94-14.41,11.25-1.03,3.12-1.13,6.82,.34,9.83,1.44,2.94,4.33,5.13,7.28,6.42,5.67,2.49,12.54,2.22,18.09-.47,6.82-3.3,9.48-9.84,11.12-16.7,4.79,3.6,10.18,6.78,16.39,6.17,6.34-.62,12.47-4.51,15.9-9.84,1.7-2.64,2.78-5.65,2.88-8.81,.11-3.57-1.8-6.79-4.42-9.1Zm-41.85,31.88c-3.77,2.93-9.13,3.73-13.71,2.61-2.07-.51-4.07-1.54-5.6-3.03-1.74-1.69-1.96-4.09-1.47-6.38,.96-4.55,5.43-7.47,9.74-8.34,5.48-1.1,11.93,0,17.14,2.14-.96,4.69-2.18,9.95-6.1,13Zm40.72-24.01c.44,2.12-.48,4.53-1.48,6.36-2.16,3.98-6.53,6.97-10.93,7.87-5.78,1.18-10.77-2.4-15.1-5.81,2.34-4.46,5.94-8.75,10.04-11.58,3.74-2.57,8.81-3.96,13.09-1.85,1.92,.95,3.92,2.84,4.38,5.01Z"/><ellipse class="cls-5" cx="194.26" cy="204.42" rx="3.54" ry="5.55" transform="translate(-58.2 78.77) rotate(-20)"/></g></svg>