<?xml version="1.0" encoding="UTF-8"?><svg id="box" xmlns="http://www.w3.org/2000/svg" xmlns:xlink="http://www.w3.org/1999/xlink" viewBox="0 0 272.35 272.35"><defs><style>.cls-1{fill:#42489b;}.cls-2{fill:#fbe5e5;}.cls-3{clip-path:url(#clippath-2);}.cls-4{fill:#b0d8e0;}.cls-5{fill:#e41a1a;}.cls-5,.cls-6,.cls-7,.cls-8,.cls-9,.cls-10,.cls-11{stroke:#12519b;}.cls-5,.cls-6,.cls-7,.cls-11{stroke-width:1.79px;}.cls-5,.cls-7,.cls-8,.cls-9,.cls-11{stroke-miterlimit:10;}.cls-12{clip-path:url(#clippath-6);}.cls-6,.cls-8{fill:none;}.cls-6,.cls-13,.cls-10{stroke-linecap:round;stroke-linejoin:round;}.cls-14{fill:#e9d56b;}.cls-15{clip-path:url(#clippath-1);}.cls-16{clip-path:url(#clippath-4);}.cls-7,.cls-17{fill:#fff3b3;}.cls-18{fill:#ee899c;}.cls-19{fill:#6ba2c8;}.cls-8,.cls-10{stroke-width:.72px;}.cls-9{fill:#2898d6;stroke-width:1.43px;}.cls-20{clip-path:url(#clippath);}.cls-13{fill:#f1f5fb;stroke:#2f5c9a;stroke-width:1.83px;}.cls-21{clip-path:url(#clippath-3);}.cls-10{fill:#bac7e5;}.cls-22{clip-path:url(#clippath-5);}.cls-11{fill:#008a89;}.cls-23{fill:#12519b;}</style><clipPath id="clippath"><ellipse class="cls-8" cx="186.12" cy="114.13" rx="1.79" ry="3.48" transform="translate(-2.17 224.63) rotate(-61.92)"/></clipPath><clipPath id="clippath-1"><ellipse class="cls-8" cx="189.61" cy="122.65" rx="1.79" ry="3.48" transform="translate(-33.16 159.64) rotate(-42.33)"/></clipPath><clipPath id="clippath-2"><ellipse class="cls-8" cx="166.6" cy="125.66" rx="3.48" ry="1.79" transform="translate(-25.72 44.67) rotate(-14.19)"/></clipPath><clipPath id="clippath-3"><ellipse class="cls-8" cx="186.88" cy="134.95" rx="1.79" ry="3.48" transform="translate(-42.15 161.01) rotate(-42.33)"/></clipPath><clipPath id="clippath-4"><ellipse class="cls-8" cx="163.88" cy="137.96" rx="3.48" ry="1.79" transform="translate(-28.82 44.38) rotate(-14.19)"/></clipPath><clipPath id="clippath-5"><ellipse class="cls-8" cx="182.76" cy="149" rx="1.79" ry="3.48" transform="translate(-52.69 161.9) rotate(-42.33)"/></clipPath><clipPath id="clippath-6"><ellipse class="cls-8" cx="157.48" cy="152.87" rx="3.48" ry="1.79" transform="translate(-56.66 104.75) rotate(-31.49)"/></clipPath></defs><g><g><path class="cls-11" d="M190.84,250.56l-5.04,1.84c-28.72-78.9-20.62-135.07-3.47-161.33l4.49,2.94c-8.91,13.64-14.09,34.32-14.58,58.23-.61,29.65,5.65,62.73,18.6,98.33Z"/><g><path class="cls-11" d="M175.58,114.08h0c-4.49-2.08-6.44-7.41-4.36-11.9l8.98-26.37c2.08-4.49,10.09-5.2,14.58-3.12h0c4.49,2.08,9.12,8.66,7.04,13.15l-14.34,23.88c-2.08,4.49-7.41,6.44-11.9,4.36Z"/><path class="cls-14" d="M204.09,52.64c8.61-18.56-57.89-19.28-30.58-.33-27.31-18.95-24.92,30.93,1.1,22.94-26.02,7.99,41.96,39.53,31.26,14.5,10.7,25.03,50.32-5.35,18.22-13.97,32.1,8.62-11.39-41.7-20-23.14Z"/><path class="cls-6" d="M204.09,52.64c8.61-18.56-57.89-19.28-30.58-.33-27.31-18.95-24.92,30.93,1.1,22.94-26.02,7.99,41.96,39.53,31.26,14.5,10.7,25.03,50.32-5.35,18.22-13.97,32.1,8.62-11.39-41.7-20-23.14Z"/><path class="cls-17" d="M206.5,47.44c8.61-18.56-57.89-19.28-30.58-.33-27.31-18.95-24.92,30.93,1.1,22.94-26.02,7.99,41.96,39.53,31.26,14.5,10.7,25.03,50.32-5.35,18.22-13.97,32.1,8.62-11.39-41.7-20-23.14Zm-8.58,18.49c-11.99-.74-18.69-7.85-6.88-7.3-8.04-8.67,1.71-8.14,10.02,.54,11.99,.74,18.69,7.85,6.88,7.3,8.04,8.66-1.71,8.14-10.02-.54Z"/><path class="cls-6" d="M206.5,47.44c8.61-18.56-57.89-19.28-30.58-.33-27.31-18.95-24.92,30.93,1.1,22.94-26.02,7.99,41.96,39.53,31.26,14.5,10.7,25.03,50.32-5.35,18.22-13.97,32.1,8.62-11.39-41.7-20-23.14Zm-8.58,18.49c-11.99-.74-18.69-7.85-6.88-7.3-8.04-8.67,1.71-8.14,10.02,.54,11.99,.74,18.69,7.85,6.88,7.3,8.04,8.66-1.71,8.14-10.02-.54Z"/></g></g><g><path class="cls-11" d="M191.2,254.23l6.73-2.45c-28.83-79.21-71.4-117.21-101.62-126.37l-2.07,6.85c15.44,4.67,32.55,17.09,48.19,34.96,19.45,22.24,35.87,51.51,48.78,87Z"/><g><path class="cls-11" d="M105.72,132.82h0c1.8-5.03-.82-10.57-5.86-12.37l-27.08-13.06c-5.03-1.8-11.64,3.83-13.44,8.86h0c-1.8,5.03-.25,13.57,4.78,15.37l29.23,7.06c5.03,1.8,10.57-.82,12.37-5.86Z"/><path class="cls-19" d="M47.52,149.12c10.92,24.82,33.37,6.87,32.06-25.64,21.61-24.32,15.61-52.44-8.56-40.15-10.92-24.82-33.37-6.87-32.06,25.64-21.61,24.32-15.61,52.44,8.56,40.15Z"/><path class="cls-6" d="M47.52,149.12c10.92,24.82,33.37,6.87,32.06-25.64,21.61-24.32,15.61-52.44-8.56-40.15-10.92-24.82-33.37-6.87-32.06,25.64-21.61,24.32-15.61,52.44,8.56,40.15Z"/><path class="cls-4" d="M42.49,147.33c10.92,24.82,33.37,6.87,32.06-25.64,21.61-24.32,15.61-52.44-8.56-40.15-10.92-24.82-33.37-6.87-32.06,25.64-21.61,24.32-15.61,52.44,8.56,40.15Z"/><path class="cls-6" d="M42.49,147.33c10.92,24.82,33.37,6.87,32.06-25.64,21.61-24.32,15.61-52.44-8.56-40.15-10.92-24.82-33.37-6.87-32.06,25.64-21.61,24.32-15.61,52.44,8.56,40.15Z"/><ellipse class="cls-7" cx="52.89" cy="113.95" rx="17.93" ry="6.85" transform="translate(-72.21 125.43) rotate(-70.34)"/></g></g><g><rect class="cls-11" x="160.73" y="91.02" width="7.16" height="173.91" transform="translate(-50.96 66.93) rotate(-20)"/><g><path class="cls-11" d="M142.21,117.26h0c-6.07,2.21-12.79-.92-15-7l-15.99-32.67c-2.21-6.07,4.54-14.11,10.62-16.32h0c6.07-2.21,16.41-.4,18.63,5.68l8.75,35.31c2.21,6.07-.92,12.79-7,15Z"/><g><path class="cls-2" d="M113.71,37.16c-11.7-28.58-58.54,8.81-20.07,16.03-38.47-7.21-36.95,37.96,.65,19.36-37.6,18.6,11.12,37.53,20.88,8.11-9.76,29.42,49.48,7.85,25.39-9.24,24.09,17.1,49.25-28.73,10.78-19.64,38.47-9.09,10.59-44.66-11.95-15.25,22.54-29.42-37.38-27.96-25.68,.63Z"/><path class="cls-6" d="M113.71,37.16c-11.7-28.58-58.54,8.81-20.07,16.03-38.47-7.21-36.95,37.96,.65,19.36-37.6,18.6,11.12,37.53,20.88,8.11-9.76,29.42,49.48,7.85,25.39-9.24,24.09,17.1,49.25-28.73,10.78-19.64,38.47-9.09,10.59-44.66-11.95-15.25,22.54-29.42-37.38-27.96-25.68,.63Z"/></g><path class="cls-18" d="M110.37,29.76c-9.43-25.92-56.27,11.48-20.07,16.03-36.2-4.55-34.69,40.62,.65,19.36-35.33,21.26,13.39,40.19,20.88,8.11-7.49,32.08,51.75,10.52,25.39-9.24,26.36,19.76,51.51-26.06,10.78-19.64,40.73-6.42,12.86-42-11.95-15.25,24.8-26.75-35.11-25.29-25.68,.63Z"/><path class="cls-6" d="M110.37,29.76c-9.43-25.92-56.27,11.48-20.07,16.03-36.2-4.55-34.69,40.62,.65,19.36-35.33,21.26,13.39,40.19,20.88,8.11-7.49,32.08,51.75,10.52,25.39-9.24,26.36,19.76,51.51-26.06,10.78-19.64,40.73-6.42,12.86-42-11.95-15.25,24.8-26.75-35.11-25.29-25.68,.63Z"/><ellipse class="cls-5" cx="117.2" cy="48.54" rx="14.85" ry="7.13" transform="translate(-9.53 43.01) rotate(-20)"/></g></g><g><path class="cls-11" d="M197.03,258.61l-6.73,2.45c-21.64-59.45-33.56-92.2-46.53-107.41l5.45-4.64c13.81,16.19,25.88,49.37,47.81,109.61Z"/><g><path class="cls-11" d="M153.76,161.48h0c-5.17,3.87-12.51,2.82-16.38-2.35l-24.76-26.64c-3.87-5.17,.27-14.82,5.44-18.7h0c5.17-3.87,15.6-5.13,19.47,.04l18.59,31.26c3.87,5.17,2.82,12.51-2.35,16.38Z"/><g><path class="cls-2" d="M102.12,92.14c-17.12-22.12-51.12,27.23-14.58,21.15-36.55,6.08-22.03,48.88,6.22,18.34-28.25,30.53,23.87,34.56,22.34,1.72,1.53,32.83,52-4.96,21.63-16.19,30.37,11.24,41.18-39.9,4.63-21.92,36.55-17.98-.43-43.97-15.85-11.14,15.42-32.83-41.51-14.09-24.4,8.03Z"/><path class="cls-6" d="M102.12,92.14c-17.12-22.12-51.12,27.23-14.58,21.15-36.55,6.08-22.03,48.88,6.22,18.34-28.25,30.53,23.87,34.56,22.34,1.72,1.53,32.83,52-4.96,21.63-16.19,30.37,11.24,41.18-39.9,4.63-21.92,36.55-17.98-.43-43.97-15.85-11.14,15.42-32.83-41.51-14.09-24.4,8.03Z"/></g><path class="cls-18" d="M97.96,86.94c-16.53-22.08-50.54,27.27-14.58,21.15-35.97,6.12-21.44,48.92,6.22,18.34-27.67,30.58,24.45,34.6,22.34,1.72,2.11,32.88,52.58-4.91,21.63-16.19,30.95,11.28,41.77-39.86,4.63-21.92,37.13-17.94,.15-43.92-15.85-11.14,16-32.79-40.93-14.05-24.4,8.03Z"/><path class="cls-6" d="M97.96,86.94c-16.53-22.08-50.54,27.27-14.58,21.15-35.97,6.12-21.44,48.92,6.22,18.34-27.67,30.58,24.45,34.6,22.34,1.72,2.11,32.88,52.58-4.91,21.63-16.19,30.95,11.28,41.77-39.86,4.63-21.92,37.13-17.94,.15-43.92-15.85-11.14,16-32.79-40.93-14.05-24.4,8.03Z"/><ellipse class="cls-5" cx="109.93" cy="102.94" rx="14.85" ry="7.13" transform="translate(-39.76 86.43) rotate(-36.82)"/></g></g><g><path class="cls-11" d="M193.18,260.01l-6.73,2.45c-10.03-27.55-14.8-53.23-14.19-76.34,.62-23.4,6.63-37.35,10.15-43.59l6.23,3.52c-10.87,19.21-15.38,59.24,4.53,113.95Z"/><g><path class="cls-11" d="M177.23,169.27h0c-6.21-1.8-9.79-8.29-7.99-14.5l6.34-35.82c1.8-6.21,11.99-8.72,18.2-6.92h0c6.21,1.8,13.49,9.36,11.7,15.57l-13.75,33.67c-1.8,6.21-8.29,9.79-14.5,7.99Z"/><g><path class="cls-2" d="M200.21,87.27c9.86-29-50.02-26.41-25.66,1.11-24.36-27.52-49.77,9.85-10.89,16.02-38.88-6.16-10.69,37.86,12.08,18.87-22.77,18.99,37.79,36.51,25.96,7.51,11.83,29,59.17,6.82,20.29-9.5,38.88,16.33,37.34-28.84-.66-19.36,38-9.49-11.25-43.64-21.11-14.64Z"/><path class="cls-6" d="M200.21,87.27c9.86-29-50.02-26.41-25.66,1.11-24.36-27.52-49.77,9.85-10.89,16.02-38.88-6.16-10.69,37.86,12.08,18.87-22.77,18.99,37.79,36.51,25.96,7.51,11.83,29,59.17,6.82,20.29-9.5,38.88,16.33,37.34-28.84-.66-19.36,38-9.49-11.25-43.64-21.11-14.64Z"/></g><path class="cls-18" d="M203.1,79.82c7.66-26.5-52.21-23.91-25.66,1.11-26.55-25.02-51.97,12.36-10.89,16.02-41.07-3.66-12.89,40.36,12.08,18.87-24.97,21.49,35.6,39.01,25.96,7.51,9.64,31.5,56.97,9.32,20.29-9.5,36.69,18.83,35.15-26.34-.66-19.36,35.81-6.98-13.45-41.13-21.11-14.64Z"/><path class="cls-6" d="M203.1,79.82c7.66-26.5-52.21-23.91-25.66,1.11-26.55-25.02-51.97,12.36-10.89,16.02-41.07-3.66-12.89,40.36,12.08,18.87-24.97,21.49,35.6,39.01,25.96,7.51,9.64,31.5,56.97,9.32,20.29-9.5,36.69,18.83,35.15-26.34-.66-19.36,35.81-6.98-13.45-41.13-21.11-14.64Z"/><ellipse class="cls-5" cx="197.55" cy="99.01" rx="7.13" ry="14.85" transform="translate(47.55 261.27) rotate(-73.87)"/></g></g><g><path class="cls-11" d="M191.84,254.18l5.04-1.84c-9.99-27.44-22.78-50.09-38.03-67.31-15.38-17.38-28.81-24.14-35.44-26.62l-1.88,5.03c20.86,7.8,50.28,35.74,70.3,90.74Z"/><g><path class="cls-11" d="M142.59,172.31h0c2.41-4.32,.86-9.78-3.47-12.19l-22.76-16.06c-4.32-2.41-11.22,1.72-13.63,6.05h0c-2.41,4.32-2.29,12.36,2.03,14.77l25.63,10.9c4.32,2.41,9.78,.86,12.19-3.47Z"/><path class="cls-14" d="M83.41,139.34c-17.87-9.96,35.52-49.61,24.55-18.23,10.97-31.38,38.34,10.38,12.59,19.2,25.75-8.82-10.72,56.64-16.77,30.1,6.05,26.54-43.87,25.23-22.95-.6-20.91,25.83-15.29-40.43,2.59-30.47Z"/><path class="cls-6" d="M83.41,139.34c-17.87-9.96,35.52-49.61,24.55-18.23,10.97-31.38,38.34,10.38,12.59,19.2,25.75-8.82-10.72,56.64-16.77,30.1,6.05,26.54-43.87,25.23-22.95-.6-20.91,25.83-15.29-40.43,2.59-30.47Z"/><path class="cls-17" d="M75.83,167.03c-20.91,25.83,29,27.14,22.95,.6,6.05,26.54,42.52-38.92,16.77-30.1,25.75-8.82-1.62-50.58-12.59-19.2,10.97-31.38-42.43,8.27-24.55,18.23-17.87-9.96-23.5,56.31-2.59,30.47Zm12.6-14.23c-9.24,7.38-7.99-2.31,1.28-9.95,1.62-11.9,9.21-18.06,7.79-6.32,9.24-7.38,7.99,2.31-1.28,9.95-1.62,11.9-9.21,18.06-7.79,6.32Z"/><path class="cls-6" d="M75.83,167.03c-20.91,25.83,29,27.14,22.95,.6,6.05,26.54,42.52-38.92,16.77-30.1,25.75-8.82-1.62-50.58-12.59-19.2,10.97-31.38-42.43,8.27-24.55,18.23-17.87-9.96-23.5,56.31-2.59,30.47Zm12.6-14.23c-9.24,7.38-7.99-2.31,1.28-9.95,1.62-11.9,9.21-18.06,7.79-6.32,9.24-7.38,7.99,2.31-1.28,9.95-1.62,11.9-9.21,18.06-7.79,6.32Z"/></g></g><g><path class="cls-11" d="M183.99,245.89l-4.04,1.47c-9.97-27.38-14.71-52.89-14.1-75.81,.61-23.09,6.51-36.8,9.97-42.92l3.74,2.11c-11.02,19.49-15.65,59.98,4.43,115.15Z"/><path class="cls-11" d="M176.8,131.48h0c1.11,.59,2.49,.17,3.08-.94l3.97-5.85c.59-1.11-.49-2.84-1.6-3.43h0c-1.11-.59-3.15-.52-3.74,.58l-2.65,6.55c-.59,1.11-.17,2.49,.94,3.08Z"/><circle class="cls-9" cx="183.68" cy="118.59" r="8.75"/><g><path class="cls-1" d="M187.76,116.49c-.76,0-1.66-.25-2.51-.71-1.74-.93-2.75-2.42-2.27-3.33,.23-.44,.77-.68,1.52-.68s1.66,.25,2.51,.71c1.74,.93,2.75,2.42,2.27,3.33-.23,.44-.77,.68-1.52,.68h0Z"/><path class="cls-23" d="M184.5,111.86c.72,0,1.6,.23,2.47,.7,1.7,.91,2.7,2.35,2.23,3.22-.23,.42-.76,.64-1.44,.64-.72,0-1.6-.23-2.47-.7-1.7-.91-2.7-2.35-2.23-3.22,.23-.42,.76-.64,1.44-.64m0-.17c-.78,0-1.34,.26-1.59,.73-.52,.97,.49,2.48,2.3,3.45,.87,.46,1.77,.72,2.55,.72s1.34-.26,1.59-.73c.26-.48,.14-1.11-.32-1.77-.44-.63-1.14-1.22-1.99-1.67-.87-.46-1.77-.72-2.55-.72h0Z"/></g><g><g class="cls-20"><ellipse class="cls-10" cx="185.54" cy="115.27" rx="1.79" ry="3.48" transform="translate(-3.48 224.73) rotate(-61.92)"/></g><ellipse class="cls-8" cx="186.12" cy="114.13" rx="1.79" ry="3.48" transform="translate(-2.17 224.63) rotate(-61.92)"/></g><path class="cls-11" d="M175.02,135.87h0c.85,.93,2.28,1,3.21,.15l5.7-4.18c.93-.85,.49-2.84-.35-3.77h0c-.85-.93-2.79-1.55-3.72-.7l-4.69,5.29c-.93,.85-1,2.28-.15,3.21Z"/><circle class="cls-9" cx="185.82" cy="126.03" r="8.75"/><g><path class="cls-1" d="M191.18,125.58c-.87,0-2.03-.65-2.95-1.67-.63-.7-1.09-1.48-1.29-2.21-.2-.75-.1-1.35,.27-1.69,.21-.19,.49-.29,.84-.29,.87,0,2.03,.65,2.95,1.67,.63,.7,1.09,1.48,1.29,2.21,.2,.75,.1,1.35-.27,1.69-.21,.19-.49,.29-.84,.29h0Z"/><path class="cls-23" d="M188.05,119.81c.82,0,1.95,.61,2.89,1.64,1.3,1.42,1.75,3.11,1.02,3.78-.2,.18-.47,.27-.78,.27-.82,0-1.95-.61-2.89-1.64-1.3-1.42-1.75-3.11-1.02-3.78,.2-.18,.47-.27,.78-.27m0-.17c-.36,0-.67,.11-.89,.31-.4,.37-.51,1-.3,1.78,.2,.74,.67,1.54,1.31,2.24,.95,1.05,2.11,1.69,3.01,1.69,.36,0,.67-.11,.89-.31,.81-.74,.37-2.51-1.01-4.02-.95-1.05-2.11-1.69-3.01-1.69h0Z"/></g><g><g class="cls-15"><ellipse class="cls-10" cx="188.69" cy="123.53" rx="1.79" ry="3.48" transform="translate(-33.99 159.25) rotate(-42.33)"/></g><ellipse class="cls-8" cx="189.61" cy="122.65" rx="1.79" ry="3.48" transform="translate(-33.16 159.64) rotate(-42.33)"/></g><path class="cls-11" d="M171.38,144.77h0c1.22-.31,1.96-1.54,1.65-2.76l-1-7c-.31-1.22-2.27-1.77-3.49-1.46h0c-1.22,.31-2.68,1.73-2.37,2.95l2.45,6.63c.31,1.22,1.54,1.96,2.76,1.65Z"/><circle class="cls-9" cx="167.8" cy="130.6" r="8.75"/><g><path class="cls-1" d="M165.52,127.68c-1.28,0-2.18-.44-2.36-1.14-.25-1,1.09-2.21,3-2.69,.53-.13,1.05-.2,1.55-.2,1.28,0,2.18,.44,2.36,1.14,.12,.5-.12,1.05-.71,1.56-.57,.5-1.38,.9-2.29,1.13-.53,.13-1.05,.2-1.55,.2h0Z"/><path class="cls-23" d="M167.71,123.72c1.19,0,2.11,.4,2.28,1.08,.24,.96-1.07,2.12-2.94,2.59-.53,.14-1.06,.2-1.53,.2-1.19,0-2.11-.4-2.28-1.08-.24-.96,1.07-2.12,2.94-2.59,.53-.14,1.06-.2,1.53-.2m0-.17c-.51,0-1.04,.07-1.58,.2-1.99,.5-3.33,1.73-3.06,2.8,.19,.75,1.13,1.21,2.45,1.21,.51,0,1.04-.07,1.58-.2,1.99-.5,3.33-1.73,3.06-2.8-.19-.75-1.13-1.21-2.45-1.21h0Z"/></g><g><g class="cls-3"><ellipse class="cls-10" cx="166.94" cy="126.89" rx="3.48" ry="1.79" transform="translate(-26.01 44.79) rotate(-14.19)"/></g><ellipse class="cls-8" cx="166.6" cy="125.66" rx="3.48" ry="1.79" transform="translate(-25.72 44.67) rotate(-14.19)"/></g><path class="cls-11" d="M172.29,148.17h0c.85,.93,2.28,1,3.21,.15l5.7-4.18c.93-.85,.49-2.84-.35-3.77h0c-.85-.93-2.79-1.55-3.72-.7l-4.69,5.29c-.93,.85-1,2.28-.15,3.21Z"/><circle class="cls-9" cx="183.09" cy="138.33" r="8.75"/><g><path class="cls-1" d="M188.45,137.88c-.87,0-2.03-.65-2.95-1.67-1.32-1.46-1.78-3.21-1.02-3.9,.21-.19,.49-.29,.84-.29,.87,0,2.03,.65,2.95,1.67,1.32,1.45,1.78,3.2,1.02,3.9-.21,.19-.49,.29-.84,.29h0Z"/><path class="cls-23" d="M185.32,132.11c.82,0,1.95,.61,2.89,1.64,1.3,1.42,1.75,3.11,1.02,3.78-.2,.18-.47,.27-.78,.27-.82,0-1.95-.61-2.89-1.64-1.3-1.42-1.75-3.11-1.02-3.78,.2-.18,.47-.27,.78-.27m0-.17c-.36,0-.67,.11-.89,.31-.81,.74-.37,2.51,1.01,4.02,.95,1.05,2.11,1.69,3.01,1.69,.36,0,.67-.11,.89-.31,.81-.74,.37-2.51-1.01-4.02-.95-1.05-2.11-1.69-3.01-1.69h0Z"/></g><g><g class="cls-21"><ellipse class="cls-10" cx="185.96" cy="135.83" rx="1.79" ry="3.48" transform="translate(-42.98 160.62) rotate(-42.33)"/></g><ellipse class="cls-8" cx="186.88" cy="134.95" rx="1.79" ry="3.48" transform="translate(-42.15 161.01) rotate(-42.33)"/></g><path class="cls-11" d="M168.65,157.07h0c1.22-.31,1.96-1.54,1.65-2.76l-1-7c-.31-1.22-2.27-1.77-3.49-1.46h0c-1.22,.31-2.68,1.73-2.37,2.95l2.45,6.63c.31,1.22,1.54,1.96,2.76,1.65Z"/><circle class="cls-9" cx="165.07" cy="142.9" r="8.75"/><g><path class="cls-1" d="M162.79,139.98c-1.28,0-2.18-.44-2.36-1.14-.25-1,1.09-2.21,3-2.69,.53-.13,1.05-.2,1.55-.2,1.28,0,2.18,.44,2.36,1.14,.25,1-1.09,2.21-3,2.69-.53,.13-1.05,.2-1.55,.2Z"/><path class="cls-23" d="M164.98,136.02c1.19,0,2.11,.4,2.28,1.08,.24,.96-1.07,2.12-2.94,2.59-.53,.14-1.06,.2-1.53,.2-1.19,0-2.11-.4-2.28-1.08-.24-.96,1.07-2.12,2.94-2.59,.53-.14,1.06-.2,1.53-.2m0-.17c-.51,0-1.04,.07-1.58,.2-.93,.23-1.76,.64-2.33,1.15-.61,.53-.87,1.12-.73,1.65,.19,.75,1.13,1.21,2.45,1.21,.51,0,1.04-.07,1.58-.2,1.99-.5,3.33-1.73,3.06-2.8-.19-.75-1.13-1.21-2.45-1.21h0Z"/></g><g><g class="cls-16"><ellipse class="cls-10" cx="164.21" cy="139.19" rx="3.48" ry="1.79" transform="translate(-29.11 44.5) rotate(-14.19)"/></g><ellipse class="cls-8" cx="163.88" cy="137.96" rx="3.48" ry="1.79" transform="translate(-28.82 44.38) rotate(-14.19)"/></g><path class="cls-11" d="M168.16,162.22h0c.85,.93,2.28,1,3.21,.15l5.7-4.18c.93-.85,.49-2.84-.35-3.77h0c-.85-.93-2.79-1.55-3.72-.7l-4.69,5.29c-.93,.85-1,2.28-.15,3.21Z"/><circle class="cls-9" cx="178.96" cy="152.38" r="8.75"/><g><path class="cls-1" d="M184.33,151.94c-.87,0-2.03-.65-2.95-1.67-.63-.7-1.09-1.48-1.29-2.21-.2-.75-.1-1.35,.27-1.69,.21-.19,.49-.29,.84-.29,.87,0,2.03,.65,2.95,1.67,.63,.7,1.09,1.48,1.29,2.21,.2,.75,.1,1.35-.27,1.69-.21,.19-.49,.29-.84,.29h0Z"/><path class="cls-23" d="M181.2,146.16c.82,0,1.95,.61,2.89,1.64,1.3,1.42,1.75,3.11,1.02,3.78-.2,.18-.47,.27-.78,.27-.82,0-1.95-.61-2.89-1.64-1.3-1.42-1.75-3.11-1.02-3.78,.2-.18,.47-.27,.78-.27m0-.17c-.36,0-.67,.11-.89,.31-.81,.74-.37,2.51,1.01,4.02,.95,1.05,2.11,1.69,3.01,1.69,.36,0,.67-.11,.89-.31,.4-.37,.51-1,.3-1.78-.2-.74-.67-1.54-1.31-2.24-.95-1.05-2.11-1.69-3.01-1.69h0Z"/></g><g><g class="cls-22"><ellipse class="cls-10" cx="181.83" cy="149.88" rx="1.79" ry="3.48" transform="translate(-53.52 161.5) rotate(-42.33)"/></g><ellipse class="cls-8" cx="182.76" cy="149" rx="1.79" ry="3.48" transform="translate(-52.69 161.9) rotate(-42.33)"/></g><path class="cls-11" d="M167.72,169.69h0c1.07-.66,1.41-2.06,.75-3.13l-3.03-6.39c-.66-1.07-2.7-1.02-3.77-.36h0c-1.07,.66-2.05,2.45-1.39,3.52l4.31,5.6c.66,1.07,2.06,1.41,3.13,.75Z"/><circle class="cls-9" cx="160.09" cy="157.23" r="8.75"/><g><path class="cls-1" d="M155.81,155.32c-.65,0-1.13-.21-1.37-.6-.27-.44-.19-1.04,.21-1.7,.39-.64,1.05-1.27,1.85-1.76,.89-.55,1.86-.86,2.66-.86,.65,0,1.13,.21,1.37,.6,.54,.88-.39,2.43-2.06,3.46-.89,.55-1.86,.86-2.66,.86h0Z"/><path class="cls-23" d="M159.16,150.49c.59,0,1.06,.18,1.29,.55,.52,.84-.4,2.34-2.04,3.34-.91,.56-1.86,.85-2.61,.85-.59,0-1.06-.18-1.29-.55-.52-.84,.4-2.34,2.04-3.34,.91-.56,1.86-.85,2.61-.85m0-.17c-.81,0-1.79,.32-2.7,.87-.82,.5-1.48,1.14-1.88,1.79-.42,.69-.49,1.32-.21,1.79,.25,.41,.76,.64,1.44,.64,.81,0,1.79-.32,2.7-.87,.82-.5,1.48-1.14,1.88-1.79,.42-.69,.49-1.32,.21-1.79-.25-.41-.76-.64-1.44-.64h0Z"/></g><g><g class="cls-12"><ellipse class="cls-10" cx="158.17" cy="153.94" rx="3.48" ry="1.79" transform="translate(-57.11 105.27) rotate(-31.49)"/></g><ellipse class="cls-8" cx="157.48" cy="152.87" rx="3.48" ry="1.79" transform="translate(-56.66 104.75) rotate(-31.49)"/></g></g></g><g><path class="cls-13" d="M211.76,231.5c-3.87-2.37-8.36-3.26-12.73-4.26-4.2-.97-8.22-2.21-11.48-5.14-3.01-2.71-5.08-6.48-5.7-10.48-.23-1.44-1.3-2.2-2.44-2.36-.43-.58-1.08-1.01-1.75-1.13-1.58-.29-2.79,.78-3.19,2.21-2.26,8.05-2.98,16.54-.84,24.7,1.07,4.09,2.96,8.08,5.58,11.4,2.4,3.04,5.79,5.56,6.87,9.42,.4,1.43,2.2,2.12,3.52,1.64,1.49-.54,2.04-2.08,1.64-3.52-1.08-3.88-3.96-6.58-6.53-9.51-2.63-3-4.48-6.44-5.62-10.26-1.54-5.13-1.58-10.5-.78-15.76,2.81,6.09,8.09,10.72,14.74,12.85,4.23,1.35,8.75,1.82,12.88,3.44,3.51,1.38,7.54,3.89,8.2,7.93,.24,1.46,1.39,2.64,2.96,2.52,1.38-.11,2.76-1.49,2.52-2.96-.79-4.77-3.81-8.26-7.84-10.72Z"/><path class="cls-13" d="M206.99,190.86c-4.86-4.28-12.04-4.54-17.79-2-6.72,2.97-12.39,9.33-15.78,15.85-5.97-2.47-13.29-3.75-19.6-2.61-6.3,1.13-12.34,4.94-14.41,11.25-1.03,3.12-1.13,6.82,.34,9.83,1.44,2.94,4.33,5.13,7.28,6.42,5.67,2.49,12.54,2.22,18.09-.47,6.82-3.3,9.48-9.84,11.12-16.7,4.79,3.6,10.18,6.78,16.39,6.17,6.34-.62,12.47-4.51,15.9-9.84,1.7-2.64,2.78-5.65,2.88-8.81,.11-3.57-1.8-6.79-4.42-9.1Zm-41.85,31.88c-3.77,2.93-9.13,3.73-13.71,2.61-2.07-.51-4.07-1.54-5.6-3.03-1.74-1.69-1.96-4.09-1.47-6.38,.96-4.55,5.43-7.47,9.74-8.34,5.48-1.1,11.93,0,17.14,2.14-.96,4.69-2.18,9.95-6.1,13Zm40.72-24.01c.44,2.12-.48,4.53-1.48,6.36-2.16,3.98-6.53,6.97-10.93,7.87-5.78,1.18-10.77-2.4-15.1-5.81,2.34-4.46,5.94-8.75,10.04-11.58,3.74-2.57,8.81-3.96,13.09-1.85,1.92,.95,3.92,2.84,4.38,5.01Z"/><ellipse class="cls-13" cx="174.84" cy="208.6" rx="3.54" ry="5.55" transform="translate(-60.8 72.38) rotate(-20)"/></g></svg>