<?xml version="1.0" encoding="UTF-8"?><svg id="box" xmlns="http://www.w3.org/2000/svg" xmlns:xlink="http://www.w3.org/1999/xlink" viewBox="0 0 272.35 272.35"><defs><style>.cls-1{fill:#e0c8e0;}.cls-1,.cls-2,.cls-3,.cls-4,.cls-5,.cls-6,.cls-7,.cls-8{stroke:#12519b;}.cls-1,.cls-3,.cls-4,.cls-5,.cls-6,.cls-8{stroke-miterlimit:10;}.cls-1,.cls-5,.cls-7{stroke-width:.72px;}.cls-9{clip-path:url(#clippath-20);}.cls-10{clip-path:url(#clippath-11);}.cls-11{clip-path:url(#clippath-16);}.cls-12{fill:#42489b;}.cls-13{clip-path:url(#clippath-2);}.cls-14{clip-path:url(#clippath-13);}.cls-15{fill:#b0d8e0;}.cls-16{clip-path:url(#clippath-25);}.cls-17{clip-path:url(#clippath-15);}.cls-18{clip-path:url(#clippath-6);}.cls-19{clip-path:url(#clippath-26);}.cls-2,.cls-4,.cls-8{stroke-width:1.79px;}.cls-2,.cls-5{fill:none;}.cls-2,.cls-20,.cls-7{stroke-linecap:round;stroke-linejoin:round;}.cls-21{clip-path:url(#clippath-7);}.cls-22{clip-path:url(#clippath-21);}.cls-23{clip-path:url(#clippath-1);}.cls-24{clip-path:url(#clippath-4);}.cls-25{clip-path:url(#clippath-27);}.cls-3{fill:#caa4cb;}.cls-3,.cls-6{stroke-width:1.43px;}.cls-4{fill:#fff3b3;}.cls-26{clip-path:url(#clippath-12);}.cls-27{clip-path:url(#clippath-24);}.cls-28{fill:#6ba2c8;}.cls-29{clip-path:url(#clippath-22);}.cls-6{fill:#2898d6;}.cls-30{clip-path:url(#clippath-9);}.cls-31{clip-path:url(#clippath);}.cls-32{clip-path:url(#clippath-19);}.cls-20{fill:#f1f5fb;stroke:#2f5c9a;stroke-width:1.83px;}.cls-33{clip-path:url(#clippath-3);}.cls-34{clip-path:url(#clippath-8);}.cls-7{fill:#bac7e5;}.cls-35{clip-path:url(#clippath-18);}.cls-36{clip-path:url(#clippath-14);}.cls-37{clip-path:url(#clippath-17);}.cls-38{clip-path:url(#clippath-5);}.cls-39{fill:#c04292;}.cls-8{fill:#008a89;}.cls-40{clip-path:url(#clippath-10);}.cls-41{clip-path:url(#clippath-23);}.cls-42{fill:#12519b;}</style><clipPath id="clippath"><ellipse class="cls-5" cx="195.05" cy="46.48" rx="1.79" ry="3.48" transform="translate(19.18 142.79) rotate(-42.11)"/></clipPath><clipPath id="clippath-1"><ellipse class="cls-5" cx="175.96" cy="48.92" rx="1.79" ry="3.48" transform="translate(106.99 218.03) rotate(-83.35)"/></clipPath><clipPath id="clippath-2"><ellipse class="cls-5" cx="187.87" cy="66.61" rx="1.79" ry="3.48" transform="translate(-11.45 68.27) rotate(-20)"/></clipPath><clipPath id="clippath-3"><ellipse class="cls-5" cx="163.53" cy="63.55" rx="3.48" ry="1.79" transform="translate(-8.68 30.04) rotate(-10.23)"/></clipPath><clipPath id="clippath-4"><ellipse class="cls-5" cx="180.07" cy="77.03" rx="1.79" ry="3.48" transform="translate(-10.2 123.48) rotate(-36.88)"/></clipPath><clipPath id="clippath-5"><ellipse class="cls-5" cx="154.82" cy="77.58" rx="3.48" ry="1.79" transform="translate(-17.72 62.78) rotate(-21.71)"/></clipPath><clipPath id="clippath-6"><ellipse class="cls-5" cx="173.7" cy="87.5" rx="1.79" ry="3.48" transform="translate(-7.1 159.19) rotate(-48.36)"/></clipPath><clipPath id="clippath-7"><ellipse class="cls-5" cx="147.3" cy="94.86" rx="3.48" ry="1.79" transform="translate(-27.9 93.98) rotate(-32.49)"/></clipPath><clipPath id="clippath-8"><ellipse class="cls-5" cx="167.71" cy="101.07" rx="1.79" ry="3.48" transform="translate(-5.07 193.21) rotate(-59.15)"/></clipPath><clipPath id="clippath-9"><ellipse class="cls-5" cx="156.84" cy="111.26" rx="1.79" ry="3.48" transform="translate(36.22 261.02) rotate(-86.5)"/></clipPath><clipPath id="clippath-10"><ellipse class="cls-5" cx="63.62" cy="130.68" rx="3.48" ry="1.79" transform="translate(-78.14 162.75) rotate(-76.79)"/></clipPath><clipPath id="clippath-11"><ellipse class="cls-5" cx="71.98" cy="133.66" rx="3.48" ry="1.79" transform="translate(-74.6 173.19) rotate(-76.79)"/></clipPath><clipPath id="clippath-12"><ellipse class="cls-5" cx="82.23" cy="121.66" rx="3.48" ry="1.79" transform="translate(-51.44 60.86) rotate(-31.49)"/></clipPath><clipPath id="clippath-13"><ellipse class="cls-5" cx="72.29" cy="145.29" rx="1.79" ry="3.48" transform="translate(-33.41 22.15) rotate(-14.19)"/></clipPath><clipPath id="clippath-14"><ellipse class="cls-5" cx="83.52" cy="139.71" rx="3.48" ry="1.79" transform="translate(-71.58 189.09) rotate(-76.79)"/></clipPath><clipPath id="clippath-15"><ellipse class="cls-5" cx="96.91" cy="130.25" rx="3.48" ry="1.79" transform="translate(-53.76 69.79) rotate(-31.49)"/></clipPath><clipPath id="clippath-16"><ellipse class="cls-5" cx="83.84" cy="151.33" rx="1.79" ry="3.48" transform="translate(-34.54 25.17) rotate(-14.19)"/></clipPath><clipPath id="clippath-17"><ellipse class="cls-5" cx="93.46" cy="149.6" rx="3.48" ry="1.79" transform="translate(-67.86 220.94) rotate(-81.86)"/></clipPath><clipPath id="clippath-18"><ellipse class="cls-5" cx="114.82" cy="138.98" rx="3.48" ry="1.79" transform="translate(-20.66 20.05) rotate(-9.16)"/></clipPath><clipPath id="clippath-19"><ellipse class="cls-5" cx="104.33" cy="161.21" rx="3.48" ry="1.79" transform="translate(-70.02 241.67) rotate(-81.86)"/></clipPath><clipPath id="clippath-20"><ellipse class="cls-5" cx="125.69" cy="150.59" rx="3.48" ry="1.79" transform="translate(-22.37 21.93) rotate(-9.16)"/></clipPath><clipPath id="clippath-21"><ellipse class="cls-5" cx="91.99" cy="159.86" rx="3.48" ry="1.79" transform="translate(-90.65 185.51) rotate(-68.08)"/></clipPath><clipPath id="clippath-22"><ellipse class="cls-5" cx="94.79" cy="168.63" rx="3.48" ry="1.79" transform="translate(-77.54 256.5) rotate(-87.67)"/></clipPath><clipPath id="clippath-23"><ellipse class="cls-5" cx="114.35" cy="156.15" rx="3.48" ry="1.79" transform="translate(-56.58 65.37) rotate(-25.81)"/></clipPath><clipPath id="clippath-24"><ellipse class="cls-5" cx="104.79" cy="176.3" rx="3.48" ry="1.79" transform="translate(-75.61 273.85) rotate(-87.67)"/></clipPath><clipPath id="clippath-25"><ellipse class="cls-5" cx="124.35" cy="163.81" rx="3.48" ry="1.79" transform="translate(-58.92 70.49) rotate(-25.81)"/></clipPath><clipPath id="clippath-26"><ellipse class="cls-5" cx="116.98" cy="184.41" rx="3.48" ry="1.79" transform="translate(-72.02 293.81) rotate(-87.67)"/></clipPath><clipPath id="clippath-27"><ellipse class="cls-5" cx="138.84" cy="171.12" rx="3.48" ry="1.79" transform="translate(-23.81 22.44) rotate(-8.51)"/></clipPath></defs><g><g><path class="cls-8" d="M208.34,22.75c-.43,20.68-17.5,37.06-38.18,36.63,.43-20.68,17.5-37.06,38.18-36.63Z"/><path class="cls-8" d="M180.54,257.39l-6.41,2.33c-36.5-100.29-26.21-171.69-4.41-205.06l5.71,3.73c-11.33,17.34-17.91,43.63-18.54,74.01-.78,37.69,7.18,79.74,23.65,124.98Z"/><path class="cls-8" d="M206.49,60.82c-6.62,14.96-24.08,21.71-39.04,15.1,6.62-14.96,24.08-21.71,39.04-15.1Z"/><path class="cls-8" d="M209.08,83.56c-8.63,18.01-30.18,25.6-48.19,16.97,8.63-18.01,30.18-25.6,48.19-16.97Z"/><path class="cls-8" d="M210.02,110.23c-9.57,19.43-33.03,27.41-52.46,17.84,9.57-19.43,33.03-27.41,52.46-17.84Z"/><path class="cls-8" d="M204.28,136.1c-7.74,17.48-28.14,25.36-45.62,17.62,7.74-17.48,28.14-25.36,45.62-17.62Z"/><path class="cls-8" d="M201.38,164.01c-8.93,13.71-27.25,17.57-40.96,8.64,8.93-13.71,27.25-17.57,40.96-8.64Z"/><path class="cls-8" d="M196.13,185.18c-7.2,11.05-21.97,14.17-33.02,6.96,7.2-11.05,21.97-14.17,33.02-6.96Z"/><path class="cls-8" d="M141.98,36.11c-5.39,15.45,2.75,32.31,18.2,37.69,5.39-15.45-2.75-32.31-18.2-37.69Z"/><path class="cls-8" d="M122.92,56.19c-3.45,19.67,9.67,38.38,29.34,41.83,3.45-19.67-9.67-38.38-29.34-41.83Z"/><path class="cls-8" d="M114.59,82.31c-3.08,21.44,11.78,41.27,33.21,44.35,3.08-21.44-11.78-41.27-33.21-44.35Z"/><path class="cls-8" d="M115.24,117.43c-.24,19.11,15.02,34.77,34.13,35.02,.24-19.11-15.02-34.77-34.13-35.02Z"/><path class="cls-8" d="M117.59,145.58c2.41,16.18,17.46,27.32,33.64,24.91-2.41-16.18-17.46-27.32-33.64-24.91Z"/><path class="cls-8" d="M126.38,170.94c1.95,13.05,14.08,22.03,27.12,20.08-1.95-13.05-14.08-22.03-27.12-20.08Z"/></g><g><path class="cls-8" d="M162.71,215.59l-4.22,.81c-15.88-82.25,.89-136.27,21.88-159.4l3.18,2.89c-11.02,12.14-19.44,31.84-23.71,55.47-5.29,29.25-4.32,62.97,2.87,100.23Z"/><g><path class="cls-8" d="M180.41,59.65h0c.84,.93,2.28,1,3.21,.16l5.72-4.16c.93-.84,.5-2.84-.34-3.77h0c-.84-.93-2.78-1.56-3.72-.72l-4.71,5.27c-.93,.84-1,2.28-.16,3.21Z"/><circle class="cls-6" cx="191.25" cy="49.85" r="8.75"/><g><path class="cls-12" d="M196.62,49.42c-.87,0-2.03-.66-2.95-1.68-.63-.7-1.09-1.49-1.28-2.21-.2-.75-.1-1.35,.28-1.69,.21-.19,.49-.29,.83-.29,.87,0,2.03,.66,2.95,1.68,.63,.7,1.09,1.49,1.28,2.21,.2,.75,.1,1.35-.28,1.69-.21,.19-.49,.29-.83,.29h0Z"/><path class="cls-42" d="M193.5,43.64c.82,0,1.95,.61,2.89,1.65,1.29,1.43,1.74,3.12,1.01,3.78-.2,.18-.47,.27-.77,.27-.82,0-1.95-.61-2.89-1.65-1.29-1.43-1.74-3.12-1.01-3.78,.2-.18,.47-.27,.77-.27m0-.17c-.36,0-.66,.1-.89,.31-.82,.74-.38,2.5,1,4.02,.95,1.05,2.11,1.71,3.02,1.71,.36,0,.66-.1,.89-.31,.4-.37,.51-1,.3-1.78-.2-.74-.66-1.54-1.3-2.25-.95-1.05-2.11-1.71-3.02-1.71h0Z"/></g><g><g class="cls-31"><ellipse class="cls-7" cx="194.12" cy="47.35" rx="1.79" ry="3.48" transform="translate(18.36 142.39) rotate(-42.11)"/></g><ellipse class="cls-5" cx="195.05" cy="46.48" rx="1.79" ry="3.48" transform="translate(19.18 142.79) rotate(-42.11)"/></g></g><g><path class="cls-8" d="M173.63,68.47h0c1.25,.15,2.38-.75,2.52-2l1.56-6.89c.15-1.25-1.49-2.46-2.74-2.61h0c-1.25-.15-3.12,.66-3.27,1.91l-.07,7.07c-.15,1.25,.75,2.38,2,2.52Z"/><circle class="cls-6" cx="175.32" cy="53.96" r="8.75"/><g><path class="cls-12" d="M176.54,50.82c-.25,0-.52-.01-.78-.05-1.95-.23-3.45-1.25-3.33-2.27,.1-.88,1.33-1.49,2.98-1.49,.25,0,.52,.01,.78,.05,1.95,.23,3.45,1.25,3.33,2.27-.1,.88-1.33,1.49-2.98,1.49h0Z"/><path class="cls-42" d="M175.41,47.09c.25,0,.51,.01,.77,.05,1.91,.22,3.37,1.2,3.25,2.18-.1,.85-1.33,1.42-2.89,1.42-.25,0-.51-.01-.77-.05-1.91-.22-3.37-1.2-3.25-2.18,.1-.85,1.33-1.42,2.89-1.42m0-.17c-1.69,0-2.95,.65-3.06,1.57-.13,1.09,1.37,2.13,3.4,2.37,.27,.03,.53,.05,.79,.05,1.69,0,2.95-.65,3.06-1.57,.13-1.09-1.37-2.13-3.4-2.37-.27-.03-.53-.05-.79-.05h0Z"/></g><g><g class="cls-23"><ellipse class="cls-7" cx="175.84" cy="50.18" rx="1.79" ry="3.48" transform="translate(105.62 219.03) rotate(-83.35)"/></g><ellipse class="cls-5" cx="175.96" cy="48.92" rx="1.79" ry="3.48" transform="translate(106.99 218.03) rotate(-83.35)"/></g></g><g><path class="cls-8" d="M169.35,73.3h0c.43,1.18,1.73,1.79,2.92,1.36l6.86-1.7c1.18-.43,1.53-2.44,1.1-3.62h0c-.43-1.18-1.99-2.49-3.17-2.06l-6.35,3.11c-1.18,.43-1.79,1.73-1.36,2.92Z"/><circle class="cls-6" cx="183.08" cy="68.3" r="8.75"/><g><path class="cls-12" d="M188.74,70.04c-.93,0-2.04-1.17-2.62-2.77-.67-1.85-.43-3.64,.54-3.99,.11-.04,.23-.06,.36-.06,.93,0,2.04,1.17,2.62,2.77,.46,1.25,.51,2.52,.14,3.31-.16,.34-.4,.58-.68,.68-.11,.04-.24,.06-.36,.06h0Z"/><path class="cls-42" d="M187.02,63.29c.88,0,1.96,1.12,2.54,2.72,.66,1.81,.44,3.55-.49,3.88-.11,.04-.22,.06-.33,.06-.88,0-1.96-1.12-2.54-2.72-.66-1.81-.44-3.55,.49-3.88,.11-.04,.22-.06,.33-.06m0-.17c-.14,0-.27,.02-.39,.07-1.03,.38-1.29,2.18-.59,4.1,.61,1.67,1.72,2.83,2.7,2.83,.14,0,.27-.02,.39-.07,1.03-.38,1.29-2.18,.59-4.1-.61-1.67-1.72-2.83-2.7-2.83h0Z"/></g><g><g class="cls-13"><ellipse class="cls-7" cx="186.68" cy="67.07" rx="1.79" ry="3.48" transform="translate(-11.68 67.89) rotate(-20)"/></g><ellipse class="cls-5" cx="187.87" cy="66.61" rx="1.79" ry="3.48" transform="translate(-11.45 68.27) rotate(-20)"/></g></g><g><path class="cls-8" d="M166.98,82.94h0c1.24-.22,2.06-1.41,1.83-2.64l-.51-7.05c-.22-1.24-2.14-1.92-3.38-1.7h0c-1.24,.22-2.8,1.54-2.57,2.78l1.99,6.78c.22,1.24,1.41,2.06,2.64,1.83Z"/><circle class="cls-6" cx="164.38" cy="68.56" r="8.75"/><g><path class="cls-12" d="M162.71,65.5c-1.46,0-2.53-.53-2.67-1.32-.09-.5,.2-1.04,.81-1.51s1.44-.8,2.37-.97c.39-.07,.79-.11,1.17-.11,1.46,0,2.53,.53,2.68,1.32,.18,1.02-1.24,2.13-3.18,2.48-.39,.07-.79,.11-1.17,.11Z"/><path class="cls-42" d="M164.38,61.68c1.38,0,2.45,.48,2.59,1.25,.18,.97-1.22,2.04-3.11,2.38-.4,.07-.79,.11-1.15,.11-1.38,0-2.45-.48-2.59-1.25-.18-.97,1.22-2.04,3.11-2.38,.4-.07,.79-.11,1.15-.11m0-.17c-.39,0-.78,.04-1.18,.11-2.02,.36-3.44,1.5-3.25,2.58,.15,.84,1.23,1.39,2.76,1.39,.39,0,.78-.04,1.18-.11,.94-.17,1.8-.52,2.4-.99,.64-.49,.94-1.06,.84-1.59-.15-.84-1.23-1.39-2.76-1.39h0Z"/></g><g><g class="cls-33"><ellipse class="cls-7" cx="163.79" cy="64.8" rx="3.48" ry="1.79" transform="translate(-8.9 30.11) rotate(-10.23)"/></g><ellipse class="cls-5" cx="163.53" cy="63.55" rx="3.48" ry="1.79" transform="translate(-8.68 30.04) rotate(-10.23)"/></g></g><g><path class="cls-8" d="M164.28,88.81h0c.75,1,2.18,1.21,3.18,.45l6.07-3.62c1-.75,.76-2.78,0-3.78h0c-.75-1-2.63-1.81-3.63-1.05l-5.17,4.82c-1,.75-1.21,2.18-.45,3.18Z"/><circle class="cls-6" cx="175.97" cy="80.04" r="8.75"/><g><path class="cls-12" d="M181.51,80.11c-.9,0-2.05-.76-2.94-1.95-.57-.75-.95-1.58-1.07-2.32-.13-.76,.02-1.35,.43-1.66,.19-.14,.43-.22,.71-.22,.9,0,2.05,.76,2.94,1.95,.57,.75,.95,1.58,1.07,2.32,.13,.76-.02,1.35-.43,1.66-.19,.14-.43,.22-.71,.22h0Z"/><path class="cls-42" d="M178.64,74.05c.84,0,1.98,.73,2.87,1.91,1.15,1.54,1.45,3.27,.66,3.86-.18,.14-.4,.2-.65,.2-.84,0-1.98-.73-2.87-1.91-1.15-1.54-1.45-3.27-.66-3.86,.18-.14,.4-.2,.65-.2m0-.17c-.29,0-.55,.08-.76,.23-.88,.66-.6,2.46,.63,4.1,.9,1.2,2.08,1.98,3,1.98,.29,0,.55-.08,.76-.23,.88-.66,.6-2.46-.63-4.1-.9-1.2-2.08-1.98-3-1.98h0Z"/></g><g><g class="cls-24"><ellipse class="cls-7" cx="179.06" cy="77.82" rx="1.79" ry="3.48" transform="translate(-10.87 123.03) rotate(-36.88)"/></g><ellipse class="cls-5" cx="180.07" cy="77.03" rx="1.79" ry="3.48" transform="translate(-10.2 123.48) rotate(-36.88)"/></g></g><g><path class="cls-8" d="M162.05,95.9h0c1.17-.46,1.74-1.79,1.27-2.95l-1.9-6.81c-.46-1.17-2.48-1.46-3.65-.99h0c-1.17,.46-2.43,2.06-1.97,3.23l3.3,6.25c.46,1.17,1.79,1.74,2.95,1.27Z"/><circle class="cls-6" cx="156.65" cy="82.32" r="8.75"/><g><path class="cls-12" d="M153.37,79.77c-.96,0-1.64-.32-1.86-.87-.19-.47-.01-1.06,.49-1.64,.5-.57,1.25-1.07,2.13-1.42,.73-.29,1.48-.45,2.15-.45,.96,0,1.64,.32,1.86,.87,.19,.47,.01,1.06-.49,1.64-.5,.57-1.25,1.07-2.13,1.42-.73,.29-1.48,.45-2.15,.45h0Z"/><path class="cls-42" d="M156.28,75.48c.88,0,1.56,.28,1.78,.81,.37,.92-.79,2.24-2.57,2.95-.75,.3-1.49,.44-2.12,.44-.88,0-1.56-.28-1.78-.81-.37-.92,.79-2.24,2.57-2.95,.75-.3,1.49-.44,2.12-.44m0-.17c-.68,0-1.44,.16-2.18,.45-1.9,.76-3.08,2.15-2.67,3.17,.23,.59,.94,.92,1.94,.92,.68,0,1.44-.16,2.18-.45,.89-.35,1.66-.87,2.16-1.44,.53-.61,.71-1.22,.51-1.73-.23-.59-.94-.92-1.94-.92h0Z"/></g><g><g class="cls-38"><ellipse class="cls-7" cx="155.31" cy="78.76" rx="3.48" ry="1.79" transform="translate(-18.12 63.04) rotate(-21.71)"/></g><ellipse class="cls-5" cx="154.82" cy="77.58" rx="3.48" ry="1.79" transform="translate(-17.72 62.78) rotate(-21.71)"/></g></g><g><path class="cls-8" d="M160.58,102.18h0c.94,.83,2.38,.75,3.21-.19l5.23-4.76c.83-.94,.19-2.87-.75-3.71h0c-.94-.83-2.94-1.25-3.77-.31l-4.11,5.75c-.83,.94-.75,2.38,.19,3.21Z"/><circle class="cls-6" cx="170.29" cy="91.26" r="8.75"/><g><path class="cls-12" d="M175.37,90.26c-.85,0-1.96-.52-2.91-1.36-1.47-1.31-2.11-3-1.42-3.77,.22-.25,.57-.39,1-.39,.85,0,1.96,.52,2.91,1.36,1.47,1.31,2.11,3,1.42,3.77-.22,.25-.57,.39-1,.39Z"/><path class="cls-42" d="M172.05,84.83c.81,0,1.89,.48,2.85,1.34,1.44,1.28,2.07,2.91,1.41,3.65-.22,.24-.55,.36-.94,.36-.81,0-1.89-.48-2.85-1.34-1.44-1.28-2.07-2.91-1.41-3.65,.22-.24,.55-.36,.94-.36m0-.17c-.46,0-.83,.14-1.07,.42-.36,.41-.4,1.05-.11,1.8,.28,.71,.82,1.46,1.54,2.09,.97,.86,2.08,1.38,2.96,1.38,.46,0,.83-.14,1.07-.42,.36-.41,.4-1.05,.11-1.8-.28-.71-.82-1.46-1.54-2.09-.97-.86-2.08-1.38-2.96-1.38h0Z"/></g><g><g class="cls-18"><ellipse class="cls-7" cx="172.88" cy="88.47" rx="1.79" ry="3.48" transform="translate(-8.1 158.9) rotate(-48.36)"/></g><ellipse class="cls-5" cx="173.7" cy="87.5" rx="1.79" ry="3.48" transform="translate(-7.1 159.19) rotate(-48.36)"/></g></g><g><path class="cls-8" d="M157.84,111.5h0c1.06-.67,1.37-2.08,.7-3.14l-3.14-6.33c-.67-1.06-2.71-.97-3.77-.29h0c-1.06,.67-2,2.48-1.33,3.54l4.41,5.53c.67,1.06,2.08,1.37,3.14,.7Z"/><circle class="cls-6" cx="149.99" cy="99.18" r="8.75"/><g><path class="cls-12" d="M145.62,97.35c-.62,0-1.09-.2-1.32-.57-.28-.43-.21-1.04,.18-1.7,.38-.65,1.03-1.29,1.82-1.79,.91-.58,1.89-.91,2.69-.91,.62,0,1.09,.2,1.32,.57,.55,.87-.34,2.44-2,3.5-.91,.58-1.89,.91-2.69,.91h0Z"/><path class="cls-42" d="M148.99,92.45c.57,0,1.02,.17,1.25,.53,.53,.83-.35,2.35-1.98,3.38-.92,.59-1.89,.89-2.65,.89-.57,0-1.02-.17-1.25-.53-.53-.83,.35-2.35,1.98-3.38,.92-.59,1.89-.89,2.65-.89m0-.17c-.82,0-1.82,.34-2.74,.92-1.73,1.1-2.62,2.69-2.03,3.62,.25,.39,.75,.61,1.4,.61,.82,0,1.82-.34,2.74-.92,1.73-1.1,2.62-2.69,2.03-3.62-.25-.39-.75-.61-1.4-.61h0Z"/></g><g><g class="cls-21"><ellipse class="cls-7" cx="148.01" cy="95.92" rx="3.48" ry="1.79" transform="translate(-28.36 94.52) rotate(-32.49)"/></g><ellipse class="cls-5" cx="147.3" cy="94.86" rx="3.48" ry="1.79" transform="translate(-27.9 93.98) rotate(-32.49)"/></g></g><g><path class="cls-8" d="M157.56,117.95h0c1.08,.64,2.47,.29,3.12-.79l4.25-5.65c.64-1.08-.35-2.86-1.43-3.5h0c-1.08-.64-3.12-.68-3.76,.4l-2.96,6.42c-.64,1.08-.29,2.47,.79,3.12Z"/><circle class="cls-6" cx="165.06" cy="105.4" r="8.75"/><g><path class="cls-12" d="M169.39,103.51c-.79,0-1.75-.3-2.63-.83-1.69-1.01-2.63-2.55-2.1-3.44,.24-.39,.73-.61,1.39-.61,.79,0,1.75,.3,2.63,.83,.81,.48,1.48,1.1,1.87,1.74,.41,.66,.49,1.26,.23,1.7-.24,.39-.73,.61-1.39,.61h0Z"/><path class="cls-42" d="M166.04,98.72c.74,0,1.68,.28,2.59,.82,1.65,.99,2.58,2.47,2.07,3.32-.23,.38-.71,.57-1.32,.57-.74,0-1.68-.28-2.59-.82-1.65-.99-2.58-2.47-2.07-3.32,.23-.38,.71-.57,1.32-.57m0-.17c-.69,0-1.21,.23-1.47,.65-.56,.94,.37,2.51,2.13,3.56,.9,.54,1.87,.84,2.68,.84,.69,0,1.21-.23,1.47-.65,.56-.94-.37-2.51-2.13-3.56-.9-.54-1.87-.84-2.68-.84h0Z"/></g><g><g class="cls-34"><ellipse class="cls-7" cx="167.08" cy="102.18" rx="1.79" ry="3.48" transform="translate(-6.33 193.21) rotate(-59.15)"/></g><ellipse class="cls-5" cx="167.71" cy="101.07" rx="1.79" ry="3.48" transform="translate(-5.07 193.21) rotate(-59.15)"/></g></g><g><path class="cls-8" d="M155.59,130.92h0c1.25,.08,2.33-.88,2.41-2.13l1.18-6.97c.08-1.25-1.63-2.38-2.88-2.45h0c-1.25-.08-3.08,.83-3.16,2.09l.32,7.06c-.08,1.25,.88,2.33,2.13,2.41Z"/><circle class="cls-6" cx="156.48" cy="116.33" r="8.75"/><g><path class="cls-12" d="M157.15,113.15c-.14,0-.28,0-.42-.01-.94-.06-1.82-.3-2.46-.68-.66-.39-1.01-.89-.98-1.4,.06-.95,1.46-1.67,3.25-1.67,.14,0,.28,0,.42,.01,1.96,.12,3.51,1.06,3.45,2.09-.06,.95-1.46,1.67-3.25,1.67h0Z"/><path class="cls-42" d="M156.54,109.47c.14,0,.28,0,.42,.01,1.92,.12,3.43,1.01,3.37,2-.06,.91-1.44,1.59-3.17,1.59-.14,0-.28,0-.42-.01-1.92-.12-3.43-1.01-3.37-2,.06-.91,1.44-1.59,3.17-1.59m0-.17c-1.87,0-3.28,.73-3.34,1.75-.07,1.1,1.48,2.05,3.53,2.18,.14,0,.29,.01,.43,.01,1.87,0,3.28-.73,3.34-1.75,.03-.54-.33-1.07-1.02-1.48-.66-.39-1.55-.64-2.5-.7-.14,0-.29-.01-.43-.01h0Z"/></g><g><g class="cls-30"><ellipse class="cls-7" cx="156.79" cy="112.54" rx="1.79" ry="3.48" transform="translate(34.89 262.17) rotate(-86.5)"/></g><ellipse class="cls-5" cx="156.84" cy="111.26" rx="1.79" ry="3.48" transform="translate(36.22 261.02) rotate(-86.5)"/></g></g></g><g><rect class="cls-8" x="142.97" y="81.03" width="7.16" height="173.91" transform="translate(-48.62 60.25) rotate(-20)"/><g><path class="cls-8" d="M120.06,95.21h0c-5.02,1.83-10.57-.76-12.4-5.78l-13.22-27c-1.83-5.02,3.76-11.66,8.78-13.49h0c5.02-1.83,13.57-.33,15.39,4.69l7.23,29.18c1.83,5.02-.76,10.57-5.78,12.4Z"/><path class="cls-28" d="M136.01,36.91c24.89,10.77,7.07,33.33-25.45,32.21-24.19,21.75-52.34,15.93-40.2-8.32-24.89-10.77-7.07-33.33,25.45-32.21,24.19-21.75,52.34-15.93,40.2,8.32Z"/><path class="cls-2" d="M136.01,36.91c24.89,10.77,7.07,33.33-25.45,32.21-24.19,21.75-52.34,15.93-40.2-8.32-24.89-10.77-7.07-33.33,25.45-32.21,24.19-21.75,52.34-15.93,40.2,8.32Z"/><path class="cls-15" d="M134.19,31.9c24.89,10.77,7.07,33.33-25.45,32.21-24.19,21.75-52.34,15.93-40.2-8.32-24.89-10.77-7.07-33.33,25.45-32.21,24.19-21.75,52.34-15.93,40.2,8.32Z"/><path class="cls-2" d="M134.19,31.9c24.89,10.77,7.07,33.33-25.45,32.21-24.19,21.75-52.34,15.93-40.2-8.32-24.89-10.77-7.07-33.33,25.45-32.21,24.19-21.75,52.34-15.93,40.2,8.32Z"/><ellipse class="cls-4" cx="100.87" cy="42.5" rx="17.93" ry="6.85" transform="translate(-8.45 37.06) rotate(-20)"/></g></g><g><path class="cls-8" d="M171.83,244.14l6.73-2.45c-21.64-59.45-33.56-92.2-33.4-112.19l-7.16-.06c-.17,21.28,11.91,54.46,33.83,114.69Z"/><g><path class="cls-8" d="M142.91,147.14h0c5.27-.89,8.82-5.88,7.93-11.15l-1.84-30.01c-.89-5.27-9.03-8.28-14.3-7.39h0c-5.27,.89-11.96,6.42-11.07,11.68l8.13,28.94c.89,5.27,5.88,8.82,11.15,7.93Z"/><path class="cls-28" d="M100.24,104.34c-16.32,21.66,10.32,32.47,38.04,15.44,31.78,6.96,53.38-12.01,30.84-27.09,16.32-21.66-10.32-32.47-38.04-15.44-31.78-6.96-53.38,12.01-30.84,27.09Z"/><path class="cls-2" d="M100.24,104.34c-16.32,21.66,10.32,32.47,38.04,15.44,31.78,6.96,53.38-12.01,30.84-27.09,16.32-21.66-10.32-32.47-38.04-15.44-31.78-6.96-53.38,12.01-30.84,27.09Z"/><path class="cls-15" d="M99.35,99.07c-16.32,21.66,10.32,32.47,38.04,15.44,31.78,6.96,53.38-12.01,30.84-27.09,16.32-21.66-10.32-32.47-38.04-15.44-31.78-6.96-53.38,12.01-30.84,27.09Z"/><path class="cls-2" d="M99.35,99.07c-16.32,21.66,10.32,32.47,38.04,15.44,31.78,6.96,53.38-12.01,30.84-27.09,16.32-21.66-10.32-32.47-38.04-15.44-31.78-6.96-53.38,12.01-30.84,27.09Z"/><ellipse class="cls-4" cx="133.55" cy="91.83" rx="17.93" ry="6.85" transform="translate(-13.45 23.57) rotate(-9.6)"/></g></g><g><path class="cls-8" d="M45.59,128.9c10.71,12.24,29.29,13.48,41.54,2.77-10.71-12.24-29.29-13.48-41.54-2.77Z"/><path class="cls-8" d="M181,256.25l5.04-1.84c-28.72-78.9-71.02-116.73-101.04-125.81l-1.56,5.14c15.59,4.72,32.86,17.23,48.6,35.23,19.53,22.32,36,51.68,48.95,87.28Z"/><path class="cls-8" d="M65.96,150.91c11.55,5.67,25.49,.91,31.16-10.64-11.55-5.67-25.49-.91-31.16,10.64Z"/><path class="cls-8" d="M75.89,165.92c14.31,6.49,31.13,.16,37.62-14.14-14.31-6.49-31.13-.16-37.62,14.14Z"/><path class="cls-8" d="M88.82,182.47c15.59,6.87,33.76-.18,40.64-15.77-15.59-6.87-33.76,.18-40.64,15.77Z"/><path class="cls-8" d="M105.36,195.16c13.5,6.62,29.78,1.05,36.4-12.45-13.5-6.62-29.78-1.05-36.4,12.45Z"/><path class="cls-8" d="M121.22,210.51c12.31,3.74,25.31-3.19,29.05-15.51-12.31-3.74-25.31,3.19-29.05,15.51Z"/><path class="cls-8" d="M135.09,220.62c9.93,3.02,20.41-2.57,23.42-12.5-9.93-3.02-20.41,2.57-23.42,12.5Z"/><path class="cls-8" d="M92.34,103.39c11.06,6.58,14.68,20.86,8.09,31.92-11.06-6.58-14.68-20.86-8.09-31.92Z"/><path class="cls-8" d="M113.98,105.86c12.03,10.11,13.58,28.02,3.47,40.04-12.03-10.11-13.58-28.02-3.47-40.04Z"/><path class="cls-8" d="M132.21,117.39c12.69,11.36,13.77,30.83,2.41,43.52-12.69-11.36-13.77-30.83-2.41-43.52Z"/><path class="cls-8" d="M149.58,138.88c9.81,11.39,8.53,28.55-2.86,38.37-9.81-11.39-8.53-28.55,2.86-38.37Z"/><path class="cls-8" d="M162.4,157.03c6.73,10.97,3.29,25.29-7.68,32.02-6.73-10.97-3.29-25.29,7.68-32.02Z"/><path class="cls-8" d="M169.92,176.76c5.43,8.85,2.66,20.39-6.19,25.82-5.43-8.85-2.66-20.39,6.19-25.82Z"/></g><g><path class="cls-8" d="M177.92,259.56l-6.73,2.45c-10.03-27.55-14.8-53.23-14.19-76.34,.62-23.4,6.63-37.35,10.15-43.59l6.23,3.52c-10.87,19.21-15.38,59.24,4.53,113.95Z"/><g><path class="cls-8" d="M164.3,161.84h0c-5.05-1.76-7.71-7.27-5.96-12.32l6.81-29.28c1.76-5.05,10.28-6.67,15.33-4.91h0c5.05,1.76,10.72,8.32,8.97,13.36l-12.84,27.19c-1.76,5.05-7.27,7.71-12.32,5.96Z"/><path class="cls-28" d="M213.5,126.74c12.49,24.07-15.58,30.3-40.08,8.89-32.5,1.57-50.63-20.73-25.9-31.85-12.49-24.07,15.58-30.3,40.08-8.89,32.5-1.57,50.63,20.73,25.9,31.85Z"/><path class="cls-2" d="M213.5,126.74c12.49,24.07-15.58,30.3-40.08,8.89-32.5,1.57-50.63-20.73-25.9-31.85-12.49-24.07,15.58-30.3,40.08-8.89,32.5-1.57,50.63,20.73,25.9,31.85Z"/><path class="cls-15" d="M215.25,121.7c12.49,24.07-15.58,30.3-40.08,8.89-32.5,1.57-50.63-20.73-25.9-31.85-12.49-24.07,15.58-30.3,40.08-8.89,32.5-1.57,50.63,20.73,25.9,31.85Z"/><path class="cls-2" d="M215.25,121.7c12.49,24.07-15.58,30.3-40.08,8.89-32.5,1.57-50.63-20.73-25.9-31.85-12.49-24.07,15.58-30.3,40.08-8.89,32.5-1.57,50.63,20.73,25.9,31.85Z"/><ellipse class="cls-4" cx="182.74" cy="108.86" rx="6.85" ry="17.93" transform="translate(19.87 245.67) rotate(-70.81)"/></g></g><g><path class="cls-8" d="M178.05,260.09l5.04-1.84c-28.72-78.9-71.02-116.73-101.04-125.81l-1.56,5.14c15.59,4.72,32.86,17.23,48.6,35.23,19.53,22.32,36,51.68,48.95,87.28Z"/><g><path class="cls-8" d="M82.8,135.13h0c-.29,1.22-1.51,1.98-2.73,1.69l-7.01-.88c-1.22-.29-1.81-2.24-1.52-3.46h0c.29-1.22,1.68-2.71,2.91-2.42l6.67,2.34c1.22,.29,1.98,1.51,1.69,2.73Z"/><circle class="cls-3" cx="68.58" cy="131.79" r="8.75"/><g><path class="cls-39" d="M63.04,134.28c-.09,0-.17,0-.26-.03-1.07-.25-1.55-2.01-1.08-4.01,.43-1.82,1.48-3.14,2.5-3.14,.09,0,.17,.01,.26,.03,.53,.12,.94,.63,1.13,1.41,.19,.74,.17,1.67-.05,2.6-.43,1.82-1.48,3.14-2.5,3.14Z"/><path class="cls-42" d="M64.19,127.27c.07,0,.15,0,.22,.02,.96,.23,1.38,1.93,.95,3.8-.41,1.73-1.41,3.01-2.32,3.01-.07,0-.15,0-.22-.02-.96-.23-1.38-1.93-.95-3.8,.41-1.73,1.41-3.01,2.32-3.01m0-.36h0c-1.1,0-2.22,1.38-2.67,3.28-.23,.96-.24,1.91-.05,2.69,.21,.85,.66,1.4,1.26,1.54,.1,.02,.2,.03,.3,.03,1.1,0,2.22-1.38,2.67-3.28,.49-2.1-.04-3.95-1.21-4.23-.1-.02-.2-.03-.3-.03h0Z"/></g><g><g class="cls-40"><ellipse class="cls-1" cx="64.85" cy="130.99" rx="3.48" ry="1.79" transform="translate(-77.5 164.19) rotate(-76.79)"/></g><ellipse class="cls-5" cx="63.62" cy="130.68" rx="3.48" ry="1.79" transform="translate(-78.14 162.75) rotate(-76.79)"/></g></g><g><path class="cls-8" d="M91.16,138.11h0c-.29,1.22-1.51,1.98-2.73,1.69l-7.01-.88c-1.22-.29-1.81-2.24-1.52-3.46h0c.29-1.22,1.68-2.71,2.91-2.42l6.67,2.34c1.22,.29,1.98,1.51,1.69,2.73Z"/><circle class="cls-3" cx="76.93" cy="134.77" r="8.75"/><g><path class="cls-39" d="M71.39,137.27c-.09,0-.17-.01-.26-.03-.53-.12-.94-.63-1.13-1.41-.19-.74-.17-1.67,.05-2.6,.43-1.82,1.48-3.15,2.5-3.15,.09,0,.17,.01,.26,.03,1.07,.25,1.55,2.02,1.08,4.01-.43,1.82-1.48,3.14-2.5,3.14Z"/><path class="cls-42" d="M72.55,130.26c.07,0,.15,0,.22,.02,.96,.23,1.38,1.93,.95,3.8-.41,1.73-1.41,3.01-2.32,3.01-.07,0-.15,0-.22-.02-.96-.23-1.38-1.93-.95-3.8,.41-1.73,1.41-3.01,2.32-3.01m0-.36h0c-1.1,0-2.22,1.38-2.67,3.28-.49,2.1,.04,3.95,1.21,4.23,.1,.02,.2,.03,.3,.03,1.1,0,2.22-1.38,2.67-3.28,.23-.96,.24-1.91,.05-2.69-.21-.85-.66-1.4-1.26-1.54-.1-.02-.2-.03-.3-.03h0Z"/></g><g><g class="cls-10"><ellipse class="cls-1" cx="73.21" cy="133.98" rx="3.48" ry="1.79" transform="translate(-73.96 174.63) rotate(-76.79)"/></g><ellipse class="cls-5" cx="71.98" cy="133.66" rx="3.48" ry="1.79" transform="translate(-74.6 173.19) rotate(-76.79)"/></g></g><g><path class="cls-8" d="M92.56,138.43h0c-1.07,.66-2.47,.32-3.13-.75l-4.31-5.6c-.66-1.07,.32-2.86,1.39-3.52h0c1.07-.66,3.11-.71,3.77,.36l3.03,6.39c.66,1.07,.32,2.47-.75,3.13Z"/><circle class="cls-3" cx="84.93" cy="125.97" r="8.75"/><g><path class="cls-39" d="M80.55,124.22c-.68,0-1.19-.23-1.45-.64-.58-.94,.34-2.52,2.09-3.59,.91-.56,1.89-.88,2.7-.88,.68,0,1.19,.23,1.45,.64,.29,.47,.21,1.11-.21,1.8-.4,.66-1.07,1.29-1.89,1.79-.91,.56-1.89,.88-2.71,.88Z"/><path class="cls-42" d="M83.9,119.29c.59,0,1.06,.18,1.29,.55,.52,.84-.4,2.34-2.04,3.34-.91,.56-1.86,.85-2.61,.85-.59,0-1.06-.18-1.29-.55-.52-.84,.4-2.34,2.04-3.34,.91-.56,1.86-.85,2.61-.85m0-.36h0c-.84,0-1.86,.33-2.8,.9-.84,.51-1.53,1.17-1.95,1.85-.46,.75-.53,1.46-.21,1.98,.29,.47,.85,.73,1.6,.73,.84,0,1.86-.33,2.8-.9,.84-.52,1.53-1.17,1.95-1.85,.46-.75,.53-1.46,.21-1.98-.29-.47-.85-.73-1.6-.73h0Z"/></g><g><g class="cls-26"><ellipse class="cls-1" cx="82.88" cy="122.76" rx="3.48" ry="1.79" transform="translate(-51.92 61.36) rotate(-31.49)"/></g><ellipse class="cls-5" cx="82.23" cy="121.66" rx="3.48" ry="1.79" transform="translate(-51.44 60.86) rotate(-31.49)"/></g></g><g><path class="cls-8" d="M91.37,140.41h0c.31,1.22-.43,2.45-1.65,2.76l-6.63,2.45c-1.22,.31-2.64-1.16-2.95-2.37h0c-.31-1.22,.25-3.18,1.46-3.49l7-1c1.22-.31,2.45,.43,2.76,1.65Z"/><circle class="cls-3" cx="77.21" cy="143.99" r="8.75"/><g><path class="cls-39" d="M72.91,148.88c-1.01,0-2.07-1.3-2.53-3.1-.5-1.99-.06-3.76,1.01-4.03,.09-.02,.18-.03,.28-.03,1.01,0,2.07,1.3,2.53,3.1,.23,.93,.27,1.85,.1,2.6-.18,.79-.58,1.3-1.11,1.43-.09,.02-.18,.03-.28,.03Z"/><path class="cls-42" d="M71.67,141.89c.91,0,1.92,1.25,2.35,2.97,.47,1.86,.08,3.57-.88,3.81-.08,.02-.15,.03-.23,.03-.91,0-1.92-1.25-2.35-2.97-.47-1.86-.08-3.57,.88-3.81,.08-.02,.15-.03,.23-.03m0-.36h0c-.11,0-.22,.01-.32,.04-.6,.15-1.04,.71-1.24,1.57-.18,.77-.14,1.73,.1,2.68,.47,1.88,1.61,3.24,2.7,3.24,.11,0,.22-.01,.32-.04,1.17-.29,1.67-2.16,1.14-4.25-.47-1.88-1.61-3.24-2.7-3.24h0Z"/></g><g><g class="cls-14"><ellipse class="cls-1" cx="73.53" cy="145" rx="1.79" ry="3.48" transform="translate(-33.3 22.45) rotate(-14.19)"/></g><ellipse class="cls-5" cx="72.29" cy="145.29" rx="1.79" ry="3.48" transform="translate(-33.41 22.15) rotate(-14.19)"/></g></g><g><path class="cls-8" d="M102.71,144.16h0c-.29,1.22-1.51,1.98-2.73,1.69l-7.01-.88c-1.22-.29-1.81-2.24-1.52-3.46h0c.29-1.22,1.68-2.71,2.91-2.42l6.67,2.34c1.22,.29,1.98,1.51,1.69,2.73Z"/><circle class="cls-3" cx="88.48" cy="140.82" r="8.75"/><g><path class="cls-39" d="M82.94,143.31c-.09,0-.17,0-.26-.03-1.07-.25-1.55-2.02-1.08-4.01,.43-1.82,1.48-3.14,2.5-3.14,.09,0,.17,.01,.26,.03,.53,.12,.94,.63,1.13,1.41,.19,.74,.17,1.67-.05,2.6-.43,1.82-1.48,3.15-2.5,3.15Z"/><path class="cls-42" d="M84.1,136.3c.07,0,.15,0,.22,.02,.96,.23,1.38,1.93,.95,3.8-.41,1.73-1.41,3.01-2.32,3.01-.07,0-.15,0-.22-.02-.96-.23-1.38-1.93-.95-3.8,.41-1.73,1.41-3.01,2.32-3.01m0-.36h0c-1.1,0-2.22,1.38-2.67,3.28-.49,2.1,.04,3.95,1.21,4.23,.1,.02,.2,.03,.3,.03,1.1,0,2.22-1.38,2.67-3.28,.23-.96,.24-1.91,.05-2.69-.21-.85-.66-1.4-1.26-1.54-.1-.02-.2-.03-.3-.03h0Z"/></g><g><g class="cls-36"><ellipse class="cls-1" cx="84.76" cy="140.03" rx="3.48" ry="1.79" transform="translate(-70.93 190.54) rotate(-76.79)"/></g><ellipse class="cls-5" cx="83.52" cy="139.71" rx="3.48" ry="1.79" transform="translate(-71.58 189.09) rotate(-76.79)"/></g></g><g><path class="cls-8" d="M107.24,147.01h0c-1.07,.66-2.47,.32-3.13-.75l-4.31-5.6c-.66-1.07,.32-2.86,1.39-3.52h0c1.07-.66,3.11-.71,3.77,.36l3.03,6.39c.66,1.07,.32,2.47-.75,3.13Z"/><circle class="cls-3" cx="99.61" cy="134.55" r="8.75"/><g><path class="cls-39" d="M95.22,132.8c-.68,0-1.19-.23-1.45-.64-.58-.94,.34-2.52,2.09-3.59,.91-.56,1.89-.88,2.7-.88,.68,0,1.19,.23,1.45,.64,.29,.47,.21,1.11-.21,1.8-.4,.66-1.07,1.29-1.89,1.79-.91,.56-1.89,.88-2.71,.88Z"/><path class="cls-42" d="M98.58,127.88c.59,0,1.06,.18,1.29,.55,.52,.84-.4,2.34-2.04,3.34-.91,.56-1.86,.85-2.61,.85-.59,0-1.06-.18-1.29-.55-.52-.84,.4-2.34,2.04-3.34,.91-.56,1.86-.85,2.61-.85m0-.36h0c-.84,0-1.86,.33-2.8,.9-.84,.52-1.53,1.17-1.95,1.85-.46,.75-.53,1.46-.21,1.98,.29,.47,.85,.73,1.6,.73,.84,0,1.86-.33,2.8-.9,.84-.51,1.53-1.17,1.95-1.85,.46-.75,.53-1.46,.21-1.98-.29-.47-.85-.73-1.6-.73h0Z"/></g><g><g class="cls-17"><ellipse class="cls-1" cx="97.55" cy="131.35" rx="3.48" ry="1.79" transform="translate(-54.24 70.29) rotate(-31.49)"/></g><ellipse class="cls-5" cx="96.91" cy="130.25" rx="3.48" ry="1.79" transform="translate(-53.76 69.79) rotate(-31.49)"/></g></g><g><path class="cls-8" d="M102.92,146.45h0c.31,1.22-.43,2.45-1.65,2.76l-6.63,2.45c-1.22,.31-2.64-1.16-2.95-2.37h0c-.31-1.22,.25-3.18,1.46-3.49l7-1c1.22-.31,2.45,.43,2.76,1.65Z"/><circle class="cls-3" cx="88.75" cy="150.04" r="8.75"/><g><path class="cls-39" d="M84.46,154.92c-1.01,0-2.07-1.3-2.53-3.1-.5-1.99-.06-3.76,1.01-4.03,.09-.02,.18-.03,.28-.03,1.01,0,2.07,1.3,2.53,3.1,.5,1.99,.06,3.76-1.01,4.03-.09,.02-.18,.03-.28,.03Z"/><path class="cls-42" d="M83.22,147.94c.91,0,1.92,1.25,2.35,2.97,.47,1.86,.08,3.57-.88,3.81-.08,.02-.15,.03-.23,.03-.91,0-1.92-1.25-2.35-2.97-.47-1.86-.08-3.57,.88-3.81,.08-.02,.15-.03,.23-.03m0-.36c-.11,0-.22,.01-.32,.04-.6,.15-1.04,.71-1.24,1.57-.18,.77-.14,1.73,.1,2.68,.47,1.88,1.61,3.24,2.7,3.24,.11,0,.22-.01,.32-.04,.6-.15,1.04-.71,1.24-1.57,.18-.77,.14-1.73-.1-2.68-.47-1.88-1.61-3.24-2.7-3.24h0Z"/></g><g><g class="cls-11"><ellipse class="cls-1" cx="85.08" cy="151.05" rx="1.79" ry="3.48" transform="translate(-34.43 25.46) rotate(-14.19)"/></g><ellipse class="cls-5" cx="83.84" cy="151.33" rx="1.79" ry="3.48" transform="translate(-34.54 25.17) rotate(-14.19)"/></g></g><g><path class="cls-8" d="M112.96,152.33h0c-.18,1.24-1.33,2.11-2.57,1.93l-7.06-.25c-1.24-.18-2-2.07-1.82-3.32h0c.18-1.24,1.44-2.85,2.68-2.67l6.85,1.74c1.24,.18,2.11,1.33,1.93,2.57Z"/><circle class="cls-3" cx="98.5" cy="150.26" r="8.75"/><g><path class="cls-39" d="M93.1,153.24c-.05,0-.11,0-.16-.01-.54-.08-.99-.54-1.25-1.31-.25-.73-.31-1.65-.18-2.6,.27-1.91,1.27-3.36,2.31-3.36,.05,0,.11,0,.16,.01,.54,.08,.99,.54,1.25,1.31,.25,.73,.31,1.65,.18,2.6-.27,1.91-1.26,3.36-2.31,3.36Z"/><path class="cls-42" d="M93.82,146.15s.09,0,.13,0c.98,.14,1.55,1.8,1.28,3.7-.26,1.82-1.2,3.2-2.13,3.2-.04,0-.09,0-.13,0-.98-.14-1.55-1.8-1.28-3.7,.26-1.82,1.2-3.2,2.13-3.2m0-.36h0c-1.13,0-2.2,1.51-2.48,3.51-.14,.98-.07,1.93,.19,2.68,.29,.83,.78,1.34,1.4,1.43,.06,0,.12,.01,.18,.01,1.13,0,2.2-1.51,2.48-3.51,.3-2.13-.39-3.94-1.58-4.11-.06,0-.12-.01-.18-.01h0Z"/></g><g><g class="cls-37"><ellipse class="cls-1" cx="94.72" cy="149.8" rx="3.48" ry="1.79" transform="translate(-66.98 222.36) rotate(-81.86)"/></g><ellipse class="cls-5" cx="93.46" cy="149.6" rx="3.48" ry="1.79" transform="translate(-67.86 220.94) rotate(-81.86)"/></g></g><g><path class="cls-8" d="M118.01,158.41h0c-1.24,.2-2.41-.64-2.61-1.88l-1.86-6.82c-.2-1.24,1.38-2.53,2.62-2.73h0c1.24-.2,3.15,.52,3.35,1.76l.38,7.06c.2,1.24-.64,2.41-1.88,2.61Z"/><circle class="cls-3" cx="115.68" cy="143.99" r="8.75"/><g><path class="cls-39" d="M114.05,141.01c-1.57,0-2.72-.58-2.86-1.45-.18-1.09,1.27-2.2,3.3-2.53,.36-.06,.72-.09,1.07-.09,1.57,0,2.72,.58,2.86,1.45,.09,.54-.22,1.1-.88,1.58-.62,.46-1.48,.79-2.43,.94-.36,.06-.72,.09-1.07,.09Z"/><path class="cls-42" d="M115.57,137.13c1.43,0,2.55,.51,2.68,1.3,.16,.97-1.25,2.01-3.15,2.32-.36,.06-.71,.09-1.04,.09-1.43,0-2.55-.51-2.68-1.3-.16-.97,1.25-2.01,3.15-2.32,.36-.06,.71-.09,1.04-.09m0-.36h0c-.36,0-.73,.03-1.1,.09-.97,.16-1.86,.5-2.5,.97-.71,.52-1.05,1.15-.95,1.76,.15,.96,1.37,1.6,3.03,1.6,.36,0,.73-.03,1.1-.09,.97-.16,1.86-.5,2.5-.97,.71-.52,1.05-1.15,.95-1.76-.15-.96-1.37-1.6-3.03-1.6h0Z"/></g><g><g class="cls-35"><ellipse class="cls-1" cx="115" cy="140.24" rx="3.48" ry="1.79" transform="translate(-20.86 20.1) rotate(-9.16)"/></g><ellipse class="cls-5" cx="114.82" cy="138.98" rx="3.48" ry="1.79" transform="translate(-20.66 20.05) rotate(-9.16)"/></g></g><g><path class="cls-8" d="M123.83,163.94h0c-.18,1.24-1.33,2.11-2.57,1.93l-7.06-.25c-1.24-.18-2-2.07-1.82-3.32h0c.18-1.24,1.44-2.85,2.68-2.67l6.85,1.74c1.24,.18,2.11,1.33,1.93,2.57Z"/><circle class="cls-3" cx="109.37" cy="161.87" r="8.75"/><g><path class="cls-39" d="M103.97,164.85c-.05,0-.11,0-.16-.01-.54-.08-.99-.54-1.25-1.31-.25-.73-.31-1.65-.18-2.6,.27-1.91,1.27-3.36,2.31-3.36,.05,0,.11,0,.16,.01,1.09,.16,1.72,1.87,1.43,3.9-.27,1.91-1.27,3.36-2.31,3.36Z"/><path class="cls-42" d="M104.69,157.76s.09,0,.13,0c.98,.14,1.55,1.8,1.28,3.7-.26,1.82-1.2,3.2-2.13,3.2-.04,0-.09,0-.13,0-.98-.14-1.55-1.8-1.28-3.7,.26-1.82,1.2-3.2,2.13-3.2m0-.36h0c-1.13,0-2.2,1.51-2.48,3.51-.14,.98-.07,1.93,.19,2.68,.29,.83,.78,1.34,1.4,1.43,.06,0,.12,.01,.18,.01,1.13,0,2.2-1.51,2.48-3.51,.14-.98,.07-1.93-.19-2.68-.29-.83-.78-1.34-1.4-1.43-.06,0-.12-.01-.18-.01h0Z"/></g><g><g class="cls-32"><ellipse class="cls-1" cx="105.59" cy="161.41" rx="3.48" ry="1.79" transform="translate(-69.15 243.09) rotate(-81.86)"/></g><ellipse class="cls-5" cx="104.33" cy="161.21" rx="3.48" ry="1.79" transform="translate(-70.02 241.67) rotate(-81.86)"/></g></g><g><path class="cls-8" d="M128.88,170.03h0c-1.24,.2-2.41-.64-2.61-1.88l-1.86-6.82c-.2-1.24,1.38-2.53,2.62-2.73h0c1.24-.2,3.15,.52,3.35,1.76l.38,7.06c.2,1.24-.64,2.41-1.88,2.61Z"/><circle class="cls-3" cx="126.55" cy="155.6" r="8.75"/><g><path class="cls-39" d="M124.92,152.62c-1.57,0-2.71-.58-2.85-1.45-.18-1.09,1.27-2.2,3.3-2.53,.36-.06,.72-.09,1.07-.09,1.57,0,2.72,.58,2.86,1.45,.09,.54-.22,1.1-.88,1.58-.62,.46-1.48,.79-2.42,.94-.36,.06-.72,.09-1.07,.09Z"/><path class="cls-42" d="M126.44,148.74c1.43,0,2.55,.51,2.68,1.3,.16,.97-1.25,2.01-3.15,2.32-.36,.06-.71,.09-1.04,.09-1.43,0-2.55-.51-2.68-1.3-.16-.98,1.25-2.01,3.15-2.32,.36-.06,.71-.09,1.04-.09m0-.36h0c-.36,0-.73,.03-1.1,.09-.97,.16-1.86,.5-2.5,.97-.71,.52-1.05,1.15-.95,1.76,.15,.96,1.37,1.6,3.03,1.6,.36,0,.73-.03,1.1-.09,2.13-.34,3.64-1.54,3.45-2.73-.15-.96-1.37-1.6-3.03-1.6h0Z"/></g><g><g class="cls-9"><ellipse class="cls-1" cx="125.87" cy="151.85" rx="3.48" ry="1.79" transform="translate(-22.57 21.97) rotate(-9.16)"/></g><ellipse class="cls-5" cx="125.69" cy="150.59" rx="3.48" ry="1.79" transform="translate(-22.37 21.93) rotate(-9.16)"/></g></g></g><g><path class="cls-8" d="M178.32,259.42l4.04-1.47c-9.97-27.38-22.73-49.97-37.93-67.14-15.31-17.29-28.64-24.01-35.22-26.47l-1.5,4.02c20.97,7.84,50.54,35.89,70.62,91.06Z"/><path class="cls-8" d="M110.28,167.16h0c-.47,1.17-1.79,1.73-2.96,1.26l-6.8-1.93c-1.17-.47-1.45-2.49-.98-3.65h0c.47-1.17,2.07-2.42,3.24-1.96l6.24,3.32c1.17,.47,1.73,1.79,1.26,2.96Z"/><circle class="cls-6" cx="96.73" cy="161.71" r="8.75"/><g><path class="cls-12" d="M91.05,163.25c-.14,0-.27-.03-.4-.08-.96-.39-1.14-2.18-.41-4.01,.64-1.58,1.74-2.68,2.67-2.68,.14,0,.27,.03,.4,.08,.47,.19,.77,.72,.84,1.49,.07,.75-.09,1.65-.44,2.52-.64,1.58-1.74,2.68-2.67,2.68Z"/><path class="cls-42" d="M92.93,156.56c.13,0,.25,.02,.36,.07,.92,.37,1.08,2.11,.36,3.9-.63,1.56-1.72,2.63-2.59,2.63-.13,0-.25-.02-.36-.07-.92-.37-1.08-2.11-.36-3.9,.63-1.56,1.72-2.63,2.59-2.63m0-.17h0c-.97,0-2.1,1.13-2.75,2.74-.77,1.9-.57,3.71,.45,4.12,.13,.05,.28,.08,.43,.08,.97,0,2.1-1.13,2.75-2.74,.77-1.9,.57-3.71-.45-4.12-.13-.05-.28-.08-.43-.08h0Z"/></g><g><g class="cls-22"><ellipse class="cls-7" cx="93.17" cy="160.36" rx="3.48" ry="1.79" transform="translate(-90.38 186.91) rotate(-68.08)"/></g><ellipse class="cls-5" cx="91.99" cy="159.86" rx="3.48" ry="1.79" transform="translate(-90.65 185.51) rotate(-68.08)"/></g><path class="cls-8" d="M114.47,169.38h0c-.05,1.26-1.11,2.23-2.36,2.18l-7.05,.46c-1.26-.05-2.2-1.86-2.15-3.11h0c.05-1.26,1.14-2.98,2.4-2.93l6.99,1.03c1.26,.05,2.23,1.11,2.18,2.36Z"/><circle class="cls-6" cx="99.87" cy="168.78" r="8.75"/><g><path class="cls-12" d="M94.65,172.2c-.51-.02-.97-.42-1.3-1.12-.32-.68-.47-1.58-.43-2.52,.08-1.96,.95-3.49,1.98-3.49,.55,.02,1.01,.42,1.34,1.12,.32,.68,.47,1.58,.43,2.52-.08,1.96-.95,3.49-1.98,3.49h-.04Z"/><path class="cls-42" d="M94.9,165.16s.03,0,.04,0c.99,.04,1.72,1.63,1.65,3.55-.08,1.9-.92,3.41-1.89,3.41-.01,0-.03,0-.04,0-.99-.04-1.72-1.63-1.65-3.55,.08-1.9,.92-3.41,1.89-3.41m0-.17h0c-1.07,0-1.98,1.57-2.06,3.57-.08,2.05,.71,3.69,1.81,3.73,0,0,.04,0,.04,0,1.07,0,1.98-1.57,2.06-3.57,.04-.96-.12-1.87-.44-2.56-.34-.73-.83-1.15-1.37-1.17,0,0-.04,0-.04,0h0Z"/></g><g><g class="cls-29"><ellipse class="cls-7" cx="96.07" cy="168.71" rx="3.48" ry="1.79" transform="translate(-76.4 257.85) rotate(-87.67)"/></g><ellipse class="cls-5" cx="94.79" cy="168.63" rx="3.48" ry="1.79" transform="translate(-77.54 256.5) rotate(-87.67)"/></g><path class="cls-8" d="M122.98,173.85h0c-1.13,.55-2.49,.07-3.04-1.06l-3.73-6c-.55-1.13,.6-2.82,1.73-3.36h0c1.13-.55,3.17-.4,3.71,.73l2.39,6.65c.55,1.13,.07,2.49-1.06,3.04Z"/><circle class="cls-6" cx="116.61" cy="160.7" r="8.75"/><g><path class="cls-12" d="M112.76,158.45c-.82,0-1.4-.26-1.63-.74-.45-.93,.63-2.38,2.4-3.24,.81-.39,1.67-.61,2.4-.61,.82,0,1.4,.26,1.63,.74,.45,.93-.63,2.38-2.4,3.24-.81,.39-1.67,.61-2.4,.61Z"/><path class="cls-42" d="M115.93,153.94c.75,0,1.33,.23,1.55,.7,.43,.89-.62,2.29-2.36,3.13-.83,.4-1.67,.6-2.36,.6-.75,0-1.33-.23-1.55-.7-.43-.89,.62-2.29,2.36-3.13,.83-.4,1.67-.6,2.36-.6m0-.17c-.75,0-1.61,.22-2.44,.62-1.84,.89-2.91,2.37-2.44,3.35,.25,.51,.85,.79,1.71,.79,.75,0,1.61-.22,2.44-.62,.86-.42,1.59-.98,2.05-1.59,.49-.64,.62-1.27,.39-1.76-.25-.51-.85-.79-1.71-.79h0Z"/></g><g><g class="cls-41"><ellipse class="cls-7" cx="114.89" cy="157.31" rx="3.48" ry="1.79" transform="translate(-57.03 65.72) rotate(-25.81)"/></g><ellipse class="cls-5" cx="114.35" cy="156.15" rx="3.48" ry="1.79" transform="translate(-56.58 65.37) rotate(-25.81)"/></g><path class="cls-8" d="M124.47,177.04h0c-.05,1.26-1.11,2.23-2.36,2.18l-7.05,.46c-1.26-.05-2.2-1.86-2.15-3.11h0c.05-1.26,1.14-2.98,2.4-2.93l6.99,1.03c1.26,.05,2.23,1.11,2.18,2.36Z"/><circle class="cls-6" cx="109.87" cy="176.45" r="8.75"/><g><path class="cls-12" d="M104.65,179.87c-.51-.02-.97-.42-1.3-1.12-.32-.68-.47-1.58-.43-2.52,.08-1.96,.95-3.49,1.98-3.49,.55,.02,1.01,.42,1.34,1.12,.32,.68,.47,1.58,.43,2.52-.08,1.96-.95,3.49-1.98,3.49h-.04Z"/><path class="cls-42" d="M104.89,172.82s.03,0,.04,0c.99,.04,1.72,1.63,1.65,3.55-.08,1.9-.92,3.41-1.89,3.41-.01,0-.03,0-.04,0-.99-.04-1.72-1.63-1.65-3.55,.08-1.9,.92-3.41,1.89-3.41m0-.17h0c-1.07,0-1.98,1.57-2.06,3.57-.04,.96,.12,1.87,.44,2.56,.34,.73,.83,1.15,1.37,1.17,0,0,.04,0,.05,0,1.07,0,1.98-1.57,2.06-3.57,.04-.96-.12-1.87-.44-2.56-.34-.73-.83-1.15-1.37-1.17,0,0-.04,0-.05,0h0Z"/></g><g><g class="cls-27"><ellipse class="cls-7" cx="106.06" cy="176.37" rx="3.48" ry="1.79" transform="translate(-74.47 275.19) rotate(-87.67)"/></g><ellipse class="cls-5" cx="104.79" cy="176.3" rx="3.48" ry="1.79" transform="translate(-75.61 273.85) rotate(-87.67)"/></g><path class="cls-8" d="M132.97,181.52h0c-1.13,.55-2.49,.07-3.04-1.06l-3.73-6c-.55-1.13,.6-2.82,1.73-3.36h0c1.13-.55,3.17-.4,3.71,.73l2.39,6.65c.55,1.13,.07,2.49-1.06,3.04Z"/><circle class="cls-6" cx="126.61" cy="168.37" r="8.75"/><g><path class="cls-12" d="M122.76,166.12c-.82,0-1.4-.26-1.63-.74-.45-.93,.63-2.38,2.4-3.24,.81-.39,1.67-.61,2.4-.61,.82,0,1.4,.26,1.63,.74,.45,.93-.63,2.38-2.4,3.24-.81,.39-1.67,.61-2.4,.61Z"/><path class="cls-42" d="M125.93,161.61c.75,0,1.33,.23,1.55,.7,.43,.89-.62,2.29-2.36,3.13-.83,.4-1.67,.6-2.36,.6-.75,0-1.33-.23-1.55-.7-.43-.89,.62-2.29,2.36-3.13,.83-.4,1.67-.6,2.36-.6m0-.17c-.75,0-1.61,.22-2.44,.62-.86,.42-1.59,.98-2.05,1.59-.49,.64-.62,1.27-.39,1.76,.25,.51,.85,.79,1.71,.79,.75,0,1.61-.22,2.44-.62,.86-.42,1.59-.98,2.05-1.59,.49-.64,.62-1.27,.39-1.76-.25-.51-.85-.79-1.71-.79h0Z"/></g><g><g class="cls-16"><ellipse class="cls-7" cx="124.88" cy="164.97" rx="3.48" ry="1.79" transform="translate(-59.37 70.84) rotate(-25.81)"/></g><ellipse class="cls-5" cx="124.35" cy="163.81" rx="3.48" ry="1.79" transform="translate(-58.92 70.49) rotate(-25.81)"/></g><g><path class="cls-8" d="M136.66,185.16h0c-.05,1.26-1.11,2.23-2.36,2.18l-7.05,.46c-1.26-.05-2.2-1.86-2.15-3.11h0c.05-1.26,1.14-2.98,2.4-2.93l6.99,1.03c1.26,.05,2.23,1.11,2.18,2.36Z"/><circle class="cls-6" cx="122.06" cy="184.56" r="8.75"/><g><path class="cls-12" d="M116.84,187.98c-.51-.02-.97-.42-1.3-1.12-.32-.68-.47-1.58-.43-2.52,.08-1.96,.95-3.49,1.98-3.49,.55,.02,1.01,.42,1.34,1.12,.32,.68,.47,1.58,.43,2.52-.08,1.96-.95,3.49-1.98,3.49h-.04Z"/><path class="cls-42" d="M117.09,180.94s.03,0,.04,0c.99,.04,1.72,1.63,1.65,3.55-.08,1.9-.92,3.41-1.89,3.41-.01,0-.03,0-.04,0-.99-.04-1.72-1.63-1.65-3.55,.08-1.9,.92-3.41,1.89-3.41m0-.17h0c-1.07,0-1.98,1.57-2.06,3.57-.08,2.05,.71,3.69,1.81,3.73,0,0,.04,0,.04,0,1.07,0,1.98-1.57,2.06-3.57,.04-.96-.12-1.87-.44-2.56-.34-.73-.83-1.15-1.37-1.17,0,0-.04,0-.04,0h0Z"/></g><g><g class="cls-19"><ellipse class="cls-7" cx="118.26" cy="184.49" rx="3.48" ry="1.79" transform="translate(-70.88 295.16) rotate(-87.67)"/></g><ellipse class="cls-5" cx="116.98" cy="184.41" rx="3.48" ry="1.79" transform="translate(-72.02 293.81) rotate(-87.67)"/></g></g><path class="cls-8" d="M141.8,190.59h0c-1.24,.19-2.4-.67-2.59-1.91l-1.78-6.84c-.19-1.24,1.41-2.51,2.65-2.7h0c1.24-.19,3.14,.56,3.33,1.8l.3,7.06c.19,1.24-.67,2.4-1.91,2.59Z"/><circle class="cls-6" cx="139.64" cy="176.14" r="8.75"/><g><path class="cls-12" d="M138.12,173.05c-1.56,0-2.69-.56-2.82-1.4-.08-.51,.23-1.03,.86-1.48,.61-.44,1.46-.76,2.4-.9,.33-.05,.67-.08,.99-.08,1.56,0,2.69,.56,2.82,1.4,.15,1.02-1.31,2.09-3.25,2.38-.33,.05-.67,.07-.99,.07Z"/><path class="cls-42" d="M139.54,169.28c1.46,0,2.61,.52,2.73,1.33,.15,.98-1.28,2-3.18,2.28-.34,.05-.66,.07-.98,.07-1.46,0-2.61-.52-2.73-1.33-.15-.98,1.28-2,3.18-2.28,.34-.05,.66-.07,.98-.07m0-.17c-.33,0-.66,.03-1,.08-2.03,.3-3.49,1.39-3.32,2.48,.13,.88,1.3,1.47,2.9,1.47,.33,0,.66-.03,1-.08,2.03-.3,3.49-1.39,3.32-2.48-.13-.88-1.3-1.47-2.9-1.47h0Z"/></g><g><g class="cls-25"><ellipse class="cls-7" cx="139" cy="172.39" rx="3.48" ry="1.79" transform="translate(-23.99 22.48) rotate(-8.51)"/></g><ellipse class="cls-5" cx="138.84" cy="171.12" rx="3.48" ry="1.79" transform="translate(-23.81 22.44) rotate(-8.51)"/></g></g></g><g><path class="cls-20" d="M199.36,236.13c-3.87-2.37-8.36-3.26-12.73-4.26-4.2-.97-8.22-2.21-11.48-5.14-3.01-2.71-5.08-6.48-5.7-10.48-.23-1.44-1.3-2.2-2.44-2.36-.43-.58-1.08-1.01-1.75-1.13-1.58-.29-2.79,.78-3.19,2.21-2.26,8.05-2.98,16.54-.84,24.7,1.07,4.09,2.96,8.08,5.58,11.4,2.4,3.04,5.79,5.56,6.87,9.42,.4,1.43,2.2,2.12,3.52,1.64,1.49-.54,2.04-2.08,1.64-3.52-1.08-3.88-3.96-6.58-6.53-9.51-2.63-3-4.48-6.44-5.62-10.26-1.54-5.13-1.58-10.5-.78-15.76,2.81,6.09,8.09,10.72,14.74,12.85,4.23,1.35,8.75,1.82,12.88,3.44,3.51,1.38,7.54,3.89,8.2,7.93,.24,1.46,1.39,2.64,2.96,2.52,1.38-.11,2.76-1.49,2.52-2.96-.79-4.77-3.81-8.26-7.84-10.72Z"/><path class="cls-20" d="M194.6,195.49c-4.86-4.28-12.04-4.54-17.79-2-6.72,2.97-12.39,9.33-15.78,15.85-5.97-2.47-13.29-3.75-19.6-2.61-6.3,1.13-12.34,4.94-14.41,11.25-1.03,3.12-1.13,6.82,.34,9.83,1.44,2.94,4.33,5.13,7.28,6.42,5.67,2.49,12.54,2.22,18.09-.47,6.82-3.3,9.48-9.84,11.12-16.7,4.79,3.6,10.18,6.78,16.39,6.17,6.34-.62,12.47-4.51,15.9-9.84,1.7-2.64,2.78-5.65,2.88-8.81,.11-3.57-1.8-6.79-4.42-9.1Zm-41.85,31.88c-3.77,2.93-9.13,3.73-13.71,2.61-2.07-.51-4.07-1.54-5.6-3.03-1.74-1.69-1.96-4.09-1.47-6.38,.96-4.55,5.43-7.47,9.74-8.34,5.48-1.1,11.93,0,17.14,2.14-.96,4.69-2.18,9.95-6.1,13Zm40.72-24.01c.44,2.12-.48,4.53-1.48,6.36-2.16,3.98-6.53,6.97-10.93,7.87-5.78,1.18-10.77-2.4-15.1-5.81,2.34-4.46,5.94-8.75,10.04-11.58,3.74-2.57,8.81-3.96,13.09-1.85,1.92,.95,3.92,2.84,4.38,5.01Z"/><ellipse class="cls-20" cx="162.45" cy="213.23" rx="3.54" ry="5.55" transform="translate(-63.13 68.42) rotate(-20)"/></g></svg>