<?xml version="1.0" encoding="UTF-8"?><svg id="box" xmlns="http://www.w3.org/2000/svg" viewBox="0 0 272.35 272.35"><defs><style>.cls-1{fill:#b0d8e0;}.cls-2{fill:none;}.cls-2,.cls-3,.cls-4{stroke:#12519b;stroke-width:1.79px;}.cls-2,.cls-5{stroke-linecap:round;stroke-linejoin:round;}.cls-6{fill:#e9d56b;}.cls-3,.cls-7{fill:#fff3b3;}.cls-3,.cls-4{stroke-miterlimit:10;}.cls-8{fill:#6ba2c8;}.cls-5{fill:#f1f5fb;stroke:#2f5c9a;stroke-width:1.83px;}.cls-4{fill:#008a89;}</style></defs><g><g><path class="cls-4" d="M190.26,261.37l-5.04,1.84c-28.72-78.9-20.62-135.07-3.47-161.33l4.49,2.94c-8.91,13.64-14.09,34.32-14.58,58.23-.61,29.65,5.65,62.73,18.6,98.33Z"/><g><path class="cls-4" d="M175.01,124.89h0c-4.49-2.08-6.44-7.41-4.36-11.9l8.98-26.37c2.08-4.49,10.09-5.2,14.58-3.12h0c4.49,2.08,9.12,8.66,7.04,13.15l-14.34,23.88c-2.08,4.49-7.41,6.44-11.9,4.36Z"/><path class="cls-6" d="M203.52,63.45c8.61-18.56-57.89-19.28-30.58-.33-27.31-18.95-24.92,30.93,1.1,22.94-26.02,7.99,41.96,39.53,31.26,14.5,10.7,25.03,50.32-5.35,18.22-13.97,32.1,8.62-11.39-41.7-20-23.14Z"/><path class="cls-2" d="M203.52,63.45c8.61-18.56-57.89-19.28-30.58-.33-27.31-18.95-24.92,30.93,1.1,22.94-26.02,7.99,41.96,39.53,31.26,14.5,10.7,25.03,50.32-5.35,18.22-13.97,32.1,8.62-11.39-41.7-20-23.14Z"/><path class="cls-7" d="M205.93,58.25c8.61-18.56-57.89-19.28-30.58-.33-27.31-18.95-24.92,30.93,1.1,22.94-26.02,7.99,41.96,39.53,31.26,14.5,10.7,25.03,50.32-5.35,18.22-13.97,32.1,8.62-11.39-41.7-20-23.14Zm-8.58,18.49c-11.99-.74-18.69-7.85-6.88-7.3-8.04-8.67,1.71-8.14,10.02,.54,11.99,.74,18.69,7.85,6.88,7.3,8.04,8.66-1.71,8.14-10.02-.54Z"/><path class="cls-2" d="M205.93,58.25c8.61-18.56-57.89-19.28-30.58-.33-27.31-18.95-24.92,30.93,1.1,22.94-26.02,7.99,41.96,39.53,31.26,14.5,10.7,25.03,50.32-5.35,18.22-13.97,32.1,8.62-11.39-41.7-20-23.14Zm-8.58,18.49c-11.99-.74-18.69-7.85-6.88-7.3-8.04-8.67,1.71-8.14,10.02,.54,11.99,.74,18.69,7.85,6.88,7.3,8.04,8.66-1.71,8.14-10.02-.54Z"/></g></g><g><path class="cls-4" d="M191.93,6.9c-.34,16.27-13.77,29.16-30.04,28.82,.34-16.27,13.77-29.16,30.04-28.82Z"/><path class="cls-4" d="M170.06,191.5l-5.04,1.84c-28.72-78.9-20.62-135.07-3.47-161.33l4.49,2.94c-8.91,13.64-14.09,34.32-14.58,58.23-.61,29.65,5.65,62.73,18.6,98.33Z"/><path class="cls-4" d="M190.48,36.85c-5.21,11.77-18.94,17.08-30.71,11.88,5.21-11.77,18.94-17.08,30.71-11.88Z"/><path class="cls-4" d="M192.51,54.74c-6.79,14.17-23.75,20.14-37.91,13.35,6.79-14.17,23.75-20.14,37.91-13.35Z"/><path class="cls-4" d="M193.25,75.73c-7.53,15.28-25.98,21.56-41.27,14.04,7.53-15.28,25.98-21.56,41.27-14.04Z"/><path class="cls-4" d="M188.74,96.07c-6.09,13.75-22.14,19.95-35.89,13.86,6.09-13.75,22.14-19.95,35.89-13.86Z"/><path class="cls-4" d="M186.45,118.04c-7.03,10.78-21.44,13.82-32.22,6.79,7.03-10.78,21.44-13.82,32.22-6.79Z"/><path class="cls-4" d="M182.32,134.69c-5.67,8.69-17.29,11.14-25.98,5.48,5.67-8.69,17.29-11.14,25.98-5.48Z"/><path class="cls-4" d="M139.72,17.41c-4.24,12.15,2.16,25.42,14.32,29.65,4.24-12.15-2.16-25.42-14.32-29.65Z"/><path class="cls-4" d="M124.73,33.21c-2.72,15.47,7.61,30.19,23.08,32.91,2.72-15.47-7.61-30.19-23.08-32.91Z"/><path class="cls-4" d="M118.18,53.76c-2.42,16.86,9.27,32.47,26.13,34.89,2.42-16.86-9.27-32.47-26.13-34.89Z"/><path class="cls-4" d="M118.68,81.39c-.19,15.04,11.82,27.36,26.85,27.55,.19-15.04-11.82-27.36-26.85-27.55Z"/><path class="cls-4" d="M120.53,103.53c1.9,12.73,13.73,21.49,26.46,19.6-1.9-12.73-13.73-21.49-26.46-19.6Z"/><path class="cls-4" d="M127.45,123.48c1.53,10.26,11.07,17.33,21.34,15.8-1.53-10.26-11.07-17.33-21.34-15.8Z"/></g><g><path class="cls-4" d="M182.01,249.52l5.04-1.84c-28.72-78.9-71.02-116.73-101.04-125.81l-1.56,5.14c15.59,4.72,32.86,17.23,48.6,35.23,19.53,22.32,36,51.68,48.95,87.28Z"/><g><path class="cls-4" d="M105.97,135.16h0c2.1-4.48,.17-9.82-4.31-11.92l-23.83-14.43c-4.48-2.1-11.07,2.5-13.17,6.99h0c-2.1,4.48-1.42,12.49,3.06,14.59l26.33,9.08c4.48,2.1,9.82,.17,11.92-4.31Z"/><path class="cls-6" d="M44.63,106.42c-18.53-8.68,31.96-51.98,23.22-19.91,8.74-32.07,38.97,7.67,13.9,18.28,25.07-10.6-6.73,57.25-14.62,31.2,7.89,26.05-41.99,28.25-22.94,1.01-19.05,27.24-18.08-39.26,.45-30.58Z"/><path class="cls-2" d="M44.63,106.42c-18.53-8.68,31.96-51.98,23.22-19.91,8.74-32.07,38.97,7.67,13.9,18.28,25.07-10.6-6.73,57.25-14.62,31.2,7.89,26.05-41.99,28.25-22.94,1.01-19.05,27.24-18.08-39.26,.45-30.58Z"/><path class="cls-7" d="M39,134.57c-19.05,27.24,30.83,25.04,22.94-1.01,7.89,26.05,39.69-41.81,14.62-31.2,25.07-10.6-5.16-50.34-13.9-18.28,8.74-32.07-41.74,11.23-23.22,19.91-18.53-8.68-19.5,57.82-.45,30.58Zm11.57-15.08c-8.7,8.01-8.13-1.74,.58-10.02,.78-11.99,7.92-18.66,7.33-6.85,8.7-8.01,8.13,1.74-.58,10.02-.78,11.99-7.92,18.66-7.33,6.85Z"/><path class="cls-2" d="M39,134.57c-19.05,27.24,30.83,25.04,22.94-1.01,7.89,26.05,39.69-41.81,14.62-31.2,25.07-10.6-5.16-50.34-13.9-18.28,8.74-32.07-41.74,11.23-23.22,19.91-18.53-8.68-19.5,57.82-.45,30.58Zm11.57-15.08c-8.7,8.01-8.13-1.74,.58-10.02,.78-11.99,7.92-18.66,7.33-6.85,8.7-8.01,8.13,1.74-.58,10.02-.78,11.99-7.92,18.66-7.33,6.85Z"/></g></g><g><rect class="cls-4" x="155.85" y="91.66" width="5.37" height="173.91" transform="translate(-51.53 64.99) rotate(-20)"/><g><path class="cls-4" d="M131.81,105.21h0c-4.65,1.69-9.8-.71-11.49-5.36l-12.25-25.02c-1.69-4.65,3.48-10.81,8.13-12.5h0c4.65-1.69,12.57-.3,14.26,4.35l6.7,27.04c1.69,4.65-.71,9.8-5.36,11.49Z"/><path class="cls-6" d="M108.65,41.56c-7-19.23-54.62,27.2-21.9,21.35-32.72,5.85,4.17,39.5,16.96,15.47-12.79,24.03,57.63-1.6,32.38-11.79,25.24,10.18,31.87-39.31,3.05-22.76,28.82-16.55-37.5-21.51-30.5-2.28Z"/><path class="cls-2" d="M108.65,41.56c-7-19.23-54.62,27.2-21.9,21.35-32.72,5.85,4.17,39.5,16.96,15.47-12.79,24.03,57.63-1.6,32.38-11.79,25.24,10.18,31.87-39.31,3.05-22.76,28.82-16.55-37.5-21.51-30.5-2.28Z"/><path class="cls-7" d="M106.69,36.18c-7-19.23-54.62,27.2-21.9,21.35-32.72,5.85,4.17,39.5,16.96,15.47-12.79,24.03,57.63-1.6,32.38-11.79,25.24,10.18,31.87-39.31,3.05-22.76,28.82-16.55-37.5-21.51-30.5-2.28Zm6.97,19.15c-9.02,7.94-18.78,7.63-10.03-.32-11.81-.46-4.53-6.97,7.48-6.69,9.02-7.94,18.78-7.63,10.03,.32,11.81,.46,4.53,6.97-7.48,6.69Z"/><path class="cls-2" d="M106.69,36.18c-7-19.23-54.62,27.2-21.9,21.35-32.72,5.85,4.17,39.5,16.96,15.47-12.79,24.03,57.63-1.6,32.38-11.79,25.24,10.18,31.87-39.31,3.05-22.76,28.82-16.55-37.5-21.51-30.5-2.28Zm6.97,19.15c-9.02,7.94-18.78,7.63-10.03-.32-11.81-.46-4.53-6.97,7.48-6.69,9.02-7.94,18.78-7.63,10.03,.32,11.81,.46,4.53,6.97-7.48,6.69Z"/></g></g><g><path class="cls-4" d="M179.09,224.99l-6.73,2.45c-21.64-59.45-33.56-92.2-46.53-107.41l5.45-4.64c13.81,16.19,25.88,49.37,47.81,109.61Z"/><g><path class="cls-4" d="M138.9,132.1h0c-4.61,2.7-10.54,1.16-13.24-3.45l-17.88-24.17c-2.7-4.61,1.59-12.15,6.2-14.85h0c4.61-2.7,13.29-2.77,15.99,1.84l12.38,27.4c2.7,4.61,1.16,10.54-3.45,13.24Z"/><path class="cls-8" d="M144.07,71.88c26.42,6.1,12.97,31.5-19.22,36.28-19.87,25.76-48.61,25.11-41.04-.93-26.42-6.1-12.97-31.5,19.22-36.28,19.87-25.76,48.61-25.11,41.04,.93Z"/><path class="cls-2" d="M144.07,71.88c26.42,6.1,12.97,31.5-19.22,36.28-19.87,25.76-48.61,25.11-41.04-.93-26.42-6.1-12.97-31.5,19.22-36.28,19.87-25.76,48.61-25.11,41.04,.93Z"/><path class="cls-1" d="M141.37,67.28c26.42,6.1,12.97,31.5-19.22,36.28-19.87,25.76-48.61,25.11-41.04-.93-26.42-6.1-12.97-31.5,19.22-36.28,19.87-25.76,48.61-25.11,41.04,.93Z"/><path class="cls-2" d="M141.37,67.28c26.42,6.1,12.97,31.5-19.22,36.28-19.87,25.76-48.61,25.11-41.04-.93-26.42-6.1-12.97-31.5,19.22-36.28,19.87-25.76,48.61-25.11,41.04,.93Z"/><ellipse class="cls-3" cx="110.52" cy="83.72" rx="17.93" ry="6.85" transform="translate(-27.17 67.43) rotate(-30.4)"/></g></g><g><path class="cls-4" d="M185.11,263.24l-5.04,1.84c-9.99-27.44-14.74-53.02-14.14-76.01,.61-23.2,6.55-37.01,10.04-43.17l4.67,2.64c-10.96,19.39-15.55,59.7,4.47,114.7Z"/><g><path class="cls-4" d="M170.21,168.87h0c-4.63-1.76-6.95-6.94-5.18-11.57l7.11-26.93c1.76-4.63,9.7-5.89,14.33-4.13h0c4.63,1.76,9.71,8,7.94,12.62l-12.63,24.83c-1.76,4.63-6.94,6.95-11.57,5.18Z"/><path class="cls-6" d="M194.35,105.58c7.29-19.12-59.1-15.17-30.53,1.81-28.57-16.99-22.69,32.6,2.7,22.8-25.4,9.8,44.62,36.5,32.2,12.28,12.42,24.22,49.83-8.87,17.2-15.21,32.63,6.35-14.28-40.8-21.57-21.68Z"/><path class="cls-2" d="M194.35,105.58c7.29-19.12-59.1-15.17-30.53,1.81-28.57-16.99-22.69,32.6,2.7,22.8-25.4,9.8,44.62,36.5,32.2,12.28,12.42,24.22,49.83-8.87,17.2-15.21,32.63,6.35-14.28-40.8-21.57-21.68Z"/><path class="cls-7" d="M196.39,100.23c7.29-19.12-59.1-15.17-30.53,1.81-28.57-16.99-22.69,32.6,2.7,22.8-25.4,9.8,44.62,36.5,32.2,12.28,12.42,24.22,49.83-8.87,17.2-15.21,32.63,6.35-14.28-40.8-21.57-21.68Zm-7.26,19.05c-12.01,.1-19.2-6.52-7.38-6.8-8.63-8.08,1.14-8.24,10.03-.16,12.01-.1,19.2,6.52,7.38,6.8,8.63,8.08-1.14,8.24-10.03,.16Z"/><path class="cls-2" d="M196.39,100.23c7.29-19.12-59.1-15.17-30.53,1.81-28.57-16.99-22.69,32.6,2.7,22.8-25.4,9.8,44.62,36.5,32.2,12.28,12.42,24.22,49.83-8.87,17.2-15.21,32.63,6.35-14.28-40.8-21.57-21.68Zm-7.26,19.05c-12.01,.1-19.2-6.52-7.38-6.8-8.63-8.08,1.14-8.24,10.03-.16,12.01-.1,19.2,6.52,7.38,6.8,8.63,8.08-1.14,8.24-10.03,.16Z"/></g></g><g><path class="cls-4" d="M190.8,262.31l5.04-1.84c-9.99-27.44-22.78-50.09-38.03-67.31-15.38-17.38-28.81-24.14-35.44-26.62l-1.88,5.03c20.86,7.8,50.28,35.74,70.3,90.74Z"/><g><path class="cls-4" d="M141.55,180.44h0c2.41-4.32,.86-9.78-3.47-12.19l-22.76-16.06c-4.32-2.41-11.22,1.72-13.63,6.05h0c-2.41,4.32-2.29,12.36,2.03,14.77l25.63,10.9c4.32,2.41,9.78,.86,12.19-3.47Z"/><path class="cls-6" d="M82.37,147.47c-17.87-9.96,35.52-49.61,24.55-18.23,10.97-31.38,38.34,10.38,12.59,19.2,25.75-8.82-10.72,56.64-16.77,30.1,6.05,26.54-43.87,25.23-22.95-.6-20.91,25.83-15.29-40.43,2.59-30.47Z"/><path class="cls-2" d="M82.37,147.47c-17.87-9.96,35.52-49.61,24.55-18.23,10.97-31.38,38.34,10.38,12.59,19.2,25.75-8.82-10.72,56.64-16.77,30.1,6.05,26.54-43.87,25.23-22.95-.6-20.91,25.83-15.29-40.43,2.59-30.47Z"/><path class="cls-7" d="M74.79,175.16c-20.91,25.83,29,27.14,22.95,.6,6.05,26.54,42.52-38.92,16.77-30.1,25.75-8.82-1.62-50.58-12.59-19.2,10.97-31.38-42.43,8.27-24.55,18.23-17.87-9.96-23.5,56.31-2.59,30.47Zm12.6-14.23c-9.24,7.38-7.99-2.31,1.28-9.95,1.62-11.9,9.21-18.06,7.79-6.32,9.24-7.38,7.99,2.31-1.28,9.95-1.62,11.9-9.21,18.06-7.79,6.32Z"/><path class="cls-2" d="M74.79,175.16c-20.91,25.83,29,27.14,22.95,.6,6.05,26.54,42.52-38.92,16.77-30.1,25.75-8.82-1.62-50.58-12.59-19.2,10.97-31.38-42.43,8.27-24.55,18.23-17.87-9.96-23.5,56.31-2.59,30.47Zm12.6-14.23c-9.24,7.38-7.99-2.31,1.28-9.95,1.62-11.9,9.21-18.06,7.79-6.32,9.24-7.38,7.99,2.31-1.28,9.95-1.62,11.9-9.21,18.06-7.79,6.32Z"/></g></g><g><path class="cls-4" d="M186.77,265.46l6.73-2.45c-21.64-59.45-33.56-92.2-33.4-112.19l-7.16-.06c-.17,21.28,11.91,54.46,33.83,114.69Z"/><g><path class="cls-4" d="M157.84,168.47h0c5.27-.89,8.82-5.88,7.93-11.15l-1.84-30.01c-.89-5.27-9.03-8.28-14.3-7.39h0c-5.27,.89-11.96,6.42-11.07,11.68l8.13,28.94c.89,5.27,5.88,8.82,11.15,7.93Z"/><path class="cls-8" d="M115.18,125.66c-16.32,21.66,10.32,32.47,38.04,15.44,31.78,6.96,53.38-12.01,30.84-27.09,16.32-21.66-10.32-32.47-38.04-15.44-31.78-6.96-53.38,12.01-30.84,27.09Z"/><path class="cls-2" d="M115.18,125.66c-16.32,21.66,10.32,32.47,38.04,15.44,31.78,6.96,53.38-12.01,30.84-27.09,16.32-21.66-10.32-32.47-38.04-15.44-31.78-6.96-53.38,12.01-30.84,27.09Z"/><path class="cls-1" d="M114.29,120.4c-16.32,21.66,10.32,32.47,38.04,15.44,31.78,6.96,53.38-12.01,30.84-27.09,16.32-21.66-10.32-32.47-38.04-15.44-31.78-6.96-53.38,12.01-30.84,27.09Z"/><path class="cls-2" d="M114.29,120.4c-16.32,21.66,10.32,32.47,38.04,15.44,31.78,6.96,53.38-12.01,30.84-27.09,16.32-21.66-10.32-32.47-38.04-15.44-31.78-6.96-53.38,12.01-30.84,27.09Z"/><ellipse class="cls-3" cx="148.49" cy="113.15" rx="17.93" ry="6.85" transform="translate(-16.8 26.35) rotate(-9.6)"/></g></g></g><g><path class="cls-5" d="M169.62,208.21c-.52-.14-1.1-.04-1.62,.24-9.1,5.11-17.4,12.47-22.43,21.73-1.14,2.11-2.09,5.17-.37,7.25,1.83,2.22,5.66,1.02,7.91,.2,5.14-1.88,9.26-5.83,12.26-10.31,1.72-2.58,3.18-5.31,4.52-8.1,.75-1.55,1.47-3.14,2-4.78m.02,0c1.46,.91,3.04,1.66,4.6,2.37,2.82,1.27,5.69,2.44,8.67,3.3,5.18,1.51,10.87,1.89,16.02,.02,2.25-.82,5.95-2.36,5.93-5.24-.02-2.7-2.72-4.43-4.95-5.31-9.8-3.86-20.89-4.16-31.15-2.23-.58,.11-1.09,.41-1.4,.85m-21.51,25.4c.29-.97,.82-1.9,1.33-2.76,2.27-3.84,5.17-7.31,8.38-10.4,3.25-3.11,6.92-5.79,10.78-8.09-.36,1.4-.89,2.75-1.51,4.09-.99,2.14-2.05,4.26-3.22,6.3-2.29,3.98-5.23,7.66-9.21,10.06-1.83,1.1-4.17,2.02-6.34,2.15-.36,.02-.29-1.04-.2-1.35Zm54.93-18.57c-1.74,1.3-4.13,2.1-6.24,2.43-4.59,.72-9.21-.21-13.52-1.78-2.22-.81-4.38-1.75-6.52-2.76-1.34-.63-2.61-1.32-3.79-2.16,4.44-.73,8.97-1.04,13.46-.74,4.44,.3,8.9,1.1,13.1,2.58,.95,.33,1.95,.7,2.8,1.26,.27,.18,1,.95,.71,1.16Z"/><path class="cls-5" d="M211.42,183.88c-7.58-.43-14.86,3.81-21.22,7.42-7.58,4.3-14.69,9.4-21.21,15.18-7.75-.21-15.51,.29-23.17,1.52-3.88,.62-7.74,1.42-11.55,2.41-3.51,.91-7,2.13-10.02,4.18-2.85,1.93-5.78,4.95-5.98,8.58-.21,3.78,2.74,6.7,6.18,7.69,3.56,1.02,7.42-.05,10.91-.86,3.99-.93,7.94-2.09,11.73-3.66,4.19-1.74,8.11-3.99,11.71-6.74,3.55-2.71,6.84-5.75,10.33-8.54,.09-.07,.15-.15,.23-.22,.13,0,.13-.37,.26-.37,.27,0,.52-.06,.75-.17,.25-.06,.49-.17,.69-.35,.1-.09,.34,.2,.44,.11,.1,.01,.2,.03,.31,.02,3.99-.09,7.97,.06,11.96-.05,4.03-.11,7.99-.61,11.9-1.61,3.9-.99,7.67-2.45,11.32-4.15,3.34-1.56,7.07-3.14,9.85-5.62,2.68-2.4,4.49-6.17,3.13-9.76-1.32-3.51-5.1-4.81-8.55-5Zm-61.96,36.55c-3.2,1.67-6.61,2.94-10.06,3.98-3.23,.97-6.58,1.89-9.94,2.33-2.25,.29-5.9,.23-6.75-2.47-.78-2.49,2.3-4.95,4.06-6.14,2.64-1.79,5.75-2.78,8.8-3.59,3.35-.89,6.76-1.58,10.18-2.14,5.56-.91,11.19-1.43,16.82-1.58-4.14,3.52-8.27,7.08-13.11,9.6Zm64.76-25.28c-2.32,2.21-5.68,3.58-8.54,4.92-3.32,1.56-6.75,2.92-10.28,3.91-6.15,1.73-12.41,1.7-18.7,1.69,3.71-2.95,7.58-5.69,11.6-8.19,2.98-1.85,6.03-3.59,9.17-5.17,2.88-1.45,5.85-2.86,9-3.63,2.52-.62,6.02-1,8.34,.47,2.32,1.47,.99,4.51-.58,6Z"/><ellipse class="cls-5" cx="170.03" cy="209.3" rx="3.54" ry="5.55" transform="translate(-61.33 70.78) rotate(-20)"/></g></svg>