<?xml version="1.0" encoding="UTF-8"?><svg id="box" xmlns="http://www.w3.org/2000/svg" viewBox="0 0 272.35 272.35"><defs><style>.cls-1,.cls-2{fill:#fbe5e5;}.cls-3{fill:#b0d8e0;}.cls-4{fill:#e41a1a;}.cls-4,.cls-5,.cls-2,.cls-6,.cls-7,.cls-8{stroke:#12519b;stroke-width:1.79px;}.cls-4,.cls-6,.cls-7,.cls-8{stroke-miterlimit:10;}.cls-5{fill:none;}.cls-5,.cls-2,.cls-9{stroke-linecap:round;stroke-linejoin:round;}.cls-10{fill:#e9d56b;}.cls-6,.cls-11{fill:#fff3b3;}.cls-12{fill:#ee899c;}.cls-13{fill:#6ba2c8;}.cls-7{fill:#ec6d00;}.cls-9{fill:#f1f5fb;stroke:#2f5c9a;stroke-width:1.83px;}.cls-8{fill:#008a89;}</style></defs><g><g><path class="cls-8" d="M11.1,93.39c13.62,15.56,37.23,17.14,52.8,3.52-13.62-15.56-37.23-17.14-52.8-3.52Z"/><path class="cls-8" d="M183.23,255.27l6.41-2.33C153.14,152.64,99.37,104.57,61.21,93.01l-1.98,6.53c19.82,6,41.76,21.91,61.78,44.78,24.82,28.37,45.75,65.7,62.22,110.94Z"/><path class="cls-8" d="M37,121.37c14.69,7.21,32.4,1.16,39.61-13.53-14.69-7.21-32.4-1.16-39.61,13.53Z"/><path class="cls-8" d="M49.63,140.45c18.19,8.25,39.58,.21,47.82-17.98-18.19-8.25-39.58-.21-47.82,17.98Z"/><path class="cls-8" d="M66.05,161.49c19.82,8.73,42.92-.23,51.65-20.05-19.82-8.73-42.92,.23-51.65,20.05Z"/><path class="cls-8" d="M87.08,177.61c17.16,8.41,37.86,1.34,46.27-15.82-17.16-8.41-37.86-1.34-46.27,15.82Z"/><path class="cls-8" d="M107.24,197.13c15.65,4.76,32.17-4.06,36.93-19.71-15.65-4.76-32.17,4.06-36.93,19.71Z"/><path class="cls-8" d="M124.87,209.97c12.62,3.84,25.94-3.27,29.77-15.89-12.62-3.84-25.94,3.27-29.77,15.89Z"/><path class="cls-8" d="M70.53,60.97c14.06,8.37,18.66,26.52,10.29,40.57-14.06-8.37-18.66-26.52-10.29-40.57Z"/><path class="cls-8" d="M98.04,64.1c15.29,12.85,17.26,35.61,4.41,50.9-15.29-12.85-17.26-35.61-4.41-50.9Z"/><path class="cls-8" d="M121.21,78.76c16.14,14.44,17.51,39.19,3.06,55.32-16.14-14.44-17.51-39.19-3.06-55.32Z"/><path class="cls-8" d="M143.29,106.08c12.47,14.48,10.84,36.29-3.64,48.77-12.47-14.48-10.84-36.29,3.64-48.77Z"/><path class="cls-8" d="M159.58,129.15c8.55,13.95,4.19,32.15-9.76,40.7-8.55-13.95-4.19-32.15,9.76-40.7Z"/><path class="cls-8" d="M169.14,154.23c6.9,11.24,3.38,25.92-7.87,32.82-6.9-11.24-3.38-25.92,7.87-32.82Z"/></g><g><rect class="cls-8" x="152.34" y="80.33" width="5.37" height="173.91" transform="translate(-47.87 63.11) rotate(-20)"/><g><path class="cls-8" d="M128.3,93.89h0c-4.65,1.69-9.8-.71-11.49-5.36l-12.25-25.02c-1.69-4.65,3.48-10.81,8.13-12.5h0c4.65-1.69,12.57-.3,14.26,4.35l6.7,27.04c1.69,4.65-.71,9.8-5.36,11.49Z"/><path class="cls-10" d="M105.14,30.24c-7-19.23-54.62,27.2-21.9,21.35-32.72,5.85,4.17,39.5,16.96,15.47-12.79,24.03,57.63-1.6,32.38-11.79,25.24,10.18,31.87-39.31,3.05-22.76,28.82-16.55-37.5-21.51-30.5-2.28Z"/><path class="cls-5" d="M105.14,30.24c-7-19.23-54.62,27.2-21.9,21.35-32.72,5.85,4.17,39.5,16.96,15.47-12.79,24.03,57.63-1.6,32.38-11.79,25.24,10.18,31.87-39.31,3.05-22.76,28.82-16.55-37.5-21.51-30.5-2.28Z"/><path class="cls-11" d="M103.18,24.86c-7-19.23-54.62,27.2-21.9,21.35-32.72,5.85,4.17,39.5,16.96,15.47-12.79,24.03,57.63-1.6,32.38-11.79,25.24,10.18,31.87-39.31,3.05-22.76,28.82-16.55-37.5-21.51-30.5-2.28Zm6.97,19.15c-9.02,7.94-18.78,7.63-10.03-.32-11.81-.46-4.53-6.97,7.48-6.69,9.02-7.94,18.78-7.63,10.03,.32,11.81,.46,4.53,6.97-7.48,6.69Z"/><path class="cls-5" d="M103.18,24.86c-7-19.23-54.62,27.2-21.9,21.35-32.72,5.85,4.17,39.5,16.96,15.47-12.79,24.03,57.63-1.6,32.38-11.79,25.24,10.18,31.87-39.31,3.05-22.76,28.82-16.55-37.5-21.51-30.5-2.28Zm6.97,19.15c-9.02,7.94-18.78,7.63-10.03-.32-11.81-.46-4.53-6.97,7.48-6.69,9.02-7.94,18.78-7.63,10.03,.32,11.81,.46,4.53,6.97-7.48,6.69Z"/></g></g><g><path class="cls-8" d="M189.45,256.4l-6.73,2.45c-28.83-79.21-20.65-135.69-3.38-162.12l5.99,3.91c-8.82,13.5-13.95,34.02-14.44,57.76-.61,29.54,5.63,62.51,18.55,98Z"/><g><path class="cls-8" d="M176.89,108.44h0c-4.61-2.7-6.16-8.63-3.46-13.24l12.35-27.41c2.7-4.61,11.38-4.55,15.99-1.85h0c4.61,2.7,8.91,10.24,6.21,14.85l-17.85,24.19c-2.7,4.61-8.63,6.16-13.24,3.46Z"/><path class="cls-13" d="M231.95,83.52c7.59,26.03-21.15,26.71-41.04,.97-32.19-4.74-45.67-30.13-19.25-36.26-7.59-26.03,21.15-26.71,41.04-.97,32.19,4.74,45.67,30.13,19.25,36.26Z"/><path class="cls-5" d="M231.95,83.52c7.59,26.03-21.15,26.71-41.04,.97-32.19-4.74-45.67-30.13-19.25-36.26-7.59-26.03,21.15-26.71,41.04-.97,32.19,4.74,45.67,30.13,19.25,36.26Z"/><path class="cls-3" d="M234.64,78.91c7.59,26.03-21.15,26.71-41.04,.97-32.19-4.74-45.67-30.13-19.25-36.26-7.59-26.03,21.15-26.71,41.04-.97,32.19,4.74,45.67,30.13,19.25,36.26Z"/><path class="cls-5" d="M234.64,78.91c7.59,26.03-21.15,26.71-41.04,.97-32.19-4.74-45.67-30.13-19.25-36.26-7.59-26.03,21.15-26.71,41.04-.97,32.19,4.74,45.67,30.13,19.25,36.26Z"/><ellipse class="cls-6" cx="205.22" cy="60.03" rx="6.85" ry="17.93" transform="translate(49.75 206.82) rotate(-59.66)"/></g></g><g><path class="cls-8" d="M186.15,252.24l4.04-1.47c-28.65-78.72-70.8-116.43-100.69-125.48l-1.24,4.11c15.69,4.75,33.04,17.32,48.85,35.39,19.57,22.37,36.07,51.79,49.05,87.45Z"/><g><path class="cls-8" d="M98.06,131.64h0c-1.44,4.72-6.42,7.37-11.14,5.94l-27.24-5.23c-4.72-1.44-6.52-9.24-5.08-13.95h0c1.44-4.72,7.28-10.19,12-8.75l25.53,10.85c4.72,1.44,7.37,6.42,5.94,11.14Z"/><ellipse class="cls-2" cx="61.35" cy="120.45" rx="25.58" ry="13.2" transform="translate(-71.76 144.03) rotate(-73.05)"/><ellipse class="cls-2" cx="58.53" cy="119.6" rx="25.58" ry="13.2" transform="translate(-72.93 140.73) rotate(-73.05)"/><ellipse class="cls-7" cx="58.53" cy="119.6" rx="12.64" ry="4.41" transform="translate(-72.93 140.73) rotate(-73.05)"/></g></g><g><path class="cls-8" d="M187.65,255l4.04-1.47c-9.97-27.38-22.73-49.97-37.93-67.14-15.31-17.29-28.64-24.01-35.22-26.47l-1.5,4.02c20.97,7.84,50.54,35.89,70.62,91.06Z"/><g><path class="cls-8" d="M121.24,163.72h0c-1.13,4.8-5.93,7.78-10.73,6.65l-27.52-3.44c-4.8-1.13-7.1-8.79-5.98-13.59h0c1.13-4.8,6.6-10.64,11.4-9.51l26.18,9.17c4.8,1.13,7.78,5.93,6.65,10.73Z"/><ellipse class="cls-2" cx="83.88" cy="154.95" rx="25.58" ry="13.2" transform="translate(-86.14 201.2) rotate(-76.79)"/><ellipse class="cls-2" cx="81.01" cy="154.28" rx="25.58" ry="13.2" transform="translate(-87.7 197.89) rotate(-76.79)"/><ellipse class="cls-7" cx="81.01" cy="154.28" rx="12.64" ry="4.41" transform="translate(-87.7 197.89) rotate(-76.79)"/></g></g><g><path class="cls-8" d="M182.08,257.52l6.73-2.45c-21.64-59.45-33.56-92.2-33.4-112.19l-7.16-.06c-.17,21.28,11.91,54.46,33.83,114.69Z"/><g><path class="cls-8" d="M152.79,155.3h0c6.45-.36,11.4-5.88,11.04-12.33l1.85-36.33c-.36-6.45-9.73-11.18-16.19-10.82h0c-6.45,.36-15.25,6.09-14.89,12.55l5.85,35.9c.36,6.45,5.88,11.4,12.33,11.04Z"/><g><path class="cls-1" d="M148.2,69.03c-1.97-28.04,55.81-12.09,24.76,6.83,31.05-18.93,47.44,23.19,7.02,18.05,40.41,5.14,3.07,41.72-16,15.68,19.08,26.04-43.87,29.54-26.98,1.5-16.89,28.04-58.05-4.18-17.64-13.81-40.41,9.63-28.79-34.05,4.98-18.72-33.77-15.33,21.89-37.57,23.85-9.53Z"/><path class="cls-5" d="M148.2,69.03c-1.97-28.04,55.81-12.09,24.76,6.83,31.05-18.93,47.44,23.19,7.02,18.05,40.41,5.14,3.07,41.72-16,15.68,19.08,26.04-43.87,29.54-26.98,1.5-16.89,28.04-58.05-4.18-17.64-13.81-40.41,9.63-28.79-34.05,4.98-18.72-33.77-15.33,21.89-37.57,23.85-9.53Z"/></g><path class="cls-12" d="M147.63,62.33c-1.53-27.54,56.25-11.6,24.76,6.83,31.49-18.43,47.87,23.69,7.02,18.05,40.85,5.64,3.51,42.22-16,15.68,19.51,26.54-43.44,30.04-26.98,1.5-16.46,28.54-57.61-3.69-17.64-13.81-39.98,10.12-28.35-33.55,4.98-18.72-33.33-14.83,22.32-37.07,23.85-9.53Z"/><path class="cls-5" d="M147.63,62.33c-1.53-27.54,56.25-11.6,24.76,6.83,31.49-18.43,47.87,23.69,7.02,18.05,40.85,5.64,3.51,42.22-16,15.68,19.51,26.54-43.44,30.04-26.98,1.5-16.46,28.54-57.61-3.69-17.64-13.81-39.98,10.12-28.35-33.55,4.98-18.72-33.33-14.83,22.32-37.07,23.85-9.53Z"/><ellipse class="cls-4" cx="148.73" cy="82.28" rx="14.85" ry="7.13" transform="translate(-4.33 8.37) rotate(-3.18)"/></g></g><g><path class="cls-8" d="M186.87,257.05l-5.04,1.84c-9.99-27.44-14.74-53.02-14.14-76.01,.61-23.2,6.55-37.01,10.04-43.17l4.67,2.64c-10.96,19.39-15.55,59.7,4.47,114.7Z"/><g><path class="cls-8" d="M171.98,162.67h0c-4.63-1.76-6.95-6.94-5.18-11.57l7.11-26.93c1.76-4.63,9.7-5.89,14.33-4.13h0c4.63,1.76,9.71,8,7.94,12.62l-12.63,24.83c-1.76,4.63-6.94,6.95-11.57,5.18Z"/><path class="cls-10" d="M196.12,99.38c7.29-19.12-59.1-15.17-30.53,1.81-28.57-16.99-22.69,32.6,2.7,22.8-25.4,9.8,44.62,36.5,32.2,12.28,12.42,24.22,49.83-8.87,17.2-15.21,32.63,6.35-14.28-40.8-21.57-21.68Z"/><path class="cls-5" d="M196.12,99.38c7.29-19.12-59.1-15.17-30.53,1.81-28.57-16.99-22.69,32.6,2.7,22.8-25.4,9.8,44.62,36.5,32.2,12.28,12.42,24.22,49.83-8.87,17.2-15.21,32.63,6.35-14.28-40.8-21.57-21.68Z"/><path class="cls-11" d="M198.15,94.03c7.29-19.12-59.1-15.17-30.53,1.81-28.57-16.99-22.69,32.6,2.7,22.8-25.4,9.8,44.62,36.5,32.2,12.28,12.42,24.22,49.83-8.87,17.2-15.21,32.63,6.35-14.28-40.8-21.57-21.68Zm-7.26,19.05c-12.01,.1-19.2-6.52-7.38-6.8-8.63-8.08,1.14-8.24,10.03-.16,12.01-.1,19.2,6.52,7.38,6.8,8.63,8.08-1.14,8.24-10.03,.16Z"/><path class="cls-5" d="M198.15,94.03c7.29-19.12-59.1-15.17-30.53,1.81-28.57-16.99-22.69,32.6,2.7,22.8-25.4,9.8,44.62,36.5,32.2,12.28,12.42,24.22,49.83-8.87,17.2-15.21,32.63,6.35-14.28-40.8-21.57-21.68Zm-7.26,19.05c-12.01,.1-19.2-6.52-7.38-6.8-8.63-8.08,1.14-8.24,10.03-.16,12.01-.1,19.2,6.52,7.38,6.8,8.63,8.08-1.14,8.24-10.03,.16Z"/></g></g><g><path class="cls-8" d="M191.09,254.59l-4.04,1.47c-21.7-59.61-33.65-92.44-46.78-107.85l3.27-2.79c13.64,16,25.69,49.09,47.55,109.17Z"/><g><path class="cls-8" d="M143.69,149.45h0c3.75-3.2,4.2-8.83,1-12.58l-15.67-22.89c-3.2-3.75-11.07-2.29-14.82,.91h0c-3.75,3.2-6.43,10.74-3.23,14.49l20.14,19.07c3.2,3.75,8.83,4.2,12.58,1Z"/><ellipse class="cls-2" cx="118.78" cy="120.25" rx="25.58" ry="13.2" transform="translate(-49.63 105.87) rotate(-40.47)"/><ellipse class="cls-2" cx="116.87" cy="118.02" rx="25.58" ry="13.2" transform="translate(-48.64 104.1) rotate(-40.47)"/><ellipse class="cls-7" cx="116.87" cy="118.02" rx="12.64" ry="4.41" transform="translate(-48.64 104.1) rotate(-40.47)"/></g></g></g><g><path class="cls-9" d="M206.57,234.39c-3.87-2.37-8.36-3.26-12.73-4.26-4.2-.97-8.22-2.21-11.48-5.14-3.01-2.71-5.08-6.48-5.7-10.48-.23-1.44-1.3-2.2-2.44-2.36-.43-.58-1.08-1.01-1.75-1.13-1.58-.29-2.79,.78-3.19,2.21-2.26,8.05-2.98,16.54-.84,24.7,1.07,4.09,2.96,8.08,5.58,11.4,2.4,3.04,5.79,5.56,6.87,9.42,.4,1.43,2.2,2.12,3.52,1.64,1.49-.54,2.04-2.08,1.64-3.52-1.08-3.88-3.96-6.58-6.53-9.51-2.63-3-4.48-6.44-5.62-10.26-1.54-5.13-1.58-10.5-.78-15.76,2.81,6.09,8.09,10.72,14.74,12.85,4.23,1.35,8.75,1.82,12.88,3.44,3.51,1.38,7.54,3.89,8.2,7.93,.24,1.46,1.39,2.64,2.96,2.52,1.38-.11,2.76-1.49,2.52-2.96-.79-4.77-3.81-8.26-7.84-10.72Z"/><path class="cls-9" d="M201.81,193.76c-4.86-4.28-12.04-4.54-17.79-2-6.72,2.97-12.39,9.33-15.78,15.85-5.97-2.47-13.29-3.75-19.6-2.61-6.3,1.13-12.34,4.94-14.41,11.25-1.03,3.12-1.13,6.82,.34,9.83,1.44,2.94,4.33,5.13,7.28,6.42,5.67,2.49,12.54,2.22,18.09-.47,6.82-3.3,9.48-9.84,11.12-16.7,4.79,3.6,10.18,6.78,16.39,6.17,6.34-.62,12.47-4.51,15.9-9.84,1.7-2.64,2.78-5.65,2.88-8.81,.11-3.57-1.8-6.79-4.42-9.1Zm-41.85,31.88c-3.77,2.93-9.13,3.73-13.71,2.61-2.07-.51-4.07-1.54-5.6-3.03-1.74-1.69-1.96-4.09-1.47-6.38,.96-4.55,5.43-7.47,9.74-8.34,5.48-1.1,11.93,0,17.14,2.14-.96,4.69-2.18,9.95-6.1,13Zm40.72-24.01c.44,2.12-.48,4.53-1.48,6.36-2.16,3.98-6.53,6.97-10.93,7.87-5.78,1.18-10.77-2.4-15.1-5.81,2.34-4.46,5.94-8.75,10.04-11.58,3.74-2.57,8.81-3.96,13.09-1.85,1.92,.95,3.92,2.84,4.38,5.01Z"/><ellipse class="cls-9" cx="169.65" cy="211.5" rx="3.54" ry="5.55" transform="translate(-62.11 70.78) rotate(-20)"/></g></svg>