<?xml version="1.0" encoding="UTF-8"?><svg id="box" xmlns="http://www.w3.org/2000/svg" xmlns:xlink="http://www.w3.org/1999/xlink" viewBox="0 0 272.35 272.35"><defs><style>.cls-1{fill:#e0c8e0;}.cls-1,.cls-2,.cls-3,.cls-4,.cls-5,.cls-6,.cls-7,.cls-8{stroke:#12519b;}.cls-1,.cls-2,.cls-3,.cls-5,.cls-6,.cls-7,.cls-8{stroke-miterlimit:10;}.cls-1,.cls-7{stroke-width:.72px;}.cls-9{clip-path:url(#clippath-11);}.cls-10{clip-path:url(#clippath-16);}.cls-2{stroke-width:1.73px;}.cls-2,.cls-8{fill:#008a89;}.cls-11{fill:#fbe5e5;}.cls-12{clip-path:url(#clippath-2);}.cls-13{clip-path:url(#clippath-13);}.cls-14{fill:#b0d8e0;}.cls-15{clip-path:url(#clippath-15);}.cls-3{fill:#e41a1a;}.cls-3,.cls-4,.cls-6,.cls-8{stroke-width:1.79px;}.cls-16{clip-path:url(#clippath-6);}.cls-4,.cls-7{fill:none;}.cls-4,.cls-17{stroke-linecap:round;stroke-linejoin:round;}.cls-18{clip-path:url(#clippath-7);}.cls-19{fill:#e9d56b;}.cls-20{clip-path:url(#clippath-1);}.cls-21{clip-path:url(#clippath-4);}.cls-5{fill:#caa4cb;stroke-width:1.43px;}.cls-6,.cls-22{fill:#fff3b3;}.cls-23{clip-path:url(#clippath-12);}.cls-24{fill:#ee899c;}.cls-25{fill:#6ba2c8;}.cls-26{clip-path:url(#clippath-9);}.cls-27{clip-path:url(#clippath);}.cls-17{fill:#f1f5fb;stroke:#2f5c9a;stroke-width:1.83px;}.cls-28{clip-path:url(#clippath-3);}.cls-29{clip-path:url(#clippath-8);}.cls-30{clip-path:url(#clippath-14);}.cls-31{clip-path:url(#clippath-17);}.cls-32{clip-path:url(#clippath-5);}.cls-33{fill:#c04292;}.cls-34{clip-path:url(#clippath-10);}.cls-35{fill:#12519b;}</style><clipPath id="clippath"><ellipse class="cls-7" cx="31.02" cy="105.17" rx="1.79" ry="3.48" transform="translate(-7.17 2.39) rotate(-3.95)"/></clipPath><clipPath id="clippath-1"><ellipse class="cls-7" cx="39.88" cy="105.56" rx="1.79" ry="3.48" transform="translate(-7.17 3) rotate(-3.95)"/></clipPath><clipPath id="clippath-2"><ellipse class="cls-7" cx="46.14" cy="91.07" rx="3.48" ry="1.79" transform="translate(-52.7 65.53) rotate(-48.64)"/></clipPath><clipPath id="clippath-3"><ellipse class="cls-7" cx="43.61" cy="116.58" rx="1.79" ry="3.48" transform="translate(-54.28 39.71) rotate(-31.35)"/></clipPath><clipPath id="clippath-4"><ellipse class="cls-7" cx="52.7" cy="107.93" rx="1.79" ry="3.48" transform="translate(-7.31 3.88) rotate(-3.95)"/></clipPath><clipPath id="clippath-5"><ellipse class="cls-7" cx="62.7" cy="94.94" rx="3.48" ry="1.79" transform="translate(-49.99 79.27) rotate(-48.64)"/></clipPath><clipPath id="clippath-6"><ellipse class="cls-7" cx="56.43" cy="118.94" rx="1.79" ry="3.48" transform="translate(-53.64 46.72) rotate(-31.35)"/></clipPath><clipPath id="clippath-7"><ellipse class="cls-7" cx="65.11" cy="114.45" rx="1.79" ry="3.48" transform="translate(-17.14 11.63) rotate(-9.02)"/></clipPath><clipPath id="clippath-8"><ellipse class="cls-7" cx="82.39" cy="98" rx="3.48" ry="1.79" transform="translate(-34.91 46.69) rotate(-26.32)"/></clipPath><clipPath id="clippath-9"><ellipse class="cls-7" cx="78.92" cy="122.33" rx="1.79" ry="3.48" transform="translate(-18.21 13.89) rotate(-9.02)"/></clipPath><clipPath id="clippath-10"><ellipse class="cls-7" cx="96.2" cy="105.89" rx="3.48" ry="1.79" transform="translate(-36.97 53.63) rotate(-26.32)"/></clipPath><clipPath id="clippath-11"><ellipse class="cls-7" cx="37" cy="55.46" rx="3.48" ry="1.79" transform="translate(-27.81 71.11) rotate(-69.87)"/></clipPath><clipPath id="clippath-12"><ellipse class="cls-7" cx="40.07" cy="64.14" rx="3.48" ry="1.79" transform="translate(-24.44 103.61) rotate(-89.47)"/></clipPath><clipPath id="clippath-13"><ellipse class="cls-7" cx="59.23" cy="51.05" rx="3.48" ry="1.79" transform="translate(-16.91 33.26) rotate(-27.61)"/></clipPath><clipPath id="clippath-14"><ellipse class="cls-7" cx="50.3" cy="71.49" rx="3.48" ry="1.79" transform="translate(-21.65 121.13) rotate(-89.47)"/></clipPath><clipPath id="clippath-15"><ellipse class="cls-7" cx="69.46" cy="58.4" rx="3.48" ry="1.79" transform="translate(-19.15 38.84) rotate(-27.61)"/></clipPath><clipPath id="clippath-16"><ellipse class="cls-7" cx="62.74" cy="79.22" rx="3.48" ry="1.79" transform="translate(-17.05 141.22) rotate(-89.47)"/></clipPath><clipPath id="clippath-17"><ellipse class="cls-7" cx="84.17" cy="65.25" rx="3.48" ry="1.79" transform="translate(-10.32 16.12) rotate(-10.31)"/></clipPath></defs><g><g><path class="cls-8" d="M178.54,195.06l4.28-3.24C132.1,124.9,80.52,101.24,49.15,101.42l.03,5.37c16.29-.09,36.48,6.77,56.83,19.33,25.24,15.57,49.64,38.76,72.52,68.95Z"/><g><path class="cls-8" d="M50.66,103.77h0c.09,1.25-.86,2.34-2.11,2.43l-6.96,1.23c-1.25,.09-2.39-1.61-2.48-2.86h0c-.09-1.25,.81-3.09,2.06-3.17l7.06,.26c1.25-.09,2.34,.86,2.43,2.11Z"/><circle class="cls-5" cx="36.08" cy="104.77" r="8.75"/><g><path class="cls-33" d="M31.19,108.84c-1.06,0-2-1.55-2.14-3.52-.07-.96,.07-1.87,.37-2.58,.32-.75,.8-1.18,1.34-1.21h0c1.14,0,2.07,1.54,2.21,3.52,.14,2.05-.61,3.71-1.71,3.79,0,0-.07,0-.08,0Z"/><path class="cls-35" d="M30.84,101.71c.96,0,1.83,1.48,1.96,3.35,.13,1.92-.56,3.53-1.54,3.6-.02,0-.04,0-.06,0-.96,0-1.83-1.48-1.96-3.35-.13-1.92,.56-3.53,1.54-3.6,.02,0,.04,0,.06,0m0-.36s-.06,0-.09,0c-.62,.04-1.15,.51-1.5,1.32-.31,.73-.45,1.67-.38,2.66,.15,2.1,1.14,3.69,2.32,3.69,.03,0,.06,0,.09,0,.62-.04,1.15-.51,1.5-1.32,.31-.73,.45-1.67,.38-2.66-.15-2.1-1.14-3.69-2.32-3.69h0Z"/></g><g><g class="cls-27"><ellipse class="cls-1" cx="32.29" cy="105.11" rx="1.79" ry="3.48" transform="translate(-7.16 2.47) rotate(-3.95)"/></g><ellipse class="cls-7" cx="31.02" cy="105.17" rx="1.79" ry="3.48" transform="translate(-7.17 2.39) rotate(-3.95)"/></g></g><g><path class="cls-8" d="M59.53,104.15h0c.09,1.25-.86,2.34-2.11,2.43l-6.96,1.23c-1.25,.09-2.39-1.61-2.48-2.86h0c-.09-1.25,.81-3.09,2.06-3.17l7.06,.26c1.25-.09,2.34,.86,2.43,2.11Z"/><circle class="cls-5" cx="44.95" cy="105.16" r="8.75"/><g><path class="cls-33" d="M40.06,109.23c-1.06,0-2-1.55-2.14-3.52-.14-2.05,.61-3.71,1.71-3.79h0c1.14,0,2.08,1.55,2.21,3.52,.07,.96-.07,1.87-.37,2.58-.32,.74-.8,1.17-1.34,1.21,0,0-.07,0-.08,0Z"/><path class="cls-35" d="M39.71,102.09c.96,0,1.83,1.48,1.96,3.35,.13,1.92-.56,3.53-1.54,3.6-.02,0-.04,0-.06,0-.96,0-1.83-1.48-1.96-3.35-.13-1.92,.56-3.53,1.54-3.6,.02,0,.04,0,.06,0m0-.36s-.06,0-.09,0c-.62,.04-1.15,.51-1.5,1.32-.31,.73-.45,1.67-.38,2.66,.15,2.1,1.14,3.69,2.32,3.69,.03,0,.06,0,.09,0,.62-.04,1.15-.51,1.5-1.32,.31-.73,.45-1.67,.38-2.66-.15-2.1-1.14-3.69-2.32-3.69h0Z"/></g><g><g class="cls-20"><ellipse class="cls-1" cx="41.16" cy="105.5" rx="1.79" ry="3.48" transform="translate(-7.17 3.08) rotate(-3.95)"/></g><ellipse class="cls-7" cx="39.88" cy="105.56" rx="1.79" ry="3.48" transform="translate(-7.17 3) rotate(-3.95)"/></g></g><g><path class="cls-8" d="M60.96,104.04h0c-.83,.94-2.27,1.03-3.21,.2l-5.77-4.08c-.94-.83-.54-2.83,.29-3.77h0c.83-.94,2.76-1.6,3.71-.77l4.78,5.21c.94,.83,1.03,2.27,.2,3.21Z"/><circle class="cls-5" cx="49.99" cy="94.39" r="8.75"/><g><path class="cls-33" d="M44.59,94.12c-.35,0-.65-.1-.88-.3-.41-.36-.53-.99-.33-1.78,.19-.74,.64-1.55,1.27-2.27,.93-1.06,2.12-1.75,3.02-1.75,.35,0,.65,.1,.87,.3,.41,.36,.53,.99,.33,1.78-.19,.74-.64,1.55-1.27,2.27-.94,1.06-2.12,1.75-3.02,1.75Z"/><path class="cls-35" d="M47.68,88.21c.3,0,.56,.08,.76,.26,.74,.65,.31,2.35-.96,3.8-.93,1.06-2.06,1.69-2.89,1.69-.3,0-.56-.08-.76-.26-.74-.65-.31-2.35,.96-3.8,.93-1.06,2.06-1.69,2.89-1.69m0-.36h0c-.96,0-2.17,.69-3.16,1.81-1.42,1.62-1.83,3.51-.93,4.3,.26,.23,.6,.34,.99,.34,.96,0,2.17-.69,3.16-1.81,1.42-1.62,1.83-3.51,.93-4.3-.26-.23-.6-.34-.99-.34h0Z"/></g><g><g class="cls-12"><ellipse class="cls-1" cx="47.08" cy="91.93" rx="3.48" ry="1.79" transform="translate(-53.03 66.53) rotate(-48.64)"/></g><ellipse class="cls-7" cx="46.14" cy="91.07" rx="3.48" ry="1.79" transform="translate(-52.7 65.53) rotate(-48.64)"/></g></g><g><path class="cls-8" d="M60.41,106.28h0c.65,1.07,.31,2.47-.76,3.13l-5.61,4.3c-1.07,.65-2.86-.33-3.52-1.4h0c-.65-1.07-.7-3.11,.37-3.77l6.39-3.02c1.07-.65,2.47-.31,3.13,.76Z"/><circle class="cls-5" cx="47.93" cy="113.89" r="8.75"/><g><path class="cls-33" d="M44.89,119.88c-.94,0-2.12-.91-2.95-2.27-.5-.82-.8-1.69-.86-2.46-.06-.81,.17-1.41,.63-1.7,.18-.11,.4-.17,.63-.17,.94,0,2.12,.91,2.95,2.27,.5,.82,.8,1.69,.86,2.46,.06,.81-.17,1.41-.64,1.7-.18,.11-.4,.17-.63,.17Z"/><path class="cls-35" d="M42.35,113.47c.85,0,1.99,.85,2.8,2.19,1,1.64,1.13,3.39,.28,3.9-.16,.1-.34,.14-.54,.14-.85,0-1.99-.85-2.8-2.19-1-1.64-1.13-3.39-.28-3.9,.16-.1,.34-.14,.54-.14m0-.36h0c-.27,0-.51,.07-.73,.2-.53,.32-.78,.98-.72,1.86,.06,.79,.37,1.69,.89,2.54,.86,1.41,2.11,2.36,3.11,2.36,.27,0,.51-.07,.72-.2,.53-.32,.78-.98,.72-1.86-.06-.79-.37-1.69-.89-2.54-.86-1.41-2.11-2.36-3.11-2.36h0Z"/></g><g><g class="cls-28"><ellipse class="cls-1" cx="44.72" cy="115.93" rx="1.79" ry="3.48" transform="translate(-53.78 40.19) rotate(-31.35)"/></g><ellipse class="cls-7" cx="43.61" cy="116.58" rx="1.79" ry="3.48" transform="translate(-54.28 39.71) rotate(-31.35)"/></g></g><g><path class="cls-8" d="M72.34,106.52h0c.09,1.25-.86,2.34-2.11,2.43l-6.96,1.23c-1.25,.09-2.39-1.61-2.48-2.86h0c-.09-1.25,.81-3.09,2.06-3.17l7.06,.26c1.25-.09,2.34,.86,2.43,2.11Z"/><circle class="cls-5" cx="57.76" cy="107.53" r="8.75"/><g><path class="cls-33" d="M52.87,111.59c-1.06,0-2-1.55-2.14-3.52-.14-2.05,.61-3.71,1.71-3.79h0c1.14,0,2.08,1.55,2.21,3.52,.14,2.05-.61,3.71-1.71,3.79,0,0-.07,0-.08,0Z"/><path class="cls-35" d="M52.52,104.46c.96,0,1.83,1.48,1.96,3.35,.13,1.92-.56,3.53-1.54,3.6-.02,0-.04,0-.06,0-.96,0-1.83-1.48-1.96-3.35-.13-1.92,.56-3.53,1.54-3.6,.02,0,.04,0,.06,0m0-.36s-.06,0-.09,0c-.62,.04-1.15,.51-1.5,1.32-.31,.73-.45,1.67-.38,2.66,.15,2.1,1.14,3.69,2.32,3.69,.03,0,.06,0,.09,0,.62-.04,1.15-.51,1.5-1.32,.31-.73,.45-1.67,.38-2.66-.15-2.1-1.14-3.69-2.32-3.69h0Z"/></g><g><g class="cls-21"><ellipse class="cls-1" cx="53.97" cy="107.87" rx="1.79" ry="3.48" transform="translate(-7.3 3.97) rotate(-3.95)"/></g><ellipse class="cls-7" cx="52.7" cy="107.93" rx="1.79" ry="3.48" transform="translate(-7.31 3.88) rotate(-3.95)"/></g></g><g><path class="cls-8" d="M77.51,107.91h0c-.83,.94-2.27,1.03-3.21,.2l-5.77-4.08c-.94-.83-.54-2.83,.29-3.77h0c.83-.94,2.76-1.6,3.71-.77l4.78,5.21c.94,.83,1.03,2.27,.2,3.21Z"/><circle class="cls-5" cx="66.55" cy="98.26" r="8.75"/><g><path class="cls-33" d="M61.14,98c-.35,0-.65-.1-.87-.3-.83-.73-.41-2.51,.94-4.05,.93-1.06,2.12-1.75,3.02-1.75,.35,0,.65,.1,.87,.3,.83,.73,.41,2.51-.94,4.05-.94,1.06-2.12,1.75-3.02,1.75Z"/><path class="cls-35" d="M64.24,92.08c.3,0,.56,.08,.76,.26,.74,.65,.31,2.35-.96,3.8-.93,1.06-2.06,1.69-2.89,1.69-.3,0-.56-.08-.76-.26-.74-.65-.31-2.35,.96-3.8,.93-1.06,2.06-1.69,2.89-1.69m0-.36h0c-.96,0-2.17,.69-3.16,1.81-1.42,1.62-1.83,3.51-.93,4.3,.26,.23,.6,.34,.99,.34,.96,0,2.17-.69,3.16-1.81,1.42-1.62,1.83-3.51,.93-4.3-.26-.23-.6-.34-.99-.34h0Z"/></g><g><g class="cls-32"><ellipse class="cls-1" cx="63.64" cy="95.8" rx="3.48" ry="1.79" transform="translate(-50.32 80.27) rotate(-48.64)"/></g><ellipse class="cls-7" cx="62.7" cy="94.94" rx="3.48" ry="1.79" transform="translate(-49.99 79.27) rotate(-48.64)"/></g></g><g><path class="cls-8" d="M73.22,108.65h0c.65,1.07,.31,2.47-.76,3.13l-5.61,4.3c-1.07,.65-2.86-.33-3.52-1.4h0c-.65-1.07-.7-3.11,.37-3.77l6.39-3.02c1.07-.65,2.47-.31,3.13,.76Z"/><circle class="cls-5" cx="60.74" cy="116.26" r="8.75"/><g><path class="cls-33" d="M57.71,122.25c-.94,0-2.12-.91-2.95-2.27-.5-.82-.8-1.69-.86-2.46-.06-.81,.17-1.41,.63-1.7,.18-.11,.4-.17,.63-.17,.94,0,2.12,.91,2.95,2.27,.5,.82,.8,1.69,.86,2.46,.06,.81-.17,1.41-.64,1.7-.18,.11-.4,.17-.63,.17Z"/><path class="cls-35" d="M55.16,115.83c.85,0,1.99,.85,2.8,2.19,1,1.64,1.13,3.39,.28,3.9-.16,.1-.34,.14-.54,.14-.85,0-1.99-.85-2.8-2.19-1-1.64-1.13-3.39-.28-3.9,.16-.1,.34-.14,.54-.14m0-.36h0c-.27,0-.51,.07-.73,.2-.53,.32-.78,.98-.72,1.86,.06,.79,.37,1.69,.89,2.54,.86,1.41,2.11,2.36,3.11,2.36,.27,0,.51-.07,.72-.2,.53-.32,.78-.98,.72-1.86-.06-.79-.37-1.69-.89-2.54-.86-1.41-2.11-2.36-3.11-2.36h0Z"/></g><g><g class="cls-16"><ellipse class="cls-1" cx="57.53" cy="118.3" rx="1.79" ry="3.48" transform="translate(-53.15 47.2) rotate(-31.35)"/></g><ellipse class="cls-7" cx="56.43" cy="118.94" rx="1.79" ry="3.48" transform="translate(-53.64 46.72) rotate(-31.35)"/></g></g><g><path class="cls-8" d="M84.55,111.31h0c.2,1.24-.65,2.41-1.89,2.6l-6.82,1.84c-1.24,.2-2.52-1.39-2.72-2.63h0c-.2-1.24,.53-3.15,1.77-3.34l7.06-.36c1.24-.2,2.41,.65,2.6,1.89Z"/><circle class="cls-5" cx="70.12" cy="113.6" r="8.75"/><g><path class="cls-33" d="M65.51,118.08c-1.03,0-2.04-1.43-2.34-3.32-.15-.95-.1-1.87,.14-2.6,.25-.77,.69-1.24,1.23-1.33,.06,0,.12-.01,.18-.01,1.03,0,2.04,1.43,2.34,3.32,.15,.95,.1,1.87-.14,2.6-.25,.77-.69,1.24-1.23,1.33-.06,0-.12,.01-.18,.01Z"/><path class="cls-35" d="M64.71,111c.93,0,1.88,1.37,2.16,3.17,.3,1.9-.24,3.56-1.22,3.72-.05,0-.1,.01-.15,.01-.93,0-1.88-1.37-2.16-3.17-.3-1.9,.24-3.56,1.22-3.72,.05,0,.1-.01,.15-.01m0-.36h0c-.07,0-.14,0-.2,.02-1.19,.19-1.86,2-1.52,4.13,.32,2.01,1.38,3.47,2.52,3.47,.07,0,.14,0,.2-.02,1.19-.19,1.85-2,1.52-4.13-.32-2.01-1.38-3.47-2.52-3.47h0Z"/></g><g><g class="cls-18"><ellipse class="cls-1" cx="66.37" cy="114.27" rx="1.79" ry="3.48" transform="translate(-17.1 11.82) rotate(-9.02)"/></g><ellipse class="cls-7" cx="65.11" cy="114.45" rx="1.79" ry="3.48" transform="translate(-17.14 11.63) rotate(-9.02)"/></g></g><g><path class="cls-8" d="M91.17,115.63h0c-1.13,.56-2.49,.1-3.05-1.03l-3.79-5.97c-.56-1.13,.58-2.82,1.7-3.38h0c1.13-.56,3.16-.43,3.72,.7l2.44,6.63c.56,1.13,.1,2.49-1.03,3.05Z"/><circle class="cls-5" cx="84.69" cy="102.53" r="8.75"/><g><path class="cls-33" d="M80.79,100.41c-.84,0-1.44-.28-1.69-.78-.24-.49-.11-1.12,.37-1.77,.46-.62,1.18-1.19,2.04-1.62,.84-.41,1.71-.64,2.47-.64,.84,0,1.44,.28,1.69,.78,.24,.49,.11,1.12-.37,1.77-.46,.62-1.18,1.19-2.04,1.62-.84,.41-1.71,.64-2.47,.64Z"/><path class="cls-35" d="M83.98,95.78c.73,0,1.3,.23,1.53,.68,.44,.89-.6,2.29-2.33,3.15-.84,.42-1.69,.62-2.39,.62-.73,0-1.3-.23-1.53-.68-.44-.89,.6-2.29,2.33-3.15,.84-.42,1.69-.62,2.39-.62m0-.36c-.78,0-1.69,.23-2.55,.66-1.93,.95-3.02,2.55-2.49,3.63,.28,.57,.94,.88,1.85,.88,.78,0,1.69-.23,2.55-.66,.88-.44,1.63-1.03,2.1-1.67,.52-.71,.66-1.4,.39-1.96-.28-.57-.94-.88-1.85-.88h0Z"/></g><g><g class="cls-29"><ellipse class="cls-1" cx="82.93" cy="99.15" rx="3.48" ry="1.79" transform="translate(-35.36 47.05) rotate(-26.32)"/></g><ellipse class="cls-7" cx="82.39" cy="98" rx="3.48" ry="1.79" transform="translate(-34.91 46.69) rotate(-26.32)"/></g></g><g><path class="cls-8" d="M98.36,119.19h0c.2,1.24-.65,2.41-1.89,2.6l-6.82,1.84c-1.24,.2-2.52-1.39-2.72-2.63h0c-.2-1.24,.53-3.15,1.77-3.34l7.06-.36c1.24-.2,2.41,.65,2.6,1.89Z"/><circle class="cls-5" cx="83.93" cy="121.49" r="8.75"/><g><path class="cls-33" d="M79.32,125.97c-1.04,0-2.04-1.43-2.34-3.32-.32-2.03,.28-3.75,1.37-3.92,.06,0,.12-.01,.18-.01,1.03,0,2.04,1.43,2.34,3.32,.32,2.03-.28,3.75-1.37,3.92-.06,0-.12,.01-.17,.01Z"/><path class="cls-35" d="M78.52,118.89c.93,0,1.88,1.37,2.17,3.17,.3,1.9-.24,3.56-1.22,3.72-.05,0-.1,.01-.15,.01-.93,0-1.88-1.37-2.16-3.17-.3-1.9,.24-3.56,1.22-3.72,.05,0,.1-.01,.15-.01m0-.36h0c-.07,0-.14,0-.2,.02-1.19,.19-1.86,2-1.52,4.13,.32,2.01,1.38,3.47,2.52,3.47,.07,0,.14,0,.2-.02,1.19-.19,1.86-2,1.52-4.13-.32-2.01-1.38-3.47-2.52-3.47h0Z"/></g><g><g class="cls-26"><ellipse class="cls-1" cx="80.18" cy="122.16" rx="1.79" ry="3.48" transform="translate(-18.16 14.08) rotate(-9.02)"/></g><ellipse class="cls-7" cx="78.92" cy="122.33" rx="1.79" ry="3.48" transform="translate(-18.21 13.89) rotate(-9.02)"/></g></g><g><path class="cls-8" d="M104.98,123.52h0c-1.13,.56-2.49,.1-3.05-1.03l-3.79-5.97c-.56-1.13,.58-2.82,1.7-3.38h0c1.13-.56,3.16-.43,3.72,.7l2.44,6.63c.56,1.13,.1,2.49-1.03,3.05Z"/><circle class="cls-5" cx="98.5" cy="110.42" r="8.75"/><g><path class="cls-33" d="M94.6,108.3c-.84,0-1.44-.28-1.69-.78-.49-.99,.57-2.48,2.41-3.39,.84-.41,1.71-.64,2.47-.64,.84,0,1.44,.28,1.69,.78,.24,.49,.11,1.12-.37,1.77-.46,.62-1.18,1.19-2.04,1.62-.84,.41-1.71,.64-2.47,.64Z"/><path class="cls-35" d="M97.79,103.67c.73,0,1.3,.23,1.53,.68,.44,.89-.6,2.29-2.33,3.15-.84,.42-1.69,.62-2.39,.62-.73,0-1.3-.23-1.53-.68-.44-.89,.6-2.29,2.33-3.15,.84-.42,1.69-.62,2.39-.62m0-.36h0c-.78,0-1.69,.23-2.55,.66-1.93,.95-3.02,2.55-2.49,3.63,.28,.57,.94,.88,1.85,.88,.78,0,1.69-.23,2.55-.66,.88-.44,1.63-1.03,2.1-1.67,.52-.71,.66-1.4,.39-1.96-.28-.57-.94-.88-1.85-.88h0Z"/></g><g><g class="cls-34"><ellipse class="cls-1" cx="96.74" cy="107.04" rx="3.48" ry="1.79" transform="translate(-37.43 53.99) rotate(-26.32)"/></g><ellipse class="cls-7" cx="96.2" cy="105.89" rx="3.48" ry="1.79" transform="translate(-36.97 53.63) rotate(-26.32)"/></g></g></g><g><path class="cls-2" d="M123.78,145.73l3.99-1.59c-10.14-25.37-23.01-46.06-38.25-61.51-15.34-15.56-28.63-21.22-35.18-23.21l-1.45,3.88c20.87,6.34,50.46,31.33,70.89,82.44Z"/><path class="cls-8" d="M55.51,62.19h0c-.43,1.18-1.74,1.79-2.92,1.35l-6.86-1.72c-1.18-.43-1.53-2.44-1.09-3.62h0c.43-1.18,2-2.49,3.18-2.06l6.34,3.12c1.18,.43,1.79,1.74,1.35,2.92Z"/><circle class="cls-5" cx="41.79" cy="57.16" r="8.75"/><g><path class="cls-33" d="M36.13,58.97c-.14,0-.27-.02-.39-.07-.51-.19-.85-.74-.95-1.54-.09-.76,.04-1.68,.37-2.58,.61-1.67,1.73-2.83,2.71-2.83,.14,0,.27,.02,.39,.07,1.04,.38,1.29,2.19,.59,4.12-.61,1.67-1.73,2.83-2.71,2.83Z"/><path class="cls-35" d="M37.86,52.14c.11,0,.23,.02,.33,.06,.93,.34,1.14,2.08,.48,3.89-.59,1.6-1.66,2.71-2.54,2.71-.11,0-.23-.02-.33-.06-.93-.34-1.14-2.08-.48-3.89,.59-1.6,1.66-2.71,2.54-2.71m0-.36h0c-1.06,0-2.24,1.21-2.88,2.95-.74,2.02-.44,3.93,.69,4.34,.14,.05,.3,.08,.46,.08,1.06,0,2.24-1.21,2.88-2.95,.74-2.02,.44-3.93-.69-4.34-.14-.05-.3-.08-.46-.08h0Z"/></g><g><g class="cls-9"><ellipse class="cls-1" cx="38.18" cy="55.92" rx="3.48" ry="1.79" transform="translate(-27.46 72.53) rotate(-69.87)"/></g><ellipse class="cls-7" cx="37" cy="55.46" rx="3.48" ry="1.79" transform="translate(-27.81 71.11) rotate(-69.87)"/></g><path class="cls-8" d="M59.76,64.27h0c-.01,1.26-1.04,2.26-2.3,2.25l-7.04,.68c-1.26-.01-2.26-1.79-2.25-3.04h0c.01-1.26,1.05-3.01,2.3-3l7.02,.81c1.26,.01,2.26,1.04,2.25,2.3Z"/><circle class="cls-5" cx="45.15" cy="64.13" r="8.75"/><g><path class="cls-33" d="M40.04,67.81c-.55,0-1.05-.41-1.41-1.13-.34-.69-.53-1.59-.52-2.55,.02-2.04,.89-3.64,1.99-3.64,.56,0,1.06,.41,1.42,1.13,.34,.69,.53,1.59,.52,2.55-.02,2.04-.89,3.64-1.99,3.64h-.01Z"/><path class="cls-35" d="M40.09,60.66s0,0,0,0c.99,0,1.77,1.58,1.76,3.5-.02,1.92-.83,3.47-1.81,3.47,0,0,0,0,0,0-.99,0-1.77-1.58-1.76-3.5,.02-1.92,.83-3.47,1.81-3.47m0-.36c-1.2,0-2.15,1.68-2.17,3.82-.02,2.15,.91,3.85,2.11,3.86,1.21,0,2.16-1.68,2.18-3.82,.02-2.15-.91-3.85-2.11-3.86,0,0-.01,0-.01,0h0Z"/></g><g><g class="cls-23"><ellipse class="cls-1" cx="41.35" cy="64.18" rx="3.48" ry="1.79" transform="translate(-23.21 104.92) rotate(-89.47)"/></g><ellipse class="cls-7" cx="40.07" cy="64.14" rx="3.48" ry="1.79" transform="translate(-24.44 103.61) rotate(-89.47)"/></g><path class="cls-8" d="M68.4,68.48h0c-1.11,.58-2.49,.15-3.07-.96l-3.92-5.88c-.58-1.11,.51-2.83,1.63-3.42h0c1.11-.58,3.15-.5,3.73,.61l2.59,6.58c.58,1.11,.15,2.49-.96,3.07Z"/><circle class="cls-5" cx="61.63" cy="55.53" r="8.75"/><g><path class="cls-33" d="M57.6,53.49c-.8,0-1.37-.26-1.62-.74-.25-.49-.14-1.12,.33-1.78,.44-.63,1.15-1.22,2-1.66,.86-.45,1.76-.7,2.53-.7s1.37,.26,1.62,.74c.25,.49,.14,1.12-.33,1.78-.44,.63-1.15,1.22-2,1.66-.86,.45-1.76,.7-2.53,.7Z"/><path class="cls-35" d="M60.84,48.79c.7,0,1.24,.22,1.46,.65,.46,.88-.55,2.31-2.26,3.2-.86,.45-1.74,.68-2.45,.68s-1.24-.22-1.46-.65c-.46-.88,.55-2.31,2.26-3.2,.86-.45,1.74-.68,2.45-.68m0-.36h0c-.8,0-1.73,.25-2.62,.72-1.91,1-2.97,2.62-2.41,3.68,.28,.54,.92,.84,1.78,.84,.8,0,1.73-.25,2.62-.72,1.91-1,2.97-2.61,2.41-3.68-.28-.54-.92-.84-1.78-.84h0Z"/></g><g><g class="cls-13"><ellipse class="cls-1" cx="59.8" cy="52.19" rx="3.48" ry="1.79" transform="translate(-17.38 33.65) rotate(-27.61)"/></g><ellipse class="cls-7" cx="59.23" cy="51.05" rx="3.48" ry="1.79" transform="translate(-16.91 33.26) rotate(-27.61)"/></g><path class="cls-8" d="M70,71.62h0c-.01,1.26-1.04,2.26-2.3,2.25l-7.04,.68c-1.26-.01-2.26-1.79-2.25-3.04h0c.01-1.26,1.05-3.01,2.3-3l7.02,.81c1.26,.01,2.26,1.04,2.25,2.3Z"/><circle class="cls-5" cx="55.38" cy="71.48" r="8.75"/><g><path class="cls-33" d="M50.27,75.16c-.55,0-1.05-.41-1.41-1.13-.34-.69-.53-1.59-.52-2.55,.02-2.04,.89-3.64,1.99-3.64,1.11,.01,1.96,1.63,1.94,3.68-.02,2.04-.89,3.64-1.99,3.64h-.01Z"/><path class="cls-35" d="M50.33,68.01s0,0,0,0c.99,0,1.77,1.58,1.76,3.5-.02,1.92-.83,3.47-1.81,3.47,0,0,0,0,0,0-.99,0-1.77-1.58-1.76-3.5,.02-1.92,.83-3.47,1.81-3.47m0-.36c-1.2,0-2.15,1.68-2.17,3.82-.02,2.15,.91,3.85,2.11,3.86,1.21,0,2.16-1.68,2.18-3.82,.02-2.15-.91-3.85-2.11-3.86,0,0-.01,0-.01,0h0Z"/></g><g><g class="cls-30"><ellipse class="cls-1" cx="51.58" cy="71.53" rx="3.48" ry="1.79" transform="translate(-20.43 122.44) rotate(-89.47)"/></g><ellipse class="cls-7" cx="50.3" cy="71.49" rx="3.48" ry="1.79" transform="translate(-21.65 121.13) rotate(-89.47)"/></g><path class="cls-8" d="M78.63,75.83h0c-1.11,.58-2.49,.15-3.07-.96l-3.92-5.88c-.58-1.11,.51-2.83,1.63-3.42h0c1.11-.58,3.15-.5,3.73,.61l2.59,6.58c.58,1.11,.15,2.49-.96,3.07Z"/><circle class="cls-5" cx="71.86" cy="62.88" r="8.75"/><g><path class="cls-33" d="M67.83,60.85c-.8,0-1.37-.26-1.62-.74-.51-.98,.51-2.49,2.33-3.44,.86-.45,1.76-.7,2.53-.7s1.37,.26,1.62,.74c.25,.49,.14,1.12-.33,1.78-.44,.63-1.15,1.22-2,1.66-.86,.45-1.76,.7-2.53,.7Z"/><path class="cls-35" d="M71.08,56.14c.7,0,1.24,.22,1.46,.65,.46,.88-.55,2.31-2.26,3.2-.86,.45-1.74,.68-2.45,.68s-1.24-.22-1.46-.65c-.46-.88,.55-2.31,2.26-3.2,.86-.45,1.74-.68,2.45-.68m0-.36h0c-.8,0-1.73,.25-2.62,.72-.87,.46-1.61,1.07-2.07,1.72-.51,.72-.63,1.42-.34,1.97,.28,.54,.92,.84,1.78,.84,.8,0,1.73-.25,2.62-.72,1.91-1,2.97-2.61,2.41-3.68-.28-.54-.92-.84-1.78-.84h0Z"/></g><g><g class="cls-15"><ellipse class="cls-1" cx="70.03" cy="59.54" rx="3.48" ry="1.79" transform="translate(-19.62 39.23) rotate(-27.61)"/></g><ellipse class="cls-7" cx="69.46" cy="58.4" rx="3.48" ry="1.79" transform="translate(-19.15 38.84) rotate(-27.61)"/></g><g><path class="cls-8" d="M82.44,79.35h0c-.01,1.26-1.04,2.26-2.3,2.25l-7.04,.68c-1.26-.01-2.26-1.79-2.25-3.04h0c.01-1.26,1.05-3.01,2.3-3l7.02,.81c1.26,.01,2.26,1.04,2.25,2.3Z"/><circle class="cls-5" cx="67.83" cy="79.21" r="8.75"/><g><path class="cls-33" d="M62.71,82.89c-1.1-.01-1.95-1.63-1.93-3.68,.02-2.04,.89-3.64,1.99-3.64,.56,0,1.06,.41,1.42,1.13,.34,.69,.53,1.59,.52,2.55-.02,2.04-.89,3.64-1.99,3.64h-.01Z"/><path class="cls-35" d="M62.77,75.74s0,0,0,0c.99,0,1.77,1.58,1.76,3.5-.02,1.92-.83,3.47-1.81,3.47,0,0,0,0,0,0-.99,0-1.77-1.58-1.76-3.5,.02-1.92,.83-3.47,1.81-3.47m0-.36c-1.2,0-2.15,1.68-2.17,3.82,0,.99,.18,1.92,.54,2.63,.39,.79,.95,1.22,1.57,1.23,1.21,0,2.16-1.68,2.18-3.82,.02-2.15-.91-3.85-2.11-3.86,0,0-.01,0-.01,0h0Z"/></g><g><g class="cls-10"><ellipse class="cls-1" cx="64.02" cy="79.25" rx="3.48" ry="1.79" transform="translate(-15.83 142.54) rotate(-89.47)"/></g><ellipse class="cls-7" cx="62.74" cy="79.22" rx="3.48" ry="1.79" transform="translate(-17.05 141.22) rotate(-89.47)"/></g></g><path class="cls-8" d="M87.74,84.62h0c-1.24,.22-2.42-.59-2.64-1.83l-2-6.78c-.22-1.24,1.33-2.55,2.57-2.78h0c1.24-.22,3.16,.46,3.38,1.7l.52,7.05c.22,1.24-.59,2.42-1.83,2.64Z"/><circle class="cls-5" cx="85.13" cy="70.24" r="8.75"/><g><path class="cls-33" d="M83.32,67.3c-1.52,0-2.61-.55-2.76-1.39-.2-1.08,1.23-2.22,3.25-2.59,.4-.07,.8-.11,1.19-.11,1.52,0,2.61,.55,2.76,1.39,.2,1.08-1.23,2.22-3.25,2.59-.4,.07-.8,.11-1.19,.11Z"/><path class="cls-35" d="M85,63.39c1.37,0,2.44,.48,2.58,1.24,.18,.97-1.21,2.04-3.11,2.38-.4,.07-.79,.11-1.16,.11-1.37,0-2.44-.48-2.58-1.24-.18-.97,1.21-2.04,3.11-2.38,.4-.07,.79-.11,1.16-.11m0-.36h0c-.4,0-.81,.04-1.23,.11-.97,.18-1.85,.54-2.48,1.02-.7,.54-1.02,1.17-.91,1.77,.17,.93,1.32,1.54,2.94,1.54,.4,0,.81-.04,1.23-.11,2.12-.39,3.61-1.61,3.39-2.8-.17-.93-1.32-1.54-2.94-1.54h0Z"/></g><g><g class="cls-31"><ellipse class="cls-1" cx="84.37" cy="66.51" rx="3.48" ry="1.79" transform="translate(-10.54 16.17) rotate(-10.31)"/></g><ellipse class="cls-7" cx="84.17" cy="65.25" rx="3.48" ry="1.79" transform="translate(-10.32 16.12) rotate(-10.31)"/></g></g><g><path class="cls-8" d="M194.81,226.06l-4.86,2.28c-26.89-57.38-41.7-88.99-56.08-103.1l3.76-3.83c15.08,14.79,30.04,46.71,57.19,104.66Z"/><g><path class="cls-8" d="M143.48,131.69h0c-3.86,3.1-9.5,2.49-12.6-1.37l-19.66-19.74c-3.1-3.86-.19-11.35,3.67-14.45h0c3.86-3.1,11.8-4.34,14.9-.48l15.05,23.44c3.1,3.86,2.49,9.5-1.37,12.6Z"/><path class="cls-19" d="M101.05,78.9c-12.82-15.95-42.94,43.34-13.85,27.27-29.09,16.08,16.68,36.05,21.05,9.18-4.37,26.87,54.04-20.08,26.86-21.59,27.18,1.51,17.51-47.48-4.45-22.53,21.96-24.95-42.43-8.28-29.61,7.67Z"/><path class="cls-4" d="M101.05,78.9c-12.82-15.95-42.94,43.34-13.85,27.27-29.09,16.08,16.68,36.05,21.05,9.18-4.37,26.87,54.04-20.08,26.86-21.59,27.18,1.51,17.51-47.48-4.45-22.53,21.96-24.95-42.43-8.28-29.61,7.67Z"/><path class="cls-22" d="M97.46,74.44c-12.82-15.95-42.94,43.34-13.85,27.27-29.09,16.08,16.68,36.05,21.05,9.18-4.37,26.87,54.04-20.08,26.86-21.59,27.18,1.51,17.51-47.48-4.45-22.53,21.96-24.95-42.43-8.28-29.61,7.67Zm12.77,15.89c-5.98,10.42-15.32,13.28-9.6,2.93-11.33,3.37-6.54-5.14,4.93-8.74,5.98-10.42,15.32-13.28,9.6-2.93,11.33-3.37,6.54,5.14-4.93,8.74Z"/><path class="cls-4" d="M97.46,74.44c-12.82-15.95-42.94,43.34-13.85,27.27-29.09,16.08,16.68,36.05,21.05,9.18-4.37,26.87,54.04-20.08,26.86-21.59,27.18,1.51,17.51-47.48-4.45-22.53,21.96-24.95-42.43-8.28-29.61,7.67Zm12.77,15.89c-5.98,10.42-15.32,13.28-9.6,2.93-11.33,3.37-6.54-5.14,4.93-8.74,5.98-10.42,15.32-13.28,9.6-2.93,11.33-3.37,6.54,5.14-4.93,8.74Z"/></g></g><g><rect class="cls-8" x="165.67" y="81.98" width="5.37" height="173.91" transform="translate(-47.63 67.77) rotate(-20)"/><g><path class="cls-8" d="M141.63,95.54h0c-4.65,1.69-9.8-.71-11.49-5.36l-12.25-25.02c-1.69-4.65,3.48-10.81,8.13-12.5h0c4.65-1.69,12.57-.3,14.26,4.35l6.7,27.04c1.69,4.65-.71,9.8-5.36,11.49Z"/><path class="cls-19" d="M118.47,31.89c-7-19.23-54.62,27.2-21.9,21.35-32.72,5.85,4.17,39.5,16.96,15.47-12.79,24.03,57.63-1.6,32.38-11.79,25.24,10.18,31.87-39.31,3.05-22.76,28.82-16.55-37.5-21.51-30.5-2.28Z"/><path class="cls-4" d="M118.47,31.89c-7-19.23-54.62,27.2-21.9,21.35-32.72,5.85,4.17,39.5,16.96,15.47-12.79,24.03,57.63-1.6,32.38-11.79,25.24,10.18,31.87-39.31,3.05-22.76,28.82-16.55-37.5-21.51-30.5-2.28Z"/><path class="cls-22" d="M116.51,26.51c-7-19.23-54.62,27.2-21.9,21.35-32.72,5.85,4.17,39.5,16.96,15.47-12.79,24.03,57.63-1.6,32.38-11.79,25.24,10.18,31.87-39.31,3.05-22.76,28.82-16.55-37.5-21.51-30.5-2.28Zm6.97,19.15c-9.02,7.94-18.78,7.63-10.03-.32-11.81-.46-4.53-6.97,7.48-6.69,9.02-7.94,18.78-7.63,10.03,.32,11.81,.46,4.53,6.97-7.48,6.69Z"/><path class="cls-4" d="M116.51,26.51c-7-19.23-54.62,27.2-21.9,21.35-32.72,5.85,4.17,39.5,16.96,15.47-12.79,24.03,57.63-1.6,32.38-11.79,25.24,10.18,31.87-39.31,3.05-22.76,28.82-16.55-37.5-21.51-30.5-2.28Zm6.97,19.15c-9.02,7.94-18.78,7.63-10.03-.32-11.81-.46-4.53-6.97,7.48-6.69,9.02-7.94,18.78-7.63,10.03,.32,11.81,.46,4.53,6.97-7.48,6.69Z"/></g></g><g><path class="cls-8" d="M203.99,253.52l6.73-2.45c-10.03-27.55-22.88-50.29-38.2-67.6-15.51-17.52-29.08-24.35-35.79-26.86l-2.51,6.7c20.67,7.73,49.86,35.49,69.77,90.21Z"/><g><path class="cls-8" d="M151.61,169.91h0c2.74-4.59,1.24-10.53-3.35-13.26l-24.04-18.05c-4.59-2.74-12.16,1.5-14.9,6.09h0c-2.74,4.59-2.87,13.26,1.72,16l27.31,12.58c4.59,2.74,10.53,1.24,13.26-3.35Z"/><path class="cls-25" d="M91.36,174.65c5.91,26.47,31.41,13.19,36.42-18.95,25.9-19.68,25.46-48.43-.63-41.05-5.91-26.47-31.41-13.19-36.42,18.95-25.9,19.68-25.46,48.43,.63,41.05Z"/><path class="cls-4" d="M91.36,174.65c5.91,26.47,31.41,13.19,36.42-18.95,25.9-19.68,25.46-48.43-.63-41.05-5.91-26.47-31.41-13.19-36.42,18.95-25.9,19.68-25.46,48.43,.63,41.05Z"/><path class="cls-14" d="M86.77,171.91c5.91,26.47,31.41,13.19,36.42-18.95,25.9-19.68,25.46-48.43-.63-41.05-5.91-26.47-31.41-13.19-36.42,18.95-25.9,19.68-25.46,48.43,.63,41.05Z"/><path class="cls-4" d="M86.77,171.91c5.91,26.47,31.41,13.19,36.42-18.95,25.9-19.68,25.46-48.43-.63-41.05-5.91-26.47-31.41-13.19-36.42,18.95-25.9,19.68-25.46,48.43,.63,41.05Z"/><ellipse class="cls-6" cx="103.43" cy="141.18" rx="17.93" ry="6.85" transform="translate(-70.8 157.69) rotate(-59.19)"/></g></g><g><path class="cls-8" d="M189.01,243.69l6.94-1.75c-15.51-61.34-24.05-95.12-21.87-114.99l-7.11-.78c-2.32,21.15,6.33,55.39,22.04,117.53Z"/><g><path class="cls-8" d="M170.22,139.03h0c6.46,.3,11.93-4.7,12.23-11.15l5.52-35.95c.3-6.46-8.55-12.11-15.01-12.41h0c-6.46-.3-15.79,4.52-16.08,10.98l2.19,36.31c-.3,6.46,4.7,11.93,11.15,12.23Z"/><g><path class="cls-11" d="M174.02,52.67c1.63-27.97,57.49-6.26,23.94,9.31,33.55-15.56,45.59,28,5.16,18.67,40.43,9.33-.42,41.94-17.51,13.98,17.09,27.97-45.89,25.07-26.99-1.24-18.9,26.31-56.58-9.92-16.15-15.53-40.43,5.61-24.44-36.66,6.85-18.12-31.29-18.55,26.33-35.03,24.69-7.07Z"/><path class="cls-4" d="M174.02,52.67c1.63-27.97,57.49-6.26,23.94,9.31,33.55-15.56,45.59,28,5.16,18.67,40.43,9.33-.42,41.94-17.51,13.98,17.09,27.97-45.89,25.07-26.99-1.24-18.9,26.31-56.58-9.92-16.15-15.53-40.43,5.61-24.44-36.66,6.85-18.12-31.29-18.55,26.33-35.03,24.69-7.07Z"/></g><path class="cls-24" d="M174.5,46.02c1.27-27.55,57.13-5.84,23.94,9.31,33.19-15.15,45.23,28.42,5.16,18.67,40.07,9.75-.78,42.36-17.51,13.98,16.73,28.38-46.25,25.48-26.99-1.24-19.26,26.73-56.94-9.5-16.15-15.53-40.8,6.02-24.81-36.25,6.85-18.12-31.66-18.13,25.96-34.62,24.69-7.07Z"/><path class="cls-4" d="M174.5,46.02c1.27-27.55,57.13-5.84,23.94,9.31,33.19-15.15,45.23,28.42,5.16,18.67,40.07,9.75-.78,42.36-17.51,13.98,16.73,28.38-46.25,25.48-26.99-1.24-19.26,26.73-56.94-9.5-16.15-15.53-40.8,6.02-24.81-36.25,6.85-18.12-31.66-18.13,25.96-34.62,24.69-7.07Z"/><ellipse class="cls-3" cx="173.58" cy="65.97" rx="7.13" ry="14.85" transform="translate(99.69 236.33) rotate(-87.36)"/></g></g><g><path class="cls-8" d="M203,250.09l-5.04,1.84c-21.67-59.55-33.61-92.35-46.69-107.69l4.08-3.48c13.7,16.07,25.76,49.2,47.65,109.33Z"/><g><path class="cls-8" d="M160.27,151.53h0c-4.12,2.75-9.68,1.63-12.43-2.49l-17.82-21.41c-2.75-4.12,.82-11.32,4.94-14.07h0c4.12-2.75,12.14-3.27,14.89,.85l12.91,24.69c2.75,4.12,1.63,9.68-2.49,12.43Z"/><path class="cls-19" d="M122.71,95.17c-11.35-17.03-46.63,39.35-16.22,25.93-30.41,13.43,13.4,37.39,20.14,11.02-6.74,26.37,55.61-15.19,28.67-19.11,26.94,3.92,21.67-45.74-2.42-22.83,24.09-22.9-41.52-12.02-30.17,5Z"/><path class="cls-4" d="M122.71,95.17c-11.35-17.03-46.63,39.35-16.22,25.93-30.41,13.43,13.4,37.39,20.14,11.02-6.74,26.37,55.61-15.19,28.67-19.11,26.94,3.92,21.67-45.74-2.42-22.83,24.09-22.9-41.52-12.02-30.17,5Z"/><path class="cls-22" d="M119.53,90.41c-11.35-17.03-46.63,39.35-16.22,25.93-30.41,13.43,13.4,37.39,20.14,11.02-6.74,26.37,55.61-15.19,28.67-19.11,26.94,3.92,21.67-45.74-2.42-22.83,24.09-22.9-41.52-12.02-30.17,5Zm11.31,16.96c-6.88,9.85-16.44,11.86-9.82,2.07-11.59,2.35-6.05-5.7,5.68-8.27,6.88-9.85,16.44-11.86,9.82-2.07,11.59-2.35,6.05,5.7-5.68,8.27Z"/><path class="cls-4" d="M119.53,90.41c-11.35-17.03-46.63,39.35-16.22,25.93-30.41,13.43,13.4,37.39,20.14,11.02-6.74,26.37,55.61-15.19,28.67-19.11,26.94,3.92,21.67-45.74-2.42-22.83,24.09-22.9-41.52-12.02-30.17,5Zm11.31,16.96c-6.88,9.85-16.44,11.86-9.82,2.07-11.59,2.35-6.05-5.7,5.68-8.27,6.88-9.85,16.44-11.86,9.82-2.07,11.59-2.35,6.05,5.7-5.68,8.27Z"/></g></g><g><path class="cls-8" d="M199.13,256.42l-5.04,1.84c-9.99-27.44-14.74-53.02-14.14-76.01,.61-23.2,6.55-37.01,10.04-43.17l4.67,2.64c-10.96,19.39-15.55,59.7,4.47,114.7Z"/><g><path class="cls-8" d="M184.24,162.04h0c-4.63-1.76-6.95-6.94-5.18-11.57l7.11-26.93c1.76-4.63,9.7-5.89,14.33-4.13h0c4.63,1.76,9.71,8,7.94,12.62l-12.63,24.83c-1.76,4.63-6.94,6.95-11.57,5.18Z"/><path class="cls-19" d="M208.38,98.75c7.29-19.12-59.1-15.17-30.53,1.81-28.57-16.99-22.69,32.6,2.7,22.8-25.4,9.8,44.62,36.5,32.2,12.28,12.42,24.22,49.83-8.87,17.2-15.21,32.63,6.35-14.28-40.8-21.57-21.68Z"/><path class="cls-4" d="M208.38,98.75c7.29-19.12-59.1-15.17-30.53,1.81-28.57-16.99-22.69,32.6,2.7,22.8-25.4,9.8,44.62,36.5,32.2,12.28,12.42,24.22,49.83-8.87,17.2-15.21,32.63,6.35-14.28-40.8-21.57-21.68Z"/><path class="cls-22" d="M210.42,93.4c7.29-19.12-59.1-15.17-30.53,1.81-28.57-16.99-22.69,32.6,2.7,22.8-25.4,9.8,44.62,36.5,32.2,12.28,12.42,24.22,49.83-8.87,17.2-15.21,32.63,6.35-14.28-40.8-21.57-21.68Zm-7.26,19.05c-12.01,.1-19.2-6.52-7.38-6.8-8.63-8.08,1.14-8.24,10.03-.16,12.01-.1,19.2,6.52,7.38,6.8,8.63,8.08-1.14,8.24-10.03,.16Z"/><path class="cls-4" d="M210.42,93.4c7.29-19.12-59.1-15.17-30.53,1.81-28.57-16.99-22.69,32.6,2.7,22.8-25.4,9.8,44.62,36.5,32.2,12.28,12.42,24.22,49.83-8.87,17.2-15.21,32.63,6.35-14.28-40.8-21.57-21.68Zm-7.26,19.05c-12.01,.1-19.2-6.52-7.38-6.8-8.63-8.08,1.14-8.24,10.03-.16,12.01-.1,19.2,6.52,7.38,6.8,8.63,8.08-1.14,8.24-10.03,.16Z"/></g></g></g><g><path class="cls-17" d="M220.7,228.06c-3.87-2.37-8.36-3.26-12.73-4.26-4.2-.97-8.22-2.21-11.48-5.14-3.01-2.71-5.08-6.48-5.7-10.48-.23-1.44-1.3-2.2-2.44-2.36-.43-.58-1.08-1.01-1.75-1.13-1.58-.29-2.79,.78-3.19,2.21-2.26,8.05-2.98,16.54-.84,24.7,1.07,4.09,2.96,8.08,5.58,11.4,2.4,3.04,5.79,5.56,6.87,9.42,.4,1.43,2.2,2.12,3.52,1.64,1.49-.54,2.04-2.08,1.64-3.52-1.08-3.88-3.96-6.58-6.53-9.51-2.63-3-4.48-6.44-5.62-10.26-1.54-5.13-1.58-10.5-.78-15.76,2.81,6.09,8.09,10.72,14.74,12.85,4.23,1.35,8.75,1.82,12.88,3.44,3.51,1.38,7.54,3.89,8.2,7.93,.24,1.46,1.39,2.64,2.96,2.52,1.38-.11,2.76-1.49,2.52-2.96-.79-4.77-3.81-8.26-7.84-10.72Z"/><path class="cls-17" d="M215.94,187.43c-4.86-4.28-12.04-4.54-17.79-2-6.72,2.97-12.39,9.33-15.78,15.85-5.97-2.47-13.29-3.75-19.6-2.61-6.3,1.13-12.34,4.94-14.41,11.25-1.03,3.12-1.13,6.82,.34,9.83,1.44,2.94,4.33,5.13,7.28,6.42,5.67,2.49,12.54,2.22,18.09-.47,6.82-3.3,9.48-9.84,11.12-16.7,4.79,3.6,10.18,6.78,16.39,6.17,6.34-.62,12.47-4.51,15.9-9.84,1.7-2.64,2.78-5.65,2.88-8.81,.11-3.57-1.8-6.79-4.42-9.1Zm-41.85,31.88c-3.77,2.93-9.13,3.73-13.71,2.61-2.07-.51-4.07-1.54-5.6-3.03-1.74-1.69-1.96-4.09-1.47-6.38,.96-4.55,5.43-7.47,9.74-8.34,5.48-1.1,11.93,0,17.14,2.14-.96,4.69-2.18,9.95-6.1,13Zm40.72-24.01c.44,2.12-.48,4.53-1.48,6.36-2.16,3.98-6.53,6.97-10.93,7.87-5.78,1.18-10.77-2.4-15.1-5.81,2.34-4.46,5.94-8.75,10.04-11.58,3.74-2.57,8.81-3.96,13.09-1.85,1.92,.95,3.92,2.84,4.38,5.01Z"/><ellipse class="cls-17" cx="183.78" cy="205.17" rx="3.54" ry="5.55" transform="translate(-59.09 75.23) rotate(-20)"/></g></svg>