<?xml version="1.0" encoding="utf-8"?>
<!-- Generator: Adobe Illustrator 26.5.0, SVG Export Plug-In . SVG Version: 6.00 Build 0)  -->
<svg version="1.1" id="_레이어_1" xmlns="http://www.w3.org/2000/svg" xmlns:xlink="http://www.w3.org/1999/xlink" x="0px"
	 y="0px" viewBox="0 0 3324.6 3742.2" style="enable-background:new 0 0 3324.6 3742.2;" xml:space="preserve">
<style type="text/css">
	.st0{clip-path:url(#SVGID_00000136401775005845640660000008863608030447706786_);}
	.st1{fill:#F2F6FB;stroke:#335FA4;stroke-width:2;stroke-miterlimit:10;}
	.st2{clip-path:url(#SVGID_00000119824725618588560440000017146506949103568796_);}
	.st3{fill:#128584;stroke:#144E92;stroke-width:5;stroke-miterlimit:10;}
	.st4{fill:#C5A1C5;stroke:#144E92;stroke-width:5;stroke-miterlimit:10;}
	.st5{fill:#B44189;}
	.st6{fill:#144E92;}
	.st7{clip-path:url(#SVGID_00000136396996086862709720000007030735024723520950_);}
	.st8{fill:#DDC6DE;stroke:#144E92;stroke-width:3;stroke-miterlimit:10;}
	.st9{fill:none;stroke:#144E92;stroke-width:3;stroke-miterlimit:10;}
	.st10{clip-path:url(#SVGID_00000122709536756111655590000006245765307263323828_);}
	.st11{fill:#E1CF6B;}
	.st12{fill:none;stroke:#144E92;stroke-width:5;stroke-linecap:round;stroke-linejoin:round;}
	.st13{fill:#FAEFB1;}
	.st14{fill:#FAE4E4;}
	.st15{fill:#E38597;}
	.st16{fill:#D6251D;stroke:#144E92;stroke-width:5;stroke-miterlimit:10;}
	.st17{fill:#FAE4E4;stroke:#144E92;stroke-width:5;stroke-linecap:round;stroke-linejoin:round;}
	.st18{fill:#E16B0D;stroke:#144E92;stroke-width:5;stroke-miterlimit:10;}
	.st19{fill:#318FC7;stroke:#144E92;stroke-width:5;stroke-miterlimit:10;}
	.st20{fill:#3F4592;}
	.st21{clip-path:url(#SVGID_00000101085045509034189360000009438404014595114641_);}
	.st22{fill:#B8C4E1;stroke:#144E92;stroke-width:3;stroke-linecap:round;stroke-linejoin:round;}
	.st23{clip-path:url(#SVGID_00000066509767968711967640000001284586478694455972_);}
	.st24{fill:#699BBF;}
	.st25{fill:#AED3DB;}
	.st26{fill:#FAEFB1;stroke:#144E92;stroke-width:5;stroke-miterlimit:10;}
	.st27{fill:#98C3DF;stroke:#144E92;stroke-width:5;stroke-miterlimit:10;}
</style>
<g>
	<defs>
		<rect id="SVGID_1_" y="1001.3" width="4880.1" height="2740.9"/>
	</defs>
	<clipPath id="SVGID_00000005225263119415663940000015870403801885812151_">
		<use xlink:href="#SVGID_1_"  style="overflow:visible;"/>
	</clipPath>
	<g style="clip-path:url(#SVGID_00000005225263119415663940000015870403801885812151_);">
		<g>
			<path class="st1" d="M1041.5,3357.2c4.1,10.2,8.8,19.7,15.5,28.4s13.4,16.2,21.8,22.9c17.4,13.9,36.6,23.9,57.5,31.4
				c18.2,6.5,37.1,10.5,56.3,13.1c27.2,3.7,54.4,5.6,81.8,4.9c30.6-0.7,61.2-4.3,91.1-10.4c5.2-1.1,10.6-5.7,13.3-10.2
				c2.8-4.8,4-11.8,2.2-17.1c-3.9-12.1-15.1-18-27.3-15.5c-10.8,2.2-21.6,4-32.4,5.4l5.9-0.8c-42.7,5.6-86.1,5.6-128.8,0
				c2,0.3,3.9,0.5,5.9,0.8c-23-3.1-45.8-8.4-67.2-17.4c1.8,0.8,3.5,1.5,5.3,2.2c-12.4-5.3-24.3-11.8-35.1-20.1l4.5,3.5
				c-7.4-5.8-14.2-12.3-20-19.8c1.2,1.5,2.3,3,3.5,4.5c-5.1-6.6-9.3-13.8-12.6-21.5c0.8,1.8,1.5,3.5,2.2,5.3
				c-0.2-0.5-0.4-1.1-0.7-1.6c-2.2-5.6-4.8-10.1-10.2-13.3c-4.8-2.8-11.8-4-17.1-2.2c-5.4,1.7-10.6,5.1-13.3,10.2
				S1039.3,3351.8,1041.5,3357.2L1041.5,3357.2L1041.5,3357.2z"/>
			<path class="st1" d="M997.1,3115.3c-21.7-42-56.1-78.4-97.2-101.9c-15-8.6-31.1-15.5-47.7-20.4c14.8-35.3,20.9-74.4,18-112.6
				c-3.6-48-19.2-95.7-47.6-134.9c-15.1-21-32.7-38.9-53.5-54.3c-19.5-14.4-41.7-25.1-64.7-32.4c-46.3-14.8-97.3-14.9-144.2-2.7
				c-46.3,12-90.4,37-122.3,73c-4.8,5.4-9.3,11.2-13.7,17c-3.2,4.3-3.6,12.2-2.2,17.1c1.4,5.2,5.4,10.7,10.2,13.3
				c5.1,2.7,11.4,4.1,17.1,2.2c5.3-1.7,8.8-4.7,12.2-8.8c-0.3,0.4-0.5,0.7-0.8,1.1c10.1-13.1,21.9-24.8,34.8-35.1
				c14.2-10.7,29.7-19.6,46-26.7c18.3-7.4,37.5-12.6,57.1-15.5c19.5-2.4,39.2-2.4,58.7-0.1c17.5,2.6,34.7,7.2,51,13.8
				c14.1,6.2,27.4,13.9,39.7,23.2c12.5,10,23.8,21.4,33.7,33.9c10.9,14.5,20,30.2,27.2,46.8c7.6,18.6,12.8,38,15.8,57.8
				c2.3,19.1,2.4,38.5,0.1,57.6c-2.5,17-7,33.6-13.4,49.5c-3.2,7.3-6.8,14.4-10.8,21.2c-3.6,6.2-3.8,13.3-1.1,19.8
				c2.4,5.7,7.8,11.9,14.4,12.9c15.2,2.2,30,6.3,44.3,12.1c14.9,6.6,28.9,14.9,42,24.6c13.9,11.1,26.5,23.7,37.5,37.6
				c11,14.6,20.2,30.4,27.5,47.1c6.4,15.8,11,32.3,13.5,49.1c1.8,15.2,1.8,30.6,0,45.9c0,0.1,0,0.2,0,0.3c-0.9,6.1-1,11.6,2.2,17.1
				c2.7,4.6,8,9,13.3,10.2c5.7,1.3,12.1,1,17.1-2.2c4.5-2.9,9.3-7.7,10.2-13.3c2-12.7,3.2-25.4,3-38.3c-0.2-12.7-1.7-25.5-4-38
				C1016.2,3158.8,1007.9,3136.3,997.1,3115.3L997.1,3115.3z"/>
			<path class="st1" d="M1215.8,3241.8c14.9,0,29.2-13.1,28.5-28.5s-12.5-28.5-28.5-28.5c-14.9,0-29.2,13.1-28.5,28.5
				S1199.8,3241.8,1215.8,3241.8L1215.8,3241.8z"/>
		</g>
		<g>
			<defs>
				<polygon id="SVGID_00000070090377063522681270000018281191311491669895_" points="1027.3,3742.2 0,3742.2 0,2661.3 
					957.1,2661.3 				"/>
			</defs>
			<clipPath id="SVGID_00000014596402159890645060000006734239974970737589_">
				<use xlink:href="#SVGID_00000070090377063522681270000018281191311491669895_"  style="overflow:visible;"/>
			</clipPath>
			<g style="clip-path:url(#SVGID_00000014596402159890645060000006734239974970737589_);">
				<g>
					<g>
						<polyline class="st3" points="169.9,3553.6 364.8,3358.6 378.8,3372.6 180.7,3570.6 						"/>
						<g>
							<g>
								<g>
									
										<rect x="367.8" y="3173.4" transform="matrix(0.7071 -0.7071 0.7071 0.7071 -2115.0007 1256.9246)" class="st3" width="183.9" height="16.1"/>
									<g>
										<path class="st3" d="M496,3145L496,3145c-6-6-6-15.8,0-21.8l30.1-37.3c6-6,19.4-2.4,25.4,3.6l0,0c6,6,9.6,19.4,3.6,25.4
											l-37.3,30.1C511.8,3151,502,3151,496,3145z"/>
										<g>
											<circle class="st4" cx="566.2" cy="3075.1" r="59.4"/>
											<g>
												<path class="st5" d="M606.9,3064.6c-5.9,0-13.5-4-19.9-10.4c-4.5-4.5-7.9-9.7-9.4-14.5c-1.6-5-1.1-9,1.3-11.5
													c1.5-1.5,3.6-2.2,6.1-2.2c5.9,0,13.5,4,19.9,10.4c9.4,9.4,13,21.1,8.1,26C611.5,3063.8,609.4,3064.6,606.9,3064.6
													L606.9,3064.6z"/>
												<path class="st6" d="M585,3026.5c5.5,0,13,3.7,19.5,10.2c9.2,9.2,12.9,20.5,8.1,25.3c-1.4,1.4-3.4,2.1-5.8,2.1
													c-5.5,0-13-3.7-19.5-10.2c-9.2-9.2-12.9-20.5-8.1-25.3C580.7,3027.2,582.7,3026.5,585,3026.5 M585,3025.5L585,3025.5
													c-2.7,0-4.9,0.8-6.5,2.4c-5.2,5.2-1.6,16.9,8.1,26.7c6.5,6.5,14.2,10.5,20.2,10.5c2.7,0,4.9-0.8,6.5-2.4
													c2.6-2.6,3.1-6.8,1.4-12c-1.6-4.9-5-10.1-9.5-14.7C598.8,3029.5,591,3025.5,585,3025.5L585,3025.5L585,3025.5z"/>
											</g>
											<g>
												<g>
													<defs>
														
															<ellipse id="SVGID_00000029744898651068117370000005924084998223488701_" transform="matrix(0.7071 -0.7071 0.7071 0.7071 -1978.7833 1313.3531)" cx="596" cy="3045.3" rx="12.1" ry="23.6"/>
													</defs>
													<clipPath id="SVGID_00000070840872229963957860000005348271357900995748_">
														<use xlink:href="#SVGID_00000029744898651068117370000005924084998223488701_"  style="overflow:visible;"/>
													</clipPath>
													<g style="clip-path:url(#SVGID_00000070840872229963957860000005348271357900995748_);">
														
															<ellipse transform="matrix(0.7071 -0.7071 0.7071 0.7071 -1983.2948 1311.4774)" class="st8" cx="591.4" cy="3049.8" rx="12.1" ry="23.6"/>
													</g>
												</g>
												
													<ellipse transform="matrix(0.7071 -0.7071 0.7071 0.7071 -1978.7833 1313.3531)" class="st9" cx="596" cy="3045.3" rx="12.1" ry="23.6"/>
											</g>
										</g>
									</g>
								</g>
								<g>
									
										<rect x="464" y="3269.6" transform="matrix(0.7071 -0.7071 0.7071 0.7071 -2154.8323 1353.0847)" class="st3" width="183.9" height="16.1"/>
									<g>
										<path class="st3" d="M592.2,3241.2L592.2,3241.2c-6-6-6-15.8,0-21.8l30.1-37.3c6-6,19.4-2.4,25.4,3.6l0,0
											c6,6,9.6,19.4,3.6,25.4l-37.3,30.1C608,3247.2,598.2,3247.2,592.2,3241.2z"/>
										<g>
											<circle class="st4" cx="662.3" cy="3171.2" r="59.4"/>
											<g>
												<path class="st5" d="M703.1,3160.7c-5.9,0-13.5-4-19.9-10.4c-9.4-9.4-13-21.1-8.1-26c1.5-1.4,3.6-2.2,6.1-2.2
													c5.9,0,13.5,4,19.9,10.4c4.5,4.5,7.9,9.7,9.4,14.5c1.6,5,1.1,9-1.3,11.5C707.7,3159.9,705.6,3160.7,703.1,3160.7z"/>
												<path class="st6" d="M681.2,3122.7c5.5,0,13,3.7,19.5,10.2c9.2,9.2,12.9,20.5,8.1,25.3c-1.4,1.4-3.4,2.1-5.8,2.1
													c-5.5,0-13-3.7-19.5-10.2c-9.2-9.2-12.9-20.5-8.1-25.3C676.8,3123.3,678.8,3122.7,681.2,3122.7 M681.2,3121.7
													L681.2,3121.7c-2.7,0-4.9,0.8-6.5,2.4c-5.2,5.2-1.6,16.9,8.1,26.7c6.5,6.5,14.2,10.5,20.2,10.5c2.7,0,4.9-0.8,6.5-2.4
													c5.2-5.2,1.6-16.9-8.1-26.7C694.9,3125.7,687.2,3121.7,681.2,3121.7L681.2,3121.7z"/>
											</g>
											<g>
												<g>
													<defs>
														
															<ellipse id="SVGID_00000130641633365324132250000017532113205413451176_" transform="matrix(0.7071 -0.7071 0.7071 0.7071 -2018.6139 1409.5138)" cx="692.1" cy="3141.4" rx="12.1" ry="23.6"/>
													</defs>
													<clipPath id="SVGID_00000080909470931305201510000010532169482077834406_">
														<use xlink:href="#SVGID_00000130641633365324132250000017532113205413451176_"  style="overflow:visible;"/>
													</clipPath>
													<g style="clip-path:url(#SVGID_00000080909470931305201510000010532169482077834406_);">
														
															<ellipse transform="matrix(0.7071 -0.7071 0.7071 0.7071 -2023.1254 1407.6381)" class="st8" cx="687.6" cy="3145.9" rx="12.1" ry="23.6"/>
													</g>
												</g>
												
													<ellipse transform="matrix(0.7071 -0.7071 0.7071 0.7071 -2018.6139 1409.5138)" class="st9" cx="692.1" cy="3141.4" rx="12.1" ry="23.6"/>
											</g>
										</g>
									</g>
								</g>
							</g>
							<g>
								<path class="st3" d="M342.9,3394.5L342.9,3394.5c-9.8-9.8-9.8-25.6,0-35.4l48.9-60.6c9.8-9.8,31.5-3.9,41.3,5.8l0,0
									c9.8,9.8,15.6,31.5,5.8,41.3l-60.6,48.9C368.5,3404.3,352.6,3404.3,342.9,3394.5z"/>
								<g>
									<path class="st11" d="M476.7,3260.7c40.4-40.4-133.4-106.2-79.9-30.2c-53.5-75.9-95.1,57.2-19.2,61.2
										c-76-4,72.1,144,68.1,68.1c4,75.9,137.2,34.3,61.2-19.2C582.9,3394.1,517.1,3220.3,476.7,3260.7L476.7,3260.7z"/>
									<path class="st12" d="M476.7,3260.7c40.4-40.4-133.4-106.2-79.9-30.2c-53.5-75.9-95.1,57.2-19.2,61.2
										c-76-4,72.1,144,68.1,68.1c4,75.9,137.2,34.3,61.2-19.2C582.9,3394.1,517.1,3220.3,476.7,3260.7L476.7,3260.7z"/>
								</g>
								<g>
									<path class="st13" d="M488,3249.4c40.4-40.4-133.4-106.2-79.9-30.2c-53.5-75.9-95.1,57.2-19.2,61.2
										c-76-4,72.1,144,68.1,68.1c4,75.9,137.2,34.3,61.2-19.2C594.2,3382.8,528.5,3209,488,3249.4L488,3249.4z M447.8,3289.7
										c-30.8-13.5-41.5-38.6-11-25.8c-12.8-30.5,12.3-19.7,25.8,11c30.8,13.5,41.5,38.6,11,25.8
										C486.3,3331.2,461.2,3320.4,447.8,3289.7z"/>
									<path class="st12" d="M488,3249.4c40.4-40.4-133.4-106.2-79.9-30.2c-53.5-75.9-95.1,57.2-19.2,61.2
										c-76-4,72.1,144,68.1,68.1c4,75.9,137.2,34.3,61.2-19.2C594.2,3382.8,528.5,3209,488,3249.4L488,3249.4z M447.8,3289.7
										c-30.8-13.5-41.5-38.6-11-25.8c-12.8-30.5,12.3-19.7,25.8,11c30.8,13.5,41.5,38.6,11,25.8
										C486.3,3331.2,461.2,3320.4,447.8,3289.7z"/>
								</g>
							</g>
						</g>
						<g>
							<g>
								<path class="st11" d="M-120.6,3861.8C-161,3902.2,12.8,3968-40.6,3892c53.5,75.9,95.1-57.2,19.2-61.2
									c75.9,4-72.1-144-68.1-68.1c-4-75.9-137.2-34.3-61.2,19.2C-226.8,3728.4-161,3902.2-120.6,3861.8L-120.6,3861.8z"/>
								<path class="st12" d="M-120.6,3861.8C-161,3902.2,12.8,3968-40.6,3892c53.5,75.9,95.1-57.2,19.2-61.2
									c75.9,4-72.1-144-68.1-68.1c-4-75.9-137.2-34.3-61.2,19.2C-226.8,3728.4-161,3902.2-120.6,3861.8L-120.6,3861.8z"/>
							</g>
							<g>
								<path class="st11" d="M-131.9,3873.1c-40.4,40.4,133.4,106.2,79.9,30.2c53.5,75.9,95.1-57.2,19.2-61.2
									c75.9,4-72.1-144-68.1-68.1c-4-75.9-137.2-34.3-61.2,19.2C-238.1,3739.7-172.3,3913.5-131.9,3873.1L-131.9,3873.1z
									 M-91.6,3832.8c30.8,13.5,41.5,38.6,11,25.8c12.8,30.5-12.3,19.7-25.8-11c-30.8-13.5-41.5-38.6-11-25.8
									C-130.2,3791.3-105.1,3802.1-91.6,3832.8z"/>
								<path class="st12" d="M-131.9,3873.1c-40.4,40.4,133.4,106.2,79.9,30.2c53.5,75.9,95.1-57.2,19.2-61.2
									c75.9,4-72.1-144-68.1-68.1c-4-75.9-137.2-34.3-61.2,19.2C-238.1,3739.7-172.3,3913.5-131.9,3873.1L-131.9,3873.1z
									 M-91.6,3832.8c30.8,13.5,41.5,38.6,11,25.8c12.8,30.5-12.3,19.7-25.8-11c-30.8-13.5-41.5-38.6-11-25.8
									C-130.2,3791.3-105.1,3802.1-91.6,3832.8z"/>
							</g>
							<g>
								<path class="st13" d="M-131.9,3873.1c-40.4,40.4,133.4,106.2,79.9,30.2c53.5,75.9,95.1-57.2,19.2-61.2
									c75.9,4-72.1-144-68.1-68.1c-4-75.9-137.2-34.3-61.2,19.2C-238.1,3739.7-172.3,3913.5-131.9,3873.1L-131.9,3873.1z
									 M-91.6,3832.8c30.8,13.5,41.5,38.6,11,25.8c12.8,30.5-12.3,19.7-25.8-11c-30.8-13.5-41.5-38.6-11-25.8
									C-130.2,3791.3-105.1,3802.1-91.6,3832.8z"/>
								<path class="st12" d="M-131.9,3873.1c-40.4,40.4,133.4,106.2,79.9,30.2c53.5,75.9,95.1-57.2,19.2-61.2
									c75.9,4-72.1-144-68.1-68.1c-4-75.9-137.2-34.3-61.2,19.2C-238.1,3739.7-172.3,3913.5-131.9,3873.1L-131.9,3873.1z
									 M-91.6,3832.8c30.8,13.5,41.5,38.6,11,25.8c12.8,30.5-12.3,19.7-25.8-11c-30.8-13.5-41.5-38.6-11-25.8
									C-130.2,3791.3-105.1,3802.1-91.6,3832.8z"/>
							</g>
						</g>
					</g>
					<g>
						<g>
							<rect x="168.4" y="3022.9" class="st3" width="19.4" height="543.8"/>
							<g>
								<path class="st3" d="M178.1,3080.2L178.1,3080.2c-18.1,0-32.7-14.6-32.7-32.7l-10.8-101.1c0-18.1,25.4-32.7,43.5-32.7l0,0
									c18.1,0,43.5,14.6,43.5,32.7l-10.8,101.1C210.8,3065.5,196.1,3080.2,178.1,3080.2L178.1,3080.2z"/>
								<g>
									<path class="st14" d="M178.1,2838.1c0-77.1-158.7-23.6-68,22.9c-90.7-46.5-129.9,73.5-16.8,51.4
										c-113.1,22.1-3.3,118.3,47.1,41.3c-50.3,77.1,125.8,77.1,75.5,0c50.3,77.1,160.2-19.2,47.1-41.3
										c113.1,22.1,73.9-98-16.8-51.4C336.8,2814.4,178.1,2761,178.1,2838.1z"/>
									<path class="st12" d="M178.1,2838.1c0-77.1-158.7-23.6-68,22.9c-90.7-46.5-129.9,73.5-16.8,51.4
										c-113.1,22.1-3.3,118.3,47.1,41.3c-50.3,77.1,125.8,77.1,75.5,0c50.3,77.1,160.2-19.2,47.1-41.3
										c113.1,22.1,73.9-98-16.8-51.4C336.8,2814.4,178.1,2761,178.1,2838.1z"/>
								</g>
								<g>
									<path class="st15" d="M178.1,2820c0-77.1-158.7-23.6-68,22.9c-90.7-46.5-129.9,73.5-16.8,51.4
										c-113.1,22.1-3.3,118.3,47.1,41.3c-50.3,77.1,125.8,77.1,75.5,0c50.3,77.1,160.2-19.2,47.1-41.3
										c113.1,22.1,73.9-98-16.8-51.4C336.8,2796.4,178.1,2742.9,178.1,2820z"/>
									<path class="st12" d="M178.1,2820c0-77.1-158.7-23.6-68,22.9c-90.7-46.5-129.9,73.5-16.8,51.4
										c-113.1,22.1-3.3,118.3,47.1,41.3c-50.3,77.1,125.8,77.1,75.5,0c50.3,77.1,160.2-19.2,47.1-41.3
										c113.1,22.1,73.9-98-16.8-51.4C336.8,2796.4,178.1,2742.9,178.1,2820z"/>
								</g>
								<ellipse class="st16" cx="178.1" cy="2875.8" rx="41.5" ry="19.9"/>
							</g>
						</g>
						<g>
							<rect x="137.4" y="3551.6" class="st3" width="579" height="19.4"/>
							<g>
								<path class="st3" d="M659.1,3561.2L659.1,3561.2c0-18.1,14.6-32.7,32.7-32.7l101.1-10.8c18.1,0,32.7,25.4,32.7,43.5l0,0
									c0,18.1-14.6,43.5-32.7,43.5l-101.1-10.8C673.8,3593.9,659.1,3579.3,659.1,3561.2L659.1,3561.2z"/>
								<g>
									<path class="st14" d="M901.2,3561.2c77.1,0,23.6-158.7-22.9-68c46.5-90.7-73.5-129.9-51.5-16.8
										c-22.1-113.1-118.3-3.3-41.3,47.1c-77.1-50.3-77.1,125.8,0,75.5c-77.1,50.3,19.2,160.2,41.3,47.1
										c-22.1,113.1,98,73.9,51.5-16.8C924.9,3719.9,978.3,3561.2,901.2,3561.2z"/>
									<path class="st12" d="M901.2,3561.2c77.1,0,23.6-158.7-22.9-68c46.5-90.7-73.5-129.9-51.5-16.8
										c-22.1-113.1-118.3-3.3-41.3,47.1c-77.1-50.3-77.1,125.8,0,75.5c-77.1,50.3,19.2,160.2,41.3,47.1
										c-22.1,113.1,98,73.9,51.5-16.8C924.9,3719.9,978.3,3561.2,901.2,3561.2z"/>
								</g>
								<g>
									<path class="st15" d="M919.3,3561.2c77.1,0,23.6-158.7-22.9-68c46.5-90.7-73.5-129.9-51.5-16.8
										c-22.1-113.1-118.3-3.3-41.3,47.1c-77.1-50.3-77.1,125.8,0,75.5c-77.1,50.3,19.2,160.2,41.3,47.1
										c-22.1,113.1,98,73.9,51.5-16.8C942.9,3719.9,996.4,3561.2,919.3,3561.2z"/>
									<path class="st12" d="M919.3,3561.2c77.1,0,23.6-158.7-22.9-68c46.5-90.7-73.5-129.9-51.5-16.8
										c-22.1-113.1-118.3-3.3-41.3,47.1c-77.1-50.3-77.1,125.8,0,75.5c-77.1,50.3,19.2,160.2,41.3,47.1
										c-22.1,113.1,98,73.9,51.5-16.8C942.9,3719.9,996.4,3561.2,919.3,3561.2z"/>
								</g>
								<ellipse class="st16" cx="863.5" cy="3561.2" rx="19.9" ry="41.5"/>
							</g>
						</g>
					</g>
					<g>
						<g>
							<polyline class="st3" points="154.7,3600 345.1,3140.4 357.5,3145.6 165.3,3609.6 							"/>
							<g>
								<path class="st3" d="M340.3,3169.6L340.3,3169.6c12.7,5.3,27.3-0.8,32.6-13.5l37.1-68.1c5.3-12.7-8.4-30.5-21.1-35.7l0,0
									c-12.7-5.3-34.9-2.4-40.2,10.4l-21.9,74.3C321.5,3149.8,327.5,3164.3,340.3,3169.6L340.3,3169.6z"/>
								
									<ellipse transform="matrix(0.3827 -0.9239 0.9239 0.3827 -2601.4341 2247.7964)" class="st17" cx="381.3" cy="3070.6" rx="36.9" ry="71.5"/>
								
									<ellipse transform="matrix(0.3827 -0.9239 0.9239 0.3827 -2592.4771 2246.0122)" class="st17" cx="384.5" cy="3063" rx="36.9" ry="71.5"/>
								
									<ellipse transform="matrix(0.3827 -0.9239 0.9239 0.3827 -2592.4771 2246.0122)" class="st18" cx="384.5" cy="3063" rx="12.3" ry="35.3"/>
							</g>
						</g>
						<g>
							<polyline class="st3" points="160.5,3561.2 593.7,3381.8 598.9,3394.2 172.3,3570.9 							"/>
							<g>
								<path class="st3" d="M569.7,3399L569.7,3399c5.3,12.7,19.9,18.8,32.6,13.5l74.3-21.9c12.7-5.3,15.6-27.4,10.3-40.2l0,0
									c-5.3-12.7-23-26.4-35.7-21.1l-68.1,37.1C570.4,3371.7,564.4,3386.3,569.7,3399L569.7,3399z"/>
								
									<ellipse transform="matrix(0.9239 -0.3827 0.3827 0.9239 -1234.142 511.5255)" class="st17" cx="668.7" cy="3358" rx="36.9" ry="71.5"/>
								
									<ellipse transform="matrix(0.9239 -0.3827 0.3827 0.9239 -1232.3579 514.1965)" class="st17" cx="676.3" cy="3354.8" rx="36.9" ry="71.5"/>
								
									<ellipse transform="matrix(0.9239 -0.3827 0.3827 0.9239 -1232.3579 514.1965)" class="st18" cx="676.3" cy="3354.8" rx="12.3" ry="35.3"/>
							</g>
						</g>
					</g>
					<g>
						<rect x="230.9" y="3221.5" class="st3" width="11.8" height="146.8"/>
						<g>
							<path class="st3" d="M236.8,3243L236.8,3243c-7.3,0-13.3-5.9-13.3-13.3l-4.4-41.1c0-7.3,10.3-13.3,17.7-13.3l0,0
								c7.3,0,17.7,5.9,17.7,13.3l-4.4,41.1C250.1,3237,244.1,3243,236.8,3243z"/>
							<g>
								
									<ellipse transform="matrix(0.9997 -2.378929e-02 2.378929e-02 0.9997 -75.049 6.5269)" class="st19" cx="236.8" cy="3157.6" rx="51.2" ry="51.2"/>
								<g>
									<path class="st20" d="M236.9,3132.2c-11.5,0-20.9-4.9-20.9-10.9s9.4-10.9,20.9-10.9s20.9,4.9,20.9,10.9
										S248.4,3132.2,236.9,3132.2z"/>
									<path class="st6" d="M236.9,3110.8c11.2,0,20.4,4.7,20.4,10.4s-9.1,10.4-20.4,10.4s-20.4-4.7-20.4-10.4
										S225.6,3110.8,236.9,3110.8 M236.9,3109.8c-12,0-21.4,5-21.4,11.4s9.4,11.4,21.4,11.4s21.4-5,21.4-11.4
										S248.8,3109.8,236.9,3109.8L236.9,3109.8z"/>
								</g>
								<g>
									<g>
										<defs>
											<ellipse id="SVGID_00000042711191179614378550000004606573284719285647_" cx="236.9" cy="3121.3" rx="20.4" ry="10.4"/>
										</defs>
										<clipPath id="SVGID_00000130614565541427553010000012787839830353596596_">
											<use xlink:href="#SVGID_00000042711191179614378550000004606573284719285647_"  style="overflow:visible;"/>
										</clipPath>
										<g style="clip-path:url(#SVGID_00000130614565541427553010000012787839830353596596_);">
											<ellipse class="st22" cx="236.8" cy="3126.8" rx="20.3" ry="10.4"/>
										</g>
									</g>
									<ellipse class="st9" cx="236.9" cy="3121.3" rx="20.4" ry="10.4"/>
								</g>
							</g>
						</g>
					</g>
					<g>
						<rect x="371.1" y="3496.6" class="st3" width="146.8" height="11.8"/>
						<g>
							<path class="st3" d="M496.3,3502.5L496.3,3502.5c0,7.3,6,13.3,13.3,13.3l41.1,4.4c7.3,0,13.3-10.3,13.3-17.7l0,0
								c0-7.3-6-17.7-13.3-17.7l-41.1,4.4C502.3,3489.2,496.3,3495.2,496.3,3502.5z"/>
							<g>
								<circle class="st19" cx="581.7" cy="3502.5" r="51.2"/>
								<g>
									<path class="st20" d="M618,3523.3c-6,0-11-9.4-11-20.9s4.9-20.9,11-20.9s11,9.4,11,20.9S624.1,3523.3,618,3523.3z"/>
									<path class="st6" d="M618,3482.1c5.8,0,10.5,9.1,10.5,20.4s-4.7,20.4-10.5,20.4s-10.5-9.1-10.5-20.4
										S612.3,3482.1,618,3482.1 M618,3481.1c-6.4,0-11.5,9.4-11.5,21.4s5,21.4,11.5,21.4s11.5-9.4,11.5-21.4
										S624.5,3481.1,618,3481.1L618,3481.1z"/>
								</g>
								<g>
									<g>
										<defs>
											<ellipse id="SVGID_00000086684185874137776220000011637376650884586427_" cx="618" cy="3502.4" rx="10.5" ry="20.4"/>
										</defs>
										<clipPath id="SVGID_00000044142235879490086840000009174858114434120609_">
											<use xlink:href="#SVGID_00000086684185874137776220000011637376650884586427_"  style="overflow:visible;"/>
										</clipPath>
										<g style="clip-path:url(#SVGID_00000044142235879490086840000009174858114434120609_);">
											<ellipse class="st22" cx="612.5" cy="3502.5" rx="10.5" ry="20.4"/>
										</g>
									</g>
									<ellipse class="st9" cx="618" cy="3502.4" rx="10.5" ry="20.4"/>
								</g>
							</g>
						</g>
					</g>
					<g>
						<g>
							<path class="st3" d="M178.1,3507.1L178.1,3507.1c-14.9,0-27-12.1-27-27l-8.9-83.5c0-14.9,21-27,35.9-27l0,0
								c14.9,0,35.9,12.1,35.9,27l-8.9,83.5C205.1,3495,193,3507.1,178.1,3507.1z"/>
							<g>
								<path class="st24" d="M275.7,3369.2c55.1,52.1-13.3,94.3-97.6,60.3c-84.3,34-152.7-8.2-97.6-60.3
									c-55.1-52.1,13.3-94.3,97.6-60.3C262.4,3275,330.7,3317.2,275.7,3369.2z"/>
								<path class="st12" d="M275.7,3369.2c55.1,52.1-13.3,94.3-97.6,60.3c-84.3,34-152.7-8.2-97.6-60.3
									c-55.1-52.1,13.3-94.3,97.6-60.3C262.4,3275,330.7,3317.2,275.7,3369.2z"/>
							</g>
							<g>
								<path class="st25" d="M275.7,3354.3c55.1,52.1-13.3,94.3-97.6,60.3c-84.3,34-152.7-8.2-97.6-60.3
									c-55.1-52.1,13.3-94.3,97.6-60.3C262.4,3260.1,330.7,3302.3,275.7,3354.3z"/>
								<path class="st12" d="M275.7,3354.3c55.1,52.1-13.3,94.3-97.6,60.3c-84.3,34-152.7-8.2-97.6-60.3
									c-55.1-52.1,13.3-94.3,97.6-60.3C262.4,3260.1,330.7,3302.3,275.7,3354.3z"/>
							</g>
							<ellipse class="st26" cx="178.1" cy="3350.3" rx="50.1" ry="19.1"/>
						</g>
						<g>
							<path class="st3" d="M233.5,3561.2L233.5,3561.2c0-14.9,12.1-27,27-27l83.5-8.9c14.9,0,27,21,27,35.9l0,0
								c0,14.9-12.1,35.9-27,35.9l-83.5-8.9C245.6,3588.3,233.5,3576.2,233.5,3561.2L233.5,3561.2z"/>
							<g>
								<path class="st24" d="M371.4,3658.8c-52.1,55.1-94.3-13.3-60.3-97.6c-34-84.3,8.2-152.7,60.3-97.6
									c52.1-55.1,94.3,13.3,60.3,97.6C465.6,3645.5,423.4,3713.9,371.4,3658.8z"/>
								<path class="st12" d="M371.4,3658.8c-52.1,55.1-94.3-13.3-60.3-97.6c-34-84.3,8.2-152.7,60.3-97.6
									c52.1-55.1,94.3,13.3,60.3,97.6C465.6,3645.5,423.4,3713.9,371.4,3658.8z"/>
							</g>
							<g>
								<path class="st25" d="M386.3,3658.8c-52.1,55.1-94.3-13.3-60.3-97.6c-34-84.3,8.2-152.7,60.3-97.6
									c52.1-55.1,94.3,13.3,60.3,97.6C480.5,3645.5,438.3,3713.9,386.3,3658.8z"/>
								<path class="st12" d="M386.3,3658.8c-52.1,55.1-94.3-13.3-60.3-97.6c-34-84.3,8.2-152.7,60.3-97.6
									c52.1-55.1,94.3,13.3,60.3,97.6C480.5,3645.5,438.3,3713.9,386.3,3658.8z"/>
							</g>
							<ellipse class="st26" cx="390.3" cy="3561.2" rx="19.1" ry="50.1"/>
						</g>
					</g>
					<g>
						<g>
							<path class="st13" d="M247.1,3561.2c18.8,48.6-20.5,87.9-69.1,69.1c-48.6,18.8-87.9-20.5-69.1-69.1
								c-18.8-48.6,20.5-87.9,69.1-69.1C226.6,3473.3,266,3512.7,247.1,3561.2L247.1,3561.2z"/>
							<path class="st12" d="M247.1,3561.2c18.8,48.6-20.5,87.9-69.1,69.1c-48.6,18.8-87.9-20.5-69.1-69.1
								c-18.8-48.6,20.5-87.9,69.1-69.1C226.6,3473.3,266,3512.7,247.1,3561.2L247.1,3561.2z"/>
						</g>
						<circle class="st27" cx="178.1" cy="3561.2" r="22.6"/>
					</g>
				</g>
			</g>
		</g>
	</g>
</g>
</svg>
