<?xml version="1.0" encoding="utf-8"?>
<!-- Generator: Adobe Illustrator 26.5.0, SVG Export Plug-In . SVG Version: 6.00 Build 0)  -->
<svg version="1.1" id="_레이어_1" xmlns="http://www.w3.org/2000/svg" xmlns:xlink="http://www.w3.org/1999/xlink" x="0px"
	 y="0px" viewBox="0 0 3332.1 3750.6" style="enable-background:new 0 0 3332.1 3750.6;" xml:space="preserve">
<style type="text/css">
	.st0{clip-path:url(#SVGID_00000068678102663109890310000010944886215429437083_);}
	.st1{fill:#F2F6FB;stroke:#335FA4;stroke-width:2;stroke-miterlimit:10;}
	.st2{clip-path:url(#SVGID_00000175314662801978288200000003207510462924708239_);}
	.st3{fill:#128584;stroke:#144E92;stroke-width:5;stroke-miterlimit:10;}
	.st4{fill:#C5A1C5;stroke:#144E92;stroke-width:5;stroke-miterlimit:10;}
	.st5{fill:#B44189;}
	.st6{fill:#144E92;}
	.st7{clip-path:url(#SVGID_00000168827605690843375740000011494410981700531592_);}
	.st8{fill:#DDC6DE;stroke:#144E92;stroke-width:3;stroke-miterlimit:10;}
	.st9{fill:none;stroke:#144E92;stroke-width:3;stroke-miterlimit:10;}
	.st10{clip-path:url(#SVGID_00000018949300915974186400000000246250172577284779_);}
	.st11{fill:#E1CF6B;}
	.st12{fill:none;stroke:#144E92;stroke-width:5;stroke-linecap:round;stroke-linejoin:round;}
	.st13{fill:#FAEFB1;}
	.st14{fill:#FAE4E4;}
	.st15{fill:#E38597;}
	.st16{fill:#D6251D;stroke:#144E92;stroke-width:5;stroke-miterlimit:10;}
	.st17{fill:#FAE4E4;stroke:#144E92;stroke-width:5;stroke-linecap:round;stroke-linejoin:round;}
	.st18{fill:#E16B0D;stroke:#144E92;stroke-width:5;stroke-miterlimit:10;}
	.st19{fill:#318FC7;stroke:#144E92;stroke-width:5;stroke-miterlimit:10;}
	.st20{fill:#3F4592;}
	.st21{clip-path:url(#SVGID_00000081617966665137117940000004067229793946551967_);}
	.st22{fill:#B8C4E1;stroke:#144E92;stroke-width:3;stroke-linecap:round;stroke-linejoin:round;}
	.st23{clip-path:url(#SVGID_00000142147226703701639130000017670505855711348137_);}
	.st24{fill:#699BBF;}
	.st25{fill:#AED3DB;}
	.st26{fill:#FAEFB1;stroke:#144E92;stroke-width:5;stroke-miterlimit:10;}
	.st27{fill:#98C3DF;stroke:#144E92;stroke-width:5;stroke-miterlimit:10;}
</style>
<g>
	<defs>
		<rect id="SVGID_1_" x="-1548.1" y="1009.7" width="4880.1" height="2740.9"/>
	</defs>
	<clipPath id="SVGID_00000165940846617902531530000017432913319114424979_">
		<use xlink:href="#SVGID_1_"  style="overflow:visible;"/>
	</clipPath>
	<g style="clip-path:url(#SVGID_00000165940846617902531530000017432913319114424979_);">
		<g>
			<path class="st1" d="M2544.6,2955.3c-18.8-25.5-35-52.9-47.4-82.1c0.8,1.8,1.5,3.5,2.2,5.3c-10.3-24.7-17.9-50.5-21.4-77
				c0.3,2,0.5,3.9,0.8,5.9c-2.7-20.8-3-41.9-0.2-62.7l-0.8,5.9c2.7-19.3,7.8-38.1,15.4-56c-0.8,1.8-1.5,3.5-2.2,5.3
				c6.7-15.7,15.2-30.6,25.6-44.2c-1.2,1.5-2.3,3-3.5,4.5c9.2-11.9,19.8-22.7,31.8-32c-1.5,1.2-3,2.3-4.5,3.5
				c10.6-8.1,22.1-14.9,34.3-20.1c-1.8,0.8-3.5,1.5-5.3,2.2c9.7-4,19.7-7,30.1-8.4c-2,0.3-3.9,0.5-5.9,0.8
				c8.1-1.1,16.2-1.2,24.3-0.2c-2-0.3-3.9-0.5-5.9-0.8c6.4,0.9,12.7,2.5,18.7,5l-5.3-2.2c5.9,2.5,11.4,5.7,16.5,9.6l-4.5-3.5
				c4.3,3.4,8.1,7.2,11.5,11.5c-1.2-1.5-2.3-3-3.5-4.5c2.9,3.8,5.3,7.9,7.3,12.3c-0.8-1.8-1.5-3.5-2.2-5.3c1.4,3.3,2.5,6.7,3.2,10.3
				c2.4,11.4,16.4,19,27.3,15.5c12-3.9,18-15.1,15.5-27.3c-4.5-21.5-19.5-39.6-37.7-51.2c-18.7-11.9-42.1-16.3-64-13.7
				c-23.4,2.9-45.5,11-65.3,23.8c-15.9,10.2-30.5,22.8-42.6,37.3c-24.7,29.4-41.8,65-49.4,102.7c-8.3,41.5-5.6,84.2,5.5,125
				c11.2,41,30.6,80,54.6,115c2.9,4.2,5.8,8.3,8.9,12.4c3.5,4.8,7.3,8.6,13.3,10.2c5.3,1.5,12.4,0.8,17.1-2.2s8.9-7.6,10.2-13.3
				C2548.2,2966.7,2548.1,2960,2544.6,2955.3L2544.6,2955.3L2544.6,2955.3z"/>
			<path class="st1" d="M2375.2,2978.6c-38.2-23.2-84.6-31.2-128.5-23.9c-18.9,3.1-38.1,10.1-53.6,21.4
				c-18,13.1-31.6,30.1-38.5,51.4c-5,15.3-5.8,31.6-3.8,47.7c-46.4,1.4-90.7,30.3-122.4,62.7c-9.3,9.5-17.8,19.8-25.6,30.6
				c-5.5,7.6-10.6,15.7-14.4,24.3c-12.4,28.1-20,58.8-24.2,89.2c-4.1,30-5.3,60-1.7,90.1c3.4,28.6,9.6,56.6,20,83.5
				c20.1,52.1,51.8,99.1,93,136.8c41.6,38.1,91.5,66.6,145.4,83.2c6.2,1.9,12.5,3.7,18.8,5.2c11.2,2.8,24.6-3.6,27.3-15.5
				c2.6-11.5-3.4-24.3-15.5-27.3c-17.1-4.3-33.9-9.9-50.2-16.6c-26.4-11.5-51.3-26-74.2-43.4c-21.9-17.2-41.7-36.9-58.9-58.8
				c-16-21.2-29.5-44.2-40.1-68.5c-10.1-24.5-17.1-50.1-20.9-76.3c-3.4-27.5-3.3-55.4,0.2-82.9c3.8-26.5,10.2-53.3,20.2-78.1
				c4.1-8.9,9.5-17.1,15.4-24.9c11.7-14.8,25.1-28.2,39.8-39.9c11.2-8.4,23.2-15.7,35.9-21.4c8-3.1,16.2-5.6,24.7-7
				c6.5-0.7,13.1-0.8,19.6-0.1c3.6,0.6,7.1,1.4,10.6,2.4c15.6,4.6,32.8-11.2,27.3-27.3c-2.7-7.9-4.8-15.9-6.1-24.2
				c-0.7-6.9-0.8-13.8-0.1-20.7c0.9-4.8,2.1-9.6,3.9-14.2c1.9-3.9,4.1-7.7,6.6-11.3c3.1-3.8,6.6-7.2,10.4-10.3
				c5.5-4,11.4-7.3,17.6-10.1c8.6-3.3,17.6-5.6,26.7-7.1c12.5-1.4,25.1-1.3,37.5,0.1c12.9,2,25.4,5.4,37.5,10.2
				c6.2,2.7,12.1,5.8,17.9,9.3c9.9,6.1,24.8,2.5,30.4-8C2388.9,2998.1,2385.8,2985,2375.2,2978.6L2375.2,2978.6z"/>
			<path class="st1" d="M2762.6,2725.5c41.6-2.7,81.8-13.8,119.2-32.3c35.5-17.5,68.1-42.2,94.5-71.6c15.4-17.2,29.1-36.1,40.3-56.3
				c5.6-10.2,2.8-24.7-8-30.4c-10.4-5.5-24.4-2.9-30.4,8c-6.9,12.5-14.7,24.4-23.4,35.7c1.2-1.5,2.3-3,3.5-4.5
				c-15.1,19.6-32.8,37.1-52.3,52.2c1.5-1.2,3-2.3,4.5-3.5c-20.6,15.9-43.2,29.1-67.1,39.3l5.3-2.2c-23.4,9.8-47.9,16.6-73.1,20.1
				l5.9-0.8c-6.3,0.8-12.6,1.4-18.9,1.9c-5.9,0.4-11.4,2.2-15.7,6.5c-3.8,3.9-6.8,10.2-6.5,15.7
				C2740.9,2714.7,2750.2,2726.3,2762.6,2725.5L2762.6,2725.5L2762.6,2725.5z"/>
			<path class="st1" d="M2302.2,2829.8c14.9,0,29.2-13.1,28.5-28.5c-0.7-15.4-12.5-28.5-28.5-28.5c-14.9,0-29.2,13.1-28.5,28.5
				C2274.3,2816.7,2286.2,2829.8,2302.2,2829.8L2302.2,2829.8z"/>
		</g>
		<g>
			<defs>
				<polygon id="SVGID_00000006693595401446591950000012400013970632540559_" points="2319.5,3750.6 3332.1,3750.6 3332.1,2669.7 
					2374.9,2669.7 				"/>
			</defs>
			<clipPath id="SVGID_00000106836030465023177690000010282887706711926949_">
				<use xlink:href="#SVGID_00000006693595401446591950000012400013970632540559_"  style="overflow:visible;"/>
			</clipPath>
			<g style="clip-path:url(#SVGID_00000106836030465023177690000010282887706711926949_);">
				<g>
					<g>
						<polyline class="st3" points="3162.2,3562 2967.2,3367.1 2953.3,3381 3151.4,3579.1 						"/>
						<g>
							<g>
								<g>
									
										<rect x="2864.2" y="3098" transform="matrix(0.7071 -0.7071 0.7071 0.7071 -1414.3472 2965.3381)" class="st3" width="16.1" height="183.9"/>
									<g>
										<path class="st3" d="M2836,3153.5L2836,3153.5c6-6,6-15.8,0-21.8l-30.1-37.3c-6-6-19.4-2.4-25.4,3.6l0,0
											c-6,6-9.6,19.4-3.6,25.4l37.3,30.1C2820.2,3159.5,2830,3159.5,2836,3153.5L2836,3153.5z"/>
										<g>
											<circle class="st4" cx="2765.9" cy="3083.5" r="59.4"/>
											<g>
												<path class="st5" d="M2725.1,3073c5.9,0,13.5-4,19.9-10.4c4.5-4.5,7.9-9.7,9.4-14.5c1.6-5,1.1-9-1.3-11.5
													c-1.4-1.5-3.6-2.2-6.1-2.2c-5.9,0-13.5,4-19.9,10.3c-9.4,9.4-13,21.1-8.1,26C2720.5,3072.2,2722.6,3073,2725.1,3073
													L2725.1,3073z"/>
												<path class="st6" d="M2747,3034.9c2.4,0,4.3,0.7,5.8,2.1c4.7,4.7,1.1,16.1-8.1,25.3c-6.5,6.5-14,10.2-19.5,10.2
													c-2.4,0-4.3-0.7-5.8-2.1c-4.7-4.7-1.1-16.1,8.1-25.3C2734,3038.7,2741.5,3034.9,2747,3034.9 M2747,3033.9
													c-6,0-13.8,4-20.2,10.5c-4.6,4.6-8,9.8-9.5,14.7c-1.6,5.1-1.1,9.4,1.4,12c1.6,1.6,3.8,2.4,6.5,2.4c6,0,13.8-4,20.2-10.5
													c9.8-9.8,13.3-21.5,8.1-26.7C2751.9,3034.8,2749.7,3033.9,2747,3033.9L2747,3033.9L2747,3033.9z"/>
											</g>
											<g>
												<g>
													<defs>
														
															<ellipse id="SVGID_00000082340555877282389870000001288166978817720225_" transform="matrix(0.7071 -0.7071 0.7071 0.7071 -1357.9227 2829.1187)" cx="2736.1" cy="3053.7" rx="23.6" ry="12.1"/>
													</defs>
													<clipPath id="SVGID_00000067206053260058649070000011512937392651850659_">
														<use xlink:href="#SVGID_00000082340555877282389870000001288166978817720225_"  style="overflow:visible;"/>
													</clipPath>
													<g style="clip-path:url(#SVGID_00000067206053260058649070000011512937392651850659_);">
														
															<ellipse transform="matrix(0.7071 -0.7071 0.7071 0.7071 -1359.7913 2833.6272)" class="st8" cx="2740.6" cy="3058.2" rx="23.6" ry="12.1"/>
													</g>
												</g>
												
													<ellipse transform="matrix(0.7071 -0.7071 0.7071 0.7071 -1357.9227 2829.1187)" class="st9" cx="2736.1" cy="3053.7" rx="23.6" ry="12.1"/>
											</g>
										</g>
									</g>
								</g>
								<g>
									
										<rect x="2768.1" y="3194.2" transform="matrix(0.7071 -0.7071 0.7071 0.7071 -1510.4994 2925.5039)" class="st3" width="16.1" height="183.9"/>
									<g>
										<path class="st3" d="M2739.9,3249.6L2739.9,3249.6c6-6,6-15.8,0-21.8l-30.1-37.3c-6-6-19.4-2.4-25.4,3.6l0,0
											c-6,6-9.6,19.4-3.6,25.4l37.3,30.1C2724.1,3255.6,2733.9,3255.6,2739.9,3249.6L2739.9,3249.6z"/>
										<g>
											<circle class="st4" cx="2669.7" cy="3179.7" r="59.4"/>
											<g>
												<path class="st5" d="M2629,3169.1c5.9,0,13.5-4,19.9-10.4c9.4-9.4,13.1-21.1,8.1-26c-1.4-1.4-3.6-2.2-6.1-2.2
													c-5.9,0-13.5,4-19.9,10.4c-4.5,4.5-7.9,9.7-9.4,14.5c-1.6,5-1.1,9,1.3,11.5C2624.3,3168.4,2626.4,3169.1,2629,3169.1z"
													/>
												<path class="st6" d="M2650.9,3131.1c2.3,0,4.3,0.7,5.8,2.1c4.7,4.7,1.1,16.1-8.1,25.3c-6.5,6.5-14,10.2-19.5,10.2
													c-2.4,0-4.3-0.7-5.8-2.1c-4.7-4.7-1.1-16.1,8.1-25.3C2637.8,3134.8,2645.3,3131.1,2650.9,3131.1 M2650.9,3130.1
													c-6,0-13.8,4-20.2,10.5c-9.8,9.8-13.3,21.5-8.1,26.7c1.6,1.6,3.8,2.4,6.4,2.4c6,0,13.8-4,20.2-10.5
													c9.8-9.8,13.3-21.5,8.1-26.7C2655.8,3130.9,2653.5,3130.1,2650.9,3130.1L2650.9,3130.1z"/>
											</g>
											<g>
												<g>
													<defs>
														
															<ellipse id="SVGID_00000133529966292856165460000002645385293164370606_" transform="matrix(0.7071 -0.7071 0.7071 0.7071 -1454.0831 2789.2881)" cx="2639.9" cy="3149.9" rx="23.6" ry="12.1"/>
													</defs>
													<clipPath id="SVGID_00000110464920436844806020000014366040586134894778_">
														<use xlink:href="#SVGID_00000133529966292856165460000002645385293164370606_"  style="overflow:visible;"/>
													</clipPath>
													<g style="clip-path:url(#SVGID_00000110464920436844806020000014366040586134894778_);">
														
															<ellipse transform="matrix(0.7071 -0.7071 0.7071 0.7071 -1455.9517 2793.7969)" class="st8" cx="2644.4" cy="3154.4" rx="23.6" ry="12.1"/>
													</g>
												</g>
												
													<ellipse transform="matrix(0.7071 -0.7071 0.7071 0.7071 -1454.0831 2789.2881)" class="st9" cx="2639.9" cy="3149.9" rx="23.6" ry="12.1"/>
											</g>
										</g>
									</g>
								</g>
							</g>
							<g>
								<path class="st3" d="M2989.2,3403L2989.2,3403c9.8-9.8,9.8-25.6,0-35.4l-48.9-60.6c-9.8-9.8-31.5-3.9-41.3,5.8l0,0
									c-9.8,9.8-15.6,31.5-5.8,41.3l60.6,48.9C2963.6,3412.7,2979.4,3412.7,2989.2,3403z"/>
								<g>
									<path class="st11" d="M2855.4,3269.1c-40.4-40.4,133.4-106.2,79.9-30.2c53.4-75.9,95.1,57.2,19.2,61.2
										c75.9-4-72.1,144-68.1,68.1c-4,75.9-137.2,34.3-61.2-19.2C2749.2,3402.5,2814.9,3228.7,2855.4,3269.1L2855.4,3269.1z"/>
									<path class="st12" d="M2855.4,3269.1c-40.4-40.4,133.4-106.2,79.9-30.2c53.4-75.9,95.1,57.2,19.2,61.2
										c75.9-4-72.1,144-68.1,68.1c-4,75.9-137.2,34.3-61.2-19.2C2749.2,3402.5,2814.9,3228.7,2855.4,3269.1L2855.4,3269.1z"/>
								</g>
								<g>
									<path class="st13" d="M2813.8,3337.7c-75.9,53.4,57.2,95.1,61.2,19.2c-4,75.9,144-72.1,68.1-68.1
										c75.9-4,34.3-137.2-19.2-61.2c53.5-75.9-120.3-10.2-79.9,30.2C2803.6,3217.4,2737.8,3391.2,2813.8,3337.7L2813.8,3337.7z
										 M2858.5,3309.1c-30.5,12.8-19.7-12.3,11-25.8c13.5-30.8,38.6-41.5,25.8-11c30.5-12.8,19.7,12.3-11,25.8
										C2870.9,3328.8,2845.8,3339.6,2858.5,3309.1z"/>
									<path class="st12" d="M2813.8,3337.7c-75.9,53.4,57.2,95.1,61.2,19.2c-4,75.9,144-72.1,68.1-68.1
										c75.9-4,34.3-137.2-19.2-61.2c53.5-75.9-120.3-10.2-79.9,30.2C2803.6,3217.4,2737.8,3391.2,2813.8,3337.7L2813.8,3337.7z
										 M2858.5,3309.1c-30.5,12.8-19.7-12.3,11-25.8c13.5-30.8,38.6-41.5,25.8-11c30.5-12.8,19.7,12.3-11,25.8
										C2870.9,3328.8,2845.8,3339.6,2858.5,3309.1z"/>
								</g>
							</g>
						</g>
						<g>
							<g>
								<path class="st11" d="M3452.6,3870.2c40.4,40.4-133.4,106.2-79.9,30.2c-53.4,75.9-95.1-57.2-19.2-61.2
									c-75.9,4,72.1-144,68.1-68.1c4-75.9,137.2-34.3,61.2,19.2C3558.8,3736.8,3493.1,3910.6,3452.6,3870.2L3452.6,3870.2z"/>
								<path class="st12" d="M3452.6,3870.2c40.4,40.4-133.4,106.2-79.9,30.2c-53.4,75.9-95.1-57.2-19.2-61.2
									c-75.9,4,72.1-144,68.1-68.1c4-75.9,137.2-34.3,61.2,19.2C3558.8,3736.8,3493.1,3910.6,3452.6,3870.2L3452.6,3870.2z"/>
							</g>
							<g>
								<path class="st11" d="M3494.2,3801.6c75.9-53.4-57.2-95.1-61.2-19.2c4-75.9-144,72.1-68.1,68.1
									c-75.9,4-34.3,137.2,19.2,61.2c-53.4,75.9,120.4,10.2,79.9-30.2C3504.4,3921.9,3570.1,3748.1,3494.2,3801.6L3494.2,3801.6z
									 M3449.4,3830.2c30.5-12.8,19.7,12.3-11,25.8c-13.5,30.8-38.6,41.5-25.8,11c-30.5,12.8-19.7-12.3,11-25.8
									C3437.1,3810.5,3462.2,3799.7,3449.4,3830.2z"/>
								<path class="st12" d="M3494.2,3801.6c75.9-53.4-57.2-95.1-61.2-19.2c4-75.9-144,72.1-68.1,68.1
									c-75.9,4-34.3,137.2,19.2,61.2c-53.4,75.9,120.4,10.2,79.9-30.2C3504.4,3921.9,3570.1,3748.1,3494.2,3801.6L3494.2,3801.6z
									 M3449.4,3830.2c30.5-12.8,19.7,12.3-11,25.8c-13.5,30.8-38.6,41.5-25.8,11c-30.5,12.8-19.7-12.3,11-25.8
									C3437.1,3810.5,3462.2,3799.7,3449.4,3830.2z"/>
							</g>
							<g>
								<path class="st13" d="M3494.2,3801.6c75.9-53.4-57.2-95.1-61.2-19.2c4-75.9-144,72.1-68.1,68.1
									c-75.9,4-34.3,137.2,19.2,61.2c-53.4,75.9,120.4,10.2,79.9-30.2C3504.4,3921.9,3570.1,3748.1,3494.2,3801.6L3494.2,3801.6z
									 M3449.4,3830.2c30.5-12.8,19.7,12.3-11,25.8c-13.5,30.8-38.6,41.5-25.8,11c-30.5,12.8-19.7-12.3,11-25.8
									C3437.1,3810.5,3462.2,3799.7,3449.4,3830.2z"/>
								<path class="st12" d="M3494.2,3801.6c75.9-53.4-57.2-95.1-61.2-19.2c4-75.9-144,72.1-68.1,68.1
									c-75.9,4-34.3,137.2,19.2,61.2c-53.4,75.9,120.4,10.2,79.9-30.2C3504.4,3921.9,3570.1,3748.1,3494.2,3801.6L3494.2,3801.6z
									 M3449.4,3830.2c30.5-12.8,19.7,12.3-11,25.8c-13.5,30.8-38.6,41.5-25.8,11c-30.5,12.8-19.7-12.3,11-25.8
									C3437.1,3810.5,3462.2,3799.7,3449.4,3830.2z"/>
							</g>
						</g>
					</g>
					<g>
						<g>
							<rect x="3144.3" y="3031.3" class="st3" width="19.4" height="543.8"/>
							<g>
								<path class="st3" d="M3154,3088.6L3154,3088.6c18.1,0,32.7-14.6,32.7-32.7l10.8-101.1c0-18.1-25.4-32.7-43.5-32.7l0,0
									c-18.1,0-43.5,14.6-43.5,32.7l10.8,101.1C3121.3,3074,3135.9,3088.6,3154,3088.6L3154,3088.6z"/>
								<g>
									<path class="st14" d="M3154,2846.5c0-77.1,158.7-23.6,68,22.9c90.7-46.5,129.9,73.5,16.8,51.4
										c113.1,22.1,3.3,118.3-47.1,41.3c50.3,77.1-125.8,77.1-75.5,0c-50.3,77.1-160.2-19.2-47.1-41.3
										c-113.1,22.1-73.9-98,16.8-51.4C2995.3,2822.9,3154,2769.4,3154,2846.5z"/>
									<path class="st12" d="M3154,2846.5c0-77.1,158.7-23.6,68,22.9c90.7-46.5,129.9,73.5,16.8,51.4
										c113.1,22.1,3.3,118.3-47.1,41.3c50.3,77.1-125.8,77.1-75.5,0c-50.3,77.1-160.2-19.2-47.1-41.3
										c-113.1,22.1-73.9-98,16.8-51.4C2995.3,2822.9,3154,2769.4,3154,2846.5z"/>
								</g>
								<g>
									<path class="st15" d="M3154,2828.4c0-77.1,158.7-23.6,68,22.9c90.7-46.5,129.9,73.5,16.8,51.4
										c113.1,22.1,3.3,118.3-47.1,41.3c50.3,77.1-125.8,77.1-75.5,0c-50.3,77.1-160.2-19.2-47.1-41.3
										c-113.1,22.1-73.9-98,16.8-51.4C2995.3,2804.8,3154,2751.4,3154,2828.4z"/>
									<path class="st12" d="M3154,2828.4c0-77.1,158.7-23.6,68,22.9c90.7-46.5,129.9,73.5,16.8,51.4
										c113.1,22.1,3.3,118.3-47.1,41.3c50.3,77.1-125.8,77.1-75.5,0c-50.3,77.1-160.2-19.2-47.1-41.3
										c-113.1,22.1-73.9-98,16.8-51.4C2995.3,2804.8,3154,2751.4,3154,2828.4z"/>
								</g>
								<ellipse class="st16" cx="3154" cy="2884.3" rx="41.5" ry="19.9"/>
							</g>
						</g>
						<g>
							<rect x="2615.6" y="3560" class="st3" width="579" height="19.4"/>
							<g>
								<path class="st3" d="M2672.9,3569.7L2672.9,3569.7c0-18.1-14.6-32.7-32.7-32.7l-101.1-10.8c-18.1,0-32.7,25.4-32.7,43.5l0,0
									c0,18.1,14.6,43.5,32.7,43.5l101.1-10.8C2658.3,3602.4,2672.9,3587.7,2672.9,3569.7L2672.9,3569.7z"/>
								<g>
									<path class="st14" d="M2430.8,3569.7c-77.1,0-23.6-158.7,22.9-68c-46.5-90.7,73.5-129.9,51.5-16.8
										c22.1-113.1,118.3-3.3,41.3,47.1c77.1-50.3,77.1,125.8,0,75.5c77.1,50.3-19.2,160.2-41.3,47.1
										c22.1,113.1-98,73.9-51.5-16.8C2407.2,3728.4,2353.7,3569.7,2430.8,3569.7z"/>
									<path class="st12" d="M2430.8,3569.7c-77.1,0-23.6-158.7,22.9-68c-46.5-90.7,73.5-129.9,51.5-16.8
										c22.1-113.1,118.3-3.3,41.3,47.1c77.1-50.3,77.1,125.8,0,75.5c77.1,50.3-19.2,160.2-41.3,47.1
										c22.1,113.1-98,73.9-51.5-16.8C2407.2,3728.4,2353.7,3569.7,2430.8,3569.7z"/>
								</g>
								<g>
									<path class="st15" d="M2412.8,3569.7c-77.1,0-23.6-158.7,22.9-68c-46.5-90.7,73.5-129.9,51.4-16.8
										c22.1-113.1,118.3-3.3,41.3,47.1c77.1-50.3,77.1,125.8,0,75.5c77.1,50.3-19.2,160.2-41.3,47.1
										c22.1,113.1-98,73.9-51.4-16.8C2389.1,3728.4,2335.7,3569.7,2412.8,3569.7z"/>
									<path class="st12" d="M2412.8,3569.7c-77.1,0-23.6-158.7,22.9-68c-46.5-90.7,73.5-129.9,51.4-16.8
										c22.1-113.1,118.3-3.3,41.3,47.1c77.1-50.3,77.1,125.8,0,75.5c77.1,50.3-19.2,160.2-41.3,47.1
										c22.1,113.1-98,73.9-51.4-16.8C2389.1,3728.4,2335.7,3569.7,2412.8,3569.7z"/>
								</g>
								<ellipse class="st16" cx="2468.6" cy="3569.7" rx="19.9" ry="41.5"/>
							</g>
						</g>
					</g>
					<g>
						<g>
							<polyline class="st3" points="3177.3,3608.4 2987,3148.9 2974.5,3154 3166.7,3618 							"/>
							<g>
								<path class="st3" d="M2991.8,3178.1L2991.8,3178.1c-12.7,5.3-27.3-0.8-32.6-13.5l-37.1-68.1c-5.3-12.7,8.4-30.5,21.1-35.7
									l0,0c12.7-5.3,34.9-2.4,40.2,10.4l21.9,74.3C3010.5,3158.2,3004.5,3172.8,2991.8,3178.1L2991.8,3178.1z"/>
								
									<ellipse transform="matrix(0.9239 -0.3827 0.3827 0.9239 -953.6688 1363.575)" class="st17" cx="2950.7" cy="3079" rx="71.5" ry="36.9"/>
								
									<ellipse transform="matrix(0.9239 -0.3827 0.3827 0.9239 -951.0056 1361.7903)" class="st17" cx="2947.6" cy="3071.4" rx="71.5" ry="36.9"/>
								
									<ellipse transform="matrix(0.9239 -0.3827 0.3827 0.9239 -951.005 1361.7889)" class="st18" cx="2947.6" cy="3071.4" rx="35.3" ry="12.3"/>
							</g>
						</g>
						<g>
							<polyline class="st3" points="3171.6,3569.7 2738.3,3390.2 2733.2,3402.7 3159.7,3579.3 							"/>
							<g>
								<path class="st3" d="M2762.4,3407.5L2762.4,3407.5c-5.3,12.7-19.9,18.8-32.6,13.5l-74.3-21.9c-12.7-5.3-15.6-27.4-10.3-40.2
									l0,0c5.3-12.7,23-26.4,35.7-21.1l68.1,37.1C2761.6,3380.1,2767.7,3394.7,2762.4,3407.5L2762.4,3407.5z"/>
								
									<ellipse transform="matrix(0.3827 -0.9239 0.9239 0.3827 -1466.0634 4538.7212)" class="st17" cx="2663.3" cy="3366.4" rx="71.5" ry="36.9"/>
								
									<ellipse transform="matrix(0.3827 -0.9239 0.9239 0.3827 -1467.8479 4529.7637)" class="st17" cx="2655.7" cy="3363.3" rx="71.5" ry="36.9"/>
								
									<ellipse transform="matrix(0.3827 -0.9239 0.9239 0.3827 -1467.8479 4529.7637)" class="st18" cx="2655.7" cy="3363.3" rx="35.3" ry="12.3"/>
							</g>
						</g>
					</g>
					<g>
						<rect x="3089.3" y="3229.9" class="st3" width="11.8" height="146.8"/>
						<g>
							<path class="st3" d="M3095.2,3251.4L3095.2,3251.4c7.3,0,13.3-5.9,13.3-13.3l4.4-41.1c0-7.3-10.3-13.3-17.7-13.3l0,0
								c-7.3,0-17.7,5.9-17.7,13.3l4.4,41.1C3082,3245.4,3087.9,3251.4,3095.2,3251.4z"/>
							<g>
								<circle class="st19" cx="3095.2" cy="3166" r="51.2"/>
								<g>
									<path class="st20" d="M3095.2,3140.6c11.5,0,20.9-4.9,20.9-10.9s-9.4-10.9-20.9-10.9s-20.9,4.9-20.9,10.9
										S3083.7,3140.6,3095.2,3140.6z"/>
									<path class="st6" d="M3095.2,3119.2c11.2,0,20.4,4.7,20.4,10.4s-9.1,10.4-20.4,10.4s-20.4-4.7-20.4-10.4
										S3084,3119.2,3095.2,3119.2 M3095.2,3118.2c-12,0-21.4,5-21.4,11.4s9.4,11.4,21.4,11.4c12,0,21.4-5,21.4-11.4
										S3107.2,3118.2,3095.2,3118.2L3095.2,3118.2z"/>
								</g>
								<g>
									<g>
										<defs>
											<ellipse id="SVGID_00000047022219329573279570000001290583049087247026_" cx="3095.2" cy="3129.7" rx="20.4" ry="10.4"/>
										</defs>
										<clipPath id="SVGID_00000145763921157755726600000003459894779272071335_">
											<use xlink:href="#SVGID_00000047022219329573279570000001290583049087247026_"  style="overflow:visible;"/>
										</clipPath>
										<g style="clip-path:url(#SVGID_00000145763921157755726600000003459894779272071335_);">
											<ellipse class="st22" cx="3095.2" cy="3135.2" rx="20.4" ry="10.4"/>
										</g>
									</g>
									<ellipse class="st9" cx="3095.2" cy="3129.7" rx="20.4" ry="10.4"/>
								</g>
							</g>
						</g>
					</g>
					<g>
						<rect x="2814.2" y="3505" class="st3" width="146.8" height="11.8"/>
						<g>
							<path class="st3" d="M2835.7,3510.9L2835.7,3510.9c0,7.3-5.9,13.3-13.3,13.3l-41.1,4.4c-7.3,0-13.3-10.3-13.3-17.7l0,0
								c0-7.3,6-17.7,13.3-17.7l41.1,4.4C2829.8,3497.6,2835.7,3503.6,2835.7,3510.9z"/>
							<g>
								<circle class="st19" cx="2750.3" cy="3510.9" r="51.2"/>
								<g>
									<path class="st20" d="M2714,3531.8c6,0,10.9-9.4,10.9-20.9s-4.9-20.9-10.9-20.9s-10.9,9.4-10.9,20.9
										S2708,3531.8,2714,3531.8z"/>
									<path class="st6" d="M2714,3490.6c5.8,0,10.4,9.1,10.4,20.4s-4.7,20.4-10.4,20.4c-5.8,0-10.4-9.1-10.4-20.4
										S2708.2,3490.6,2714,3490.6 M2714,3489.6c-6.4,0-11.4,9.4-11.4,21.4s5,21.4,11.4,21.4c6.4,0,11.4-9.4,11.4-21.4
										S2720.4,3489.6,2714,3489.6L2714,3489.6z"/>
								</g>
								<g>
									<g>
										<defs>
											<ellipse id="SVGID_00000059284363204670890000000001988086052063195533_" cx="2714" cy="3510.9" rx="10.4" ry="20.4"/>
										</defs>
										<clipPath id="SVGID_00000121271434582691234490000018306573230588197018_">
											<use xlink:href="#SVGID_00000059284363204670890000000001988086052063195533_"  style="overflow:visible;"/>
										</clipPath>
										<g style="clip-path:url(#SVGID_00000121271434582691234490000018306573230588197018_);">
											<ellipse class="st22" cx="2719.5" cy="3510.9" rx="10.4" ry="20.4"/>
										</g>
									</g>
									<ellipse class="st9" cx="2714" cy="3510.9" rx="10.4" ry="20.4"/>
								</g>
							</g>
						</g>
					</g>
					<g>
						<g>
							<path class="st3" d="M3154,3515.5L3154,3515.5c14.9,0,27-12.1,27-27l8.9-83.5c0-14.9-21-27-35.9-27l0,0
								c-14.9,0-35.9,12.1-35.9,27l8.9,83.5C3126.9,3503.4,3139.1,3515.5,3154,3515.5z"/>
							<g>
								<path class="st24" d="M3056.4,3377.7c-55.1,52.1,13.3,94.3,97.6,60.3c84.3,34,152.7-8.2,97.6-60.3
									c55.1-52.1-13.3-94.3-97.6-60.3C3069.7,3283.4,3001.3,3325.6,3056.4,3377.7z"/>
								<path class="st12" d="M3056.4,3377.7c-55.1,52.1,13.3,94.3,97.6,60.3c84.3,34,152.7-8.2,97.6-60.3
									c55.1-52.1-13.3-94.3-97.6-60.3C3069.7,3283.4,3001.3,3325.6,3056.4,3377.7z"/>
							</g>
							<g>
								<path class="st25" d="M3056.4,3362.8c-55.1,52.1,13.3,94.3,97.6,60.3c84.3,34,152.7-8.2,97.6-60.3
									c55.1-52.1-13.3-94.3-97.6-60.3C3069.7,3268.5,3001.3,3310.7,3056.4,3362.8z"/>
								<path class="st12" d="M3056.4,3362.8c-55.1,52.1,13.3,94.3,97.6,60.3c84.3,34,152.7-8.2,97.6-60.3
									c55.1-52.1-13.3-94.3-97.6-60.3C3069.7,3268.5,3001.3,3310.7,3056.4,3362.8z"/>
							</g>
							<ellipse class="st26" cx="3154" cy="3358.8" rx="50.1" ry="19.1"/>
						</g>
						<g>
							<path class="st3" d="M3098.5,3569.7L3098.5,3569.7c0-14.9-12.1-27-27-27l-83.5-8.9c-14.9,0-27,21-27,35.9l0,0
								c0,14.9,12.1,35.9,27,35.9l83.5-8.9C3086.4,3596.7,3098.5,3584.6,3098.5,3569.7z"/>
							<g>
								<path class="st24" d="M2960.7,3667.3c52.1,55.1,94.3-13.3,60.3-97.6c34-84.3-8.2-152.7-60.3-97.6
									c-52.1-55.1-94.3,13.3-60.3,97.6C2866.4,3654,2908.6,3722.3,2960.7,3667.3z"/>
								<path class="st12" d="M2960.7,3667.3c52.1,55.1,94.3-13.3,60.3-97.6c34-84.3-8.2-152.7-60.3-97.6
									c-52.1-55.1-94.3,13.3-60.3,97.6C2866.4,3654,2908.6,3722.3,2960.7,3667.3z"/>
							</g>
							<g>
								<path class="st25" d="M2945.8,3667.3c52.1,55.1,94.3-13.3,60.3-97.6c34-84.3-8.2-152.7-60.3-97.6
									c-52.1-55.1-94.3,13.3-60.3,97.6C2851.5,3654,2893.7,3722.3,2945.8,3667.3z"/>
								<path class="st12" d="M2945.8,3667.3c52.1,55.1,94.3-13.3,60.3-97.6c34-84.3-8.2-152.7-60.3-97.6
									c-52.1-55.1-94.3,13.3-60.3,97.6C2851.5,3654,2893.7,3722.3,2945.8,3667.3z"/>
							</g>
							<ellipse class="st26" cx="2941.8" cy="3569.7" rx="19.1" ry="50.1"/>
						</g>
					</g>
					<g>
						<g>
							<path class="st13" d="M3084.9,3569.7c-18.8,48.6,20.5,87.9,69.1,69.1c48.6,18.8,87.9-20.5,69.1-69.1
								c18.8-48.6-20.5-87.9-69.1-69.1C3105.4,3481.8,3066.1,3521.1,3084.9,3569.7z"/>
							<path class="st12" d="M3084.9,3569.7c-18.8,48.6,20.5,87.9,69.1,69.1c48.6,18.8,87.9-20.5,69.1-69.1
								c18.8-48.6-20.5-87.9-69.1-69.1C3105.4,3481.8,3066.1,3521.1,3084.9,3569.7z"/>
						</g>
						<circle class="st27" cx="3154" cy="3569.7" r="22.6"/>
					</g>
				</g>
			</g>
		</g>
	</g>
</g>
</svg>
