<?xml version="1.0" encoding="UTF-8"?><svg id="_레이어_2" xmlns="http://www.w3.org/2000/svg" xmlns:xlink="http://www.w3.org/1999/xlink" viewBox="0 0 682.09 1022.4"><defs><style>.cls-1,.cls-2,.cls-3,.cls-4,.cls-5,.cls-6,.cls-7,.cls-8,.cls-9,.cls-10,.cls-11,.cls-12,.cls-13,.cls-14,.cls-15{stroke:#13519c;}.cls-1,.cls-3,.cls-4,.cls-5,.cls-6,.cls-7,.cls-8,.cls-13,.cls-14,.cls-15{stroke-width:1.27px;}.cls-1,.cls-8,.cls-10,.cls-12,.cls-16,.cls-13{stroke-linecap:round;stroke-linejoin:round;}.cls-1,.cls-17{fill:#fce7e7;}.cls-2,.cls-3,.cls-4,.cls-5,.cls-6,.cls-7,.cls-18,.cls-19,.cls-9,.cls-11,.cls-14,.cls-15{stroke-miterlimit:10;}.cls-2,.cls-8{fill:none;}.cls-2,.cls-9,.cls-10,.cls-11,.cls-12{stroke-width:.76px;}.cls-3{fill:#058b8a;}.cls-4{fill:#9cc9e6;}.cls-5{fill:#2a99d7;}.cls-6{fill:#e51d1a;}.cls-7{fill:#cba5cc;}.cls-20{clip-path:url(#clippath);}.cls-21{fill:#ef8b9e;}.cls-22,.cls-15{fill:#fff4b5;}.cls-23{fill:#ead66b;}.cls-24{fill:#b1d9e1;}.cls-25{fill:#c14393;}.cls-26{fill:#13519c;}.cls-27{fill:#43499c;}.cls-28{fill:#6ca4ca;}.cls-18{fill:#76c3de;stroke-width:4px;}.cls-18,.cls-19{stroke:#335fa4;}.cls-19{stroke-width:2px;}.cls-19,.cls-16{fill:#f2f6fb;}.cls-29{clip-path:url(#clippath-1);}.cls-30{clip-path:url(#clippath-4);}.cls-31{clip-path:url(#clippath-3);}.cls-32{clip-path:url(#clippath-2);}.cls-33{clip-path:url(#clippath-7);}.cls-34{clip-path:url(#clippath-8);}.cls-35{clip-path:url(#clippath-6);}.cls-36{clip-path:url(#clippath-5);}.cls-37{clip-path:url(#clippath-9);}.cls-38{clip-path:url(#clippath-14);}.cls-39{clip-path:url(#clippath-13);}.cls-40{clip-path:url(#clippath-12);}.cls-41{clip-path:url(#clippath-10);}.cls-42{clip-path:url(#clippath-15);}.cls-43{clip-path:url(#clippath-17);}.cls-44{clip-path:url(#clippath-16);}.cls-45{clip-path:url(#clippath-19);}.cls-46{clip-path:url(#clippath-11);}.cls-47{clip-path:url(#clippath-18);}.cls-9{fill:#f18d3c;}.cls-10{fill:#bbc8e7;}.cls-11{fill:#e1c9e1;}.cls-12{fill:#f29966;}.cls-16{stroke:#305c9b;stroke-width:.51px;}.cls-13{fill:#9ac5e9;}.cls-14{fill:#ed6d00;}</style><clipPath id="clippath"><ellipse class="cls-2" cx="471.68" cy="446.27" rx="5.98" ry="3.07" transform="translate(-177.41 464.24) rotate(-45)"/></clipPath><clipPath id="clippath-1"><ellipse class="cls-2" cx="447.33" cy="470.62" rx="5.98" ry="3.07" transform="translate(-201.75 454.15) rotate(-45)"/></clipPath><clipPath id="clippath-2"><ellipse class="cls-2" cx="210.41" cy="234.66" rx="5.98" ry="3.07" transform="translate(-104.3 217.51) rotate(-45)"/></clipPath><clipPath id="clippath-3"><ellipse class="cls-2" cx="234.76" cy="210.31" rx="5.98" ry="3.07" transform="translate(-79.95 227.6) rotate(-45)"/></clipPath><clipPath id="clippath-4"><ellipse class="cls-2" cx="446.85" cy="209.83" rx="3.07" ry="5.98" transform="translate(-17.49 377.43) rotate(-45)"/></clipPath><clipPath id="clippath-5"><ellipse class="cls-2" cx="471.2" cy="234.18" rx="3.07" ry="5.98" transform="translate(-27.58 401.78) rotate(-45)"/></clipPath><clipPath id="clippath-6"><ellipse class="cls-2" cx="235.24" cy="471.1" rx="3.07" ry="5.98" transform="translate(-264.22 304.32) rotate(-45)"/></clipPath><clipPath id="clippath-7"><ellipse class="cls-2" cx="210.89" cy="446.75" rx="3.07" ry="5.98" transform="translate(-254.13 279.97) rotate(-45)"/></clipPath><clipPath id="clippath-8"><ellipse class="cls-2" cx="326.16" cy="451.86" rx="5.15" ry="2.65"/></clipPath><clipPath id="clippath-9"><ellipse class="cls-2" cx="355.93" cy="451.86" rx="5.15" ry="2.65"/></clipPath><clipPath id="clippath-10"><ellipse class="cls-2" cx="326.16" cy="229.07" rx="5.15" ry="2.65"/></clipPath><clipPath id="clippath-11"><ellipse class="cls-2" cx="355.93" cy="229.07" rx="5.15" ry="2.65"/></clipPath><clipPath id="clippath-12"><ellipse class="cls-2" cx="326.16" cy="451.86" rx="5.15" ry="2.65"/></clipPath><clipPath id="clippath-13"><ellipse class="cls-2" cx="355.93" cy="451.86" rx="5.15" ry="2.65"/></clipPath><clipPath id="clippath-14"><ellipse class="cls-2" cx="229.65" cy="325.58" rx="2.65" ry="5.15"/></clipPath><clipPath id="clippath-15"><ellipse class="cls-2" cx="229.65" cy="355.35" rx="2.65" ry="5.15"/></clipPath><clipPath id="clippath-16"><ellipse class="cls-2" cx="452.44" cy="325.58" rx="2.65" ry="5.15"/></clipPath><clipPath id="clippath-17"><ellipse class="cls-2" cx="452.44" cy="355.35" rx="2.65" ry="5.15"/></clipPath><clipPath id="clippath-18"><ellipse class="cls-2" cx="229.65" cy="325.53" rx="2.65" ry="5.15"/></clipPath><clipPath id="clippath-19"><ellipse class="cls-2" cx="229.65" cy="355.3" rx="2.65" ry="5.15"/></clipPath></defs><g id="_레이어_1-2"><path class="cls-18" d="M680.09,341.05c0,239.74-339.05,678.09-339.05,678.09,0,0-339.05-438.35-339.05-678.09C2,153.8,153.8,2,341.05,2s339.05,151.8,339.05,339.05Z"/><circle class="cls-19" cx="341.05" cy="340.46" r="250.31"/><path class="cls-16" d="M371.37,287.93c28.54-49.44-89.2-49.44-60.66,0-28.54-49.44-87.42,52.53-30.33,52.53-57.09,0,1.78,101.97,30.33,52.53-28.54,49.44,89.2,49.44,60.66,0,28.54,49.44,87.42-52.53,30.33-52.53,57.09,0-1.78-101.97-30.33-52.53Z"/><g><g><g><rect class="cls-3" x="338.6" y="270.05" width="4.98" height="139.95" transform="translate(822.72 339.28) rotate(135)"/><g><g><g><rect class="cls-3" x="435.15" y="388.5" width="4.08" height="46.55" transform="translate(1037.5 393.81) rotate(135)"/><g><path class="cls-3" d="M446.42,420.96h0c1.53-1.53,4-1.53,5.52,0l9.44,7.62c1.53,1.53,.62,4.91-.91,6.43h0c-1.53,1.53-4.91,2.43-6.43,.91l-7.62-9.44c-1.53-1.53-1.53-4,0-5.52Z"/><g><circle class="cls-7" cx="464.14" cy="438.73" r="15.03"/><g><path class="cls-25" d="M468.91,451.15c-.64,0-1.18-.19-1.54-.56-1.25-1.25-.32-4.2,2.06-6.58,1.62-1.62,3.54-2.62,5.03-2.62,.64,0,1.18,.19,1.54,.56,1.25,1.25,.32,4.2-2.06,6.58-1.62,1.62-3.54,2.62-5.03,2.62Z"/><path class="cls-26" d="M474.45,441.52c.59,0,1.1,.17,1.45,.53,1.2,1.2,.28,4.06-2.06,6.4-1.64,1.64-3.54,2.58-4.94,2.58-.59,0-1.1-.17-1.45-.53-1.2-1.2-.28-4.06,2.06-6.4,1.64-1.64,3.54-2.58,4.94-2.58m0-.25h0c-1.52,0-3.48,1.02-5.12,2.66-2.47,2.47-3.37,5.44-2.06,6.76,.39,.39,.96,.6,1.63,.6,1.52,0,3.48-1.02,5.12-2.66,2.47-2.47,3.37-5.44,2.06-6.76-.39-.39-.96-.6-1.63-.6h0Z"/></g><g><g class="cls-20"><ellipse class="cls-11" cx="470.54" cy="445.13" rx="5.98" ry="3.07" transform="translate(-176.94 463.09) rotate(-45)"/></g><ellipse class="cls-2" cx="471.68" cy="446.27" rx="5.98" ry="3.07" transform="translate(-177.41 464.24) rotate(-45)"/></g></g></g></g><g><rect class="cls-3" x="410.8" y="412.85" width="4.08" height="46.55" transform="translate(1013.16 452.59) rotate(135)"/><g><path class="cls-3" d="M422.08,445.31h0c1.53-1.53,4-1.53,5.52,0l9.44,7.62c1.53,1.53,.62,4.91-.91,6.43h0c-1.53,1.53-4.91,2.43-6.43,.91l-7.62-9.44c-1.53-1.53-1.53-4,0-5.52Z"/><g><circle class="cls-7" cx="439.79" cy="463.07" r="15.03"/><g><path class="cls-25" d="M444.56,475.5c-.64,0-1.18-.19-1.54-.56-.61-.62-.73-1.65-.33-2.9,.39-1.23,1.24-2.53,2.38-3.68,1.62-1.62,3.54-2.62,5.03-2.62,.64,0,1.18,.19,1.54,.56,.61,.62,.73,1.65,.33,2.9-.39,1.23-1.24,2.53-2.38,3.68-1.62,1.62-3.54,2.62-5.03,2.62Z"/><path class="cls-26" d="M450.1,465.86c.59,0,1.1,.17,1.45,.53,1.2,1.2,.28,4.06-2.06,6.4-1.64,1.64-3.54,2.58-4.94,2.58-.59,0-1.1-.17-1.45-.53-1.2-1.2-.28-4.06,2.06-6.4,1.64-1.64,3.54-2.58,4.94-2.58m0-.25h0c-1.52,0-3.48,1.02-5.12,2.66-2.47,2.47-3.37,5.44-2.06,6.76,.39,.39,.96,.6,1.63,.6,1.52,0,3.48-1.02,5.12-2.66,2.47-2.47,3.37-5.44,2.06-6.76-.39-.39-.96-.6-1.63-.6h0Z"/></g><g><g class="cls-29"><ellipse class="cls-11" cx="446.19" cy="469.47" rx="5.98" ry="3.07" transform="translate(-201.28 453.01) rotate(-45)"/></g><ellipse class="cls-2" cx="447.33" cy="470.62" rx="5.98" ry="3.07" transform="translate(-201.75 454.15) rotate(-45)"/></g></g></g></g></g><g><path class="cls-3" d="M383.25,382.19h0c2.48-2.48,6.49-2.48,8.97,0l15.33,12.38c2.48,2.48,1,7.97-1.48,10.45h0c-2.48,2.48-7.97,3.95-10.45,1.48l-12.38-15.33c-2.48-2.48-2.48-6.49,0-8.97Z"/><g><path class="cls-23" d="M417.14,416.07c10.24,10.24,26.89-33.77,7.66-20.24,19.23-13.53-14.49-24.08-15.5-4.85,1.02-19.23-36.47,18.26-17.24,17.24-19.23,1.02-8.68,34.73,4.85,15.5-13.53,19.23,30.47,2.58,20.24-7.66Z"/><path class="cls-8" d="M417.14,416.07c10.24,10.24,26.89-33.77,7.66-20.24,19.23-13.53-14.49-24.08-15.5-4.85,1.02-19.23-36.47,18.26-17.24,17.24-19.23,1.02-8.68,34.73,4.85,15.5-13.53,19.23,30.47,2.58,20.24-7.66Z"/></g><g><path class="cls-23" d="M420,418.94c10.24,10.24,26.89-33.77,7.66-20.24,19.23-13.53-14.49-24.08-15.5-4.85,1.02-19.23-36.47,18.26-17.24,17.24-19.23,1.02-8.68,34.73,4.85,15.5-13.53,19.23,30.47,2.58,20.24-7.66Zm-10.2-10.2c3.41-7.79,9.76-10.51,6.52-2.8,7.71-3.24,4.99,3.12-2.8,6.52-3.41,7.79-9.76,10.51-6.52,2.8-7.71,3.24-4.99-3.12,2.8-6.52Z"/><path class="cls-8" d="M420,418.94c10.24,10.24,26.89-33.77,7.66-20.24,19.23-13.53-14.49-24.08-15.5-4.85,1.02-19.23-36.47,18.26-17.24,17.24-19.23,1.02-8.68,34.73,4.85,15.5-13.53,19.23,30.47,2.58,20.24-7.66Zm-10.2-10.2c3.41-7.79,9.76-10.51,6.52-2.8,7.71-3.24,4.99,3.12-2.8,6.52-3.41,7.79-9.76,10.51-6.52,2.8-7.71,3.24-4.99-3.12,2.8-6.52Z"/></g><g><path class="cls-22" d="M420,418.94c10.24,10.24,26.89-33.77,7.66-20.24,19.23-13.53-14.49-24.08-15.5-4.85,1.02-19.23-36.47,18.26-17.24,17.24-19.23,1.02-8.68,34.73,4.85,15.5-13.53,19.23,30.47,2.58,20.24-7.66Zm-10.2-10.2c3.41-7.79,9.76-10.51,6.52-2.8,7.71-3.24,4.99,3.12-2.8,6.52-3.41,7.79-9.76,10.51-6.52,2.8-7.71,3.24-4.99-3.12,2.8-6.52Z"/><path class="cls-8" d="M420,418.94c10.24,10.24,26.89-33.77,7.66-20.24,19.23-13.53-14.49-24.08-15.5-4.85,1.02-19.23-36.47,18.26-17.24,17.24-19.23,1.02-8.68,34.73,4.85,15.5-13.53,19.23,30.47,2.58,20.24-7.66Zm-10.2-10.2c3.41-7.79,9.76-10.51,6.52-2.8,7.71-3.24,4.99,3.12-2.8,6.52-3.41,7.79-9.76,10.51-6.52,2.8-7.71,3.24-4.99-3.12,2.8-6.52Z"/></g></g></g><g><g><g><rect class="cls-3" x="242.86" y="245.87" width="4.08" height="46.55" transform="translate(-118.59 252) rotate(-45)"/><g><path class="cls-3" d="M235.67,259.96h0c-1.53,1.53-4,1.53-5.52,0l-9.44-7.62c-1.53-1.53-.62-4.91,.91-6.43h0c1.53-1.53,4.91-2.43,6.43-.91l7.62,9.44c1.53,1.53,1.53,4,0,5.52Z"/><g><circle class="cls-7" cx="217.95" cy="242.2" r="15.03"/><g><path class="cls-25" d="M207.64,239.54c-.64,0-1.18-.19-1.54-.56-.62-.62-.73-1.65-.33-2.9,.39-1.23,1.24-2.53,2.38-3.68,1.62-1.62,3.54-2.62,5.03-2.62,.64,0,1.18,.19,1.54,.56,.62,.62,.73,1.65,.33,2.9-.39,1.23-1.24,2.53-2.38,3.68-1.62,1.62-3.54,2.62-5.03,2.62Z"/><path class="cls-26" d="M213.19,229.9c.59,0,1.1,.17,1.46,.53,1.2,1.2,.28,4.06-2.06,6.4-1.64,1.64-3.54,2.58-4.94,2.58-.59,0-1.1-.17-1.46-.53-1.2-1.2-.28-4.06,2.06-6.4,1.64-1.64,3.54-2.58,4.94-2.58m0-.25h0c-1.52,0-3.48,1.02-5.12,2.66-1.16,1.16-2.02,2.48-2.42,3.73-.42,1.3-.29,2.38,.36,3.03,.39,.39,.96,.6,1.63,.6,1.52,0,3.48-1.02,5.12-2.66,1.16-1.16,2.02-2.48,2.42-3.73,.42-1.3,.29-2.38-.36-3.03-.39-.39-.96-.6-1.63-.6h0Z"/></g><g><g class="cls-32"><ellipse class="cls-11" cx="211.56" cy="235.8" rx="5.98" ry="3.07" transform="translate(-104.77 218.66) rotate(-45)"/></g><ellipse class="cls-2" cx="210.41" cy="234.66" rx="5.98" ry="3.07" transform="translate(-104.3 217.51) rotate(-45)"/></g></g></g></g><g><rect class="cls-3" x="267.21" y="221.52" width="4.08" height="46.55" transform="translate(-94.24 262.09) rotate(-45)"/><g><path class="cls-3" d="M260.02,235.62h0c-1.53,1.53-4,1.53-5.52,0l-9.44-7.62c-1.53-1.53-.62-4.91,.91-6.43h0c1.53-1.53,4.91-2.43,6.43-.91l7.62,9.44c1.53,1.53,1.53,4,0,5.52Z"/><g><circle class="cls-7" cx="242.3" cy="217.85" r="15.03"/><g><path class="cls-25" d="M231.99,215.19c-.64,0-1.18-.19-1.54-.56-.61-.62-.73-1.65-.33-2.9,.39-1.23,1.24-2.53,2.38-3.68,1.62-1.62,3.54-2.62,5.03-2.62,.64,0,1.18,.19,1.54,.56,1.25,1.25,.32,4.2-2.06,6.58-1.62,1.62-3.54,2.62-5.03,2.62Z"/><path class="cls-26" d="M237.53,205.56c.59,0,1.1,.17,1.46,.53,1.2,1.2,.28,4.06-2.06,6.4-1.64,1.64-3.54,2.58-4.94,2.58-.59,0-1.1-.17-1.46-.53-1.2-1.2-.28-4.06,2.06-6.4,1.64-1.64,3.54-2.58,4.94-2.58m0-.25h0c-1.52,0-3.48,1.02-5.12,2.66-2.47,2.47-3.37,5.44-2.06,6.76,.39,.39,.96,.6,1.63,.6,1.52,0,3.48-1.02,5.12-2.66,1.16-1.16,2.02-2.48,2.42-3.73,.42-1.3,.29-2.38-.36-3.03-.39-.39-.96-.6-1.63-.6h0Z"/></g><g><g class="cls-31"><ellipse class="cls-11" cx="235.9" cy="211.45" rx="5.98" ry="3.07" transform="translate(-80.43 228.74) rotate(-45)"/></g><ellipse class="cls-2" cx="234.76" cy="210.31" rx="5.98" ry="3.07" transform="translate(-79.95 227.6) rotate(-45)"/></g></g></g></g></g><g><path class="cls-3" d="M298.84,298.74h0c-2.48,2.48-6.49,2.48-8.97,0l-15.33-12.38c-2.48-2.48-1-7.97,1.48-10.45h0c2.48-2.48,7.97-3.95,10.45-1.48l12.38,15.33c2.48,2.48,2.48,6.49,0,8.97Z"/><g><path class="cls-23" d="M264.95,264.85c-10.24-10.24-26.89,33.77-7.66,20.24-19.23,13.53,14.49,24.08,15.5,4.85-1.02,19.23,36.47-18.26,17.24-17.24,19.23-1.02,8.68-34.73-4.85-15.5,13.53-19.23-30.47-2.58-20.24,7.66Z"/><path class="cls-8" d="M264.95,264.85c-10.24-10.24-26.89,33.77-7.66,20.24-19.23,13.53,14.49,24.08,15.5,4.85-1.02,19.23,36.47-18.26,17.24-17.24,19.23-1.02,8.68-34.73-4.85-15.5,13.53-19.23-30.47-2.58-20.24,7.66Z"/></g><g><path class="cls-23" d="M262.09,261.99c-10.24-10.24-26.89,33.77-7.66,20.24-19.23,13.53,14.49,24.08,15.5,4.85-1.02,19.23,36.47-18.26,17.24-17.24,19.23-1.02,8.68-34.73-4.85-15.5,13.53-19.23-30.47-2.58-20.24,7.66Zm10.2,10.2c-3.41,7.79-9.76,10.51-6.52,2.8-7.71,3.24-4.99-3.12,2.8-6.52,3.41-7.79,9.76-10.51,6.52-2.8,7.71-3.24,4.99,3.12-2.8,6.52Z"/><path class="cls-8" d="M262.09,261.99c-10.24-10.24-26.89,33.77-7.66,20.24-19.23,13.53,14.49,24.08,15.5,4.85-1.02,19.23,36.47-18.26,17.24-17.24,19.23-1.02,8.68-34.73-4.85-15.5,13.53-19.23-30.47-2.58-20.24,7.66Zm10.2,10.2c-3.41,7.79-9.76,10.51-6.52,2.8-7.71,3.24-4.99-3.12,2.8-6.52,3.41-7.79,9.76-10.51,6.52-2.8,7.71-3.24,4.99,3.12-2.8,6.52Z"/></g><g><path class="cls-22" d="M262.09,261.99c-10.24-10.24-26.89,33.77-7.66,20.24-19.23,13.53,14.49,24.08,15.5,4.85-1.02,19.23,36.47-18.26,17.24-17.24,19.23-1.02,8.68-34.73-4.85-15.5,13.53-19.23-30.47-2.58-20.24,7.66Zm10.2,10.2c-3.41,7.79-9.76,10.51-6.52,2.8-7.71,3.24-4.99-3.12,2.8-6.52,3.41-7.79,9.76-10.51,6.52-2.8,7.71-3.24,4.99,3.12-2.8,6.52Z"/><path class="cls-8" d="M262.09,261.99c-10.24-10.24-26.89,33.77-7.66,20.24-19.23,13.53,14.49,24.08,15.5,4.85-1.02,19.23,36.47-18.26,17.24-17.24,19.23-1.02,8.68-34.73-4.85-15.5,13.53-19.23-30.47-2.58-20.24,7.66Zm10.2,10.2c-3.41,7.79-9.76,10.51-6.52,2.8-7.71,3.24-4.99-3.12,2.8-6.52,3.41-7.79,9.76-10.51,6.52-2.8,7.71-3.24,4.99,3.12-2.8,6.52Z"/></g></g></g></g><g><rect class="cls-3" x="338.12" y="270.44" width="4.98" height="139.95" transform="translate(340.47 -141.14) rotate(45)"/><g><g><g><rect class="cls-3" x="410.32" y="221.04" width="4.08" height="46.55" transform="translate(293.54 -220.02) rotate(45)"/><g><path class="cls-3" d="M421.54,235.09h0c-1.53-1.53-1.53-4,0-5.52l7.62-9.44c1.53-1.53,4.91-.62,6.43,.91h0c1.53,1.53,2.43,4.91,.91,6.43l-9.44,7.62c-1.53,1.53-4,1.53-5.52,0Z"/><g><circle class="cls-7" cx="439.31" cy="217.37" r="15.03"/><g><path class="cls-25" d="M449.62,214.71c-1.49,0-3.42-1-5.03-2.62-1.14-1.14-1.99-2.45-2.38-3.68-.4-1.26-.29-2.29,.33-2.9,.37-.37,.9-.56,1.54-.56,1.49,0,3.42,1,5.03,2.62,2.38,2.38,3.3,5.33,2.06,6.58-.37,.37-.9,.56-1.54,.56Z"/><path class="cls-26" d="M444.08,205.08c1.4,0,3.3,.94,4.94,2.58,2.33,2.33,3.26,5.2,2.06,6.4-.36,.36-.86,.53-1.45,.53-1.4,0-3.3-.94-4.94-2.58-2.33-2.33-3.26-5.2-2.06-6.4,.36-.36,.86-.53,1.45-.53m0-.25c-.68,0-1.24,.21-1.63,.6-1.32,1.32-.41,4.29,2.06,6.76,1.64,1.64,3.6,2.66,5.12,2.66,.68,0,1.24-.21,1.63-.6,1.32-1.32,.41-4.29-2.06-6.76-1.64-1.64-3.6-2.66-5.12-2.66h0Z"/></g><g><g class="cls-30"><ellipse class="cls-11" cx="445.71" cy="210.97" rx="3.07" ry="5.98" transform="translate(-18.64 376.96) rotate(-45)"/></g><ellipse class="cls-2" cx="446.85" cy="209.83" rx="3.07" ry="5.98" transform="translate(-17.49 377.43) rotate(-45)"/></g></g></g></g><g><rect class="cls-3" x="434.67" y="245.39" width="4.08" height="46.55" transform="translate(317.88 -230.11) rotate(45)"/><g><path class="cls-3" d="M445.89,259.43h0c-1.53-1.53-1.53-4,0-5.52l7.62-9.44c1.53-1.53,4.91-.62,6.43,.91h0c1.53,1.53,2.43,4.91,.91,6.43l-9.44,7.62c-1.53,1.53-4,1.53-5.52,0Z"/><g><circle class="cls-7" cx="463.66" cy="241.72" r="15.03"/><g><path class="cls-25" d="M473.97,239.06c-1.49,0-3.42-1-5.03-2.62-2.38-2.38-3.3-5.33-2.06-6.58,.37-.37,.9-.56,1.54-.56,1.49,0,3.42,1,5.03,2.62,2.38,2.38,3.3,5.33,2.06,6.58-.37,.37-.9,.56-1.54,.56Z"/><path class="cls-26" d="M468.42,229.42c1.4,0,3.3,.94,4.94,2.58,2.33,2.33,3.26,5.2,2.06,6.4-.36,.36-.86,.53-1.46,.53-1.4,0-3.3-.94-4.94-2.58-2.33-2.33-3.26-5.2-2.06-6.4,.36-.36,.86-.53,1.46-.53m0-.25h0c-.68,0-1.24,.21-1.63,.6-.65,.65-.78,1.73-.36,3.03,.4,1.25,1.26,2.57,2.42,3.73,1.64,1.64,3.6,2.66,5.12,2.66,.68,0,1.24-.21,1.63-.6,1.32-1.32,.41-4.29-2.06-6.76-1.64-1.64-3.6-2.66-5.12-2.66h0Z"/></g><g><g class="cls-36"><ellipse class="cls-11" cx="470.05" cy="235.32" rx="3.07" ry="5.98" transform="translate(-28.72 401.3) rotate(-45)"/></g><ellipse class="cls-2" cx="471.2" cy="234.18" rx="3.07" ry="5.98" transform="translate(-27.58 401.78) rotate(-45)"/></g></g></g></g></g><g><path class="cls-3" d="M382.77,298.25h0c-2.48-2.48-2.48-6.49,0-8.97l12.38-15.33c2.48-2.48,7.97-1,10.45,1.48h0c2.48,2.48,3.95,7.97,1.48,10.45l-15.33,12.38c-2.48,2.48-6.49,2.48-8.97,0Z"/><g><path class="cls-23" d="M416.66,264.37c10.24-10.24-33.77-26.89-20.24-7.66-13.53-19.23-24.08,14.49-4.85,15.5-19.23-1.02,18.26,36.47,17.24,17.24,1.02,19.23,34.73,8.68,15.5-4.85,19.23,13.53,2.58-30.47-7.66-20.24Z"/><path class="cls-8" d="M416.66,264.37c10.24-10.24-33.77-26.89-20.24-7.66-13.53-19.23-24.08,14.49-4.85,15.5-19.23-1.02,18.26,36.47,17.24,17.24,1.02,19.23,34.73,8.68,15.5-4.85,19.23,13.53,2.58-30.47-7.66-20.24Z"/></g><g><path class="cls-22" d="M419.52,261.51c10.24-10.24-33.77-26.89-20.24-7.66-13.53-19.23-24.08,14.49-4.85,15.5-19.23-1.02,18.26,36.47,17.24,17.24,1.02,19.23,34.73,8.68,15.5-4.85,19.23,13.53,2.58-30.47-7.66-20.24Zm-10.2,10.2c-7.79-3.41-10.51-9.76-2.8-6.52-3.24-7.71,3.12-4.99,6.52,2.8,7.79,3.41,10.51,9.76,2.8,6.52,3.24,7.71-3.12,4.99-6.52-2.8Z"/><path class="cls-8" d="M419.52,261.51c10.24-10.24-33.77-26.89-20.24-7.66-13.53-19.23-24.08,14.49-4.85,15.5-19.23-1.02,18.26,36.47,17.24,17.24,1.02,19.23,34.73,8.68,15.5-4.85,19.23,13.53,2.58-30.47-7.66-20.24Zm-10.2,10.2c-7.79-3.41-10.51-9.76-2.8-6.52-3.24-7.71,3.12-4.99,6.52,2.8,7.79,3.41,10.51,9.76,2.8,6.52,3.24,7.71-3.12,4.99-6.52-2.8Z"/></g></g></g><g><g><g><rect class="cls-3" x="267.69" y="413.33" width="4.08" height="46.55" transform="translate(151.73 936.06) rotate(-135)"/><g><path class="cls-3" d="M260.55,445.84h0c1.53,1.53,1.53,4,0,5.52l-7.62,9.44c-1.53,1.53-4.91,.62-6.43-.91h0c-1.53-1.53-2.43-4.91-.91-6.43l9.44-7.62c1.53-1.53,4-1.53,5.52,0Z"/><g><circle class="cls-7" cx="242.78" cy="463.55" r="15.03"/><g><path class="cls-25" d="M238.01,475.98c-1.49,0-3.42-1-5.03-2.62-2.38-2.38-3.3-5.33-2.06-6.58,.37-.37,.9-.56,1.54-.56,1.49,0,3.42,1,5.03,2.62,2.38,2.38,3.3,5.33,2.06,6.58-.37,.37-.9,.56-1.54,.56Z"/><path class="cls-26" d="M232.47,466.34c1.4,0,3.3,.94,4.94,2.58,2.33,2.33,3.26,5.2,2.06,6.4-.36,.36-.86,.53-1.46,.53-1.4,0-3.3-.94-4.94-2.58-2.33-2.33-3.26-5.2-2.06-6.4,.36-.36,.86-.53,1.46-.53m0-.25h0c-.68,0-1.24,.21-1.63,.6-.65,.65-.78,1.73-.36,3.03,.4,1.25,1.26,2.57,2.42,3.73,1.64,1.64,3.6,2.66,5.12,2.66,.68,0,1.24-.21,1.63-.6,1.32-1.32,.41-4.29-2.06-6.76-1.64-1.64-3.6-2.66-5.12-2.66h0Z"/></g><g><g class="cls-35"><ellipse class="cls-11" cx="236.38" cy="469.95" rx="3.07" ry="5.98" transform="translate(-263.07 304.79) rotate(-45)"/></g><ellipse class="cls-2" cx="235.24" cy="471.1" rx="3.07" ry="5.98" transform="translate(-264.22 304.32) rotate(-45)"/></g></g></g></g><g><rect class="cls-3" x="243.34" y="388.99" width="4.08" height="46.55" transform="translate(127.38 877.29) rotate(-135)"/><g><path class="cls-3" d="M236.2,421.49h0c1.53,1.53,1.53,4,0,5.52l-7.62,9.44c-1.53,1.53-4.91,.62-6.43-.91h0c-1.53-1.53-2.43-4.91-.91-6.43l9.44-7.62c1.53-1.53,4-1.53,5.52,0Z"/><g><circle class="cls-7" cx="218.44" cy="439.21" r="15.03"/><g><path class="cls-25" d="M213.67,451.63c-1.49,0-3.42-1-5.03-2.62-2.38-2.38-3.3-5.33-2.06-6.58,.37-.37,.9-.56,1.54-.56,1.49,0,3.42,1,5.03,2.62,2.38,2.38,3.3,5.33,2.06,6.58-.37,.37-.9,.56-1.54,.56Z"/><path class="cls-26" d="M208.12,442c1.4,0,3.3,.94,4.94,2.58,2.33,2.33,3.26,5.2,2.06,6.4-.36,.36-.86,.53-1.46,.53-1.4,0-3.3-.94-4.94-2.58-2.33-2.34-3.26-5.2-2.06-6.4,.36-.36,.86-.53,1.46-.53m0-.25h0c-.68,0-1.24,.21-1.63,.6-1.32,1.32-.41,4.29,2.06,6.76,1.64,1.64,3.6,2.66,5.12,2.66,.68,0,1.24-.21,1.63-.6,1.32-1.32,.41-4.29-2.06-6.76-1.64-1.64-3.6-2.66-5.12-2.66h0Z"/></g><g><g class="cls-33"><ellipse class="cls-11" cx="212.04" cy="445.61" rx="3.07" ry="5.98" transform="translate(-252.99 280.45) rotate(-45)"/></g><ellipse class="cls-2" cx="210.89" cy="446.75" rx="3.07" ry="5.98" transform="translate(-254.13 279.97) rotate(-45)"/></g></g></g></g></g><g><path class="cls-3" d="M299.32,382.67h0c2.48,2.48,2.48,6.49,0,8.97l-12.38,15.33c-2.48,2.48-7.97,1-10.45-1.48h0c-2.48-2.48-3.95-7.97-1.48-10.45l15.33-12.38c2.48-2.48,6.49-2.48,8.97,0Z"/><g><path class="cls-23" d="M265.43,416.56c-10.24,10.24,33.77,26.89,20.24,7.66,13.53,19.23,24.08-14.49,4.85-15.5,19.23,1.02-18.26-36.47-17.24-17.24-1.02-19.23-34.73-8.68-15.5,4.85-19.23-13.53-2.58,30.47,7.66,20.24Z"/><path class="cls-8" d="M265.43,416.56c-10.24,10.24,33.77,26.89,20.24,7.66,13.53,19.23,24.08-14.49,4.85-15.5,19.23,1.02-18.26-36.47-17.24-17.24-1.02-19.23-34.73-8.68-15.5,4.85-19.23-13.53-2.58,30.47,7.66,20.24Z"/></g><g><path class="cls-23" d="M262.57,419.42c-10.24,10.24,33.77,26.89,20.24,7.66,13.53,19.23,24.08-14.49,4.85-15.5,19.23,1.02-18.26-36.47-17.24-17.24-1.02-19.23-34.73-8.68-15.5,4.85-19.23-13.53-2.58,30.47,7.66,20.24Zm10.2-10.2c7.79,3.41,10.51,9.76,2.8,6.52,3.24,7.71-3.12,4.99-6.52-2.8-7.79-3.41-10.51-9.76-2.8-6.52-3.24-7.71,3.12-4.99,6.52,2.8Z"/><path class="cls-8" d="M262.57,419.42c-10.24,10.24,33.77,26.89,20.24,7.66,13.53,19.23,24.08-14.49,4.85-15.5,19.23,1.02-18.26-36.47-17.24-17.24-1.02-19.23-34.73-8.68-15.5,4.85-19.23-13.53-2.58,30.47,7.66,20.24Zm10.2-10.2c7.79,3.41,10.51,9.76,2.8,6.52,3.24,7.71-3.12,4.99-6.52-2.8-7.79-3.41-10.51-9.76-2.8-6.52-3.24-7.71,3.12-4.99,6.52,2.8Z"/></g><g><path class="cls-22" d="M262.57,419.42c-10.24,10.24,33.77,26.89,20.24,7.66,13.53,19.23,24.08-14.49,4.85-15.5,19.23,1.02-18.26-36.47-17.24-17.24-1.02-19.23-34.73-8.68-15.5,4.85-19.23-13.53-2.58,30.47,7.66,20.24Zm10.2-10.2c7.79,3.41,10.51,9.76,2.8,6.52,3.24,7.71-3.12,4.99-6.52-2.8-7.79-3.41-10.51-9.76-2.8-6.52-3.24-7.71,3.12-4.99,6.52,2.8Z"/><path class="cls-8" d="M262.57,419.42c-10.24,10.24,33.77,26.89,20.24,7.66,13.53,19.23,24.08-14.49,4.85-15.5,19.23,1.02-18.26-36.47-17.24-17.24-1.02-19.23-34.73-8.68-15.5,4.85-19.23-13.53-2.58,30.47,7.66,20.24Zm10.2-10.2c7.79,3.41,10.51,9.76,2.8,6.52,3.24,7.71-3.12,4.99-6.52-2.8-7.79-3.41-10.51-9.76-2.8-6.52-3.24-7.71,3.12-4.99,6.52,2.8Z"/></g></g></g></g></g><g><g><rect class="cls-3" x="338.6" y="204.16" width="4.9" height="271.15"/><g><path class="cls-3" d="M341.05,218.67h0c-4.57,0-8.28-3.71-8.28-8.28l-2.73-25.59c0-4.57,6.44-8.28,11.01-8.28h0c4.57,0,11.01,3.71,11.01,8.28l-2.73,25.59c0,4.57-3.71,8.28-8.28,8.28Z"/><g><path class="cls-17" d="M341.05,157.37c0-19.51-40.18-5.99-17.22,5.8-22.96-11.78-32.89,18.61-4.25,13.03-28.63,5.59-.83,29.96,11.92,10.45-12.74,19.51,31.86,19.51,19.12,0,12.74,19.51,40.55-4.86,11.92-10.45,28.63,5.59,18.71-24.81-4.25-13.03,22.96-11.78-17.22-25.31-17.22-5.8Z"/><path class="cls-8" d="M341.05,157.37c0-19.51-40.18-5.99-17.22,5.8-22.96-11.78-32.89,18.61-4.25,13.03-28.63,5.59-.83,29.96,11.92,10.45-12.74,19.51,31.86,19.51,19.12,0,12.74,19.51,40.55-4.86,11.92-10.45,28.63,5.59,18.71-24.81-4.25-13.03,22.96-11.78-17.22-25.31-17.22-5.8Z"/></g><g><path class="cls-21" d="M341.05,152.8c0-19.51-40.18-5.99-17.22,5.8-22.96-11.78-32.89,18.61-4.25,13.03-28.63,5.59-.83,29.96,11.92,10.45-12.74,19.51,31.86,19.51,19.12,0,12.74,19.51,40.55-4.86,11.92-10.45,28.63,5.59,18.71-24.81-4.25-13.03,22.96-11.78-17.22-25.31-17.22-5.8Z"/><path class="cls-8" d="M341.05,152.8c0-19.51-40.18-5.99-17.22,5.8-22.96-11.78-32.89,18.61-4.25,13.03-28.63,5.59-.83,29.96,11.92,10.45-12.74,19.51,31.86,19.51,19.12,0,12.74,19.51,40.55-4.86,11.92-10.45,28.63,5.59,18.71-24.81-4.25-13.03,22.96-11.78-17.22-25.31-17.22-5.8Z"/></g><ellipse class="cls-6" cx="341.05" cy="166.93" rx="10.5" ry="5.05"/></g><g><path class="cls-3" d="M341.05,462.26h0c-4.57,0-8.28,3.71-8.28,8.28l-2.73,25.59c0,4.57,6.44,8.28,11.01,8.28h0c4.57,0,11.01-3.71,11.01-8.28l-2.73-25.59c0-4.57-3.71-8.28-8.28-8.28Z"/><g><path class="cls-17" d="M341.05,523.56c0,19.51-40.18,5.99-17.22-5.8-22.96,11.78-32.89-18.61-4.25-13.03-28.63-5.59-.83-29.96,11.92-10.45-12.74-19.51,31.86-19.51,19.12,0,12.74-19.51,40.55,4.86,11.92,10.45,28.63-5.59,18.71,24.81-4.25,13.03,22.96,11.78-17.22,25.31-17.22,5.8Z"/><path class="cls-8" d="M341.05,523.56c0,19.51-40.18,5.99-17.22-5.8-22.96,11.78-32.89-18.61-4.25-13.03-28.63-5.59-.83-29.96,11.92-10.45-12.74-19.51,31.86-19.51,19.12,0,12.74-19.51,40.55,4.86,11.92,10.45,28.63-5.59,18.71,24.81-4.25,13.03,22.96,11.78-17.22,25.31-17.22,5.8Z"/></g><g><path class="cls-21" d="M341.05,528.13c0,19.51-40.18,5.99-17.22-5.8-22.96,11.78-32.89-18.61-4.25-13.03-28.63-5.59-.83-29.96,11.92-10.45-12.74-19.51,31.86-19.51,19.12,0,12.74-19.51,40.55,4.86,11.92,10.45,28.63-5.59,18.71,24.81-4.25,13.03,22.96,11.78-17.22,25.31-17.22,5.8Z"/><path class="cls-8" d="M341.05,528.13c0,19.51-40.18,5.99-17.22-5.8-22.96,11.78-32.89-18.61-4.25-13.03-28.63-5.59-.83-29.96,11.92-10.45-12.74-19.51,31.86-19.51,19.12,0,12.74-19.51,40.55,4.86,11.92,10.45,28.63-5.59,18.71,24.81-4.25,13.03,22.96,11.78-17.22,25.31-17.22,5.8Z"/></g><ellipse class="cls-6" cx="341.05" cy="514" rx="10.5" ry="5.05"/></g></g><g><rect class="cls-3" x="339.33" y="204.89" width="4.9" height="271.15" transform="translate(682.24 -1.31) rotate(90)"/><g><path class="cls-3" d="M462.84,340.46h0c0-4.57,3.71-8.28,8.28-8.28l25.59-2.73c4.57,0,8.28,6.44,8.28,11.01h0c0,4.57-3.71,11.01-8.28,11.01l-25.59-2.73c-4.57,0-8.28-3.71-8.28-8.28Z"/><g><path class="cls-17" d="M524.14,340.46c19.51,0,5.99-40.18-5.8-17.22,11.78-22.96-18.61-32.89-13.03-4.25-5.59-28.63-29.96-.83-10.45,11.92-19.51-12.74-19.51,31.86,0,19.12-19.51,12.74,4.86,40.55,10.45,11.92-5.59,28.63,24.81,18.71,13.03-4.25,11.78,22.96,25.31-17.22,5.8-17.22Z"/><path class="cls-8" d="M524.14,340.46c19.51,0,5.99-40.18-5.8-17.22,11.78-22.96-18.61-32.89-13.03-4.25-5.59-28.63-29.96-.83-10.45,11.92-19.51-12.74-19.51,31.86,0,19.12-19.51,12.74,4.86,40.55,10.45,11.92-5.59,28.63,24.81,18.71,13.03-4.25,11.78,22.96,25.31-17.22,5.8-17.22Z"/></g><g><path class="cls-21" d="M528.71,340.46c19.51,0,5.99-40.18-5.8-17.22,11.78-22.96-18.61-32.89-13.03-4.25-5.59-28.63-29.96-.83-10.45,11.92-19.51-12.74-19.51,31.86,0,19.12-19.51,12.74,4.86,40.55,10.45,11.92-5.59,28.63,24.81,18.71,13.03-4.25,11.78,22.96,25.31-17.22,5.8-17.22Z"/><path class="cls-8" d="M528.71,340.46c19.51,0,5.99-40.18-5.8-17.22,11.78-22.96-18.61-32.89-13.03-4.25-5.59-28.63-29.96-.83-10.45,11.92-19.51-12.74-19.51,31.86,0,19.12-19.51,12.74,4.86,40.55,10.45,11.92-5.59,28.63,24.81,18.71,13.03-4.25,11.78,22.96,25.31-17.22,5.8-17.22Z"/></g><ellipse class="cls-6" cx="514.58" cy="340.46" rx="5.05" ry="10.5"/></g><g><path class="cls-3" d="M219.25,340.46h0c0-4.57-3.71-8.28-8.28-8.28l-25.59-2.73c-4.57,0-8.28,6.44-8.28,11.01h0c0,4.57,3.71,11.01,8.28,11.01l25.59-2.73c4.57,0,8.28-3.71,8.28-8.28Z"/><g><path class="cls-17" d="M157.95,340.46c-19.51,0-5.99-40.18,5.8-17.22-11.78-22.96,18.61-32.89,13.03-4.25,5.59-28.63,29.96-.83,10.45,11.92,19.51-12.74,19.51,31.86,0,19.12,19.51,12.74-4.86,40.55-10.45,11.92,5.59,28.63-24.81,18.71-13.03-4.25-11.78,22.96-25.31-17.22-5.8-17.22Z"/><path class="cls-8" d="M157.95,340.46c-19.51,0-5.99-40.18,5.8-17.22-11.78-22.96,18.61-32.89,13.03-4.25,5.59-28.63,29.96-.83,10.45,11.92,19.51-12.74,19.51,31.86,0,19.12,19.51,12.74-4.86,40.55-10.45,11.92,5.59,28.63-24.81,18.71-13.03-4.25-11.78,22.96-25.31-17.22-5.8-17.22Z"/></g><g><path class="cls-21" d="M153.38,340.46c-19.51,0-5.99-40.18,5.8-17.22-11.78-22.96,18.61-32.89,13.03-4.25,5.59-28.63,29.96-.83,10.45,11.92,19.51-12.74,19.51,31.86,0,19.12,19.51,12.74-4.86,40.55-10.45,11.92,5.59,28.63-24.81,18.71-13.03-4.25-11.78,22.96-25.31-17.22-5.8-17.22Z"/><path class="cls-8" d="M153.38,340.46c-19.51,0-5.99-40.18,5.8-17.22-11.78-22.96,18.61-32.89,13.03-4.25,5.59-28.63,29.96-.83,10.45,11.92,19.51-12.74,19.51,31.86,0,19.12,19.51,12.74-4.86,40.55-10.45,11.92,5.59,28.63-24.81,18.71-13.03-4.25-11.78,22.96-25.31-17.22-5.8-17.22Z"/></g><ellipse class="cls-6" cx="167.51" cy="340.46" rx="5.05" ry="10.5"/></g></g></g><g><g><rect class="cls-3" x="339.34" y="225.85" width="3.41" height="229.23" transform="translate(-104.01 525.26) rotate(-67.5)"/><g><g><path class="cls-3" d="M241.9,299.4h0c1.33-3.22-.2-6.92-3.42-8.25l-17.23-9.39c-3.22-1.33-7.71,2.12-9.05,5.34h0c-1.33,3.22-.6,8.84,2.62,10.17l18.82,5.55c3.22,1.33,6.92-.2,8.25-3.42Z"/><ellipse class="cls-1" cx="216.81" cy="289" rx="18.1" ry="9.34" transform="translate(-133.16 378.72) rotate(-67.5)"/><ellipse class="cls-1" cx="214.89" cy="288.21" rx="18.1" ry="9.34" transform="translate(-133.61 376.45) rotate(-67.5)"/><ellipse class="cls-14" cx="214.89" cy="288.21" rx="8.95" ry="3.12" transform="translate(-133.61 376.45) rotate(-67.5)"/></g><g><path class="cls-3" d="M440.19,381.53h0c1.33-3.22,5.03-4.75,8.25-3.42l18.82,5.55c3.22,1.33,3.96,6.95,2.62,10.17h0c-1.33,3.22-5.82,6.67-9.05,5.34l-17.23-9.39c-3.22-1.33-4.75-5.03-3.42-8.25Z"/><ellipse class="cls-1" cx="465.28" cy="391.92" rx="18.1" ry="9.34" transform="translate(-74.87 671.8) rotate(-67.5)"/><ellipse class="cls-1" cx="467.2" cy="392.72" rx="18.1" ry="9.34" transform="translate(-74.41 674.07) rotate(-67.5)"/><ellipse class="cls-14" cx="467.2" cy="392.72" rx="8.95" ry="3.12" transform="translate(-74.41 674.07) rotate(-67.5)"/></g></g></g><g><rect class="cls-3" x="339.34" y="225.85" width="3.41" height="229.23" transform="translate(-104.33 156.43) rotate(-22.5)"/><g><g><path class="cls-3" d="M299.98,241.32h0c3.22-1.33,4.75-5.03,3.42-8.25l-5.55-18.82c-1.33-3.22-6.95-3.96-10.17-2.62h0c-3.22,1.33-6.67,5.82-5.34,9.05l9.39,17.23c1.33,3.22,5.03,4.75,8.25,3.42Z"/><ellipse class="cls-1" cx="289.59" cy="216.23" rx="18.1" ry="9.34" transform="translate(-60.7 127.28) rotate(-22.5)"/><ellipse class="cls-1" cx="288.79" cy="214.31" rx="18.1" ry="9.34" transform="translate(-60.03 126.83) rotate(-22.5)"/><ellipse class="cls-14" cx="288.79" cy="214.31" rx="8.95" ry="3.12" transform="translate(-60.03 126.83) rotate(-22.5)"/></g><g><path class="cls-3" d="M382.11,439.61h0c3.22-1.33,6.92,.2,8.25,3.42l9.39,17.23c1.33,3.22-2.12,7.71-5.34,9.05h0c-3.22,1.33-8.84,.6-10.17-2.62l-5.55-18.82c-1.33-3.22,.2-6.92,3.42-8.25Z"/><ellipse class="cls-1" cx="392.5" cy="464.7" rx="18.1" ry="9.34" transform="translate(-147.95 185.58) rotate(-22.5)"/><ellipse class="cls-1" cx="393.3" cy="466.62" rx="18.1" ry="9.34" transform="translate(-148.63 186.03) rotate(-22.5)"/><ellipse class="cls-14" cx="393.3" cy="466.62" rx="8.95" ry="3.12" transform="translate(-148.63 186.03) rotate(-22.5)"/></g></g></g><g><rect class="cls-3" x="339.34" y="225.85" width="3.41" height="229.23" transform="translate(156.25 -104.6) rotate(22.5)"/><g><g><path class="cls-3" d="M382.11,241.32h0c3.22,1.33,6.92-.2,8.25-3.42l9.39-17.23c1.33-3.22-2.12-7.71-5.34-9.05h0c-3.22-1.33-8.84-.6-10.17,2.62l-5.55,18.82c-1.33,3.22,.2,6.92,3.42,8.25Z"/><ellipse class="cls-1" cx="392.5" cy="216.23" rx="9.34" ry="18.1" transform="translate(42.53 496.11) rotate(-67.5)"/><ellipse class="cls-1" cx="393.3" cy="214.31" rx="9.34" ry="18.1" transform="translate(44.79 495.66) rotate(-67.5)"/><ellipse class="cls-14" cx="393.3" cy="214.31" rx="3.12" ry="8.95" transform="translate(44.79 495.66) rotate(-67.5)"/></g><g><path class="cls-3" d="M299.98,439.61h0c3.22,1.33,4.75,5.03,3.42,8.25l-5.55,18.82c-1.33,3.22-6.95,3.96-10.17,2.62h0c-3.22-1.33-6.67-5.82-5.34-9.05l9.39-17.23c1.33-3.22,5.03-4.75,8.25-3.42Z"/><ellipse class="cls-1" cx="289.59" cy="464.7" rx="9.34" ry="18.1" transform="translate(-250.56 554.41) rotate(-67.5)"/><ellipse class="cls-1" cx="288.79" cy="466.62" rx="9.34" ry="18.1" transform="translate(-252.82 554.86) rotate(-67.5)"/><ellipse class="cls-14" cx="288.79" cy="466.62" rx="3.12" ry="8.95" transform="translate(-252.82 554.86) rotate(-67.5)"/></g></g></g><g><rect class="cls-3" x="339.34" y="225.85" width="3.41" height="229.23" transform="translate(525.08 -104.91) rotate(67.5)"/><g><g><path class="cls-3" d="M440.19,299.4h0c1.33,3.22,5.03,4.75,8.25,3.42l18.82-5.55c3.22-1.33,3.96-6.95,2.62-10.17h0c-1.33-3.22-5.82-6.67-9.05-5.34l-17.23,9.39c-3.22,1.33-4.75,5.03-3.42,8.25Z"/><ellipse class="cls-1" cx="465.28" cy="289" rx="9.34" ry="18.1" transform="translate(-75.18 200.05) rotate(-22.5)"/><ellipse class="cls-1" cx="467.2" cy="288.21" rx="9.34" ry="18.1" transform="translate(-74.73 200.73) rotate(-22.5)"/><ellipse class="cls-14" cx="467.2" cy="288.21" rx="3.12" ry="8.95" transform="translate(-74.73 200.73) rotate(-22.5)"/></g><g><path class="cls-3" d="M241.9,381.53h0c1.33,3.22-.2,6.92-3.42,8.25l-17.23,9.39c-3.22,1.33-7.71-2.12-9.05-5.34h0c-1.33-3.22-.6-8.84,2.62-10.17l18.82-5.55c3.22-1.33,6.92,.2,8.25,3.42Z"/><ellipse class="cls-1" cx="216.81" cy="391.92" rx="9.34" ry="18.1" transform="translate(-133.48 112.8) rotate(-22.5)"/><ellipse class="cls-1" cx="214.89" cy="392.72" rx="9.34" ry="18.1" transform="translate(-133.93 112.13) rotate(-22.5)"/><ellipse class="cls-14" cx="214.89" cy="392.72" rx="3.12" ry="8.95" transform="translate(-133.93 112.13) rotate(-22.5)"/></g></g></g></g><g><g><g><rect class="cls-3" x="324.68" y="389.33" width="2.99" height="37.16"/><g><path class="cls-3" d="M326.17,421.05h0c1.86,0,3.37,1.51,3.37,3.37l1.11,10.4c0,1.86-2.62,3.37-4.47,3.37h0c-1.86,0-4.47-1.51-4.47-3.37l1.11-10.4c0-1.86,1.51-3.37,3.37-3.37Z"/><g><circle class="cls-9" cx="326.17" cy="442.67" r="12.95"/><g><path class="cls-25" d="M326.17,454.63c-2.91,0-5.28-1.24-5.28-2.77s2.37-2.77,5.28-2.77,5.28,1.24,5.28,2.77-2.37,2.77-5.28,2.77Z"/><path class="cls-26" d="M326.17,449.21c2.85,0,5.15,1.19,5.15,2.65s-2.31,2.65-5.15,2.65-5.15-1.18-5.15-2.65,2.31-2.65,5.15-2.65m0-.25c-3.03,0-5.41,1.27-5.41,2.9s2.37,2.9,5.41,2.9,5.41-1.27,5.41-2.9-2.37-2.9-5.41-2.9h0Z"/></g><g><g class="cls-34"><ellipse class="cls-12" cx="326.17" cy="450.47" rx="5.15" ry="2.65"/></g><ellipse class="cls-2" cx="326.16" cy="451.86" rx="5.15" ry="2.65"/></g></g></g></g><g><rect class="cls-3" x="354.42" y="389.33" width="2.99" height="37.16"/><g><path class="cls-3" d="M355.92,421.05h0c-1.86,0-3.37,1.51-3.37,3.37l-1.11,10.4c0,1.86,2.62,3.37,4.47,3.37h0c1.86,0,4.47-1.51,4.47-3.37l-1.11-10.4c0-1.86-1.51-3.37-3.37-3.37Z"/><g><circle class="cls-9" cx="355.92" cy="442.67" r="12.95"/><g><path class="cls-25" d="M355.92,454.63c-2.91,0-5.28-1.24-5.28-2.77s2.37-2.77,5.28-2.77,5.28,1.24,5.28,2.77-2.37,2.77-5.28,2.77Z"/><path class="cls-26" d="M355.92,449.21c2.85,0,5.15,1.19,5.15,2.65s-2.31,2.65-5.15,2.65-5.15-1.18-5.15-2.65,2.31-2.65,5.15-2.65m0-.25c-3.03,0-5.41,1.27-5.41,2.9s2.37,2.9,5.41,2.9,5.41-1.27,5.41-2.9-2.37-2.9-5.41-2.9h0Z"/></g><g><g class="cls-37"><ellipse class="cls-12" cx="355.92" cy="450.47" rx="5.15" ry="2.65"/></g><ellipse class="cls-2" cx="355.93" cy="451.86" rx="5.15" ry="2.65"/></g></g></g></g></g><g><g><rect class="cls-3" x="324.68" y="254.44" width="2.99" height="37.16"/><g><path class="cls-3" d="M326.17,259.88h0c1.86,0,3.37-1.51,3.37-3.37l1.11-10.4c0-1.86-2.62-3.37-4.47-3.37h0c-1.86,0-4.47,1.51-4.47,3.37l1.11,10.4c0,1.86,1.51,3.37,3.37,3.37Z"/><g><circle class="cls-5" cx="326.17" cy="238.26" r="12.95"/><g><path class="cls-27" d="M326.17,231.84c-2.91,0-5.28-1.24-5.28-2.77s2.37-2.77,5.28-2.77,5.28,1.24,5.28,2.77-2.37,2.77-5.28,2.77Z"/><path class="cls-26" d="M326.17,226.42c2.85,0,5.15,1.19,5.15,2.65s-2.31,2.65-5.15,2.65-5.15-1.18-5.15-2.65,2.31-2.65,5.15-2.65m0-.25c-3.03,0-5.41,1.27-5.41,2.9s2.37,2.9,5.41,2.9,5.41-1.27,5.41-2.9-2.37-2.9-5.41-2.9h0Z"/></g><g><g class="cls-41"><ellipse class="cls-10" cx="326.17" cy="230.46" rx="5.15" ry="2.65"/></g><ellipse class="cls-2" cx="326.16" cy="229.07" rx="5.15" ry="2.65"/></g></g></g></g><g><rect class="cls-3" x="354.42" y="254.44" width="2.99" height="37.16"/><g><path class="cls-3" d="M355.92,259.88h0c-1.86,0-3.37-1.51-3.37-3.37l-1.11-10.4c0-1.86,2.62-3.37,4.47-3.37h0c1.86,0,4.47,1.51,4.47,3.37l-1.11,10.4c0,1.86-1.51,3.37-3.37,3.37Z"/><g><circle class="cls-5" cx="355.92" cy="238.26" r="12.95"/><g><path class="cls-27" d="M355.93,231.84c-2.91,0-5.28-1.24-5.28-2.77s2.37-2.77,5.28-2.77,5.28,1.24,5.28,2.77-2.37,2.77-5.28,2.77Z"/><path class="cls-26" d="M355.93,226.42c2.85,0,5.15,1.19,5.15,2.65s-2.31,2.65-5.15,2.65-5.15-1.18-5.15-2.65,2.31-2.65,5.15-2.65m0-.25c-3.03,0-5.41,1.27-5.41,2.9s2.37,2.9,5.41,2.9,5.41-1.27,5.41-2.9-2.37-2.9-5.41-2.9h0Z"/></g><g><g class="cls-46"><ellipse class="cls-10" cx="355.92" cy="230.46" rx="5.15" ry="2.65"/></g><ellipse class="cls-2" cx="355.93" cy="229.07" rx="5.15" ry="2.65"/></g></g></g></g></g><g><g><rect class="cls-3" x="324.68" y="389.33" width="2.99" height="37.16"/><g><path class="cls-3" d="M326.17,421.05h0c1.86,0,3.37,1.51,3.37,3.37l1.11,10.4c0,1.86-2.62,3.37-4.47,3.37h0c-1.86,0-4.47-1.51-4.47-3.37l1.11-10.4c0-1.86,1.51-3.37,3.37-3.37Z"/><g><circle class="cls-5" cx="326.17" cy="442.67" r="12.95"/><g><path class="cls-27" d="M326.17,454.63c-2.91,0-5.28-1.24-5.28-2.77s2.37-2.77,5.28-2.77,5.28,1.24,5.28,2.77-2.37,2.77-5.28,2.77Z"/><path class="cls-26" d="M326.17,449.21c2.85,0,5.15,1.19,5.15,2.65s-2.31,2.65-5.15,2.65-5.15-1.18-5.15-2.65,2.31-2.65,5.15-2.65m0-.25c-3.03,0-5.41,1.27-5.41,2.9s2.37,2.9,5.41,2.9,5.41-1.27,5.41-2.9-2.37-2.9-5.41-2.9h0Z"/></g><g><g class="cls-40"><ellipse class="cls-10" cx="326.17" cy="450.47" rx="5.15" ry="2.65"/></g><ellipse class="cls-2" cx="326.16" cy="451.86" rx="5.15" ry="2.65"/></g></g></g></g><g><rect class="cls-3" x="354.42" y="389.33" width="2.99" height="37.16"/><g><path class="cls-3" d="M355.92,421.05h0c-1.86,0-3.37,1.51-3.37,3.37l-1.11,10.4c0,1.86,2.62,3.37,4.47,3.37h0c1.86,0,4.47-1.51,4.47-3.37l-1.11-10.4c0-1.86-1.51-3.37-3.37-3.37Z"/><g><circle class="cls-5" cx="355.92" cy="442.67" r="12.95"/><g><path class="cls-27" d="M355.93,454.63c-2.91,0-5.28-1.24-5.28-2.77s2.37-2.77,5.28-2.77,5.28,1.24,5.28,2.77-2.37,2.77-5.28,2.77Z"/><path class="cls-26" d="M355.93,449.21c2.85,0,5.15,1.19,5.15,2.65s-2.31,2.65-5.15,2.65-5.15-1.18-5.15-2.65,2.31-2.65,5.15-2.65m0-.25c-3.03,0-5.41,1.27-5.41,2.9s2.37,2.9,5.41,2.9,5.41-1.27,5.41-2.9-2.37-2.9-5.41-2.9h0Z"/></g><g><g class="cls-39"><ellipse class="cls-10" cx="355.92" cy="450.47" rx="5.15" ry="2.65"/></g><ellipse class="cls-2" cx="355.93" cy="451.86" rx="5.15" ry="2.65"/></g></g></g></g></g></g><g><g><g><rect class="cls-3" x="255.02" y="324.1" width="37.16" height="2.99"/><g><path class="cls-3" d="M260.46,325.59h0c0,1.86-1.51,3.37-3.37,3.37l-10.4,1.11c-1.86,0-3.37-2.62-3.37-4.47h0c0-1.86,1.51-4.47,3.37-4.47l10.4,1.11c1.86,0,3.37,1.51,3.37,3.37Z"/><g><circle class="cls-9" cx="238.84" cy="325.59" r="12.95"/><g><path class="cls-25" d="M229.65,330.87c-1.53,0-2.77-2.37-2.77-5.28s1.24-5.28,2.77-5.28,2.77,2.37,2.77,5.28-1.24,5.28-2.77,5.28Z"/><path class="cls-26" d="M229.65,320.44c1.46,0,2.65,2.31,2.65,5.15s-1.18,5.15-2.65,5.15-2.65-2.31-2.65-5.15,1.18-5.15,2.65-5.15m0-.25c-1.63,0-2.9,2.38-2.9,5.41s1.27,5.41,2.9,5.41,2.9-2.38,2.9-5.41-1.27-5.41-2.9-5.41h0Z"/></g><g><g class="cls-38"><ellipse class="cls-12" cx="231.04" cy="325.59" rx="2.65" ry="5.15"/></g><ellipse class="cls-2" cx="229.65" cy="325.58" rx="2.65" ry="5.15"/></g></g></g></g><g><rect class="cls-3" x="255.02" y="353.84" width="37.16" height="2.99"/><g><path class="cls-3" d="M260.46,355.33h0c0-1.86-1.51-3.37-3.37-3.37l-10.4-1.11c-1.86,0-3.37,2.62-3.37,4.47h0c0,1.86,1.51,4.47,3.37,4.47l10.4-1.11c1.86,0,3.37-1.51,3.37-3.37Z"/><g><circle class="cls-9" cx="238.84" cy="355.33" r="12.95"/><g><path class="cls-25" d="M229.65,360.61c-1.53,0-2.77-2.37-2.77-5.28s1.24-5.28,2.77-5.28,2.77,2.37,2.77,5.28-1.24,5.28-2.77,5.28Z"/><path class="cls-26" d="M229.65,350.18c1.46,0,2.65,2.31,2.65,5.15s-1.18,5.15-2.65,5.15-2.65-2.31-2.65-5.15,1.18-5.15,2.65-5.15m0-.25c-1.63,0-2.9,2.38-2.9,5.41s1.27,5.41,2.9,5.41,2.9-2.38,2.9-5.41-1.27-5.41-2.9-5.41h0Z"/></g><g><g class="cls-42"><ellipse class="cls-12" cx="231.04" cy="355.33" rx="2.65" ry="5.15"/></g><ellipse class="cls-2" cx="229.65" cy="355.35" rx="2.65" ry="5.15"/></g></g></g></g></g><g><g><rect class="cls-3" x="389.91" y="324.1" width="37.16" height="2.99"/><g><path class="cls-3" d="M421.63,325.59h0c0,1.86,1.51,3.37,3.37,3.37l10.4,1.11c1.86,0,3.37-2.62,3.37-4.47h0c0-1.86-1.51-4.47-3.37-4.47l-10.4,1.11c-1.86,0-3.37,1.51-3.37,3.37Z"/><g><circle class="cls-5" cx="443.25" cy="325.59" r="12.95"/><g><path class="cls-27" d="M452.44,330.87c-1.53,0-2.77-2.37-2.77-5.28s1.24-5.28,2.77-5.28,2.77,2.37,2.77,5.28-1.24,5.28-2.77,5.28Z"/><path class="cls-26" d="M452.44,320.44c1.46,0,2.65,2.31,2.65,5.15s-1.18,5.15-2.65,5.15-2.65-2.31-2.65-5.15,1.18-5.15,2.65-5.15m0-.25c-1.63,0-2.9,2.38-2.9,5.41s1.27,5.41,2.9,5.41,2.9-2.38,2.9-5.41-1.27-5.41-2.9-5.41h0Z"/></g><g><g class="cls-44"><ellipse class="cls-10" cx="451.05" cy="325.59" rx="2.65" ry="5.15"/></g><ellipse class="cls-2" cx="452.44" cy="325.58" rx="2.65" ry="5.15"/></g></g></g></g><g><rect class="cls-3" x="389.91" y="353.84" width="37.16" height="2.99"/><g><path class="cls-3" d="M421.63,355.33h0c0-1.86,1.51-3.37,3.37-3.37l10.4-1.11c1.86,0,3.37,2.62,3.37,4.47h0c0,1.86-1.51,4.47-3.37,4.47l-10.4-1.11c-1.86,0-3.37-1.51-3.37-3.37Z"/><g><circle class="cls-5" cx="443.25" cy="355.33" r="12.95"/><g><path class="cls-27" d="M452.44,360.61c-1.53,0-2.77-2.37-2.77-5.28s1.24-5.28,2.77-5.28,2.77,2.37,2.77,5.28-1.24,5.28-2.77,5.28Z"/><path class="cls-26" d="M452.44,350.18c1.46,0,2.65,2.31,2.65,5.15s-1.18,5.15-2.65,5.15-2.65-2.31-2.65-5.15,1.18-5.15,2.65-5.15m0-.25c-1.63,0-2.9,2.38-2.9,5.41s1.27,5.41,2.9,5.41,2.9-2.38,2.9-5.41-1.27-5.41-2.9-5.41h0Z"/></g><g><g class="cls-43"><ellipse class="cls-10" cx="451.05" cy="355.33" rx="2.65" ry="5.15"/></g><ellipse class="cls-2" cx="452.44" cy="355.35" rx="2.65" ry="5.15"/></g></g></g></g></g><g><g><rect class="cls-3" x="255.02" y="324.05" width="37.16" height="2.99"/><g><path class="cls-3" d="M260.46,325.54h0c0,1.86-1.51,3.37-3.37,3.37l-10.4,1.11c-1.86,0-3.37-2.62-3.37-4.47h0c0-1.86,1.51-4.47,3.37-4.47l10.4,1.11c1.86,0,3.37,1.51,3.37,3.37Z"/><g><circle class="cls-5" cx="238.84" cy="325.54" r="12.95"/><g><path class="cls-27" d="M229.65,330.82c-1.53,0-2.77-2.37-2.77-5.28s1.24-5.28,2.77-5.28,2.77,2.37,2.77,5.28-1.24,5.28-2.77,5.28Z"/><path class="cls-26" d="M229.65,320.39c1.46,0,2.65,2.31,2.65,5.15s-1.18,5.15-2.65,5.15-2.65-2.31-2.65-5.15,1.18-5.15,2.65-5.15m0-.25c-1.63,0-2.9,2.38-2.9,5.41s1.27,5.41,2.9,5.41,2.9-2.38,2.9-5.41-1.27-5.41-2.9-5.41h0Z"/></g><g><g class="cls-47"><ellipse class="cls-10" cx="231.04" cy="325.54" rx="2.65" ry="5.15"/></g><ellipse class="cls-2" cx="229.65" cy="325.53" rx="2.65" ry="5.15"/></g></g></g></g><g><rect class="cls-3" x="255.02" y="353.79" width="37.16" height="2.99"/><g><path class="cls-3" d="M260.46,355.28h0c0-1.86-1.51-3.37-3.37-3.37l-10.4-1.11c-1.86,0-3.37,2.62-3.37,4.47h0c0,1.86,1.51,4.47,3.37,4.47l10.4-1.11c1.86,0,3.37-1.51,3.37-3.37Z"/><g><circle class="cls-5" cx="238.84" cy="355.28" r="12.95"/><g><path class="cls-27" d="M229.65,360.56c-1.53,0-2.77-2.37-2.77-5.28s1.24-5.28,2.77-5.28,2.77,2.37,2.77,5.28-1.24,5.28-2.77,5.28Z"/><path class="cls-26" d="M229.65,350.13c1.46,0,2.65,2.31,2.65,5.15s-1.18,5.15-2.65,5.15-2.65-2.31-2.65-5.15,1.18-5.15,2.65-5.15m0-.25c-1.63,0-2.9,2.38-2.9,5.41s1.27,5.41,2.9,5.41,2.9-2.38,2.9-5.41-1.27-5.41-2.9-5.41h0Z"/></g><g><g class="cls-45"><ellipse class="cls-10" cx="231.04" cy="355.28" rx="2.65" ry="5.15"/></g><ellipse class="cls-2" cx="229.65" cy="355.3" rx="2.65" ry="5.15"/></g></g></g></g></g></g><polygon class="cls-13" points="365.55 337.61 343.9 337.61 343.9 315.96 338.19 315.96 338.19 337.61 316.54 337.61 316.54 343.32 338.19 343.32 338.19 364.97 343.9 364.97 343.9 343.32 365.55 343.32 365.55 337.61"/><g><g><path class="cls-3" d="M341.05,326.75h0c-3.78,0-6.84-3.06-6.84-6.84l-2.25-21.15c0-3.78,5.32-6.84,9.1-6.84h0c3.78,0,9.1,3.06,9.1,6.84l-2.25,21.15c0,3.78-3.06,6.84-6.84,6.84Z"/><g><path class="cls-28" d="M365.76,291.86c13.94,13.18-3.36,23.86-24.71,15.26-21.35,8.61-38.65-2.08-24.71-15.26-13.94-13.18,3.36-23.86,24.71-15.26,21.35-8.61,38.65,2.08,24.71,15.26Z"/><path class="cls-8" d="M365.76,291.86c13.94,13.18-3.36,23.86-24.71,15.26-21.35,8.61-38.65-2.08-24.71-15.26-13.94-13.18,3.36-23.86,24.71-15.26,21.35-8.61,38.65,2.08,24.71,15.26Z"/></g><g><path class="cls-24" d="M365.76,288.08c13.94,13.18-3.36,23.86-24.71,15.26-21.35,8.61-38.65-2.08-24.71-15.26-13.94-13.18,3.36-23.86,24.71-15.26,21.35-8.61,38.65,2.08,24.71,15.26Z"/><path class="cls-8" d="M365.76,288.08c13.94,13.18-3.36,23.86-24.71,15.26-21.35,8.61-38.65-2.08-24.71-15.26-13.94-13.18,3.36-23.86,24.71-15.26,21.35-8.61,38.65,2.08,24.71,15.26Z"/></g><ellipse class="cls-15" cx="341.05" cy="287.06" rx="12.68" ry="4.85"/></g><g><path class="cls-3" d="M341.05,354.18h0c3.78,0,6.84,3.06,6.84,6.84l2.25,21.15c0,3.78-5.32,6.84-9.1,6.84h0c-3.78,0-9.1-3.06-9.1-6.84l2.25-21.15c0-3.78,3.06-6.84,6.84-6.84Z"/><g><path class="cls-28" d="M316.33,389.07c-13.94-13.18,3.36-23.86,24.71-15.26,21.35-8.61,38.65,2.08,24.71,15.26,13.94,13.18-3.36,23.86-24.71,15.26-21.35,8.61-38.65-2.08-24.71-15.26Z"/><path class="cls-8" d="M316.33,389.07c-13.94-13.18,3.36-23.86,24.71-15.26,21.35-8.61,38.65,2.08,24.71,15.26,13.94,13.18-3.36,23.86-24.71,15.26-21.35,8.61-38.65-2.08-24.71-15.26Z"/></g><g><path class="cls-24" d="M316.33,392.85c-13.94-13.18,3.36-23.86,24.71-15.26,21.35-8.61,38.65,2.08,24.71,15.26,13.94,13.18-3.36,23.86-24.71,15.26-21.35,8.61-38.65-2.08-24.71-15.26Z"/><path class="cls-8" d="M316.33,392.85c-13.94-13.18,3.36-23.86,24.71-15.26,21.35-8.61,38.65,2.08,24.71,15.26,13.94,13.18-3.36,23.86-24.71,15.26-21.35,8.61-38.65-2.08-24.71-15.26Z"/></g><ellipse class="cls-15" cx="341.05" cy="393.86" rx="12.68" ry="4.85"/></g><g><path class="cls-3" d="M355.09,340.46h0c0-3.78,3.06-6.84,6.84-6.84l21.15-2.25c3.78,0,6.84,5.32,6.84,9.1h0c0,3.78-3.06,9.1-6.84,9.1l-21.15-2.25c-3.78,0-6.84-3.06-6.84-6.84Z"/><g><path class="cls-28" d="M389.98,365.17c-13.18,13.94-23.86-3.36-15.26-24.71-8.61-21.35,2.08-38.65,15.26-24.71,13.18-13.94,23.86,3.36,15.26,24.71,8.61,21.35-2.08,38.65-15.26,24.71Z"/><path class="cls-8" d="M389.98,365.17c-13.18,13.94-23.86-3.36-15.26-24.71-8.61-21.35,2.08-38.65,15.26-24.71,13.18-13.94,23.86,3.36,15.26,24.71,8.61,21.35-2.08,38.65-15.26,24.71Z"/></g><g><path class="cls-24" d="M393.76,365.17c-13.18,13.94-23.86-3.36-15.26-24.71-8.61-21.35,2.08-38.65,15.26-24.71,13.18-13.94,23.86,3.36,15.26,24.71,8.61,21.35-2.08,38.65-15.26,24.71Z"/><path class="cls-8" d="M393.76,365.17c-13.18,13.94-23.86-3.36-15.26-24.71-8.61-21.35,2.08-38.65,15.26-24.71,13.18-13.94,23.86,3.36,15.26,24.71,8.61,21.35-2.08,38.65-15.26,24.71Z"/></g><ellipse class="cls-15" cx="394.77" cy="340.46" rx="4.85" ry="12.68"/></g><g><path class="cls-3" d="M327,340.46h0c0,3.78-3.06,6.84-6.84,6.84l-21.15,2.25c-3.78,0-6.84-5.32-6.84-9.1h0c0-3.78,3.06-9.1,6.84-9.1l21.15,2.25c3.78,0,6.84,3.06,6.84,6.84Z"/><g><path class="cls-28" d="M292.11,315.75c13.18-13.94,23.86,3.36,15.26,24.71,8.61,21.35-2.08,38.65-15.26,24.71-13.18,13.94-23.86-3.36-15.26-24.71-8.61-21.35,2.08-38.65,15.26-24.71Z"/><path class="cls-8" d="M292.11,315.75c13.18-13.94,23.86,3.36,15.26,24.71,8.61,21.35-2.08,38.65-15.26,24.71-13.18,13.94-23.86-3.36-15.26-24.71-8.61-21.35,2.08-38.65,15.26-24.71Z"/></g><g><path class="cls-24" d="M288.33,315.75c13.18-13.94,23.86,3.36,15.26,24.71,8.61,21.35-2.08,38.65-15.26,24.71-13.18,13.94-23.86-3.36-15.26-24.71-8.61-21.35,2.08-38.65,15.26-24.71Z"/><path class="cls-8" d="M288.33,315.75c13.18-13.94,23.86,3.36,15.26,24.71,8.61,21.35-2.08,38.65-15.26,24.71-13.18,13.94-23.86-3.36-15.26-24.71-8.61-21.35,2.08-38.65,15.26-24.71Z"/></g><ellipse class="cls-15" cx="287.32" cy="340.46" rx="4.85" ry="12.68"/></g></g><g><g><path class="cls-22" d="M358.53,340.46c4.77,12.29-5.2,22.26-17.49,17.49-12.29,4.77-22.26-5.2-17.49-17.49-4.77-12.29,5.2-22.26,17.49-17.49,12.29-4.77,22.26,5.2,17.49,17.49Z"/><path class="cls-8" d="M358.53,340.46c4.77,12.29-5.2,22.26-17.49,17.49-12.29,4.77-22.26-5.2-17.49-17.49-4.77-12.29,5.2-22.26,17.49-17.49,12.29-4.77,22.26,5.2,17.49,17.49Z"/></g><circle class="cls-4" cx="341.05" cy="340.46" r="5.72"/></g></g></g></svg>